<svg width="266" height="148" viewBox="0 0 266 148" fill="none" xmlns="http://www.w3.org/2000/svg">
<g clip-path="url(#clip0_3129_3606)">
<rect width="266" height="148" rx="9" fill="url(#paint0_linear_3129_3606)"/>
<path opacity="0.5" d="M246.798 83.641C253.86 83.641 259.503 85.489 263.727 89.185C268.017 92.881 270.162 98.095 270.162 104.827C270.162 111.031 268.116 115.882 264.024 119.38C259.998 122.812 254.652 124.561 247.986 124.627L247.491 132.052H232.641L232.146 113.638H238.086C243.168 113.638 247.029 113.011 249.669 111.757C252.375 110.503 253.728 108.226 253.728 104.926C253.728 102.616 253.101 100.801 251.847 99.481C250.593 98.161 248.844 97.501 246.6 97.501C244.224 97.501 242.376 98.194 241.056 99.58C239.736 100.9 239.076 102.715 239.076 105.025H223.137C223.005 100.999 223.83 97.369 225.612 94.135C227.46 90.901 230.166 88.36 233.73 86.512C237.36 84.598 241.716 83.641 246.798 83.641ZM240.264 157.792C237.294 157.792 234.852 156.934 232.938 155.218C231.09 153.436 230.166 151.258 230.166 148.684C230.166 146.044 231.09 143.833 232.938 142.051C234.852 140.269 237.294 139.378 240.264 139.378C243.168 139.378 245.544 140.269 247.392 142.051C249.306 143.833 250.263 146.044 250.263 148.684C250.263 151.258 249.306 153.436 247.392 155.218C245.544 156.934 243.168 157.792 240.264 157.792Z" fill="white"/>
</g>
<defs>
<linearGradient id="paint0_linear_3129_3606" x1="-1.17067e-07" y1="74.3645" x2="267.898" y2="71.9878" gradientUnits="userSpaceOnUse">
<stop stop-color="#FF396A"/>
<stop offset="1" stop-color="#FFB0C4"/>
</linearGradient>
<clipPath id="clip0_3129_3606">
<rect width="266" height="148" rx="9" fill="white"/>
</clipPath>
</defs>
</svg>
