<svg width="24" height="24" viewBox="0 0 24 24" fill="none" xmlns="http://www.w3.org/2000/svg">
<path d="M18 7.99951C18 6.40821 17.3679 4.88209 16.2426 3.75687C15.1174 2.63165 13.5913 1.99951 12 1.99951C10.4087 1.99951 8.88258 2.63165 7.75736 3.75687C6.63214 4.88209 6 6.40821 6 7.99951C6 14.9995 3 16.9995 3 16.9995H21C21 16.9995 18 14.9995 18 7.99951Z" stroke="#F0F0F0" stroke-width="2" stroke-linecap="round" stroke-linejoin="round"/>
<path d="M13.73 21C13.5542 21.3031 13.3019 21.5547 12.9982 21.7295C12.6946 21.9044 12.3504 21.9965 12 21.9965C11.6496 21.9965 11.3054 21.9044 11.0018 21.7295C10.6982 21.5547 10.4458 21.3031 10.27 21" stroke="#F0F0F0" stroke-width="2" stroke-linecap="round" stroke-linejoin="round"/>
</svg>
