<svg width="350" height="186" viewBox="0 0 350 186" fill="none" xmlns="http://www.w3.org/2000/svg">
<rect width="350" height="186" rx="10" fill="url(#paint0_linear_1805_823)"/>
<path d="M39.2653 47.83V50.386H43.3873V52.762H39.2653V55.534H43.9273V58H36.1873V45.364H43.9273V47.83H39.2653ZM50.4436 55.12L52.6216 47.956H55.8976L52.3336 58H48.5356L44.9716 47.956H48.2656L50.4436 55.12ZM66.6611 52.816C66.6611 53.104 66.6431 53.404 66.6071 53.716H59.6411C59.6891 54.34 59.8871 54.82 60.2351 55.156C60.5951 55.48 61.0331 55.642 61.5491 55.642C62.3171 55.642 62.8511 55.318 63.1511 54.67H66.4271C66.2591 55.33 65.9531 55.924 65.5091 56.452C65.0771 56.98 64.5311 57.394 63.8711 57.694C63.2111 57.994 62.4731 58.144 61.6571 58.144C60.6731 58.144 59.7971 57.934 59.0291 57.514C58.2611 57.094 57.6611 56.494 57.2291 55.714C56.7971 54.934 56.5811 54.022 56.5811 52.978C56.5811 51.934 56.7911 51.022 57.2111 50.242C57.6431 49.462 58.2431 48.862 59.0111 48.442C59.7791 48.022 60.6611 47.812 61.6571 47.812C62.6291 47.812 63.4931 48.016 64.2491 48.424C65.0051 48.832 65.5931 49.414 66.0131 50.17C66.4451 50.926 66.6611 51.808 66.6611 52.816ZM63.5111 52.006C63.5111 51.478 63.3311 51.058 62.9711 50.746C62.6111 50.434 62.1611 50.278 61.6211 50.278C61.1051 50.278 60.6671 50.428 60.3071 50.728C59.9591 51.028 59.7431 51.454 59.6591 52.006H63.5111ZM71.3629 49.63C71.7229 49.078 72.1729 48.646 72.7129 48.334C73.2529 48.01 73.8529 47.848 74.5129 47.848V51.106H73.6669C72.8989 51.106 72.3229 51.274 71.9389 51.61C71.5549 51.934 71.3629 52.51 71.3629 53.338V58H68.2849V47.956H71.3629V49.63ZM86.2442 47.956L79.9442 62.77H76.6322L78.9362 57.658L74.8502 47.956H78.2882L80.6102 54.238L82.9142 47.956H86.2442ZM91.9292 58.144C90.9452 58.144 90.0572 57.934 89.2652 57.514C88.4852 57.094 87.8672 56.494 87.4112 55.714C86.9672 54.934 86.7452 54.022 86.7452 52.978C86.7452 51.946 86.9732 51.04 87.4292 50.26C87.8852 49.468 88.5092 48.862 89.3012 48.442C90.0932 48.022 90.9812 47.812 91.9652 47.812C92.9492 47.812 93.8372 48.022 94.6292 48.442C95.4212 48.862 96.0452 49.468 96.5012 50.26C96.9572 51.04 97.1852 51.946 97.1852 52.978C97.1852 54.01 96.9512 54.922 96.4832 55.714C96.0272 56.494 95.3972 57.094 94.5932 57.514C93.8012 57.934 92.9132 58.144 91.9292 58.144ZM91.9292 55.48C92.5172 55.48 93.0152 55.264 93.4232 54.832C93.8432 54.4 94.0532 53.782 94.0532 52.978C94.0532 52.174 93.8492 51.556 93.4412 51.124C93.0452 50.692 92.5532 50.476 91.9652 50.476C91.3652 50.476 90.8672 50.692 90.4712 51.124C90.0752 51.544 89.8772 52.162 89.8772 52.978C89.8772 53.782 90.0692 54.4 90.4532 54.832C90.8492 55.264 91.3412 55.48 91.9292 55.48ZM104.938 47.848C106.114 47.848 107.05 48.232 107.746 49C108.454 49.756 108.808 50.8 108.808 52.132V58H105.748V52.546C105.748 51.874 105.574 51.352 105.226 50.98C104.878 50.608 104.41 50.422 103.822 50.422C103.234 50.422 102.766 50.608 102.418 50.98C102.07 51.352 101.896 51.874 101.896 52.546V58H98.8181V47.956H101.896V49.288C102.208 48.844 102.628 48.496 103.156 48.244C103.684 47.98 104.278 47.848 104.938 47.848ZM120.415 52.816C120.415 53.104 120.397 53.404 120.361 53.716H113.395C113.443 54.34 113.641 54.82 113.989 55.156C114.349 55.48 114.787 55.642 115.303 55.642C116.071 55.642 116.605 55.318 116.905 54.67H120.181C120.013 55.33 119.707 55.924 119.263 56.452C118.831 56.98 118.285 57.394 117.625 57.694C116.965 57.994 116.227 58.144 115.411 58.144C114.427 58.144 113.551 57.934 112.783 57.514C112.015 57.094 111.415 56.494 110.983 55.714C110.551 54.934 110.335 54.022 110.335 52.978C110.335 51.934 110.545 51.022 110.965 50.242C111.397 49.462 111.997 48.862 112.765 48.442C113.533 48.022 114.415 47.812 115.411 47.812C116.383 47.812 117.247 48.016 118.003 48.424C118.759 48.832 119.347 49.414 119.767 50.17C120.199 50.926 120.415 51.808 120.415 52.816ZM117.265 52.006C117.265 51.478 117.085 51.058 116.725 50.746C116.365 50.434 115.915 50.278 115.375 50.278C114.859 50.278 114.421 50.428 114.061 50.728C113.713 51.028 113.497 51.454 113.413 52.006H117.265ZM132.027 47.848C133.179 47.848 134.103 48.232 134.799 49C135.495 49.756 135.843 50.8 135.843 52.132V58H132.783V52.546C132.783 51.874 132.609 51.352 132.261 50.98C131.913 50.608 131.445 50.422 130.857 50.422C130.269 50.422 129.801 50.608 129.453 50.98C129.105 51.352 128.931 51.874 128.931 52.546V58H125.853V44.68H128.931V49.306C129.243 48.862 129.669 48.508 130.209 48.244C130.749 47.98 131.355 47.848 132.027 47.848ZM137.37 52.96C137.37 51.928 137.562 51.022 137.946 50.242C138.342 49.462 138.876 48.862 139.548 48.442C140.22 48.022 140.97 47.812 141.798 47.812C142.506 47.812 143.124 47.956 143.652 48.244C144.192 48.532 144.606 48.91 144.894 49.378V47.956H147.972V58H144.894V56.578C144.594 57.046 144.174 57.424 143.634 57.712C143.106 58 142.488 58.144 141.78 58.144C140.964 58.144 140.22 57.934 139.548 57.514C138.876 57.082 138.342 56.476 137.946 55.696C137.562 54.904 137.37 53.992 137.37 52.96ZM144.894 52.978C144.894 52.21 144.678 51.604 144.246 51.16C143.826 50.716 143.31 50.494 142.698 50.494C142.086 50.494 141.564 50.716 141.132 51.16C140.712 51.592 140.502 52.192 140.502 52.96C140.502 53.728 140.712 54.34 141.132 54.796C141.564 55.24 142.086 55.462 142.698 55.462C143.31 55.462 143.826 55.24 144.246 54.796C144.678 54.352 144.894 53.746 144.894 52.978ZM154.285 58.144C153.409 58.144 152.629 57.994 151.945 57.694C151.261 57.394 150.721 56.986 150.325 56.47C149.929 55.942 149.707 55.354 149.659 54.706H152.701C152.737 55.054 152.899 55.336 153.187 55.552C153.475 55.768 153.829 55.876 154.249 55.876C154.633 55.876 154.927 55.804 155.131 55.66C155.347 55.504 155.455 55.306 155.455 55.066C155.455 54.778 155.305 54.568 155.005 54.436C154.705 54.292 154.219 54.136 153.547 53.968C152.827 53.8 152.227 53.626 151.747 53.446C151.267 53.254 150.853 52.96 150.505 52.564C150.157 52.156 149.983 51.61 149.983 50.926C149.983 50.35 150.139 49.828 150.451 49.36C150.775 48.88 151.243 48.502 151.855 48.226C152.479 47.95 153.217 47.812 154.069 47.812C155.329 47.812 156.319 48.124 157.039 48.748C157.771 49.372 158.191 50.2 158.299 51.232H155.455C155.407 50.884 155.251 50.608 154.987 50.404C154.735 50.2 154.399 50.098 153.979 50.098C153.619 50.098 153.343 50.17 153.151 50.314C152.959 50.446 152.863 50.632 152.863 50.872C152.863 51.16 153.013 51.376 153.313 51.52C153.625 51.664 154.105 51.808 154.753 51.952C155.497 52.144 156.103 52.336 156.571 52.528C157.039 52.708 157.447 53.008 157.795 53.428C158.155 53.836 158.341 54.388 158.353 55.084C158.353 55.672 158.185 56.2 157.849 56.668C157.525 57.124 157.051 57.484 156.427 57.748C155.815 58.012 155.101 58.144 154.285 58.144ZM163.439 52.96C163.439 51.928 163.631 51.022 164.015 50.242C164.411 49.462 164.945 48.862 165.617 48.442C166.289 48.022 167.039 47.812 167.867 47.812C168.575 47.812 169.193 47.956 169.721 48.244C170.261 48.532 170.675 48.91 170.963 49.378V47.956H174.041V58H170.963V56.578C170.663 57.046 170.243 57.424 169.703 57.712C169.175 58 168.557 58.144 167.849 58.144C167.033 58.144 166.289 57.934 165.617 57.514C164.945 57.082 164.411 56.476 164.015 55.696C163.631 54.904 163.439 53.992 163.439 52.96ZM170.963 52.978C170.963 52.21 170.747 51.604 170.315 51.16C169.895 50.716 169.379 50.494 168.767 50.494C168.155 50.494 167.633 50.716 167.201 51.16C166.781 51.592 166.571 52.192 166.571 52.96C166.571 53.728 166.781 54.34 167.201 54.796C167.633 55.24 168.155 55.462 168.767 55.462C169.379 55.462 169.895 55.24 170.315 54.796C170.747 54.352 170.963 53.746 170.963 52.978ZM184.168 58.144C183.292 58.144 182.512 57.994 181.828 57.694C181.144 57.394 180.604 56.986 180.208 56.47C179.812 55.942 179.59 55.354 179.542 54.706H182.584C182.62 55.054 182.782 55.336 183.07 55.552C183.358 55.768 183.712 55.876 184.132 55.876C184.516 55.876 184.81 55.804 185.014 55.66C185.23 55.504 185.338 55.306 185.338 55.066C185.338 54.778 185.188 54.568 184.888 54.436C184.588 54.292 184.102 54.136 183.43 53.968C182.71 53.8 182.11 53.626 181.63 53.446C181.15 53.254 180.736 52.96 180.388 52.564C180.04 52.156 179.866 51.61 179.866 50.926C179.866 50.35 180.022 49.828 180.334 49.36C180.658 48.88 181.126 48.502 181.738 48.226C182.362 47.95 183.1 47.812 183.952 47.812C185.212 47.812 186.202 48.124 186.922 48.748C187.654 49.372 188.074 50.2 188.182 51.232H185.338C185.29 50.884 185.134 50.608 184.87 50.404C184.618 50.2 184.282 50.098 183.862 50.098C183.502 50.098 183.226 50.17 183.034 50.314C182.842 50.446 182.746 50.632 182.746 50.872C182.746 51.16 182.896 51.376 183.196 51.52C183.508 51.664 183.988 51.808 184.636 51.952C185.38 52.144 185.986 52.336 186.454 52.528C186.922 52.708 187.33 53.008 187.678 53.428C188.038 53.836 188.224 54.388 188.236 55.084C188.236 55.672 188.068 56.2 187.732 56.668C187.408 57.124 186.934 57.484 186.31 57.748C185.698 58.012 184.984 58.144 184.168 58.144ZM195.717 55.39V58H194.151C193.035 58 192.165 57.73 191.541 57.19C190.917 56.638 190.605 55.744 190.605 54.508V50.512H189.381V47.956H190.605V45.508H193.683V47.956H195.699V50.512H193.683V54.544C193.683 54.844 193.755 55.06 193.899 55.192C194.043 55.324 194.283 55.39 194.619 55.39H195.717ZM202.003 58.144C201.019 58.144 200.131 57.934 199.339 57.514C198.559 57.094 197.941 56.494 197.485 55.714C197.041 54.934 196.819 54.022 196.819 52.978C196.819 51.946 197.047 51.04 197.503 50.26C197.959 49.468 198.583 48.862 199.375 48.442C200.167 48.022 201.055 47.812 202.039 47.812C203.023 47.812 203.911 48.022 204.703 48.442C205.495 48.862 206.119 49.468 206.575 50.26C207.031 51.04 207.259 51.946 207.259 52.978C207.259 54.01 207.025 54.922 206.557 55.714C206.101 56.494 205.471 57.094 204.667 57.514C203.875 57.934 202.987 58.144 202.003 58.144ZM202.003 55.48C202.591 55.48 203.089 55.264 203.497 54.832C203.917 54.4 204.127 53.782 204.127 52.978C204.127 52.174 203.923 51.556 203.515 51.124C203.119 50.692 202.627 50.476 202.039 50.476C201.439 50.476 200.941 50.692 200.545 51.124C200.149 51.544 199.951 52.162 199.951 52.978C199.951 53.782 200.143 54.4 200.527 54.832C200.923 55.264 201.415 55.48 202.003 55.48ZM211.97 49.63C212.33 49.078 212.78 48.646 213.32 48.334C213.86 48.01 214.46 47.848 215.12 47.848V51.106H214.274C213.506 51.106 212.93 51.274 212.546 51.61C212.162 51.934 211.97 52.51 211.97 53.338V58H208.892V47.956H211.97V49.63ZM226.852 47.956L220.552 62.77H217.24L219.544 57.658L215.458 47.956H218.896L221.218 54.238L223.522 47.956H226.852ZM229.405 58.144C228.865 58.144 228.421 57.988 228.073 57.676C227.737 57.352 227.569 56.956 227.569 56.488C227.569 56.008 227.737 55.606 228.073 55.282C228.421 54.958 228.865 54.796 229.405 54.796C229.933 54.796 230.365 54.958 230.701 55.282C231.049 55.606 231.223 56.008 231.223 56.488C231.223 56.956 231.049 57.352 230.701 57.676C230.365 57.988 229.933 58.144 229.405 58.144ZM64.9308 72.364L61.6368 85H57.9108L55.8948 76.684L53.8068 85H50.0808L46.8768 72.364H50.1708L51.9888 81.562L54.2388 72.364H57.6228L59.7828 81.562L61.6188 72.364H64.9308ZM72.6484 74.848C73.8004 74.848 74.7244 75.232 75.4204 76C76.1164 76.756 76.4644 77.8 76.4644 79.132V85H73.4044V79.546C73.4044 78.874 73.2304 78.352 72.8824 77.98C72.5344 77.608 72.0664 77.422 71.4784 77.422C70.8904 77.422 70.4224 77.608 70.0744 77.98C69.7264 78.352 69.5524 78.874 69.5524 79.546V85H66.4744V71.68H69.5524V76.306C69.8644 75.862 70.2904 75.508 70.8304 75.244C71.3704 74.98 71.9764 74.848 72.6484 74.848ZM77.9913 79.96C77.9913 78.928 78.1833 78.022 78.5673 77.242C78.9633 76.462 79.4973 75.862 80.1693 75.442C80.8413 75.022 81.5913 74.812 82.4193 74.812C83.1273 74.812 83.7453 74.956 84.2733 75.244C84.8133 75.532 85.2273 75.91 85.5153 76.378V74.956H88.5933V85H85.5153V83.578C85.2153 84.046 84.7953 84.424 84.2553 84.712C83.7273 85 83.1093 85.144 82.4013 85.144C81.5853 85.144 80.8413 84.934 80.1693 84.514C79.4973 84.082 78.9633 83.476 78.5673 82.696C78.1833 81.904 77.9913 80.992 77.9913 79.96ZM85.5153 79.978C85.5153 79.21 85.2993 78.604 84.8673 78.16C84.4473 77.716 83.9313 77.494 83.3193 77.494C82.7073 77.494 82.1853 77.716 81.7533 78.16C81.3333 78.592 81.1233 79.192 81.1233 79.96C81.1233 80.728 81.3333 81.34 81.7533 81.796C82.1853 82.24 82.7073 82.462 83.3193 82.462C83.9313 82.462 84.4473 82.24 84.8673 81.796C85.2993 81.352 85.5153 80.746 85.5153 79.978ZM96.4181 82.39V85H94.8521C93.7361 85 92.8661 84.73 92.2421 84.19C91.6181 83.638 91.3061 82.744 91.3061 81.508V77.512H90.0821V74.956H91.3061V72.508H94.3841V74.956H96.4001V77.512H94.3841V81.544C94.3841 81.844 94.4561 82.06 94.6001 82.192C94.7441 82.324 94.9841 82.39 95.3201 82.39H96.4181ZM98.8346 72.364H101.985L99.9686 77.188H97.8986L98.8346 72.364ZM107.879 85.144C107.003 85.144 106.223 84.994 105.539 84.694C104.855 84.394 104.315 83.986 103.919 83.47C103.523 82.942 103.301 82.354 103.253 81.706H106.295C106.331 82.054 106.493 82.336 106.781 82.552C107.069 82.768 107.423 82.876 107.843 82.876C108.227 82.876 108.521 82.804 108.725 82.66C108.941 82.504 109.049 82.306 109.049 82.066C109.049 81.778 108.899 81.568 108.599 81.436C108.299 81.292 107.813 81.136 107.141 80.968C106.421 80.8 105.821 80.626 105.341 80.446C104.861 80.254 104.447 79.96 104.099 79.564C103.751 79.156 103.577 78.61 103.577 77.926C103.577 77.35 103.733 76.828 104.045 76.36C104.369 75.88 104.837 75.502 105.449 75.226C106.073 74.95 106.811 74.812 107.663 74.812C108.923 74.812 109.913 75.124 110.633 75.748C111.365 76.372 111.785 77.2 111.893 78.232H109.049C109.001 77.884 108.845 77.608 108.581 77.404C108.329 77.2 107.993 77.098 107.573 77.098C107.213 77.098 106.937 77.17 106.745 77.314C106.553 77.446 106.457 77.632 106.457 77.872C106.457 78.16 106.607 78.376 106.907 78.52C107.219 78.664 107.699 78.808 108.347 78.952C109.091 79.144 109.697 79.336 110.165 79.528C110.633 79.708 111.041 80.008 111.389 80.428C111.749 80.836 111.935 81.388 111.947 82.084C111.947 82.672 111.779 83.2 111.443 83.668C111.119 84.124 110.645 84.484 110.021 84.748C109.409 85.012 108.695 85.144 107.879 85.144ZM127.904 74.956L121.604 89.77H118.292L120.596 84.658L116.51 74.956H119.948L122.27 81.238L124.574 74.956H127.904ZM133.589 85.144C132.605 85.144 131.717 84.934 130.925 84.514C130.145 84.094 129.527 83.494 129.071 82.714C128.627 81.934 128.405 81.022 128.405 79.978C128.405 78.946 128.633 78.04 129.089 77.26C129.545 76.468 130.169 75.862 130.961 75.442C131.753 75.022 132.641 74.812 133.625 74.812C134.609 74.812 135.497 75.022 136.289 75.442C137.081 75.862 137.705 76.468 138.161 77.26C138.617 78.04 138.845 78.946 138.845 79.978C138.845 81.01 138.611 81.922 138.143 82.714C137.687 83.494 137.057 84.094 136.253 84.514C135.461 84.934 134.573 85.144 133.589 85.144ZM133.589 82.48C134.177 82.48 134.675 82.264 135.083 81.832C135.503 81.4 135.713 80.782 135.713 79.978C135.713 79.174 135.509 78.556 135.101 78.124C134.705 77.692 134.213 77.476 133.625 77.476C133.025 77.476 132.527 77.692 132.131 78.124C131.735 78.544 131.537 79.162 131.537 79.978C131.537 80.782 131.729 81.4 132.113 81.832C132.509 82.264 133.001 82.48 133.589 82.48ZM150.396 74.956V85H147.318V83.632C147.006 84.076 146.58 84.436 146.04 84.712C145.512 84.976 144.924 85.108 144.276 85.108C143.508 85.108 142.83 84.94 142.242 84.604C141.654 84.256 141.198 83.758 140.874 83.11C140.55 82.462 140.388 81.7 140.388 80.824V74.956H143.448V80.41C143.448 81.082 143.622 81.604 143.97 81.976C144.318 82.348 144.786 82.534 145.374 82.534C145.974 82.534 146.448 82.348 146.796 81.976C147.144 81.604 147.318 81.082 147.318 80.41V74.956H150.396ZM155.685 76.63C156.045 76.078 156.495 75.646 157.035 75.334C157.575 75.01 158.175 74.848 158.835 74.848V78.106H157.989C157.221 78.106 156.645 78.274 156.261 78.61C155.877 78.934 155.685 79.51 155.685 80.338V85H152.607V74.956H155.685V76.63ZM168.207 85.144C167.331 85.144 166.551 84.994 165.867 84.694C165.183 84.394 164.643 83.986 164.247 83.47C163.851 82.942 163.629 82.354 163.581 81.706H166.623C166.659 82.054 166.821 82.336 167.109 82.552C167.397 82.768 167.751 82.876 168.171 82.876C168.555 82.876 168.849 82.804 169.053 82.66C169.269 82.504 169.377 82.306 169.377 82.066C169.377 81.778 169.227 81.568 168.927 81.436C168.627 81.292 168.141 81.136 167.469 80.968C166.749 80.8 166.149 80.626 165.669 80.446C165.189 80.254 164.775 79.96 164.427 79.564C164.079 79.156 163.905 78.61 163.905 77.926C163.905 77.35 164.061 76.828 164.373 76.36C164.697 75.88 165.165 75.502 165.777 75.226C166.401 74.95 167.139 74.812 167.991 74.812C169.251 74.812 170.241 75.124 170.961 75.748C171.693 76.372 172.113 77.2 172.221 78.232H169.377C169.329 77.884 169.173 77.608 168.909 77.404C168.657 77.2 168.321 77.098 167.901 77.098C167.541 77.098 167.265 77.17 167.073 77.314C166.881 77.446 166.785 77.632 166.785 77.872C166.785 78.16 166.935 78.376 167.235 78.52C167.547 78.664 168.027 78.808 168.675 78.952C169.419 79.144 170.025 79.336 170.493 79.528C170.961 79.708 171.369 80.008 171.717 80.428C172.077 80.836 172.263 81.388 172.275 82.084C172.275 82.672 172.107 83.2 171.771 83.668C171.447 84.124 170.973 84.484 170.349 84.748C169.737 85.012 169.023 85.144 168.207 85.144ZM179.756 82.39V85H178.19C177.074 85 176.204 84.73 175.58 84.19C174.956 83.638 174.644 82.744 174.644 81.508V77.512H173.42V74.956H174.644V72.508H177.722V74.956H179.738V77.512H177.722V81.544C177.722 81.844 177.794 82.06 177.938 82.192C178.082 82.324 178.322 82.39 178.658 82.39H179.756ZM186.042 85.144C185.058 85.144 184.17 84.934 183.378 84.514C182.598 84.094 181.98 83.494 181.524 82.714C181.08 81.934 180.858 81.022 180.858 79.978C180.858 78.946 181.086 78.04 181.542 77.26C181.998 76.468 182.622 75.862 183.414 75.442C184.206 75.022 185.094 74.812 186.078 74.812C187.062 74.812 187.95 75.022 188.742 75.442C189.534 75.862 190.158 76.468 190.614 77.26C191.07 78.04 191.298 78.946 191.298 79.978C191.298 81.01 191.064 81.922 190.596 82.714C190.14 83.494 189.51 84.094 188.706 84.514C187.914 84.934 187.026 85.144 186.042 85.144ZM186.042 82.48C186.63 82.48 187.128 82.264 187.536 81.832C187.956 81.4 188.166 80.782 188.166 79.978C188.166 79.174 187.962 78.556 187.554 78.124C187.158 77.692 186.666 77.476 186.078 77.476C185.478 77.476 184.98 77.692 184.584 78.124C184.188 78.544 183.99 79.162 183.99 79.978C183.99 80.782 184.182 81.4 184.566 81.832C184.962 82.264 185.454 82.48 186.042 82.48ZM196.009 76.63C196.369 76.078 196.819 75.646 197.359 75.334C197.899 75.01 198.499 74.848 199.159 74.848V78.106H198.313C197.545 78.106 196.969 78.274 196.585 78.61C196.201 78.934 196.009 79.51 196.009 80.338V85H192.931V74.956H196.009V76.63ZM210.891 74.956L204.591 89.77H201.279L203.583 84.658L199.497 74.956H202.935L205.257 81.238L207.561 74.956H210.891ZM215.694 71.662C216.978 71.662 218.004 71.998 218.772 72.67C219.552 73.342 219.942 74.29 219.942 75.514C219.942 76.642 219.57 77.524 218.826 78.16C218.094 78.784 217.122 79.102 215.91 79.114L215.82 80.464H213.12L213.03 77.116H214.11C215.034 77.116 215.736 77.002 216.216 76.774C216.708 76.546 216.954 76.132 216.954 75.532C216.954 75.112 216.84 74.782 216.612 74.542C216.384 74.302 216.066 74.182 215.658 74.182C215.226 74.182 214.89 74.308 214.65 74.56C214.41 74.8 214.29 75.13 214.29 75.55H211.392C211.368 74.818 211.518 74.158 211.842 73.57C212.178 72.982 212.67 72.52 213.318 72.184C213.978 71.836 214.77 71.662 215.694 71.662ZM214.506 85.144C213.966 85.144 213.522 84.988 213.174 84.676C212.838 84.352 212.67 83.956 212.67 83.488C212.67 83.008 212.838 82.606 213.174 82.282C213.522 81.958 213.966 81.796 214.506 81.796C215.034 81.796 215.466 81.958 215.802 82.282C216.15 82.606 216.324 83.008 216.324 83.488C216.324 83.956 216.15 84.352 215.802 84.676C215.466 84.988 215.034 85.144 214.506 85.144Z" fill="white"/>
<rect x="51" y="107" width="165" height="39" rx="7" fill="white"/>
<path d="M99.944 125.96C100.513 126.081 100.971 126.366 101.316 126.814C101.661 127.253 101.834 127.757 101.834 128.326C101.834 129.147 101.545 129.801 100.966 130.286C100.397 130.762 99.5986 131 98.572 131H93.994V121.172H98.418C99.4166 121.172 100.196 121.401 100.756 121.858C101.325 122.315 101.61 122.936 101.61 123.72C101.61 124.299 101.456 124.779 101.148 125.162C100.849 125.545 100.448 125.811 99.944 125.96ZM96.388 125.148H97.956C98.348 125.148 98.6466 125.064 98.852 124.896C99.0666 124.719 99.174 124.462 99.174 124.126C99.174 123.79 99.0666 123.533 98.852 123.356C98.6466 123.179 98.348 123.09 97.956 123.09H96.388V125.148ZM98.152 129.068C98.5533 129.068 98.8613 128.979 99.076 128.802C99.3 128.615 99.412 128.349 99.412 128.004C99.412 127.659 99.2953 127.388 99.062 127.192C98.838 126.996 98.5253 126.898 98.124 126.898H96.388V129.068H98.152ZM110.586 126.968C110.586 127.192 110.572 127.425 110.544 127.668H105.126C105.164 128.153 105.318 128.527 105.588 128.788C105.868 129.04 106.209 129.166 106.61 129.166C107.208 129.166 107.623 128.914 107.856 128.41H110.404C110.274 128.923 110.036 129.385 109.69 129.796C109.354 130.207 108.93 130.529 108.416 130.762C107.903 130.995 107.329 131.112 106.694 131.112C105.929 131.112 105.248 130.949 104.65 130.622C104.053 130.295 103.586 129.829 103.25 129.222C102.914 128.615 102.746 127.906 102.746 127.094C102.746 126.282 102.91 125.573 103.236 124.966C103.572 124.359 104.039 123.893 104.636 123.566C105.234 123.239 105.92 123.076 106.694 123.076C107.45 123.076 108.122 123.235 108.71 123.552C109.298 123.869 109.756 124.322 110.082 124.91C110.418 125.498 110.586 126.184 110.586 126.968ZM108.136 126.338C108.136 125.927 107.996 125.601 107.716 125.358C107.436 125.115 107.086 124.994 106.666 124.994C106.265 124.994 105.924 125.111 105.644 125.344C105.374 125.577 105.206 125.909 105.14 126.338H108.136ZM114.34 127.08C114.34 126.277 114.49 125.573 114.788 124.966C115.096 124.359 115.512 123.893 116.034 123.566C116.557 123.239 117.14 123.076 117.784 123.076C118.335 123.076 118.816 123.188 119.226 123.412C119.646 123.636 119.968 123.93 120.192 124.294V123.188H122.586V131H120.192V129.894C119.959 130.258 119.632 130.552 119.212 130.776C118.802 131 118.321 131.112 117.77 131.112C117.136 131.112 116.557 130.949 116.034 130.622C115.512 130.286 115.096 129.815 114.788 129.208C114.49 128.592 114.34 127.883 114.34 127.08ZM120.192 127.094C120.192 126.497 120.024 126.025 119.688 125.68C119.362 125.335 118.96 125.162 118.484 125.162C118.008 125.162 117.602 125.335 117.266 125.68C116.94 126.016 116.776 126.483 116.776 127.08C116.776 127.677 116.94 128.153 117.266 128.508C117.602 128.853 118.008 129.026 118.484 129.026C118.96 129.026 119.362 128.853 119.688 128.508C120.024 128.163 120.192 127.691 120.192 127.094ZM130.841 131.098C130.122 131.098 129.478 130.981 128.909 130.748C128.34 130.515 127.882 130.169 127.537 129.712C127.201 129.255 127.024 128.704 127.005 128.06H129.553C129.59 128.424 129.716 128.704 129.931 128.9C130.146 129.087 130.426 129.18 130.771 129.18C131.126 129.18 131.406 129.101 131.611 128.942C131.816 128.774 131.919 128.545 131.919 128.256C131.919 128.013 131.835 127.813 131.667 127.654C131.508 127.495 131.308 127.365 131.065 127.262C130.832 127.159 130.496 127.043 130.057 126.912C129.422 126.716 128.904 126.52 128.503 126.324C128.102 126.128 127.756 125.839 127.467 125.456C127.178 125.073 127.033 124.574 127.033 123.958C127.033 123.043 127.364 122.329 128.027 121.816C128.69 121.293 129.553 121.032 130.617 121.032C131.7 121.032 132.572 121.293 133.235 121.816C133.898 122.329 134.252 123.048 134.299 123.972H131.709C131.69 123.655 131.574 123.407 131.359 123.23C131.144 123.043 130.869 122.95 130.533 122.95C130.244 122.95 130.01 123.029 129.833 123.188C129.656 123.337 129.567 123.557 129.567 123.846C129.567 124.163 129.716 124.411 130.015 124.588C130.314 124.765 130.78 124.957 131.415 125.162C132.05 125.377 132.563 125.582 132.955 125.778C133.356 125.974 133.702 126.259 133.991 126.632C134.28 127.005 134.425 127.486 134.425 128.074C134.425 128.634 134.28 129.143 133.991 129.6C133.711 130.057 133.3 130.421 132.759 130.692C132.218 130.963 131.578 131.098 130.841 131.098ZM142.016 129.264H138.348L137.76 131H135.254L138.81 121.172H141.582L145.138 131H142.604L142.016 129.264ZM141.4 127.416L140.182 123.818L138.978 127.416H141.4ZM154.649 121.172L151.247 127.752V131H148.853V127.752L145.451 121.172H148.167L150.071 125.288L151.961 121.172H154.649ZM158.581 123.076C159.132 123.076 159.612 123.188 160.023 123.412C160.443 123.636 160.765 123.93 160.989 124.294V123.188H163.383V130.986C163.383 131.705 163.238 132.353 162.949 132.932C162.669 133.52 162.235 133.987 161.647 134.332C161.068 134.677 160.345 134.85 159.477 134.85C158.32 134.85 157.382 134.575 156.663 134.024C155.944 133.483 155.534 132.745 155.431 131.812H157.797C157.872 132.111 158.049 132.344 158.329 132.512C158.609 132.689 158.954 132.778 159.365 132.778C159.86 132.778 160.252 132.633 160.541 132.344C160.84 132.064 160.989 131.611 160.989 130.986V129.88C160.756 130.244 160.434 130.543 160.023 130.776C159.612 131 159.132 131.112 158.581 131.112C157.937 131.112 157.354 130.949 156.831 130.622C156.308 130.286 155.893 129.815 155.585 129.208C155.286 128.592 155.137 127.883 155.137 127.08C155.137 126.277 155.286 125.573 155.585 124.966C155.893 124.359 156.308 123.893 156.831 123.566C157.354 123.239 157.937 123.076 158.581 123.076ZM160.989 127.094C160.989 126.497 160.821 126.025 160.485 125.68C160.158 125.335 159.757 125.162 159.281 125.162C158.805 125.162 158.399 125.335 158.063 125.68C157.736 126.016 157.573 126.483 157.573 127.08C157.573 127.677 157.736 128.153 158.063 128.508C158.399 128.853 158.805 129.026 159.281 129.026C159.757 129.026 160.158 128.853 160.485 128.508C160.821 128.163 160.989 127.691 160.989 127.094ZM172.479 126.968C172.479 127.192 172.465 127.425 172.437 127.668H167.019C167.056 128.153 167.21 128.527 167.481 128.788C167.761 129.04 168.102 129.166 168.503 129.166C169.1 129.166 169.516 128.914 169.749 128.41H172.297C172.166 128.923 171.928 129.385 171.583 129.796C171.247 130.207 170.822 130.529 170.309 130.762C169.796 130.995 169.222 131.112 168.587 131.112C167.822 131.112 167.14 130.949 166.543 130.622C165.946 130.295 165.479 129.829 165.143 129.222C164.807 128.615 164.639 127.906 164.639 127.094C164.639 126.282 164.802 125.573 165.129 124.966C165.465 124.359 165.932 123.893 166.529 123.566C167.126 123.239 167.812 123.076 168.587 123.076C169.343 123.076 170.015 123.235 170.603 123.552C171.191 123.869 171.648 124.322 171.975 124.91C172.311 125.498 172.479 126.184 172.479 126.968ZM170.029 126.338C170.029 125.927 169.889 125.601 169.609 125.358C169.329 125.115 168.979 124.994 168.559 124.994C168.158 124.994 167.817 125.111 167.537 125.344C167.266 125.577 167.098 125.909 167.033 126.338H170.029Z" fill="#F62E5F"/>
<path opacity="0.5" d="M289.267 71.526C297.399 71.526 303.897 73.654 308.761 77.91C313.701 82.166 316.171 88.17 316.171 95.922C316.171 103.066 313.815 108.652 309.103 112.68C304.467 116.632 298.311 118.646 290.635 118.722L290.065 127.272H272.965L272.395 106.068H279.235C285.087 106.068 289.533 105.346 292.573 103.902C295.689 102.458 297.247 99.836 297.247 96.036C297.247 93.376 296.525 91.286 295.081 89.766C293.637 88.246 291.623 87.486 289.039 87.486C286.303 87.486 284.175 88.284 282.655 89.88C281.135 91.4 280.375 93.49 280.375 96.15H262.021C261.869 91.514 262.819 87.334 264.871 83.61C266.999 79.886 270.115 76.96 274.219 74.832C278.399 72.628 283.415 71.526 289.267 71.526ZM281.743 156.912C278.323 156.912 275.511 155.924 273.307 153.948C271.179 151.896 270.115 149.388 270.115 146.424C270.115 143.384 271.179 140.838 273.307 138.786C275.511 136.734 278.323 135.708 281.743 135.708C285.087 135.708 287.823 136.734 289.951 138.786C292.155 140.838 293.257 143.384 293.257 146.424C293.257 149.388 292.155 151.896 289.951 153.948C287.823 155.924 285.087 156.912 281.743 156.912Z" fill="white"/>
<defs>
<linearGradient id="paint0_linear_1805_823" x1="-1.54035e-07" y1="93.4581" x2="352.495" y2="90.184" gradientUnits="userSpaceOnUse">
<stop stop-color="#FF396A"/>
<stop offset="1" stop-color="#FFB0C4"/>
</linearGradient>
</defs>
</svg>
