<svg width="19" height="19" viewBox="0 0 19 19" fill="none" xmlns="http://www.w3.org/2000/svg">
<path d="M13.3333 1.83293C13.5521 1.61406 13.812 1.44045 14.0979 1.322C14.3839 1.20354 14.6904 1.14258 14.9999 1.14258C15.3094 1.14258 15.6159 1.20354 15.9019 1.322C16.1879 1.44045 16.4477 1.61406 16.6666 1.83293C16.8855 2.0518 17.0591 2.31164 17.1775 2.59761C17.296 2.88357 17.3569 3.19007 17.3569 3.4996C17.3569 3.80913 17.296 4.11563 17.1775 4.40159C17.0591 4.68756 16.8855 4.9474 16.6666 5.16627L5.41658 16.4163L0.833252 17.6663L2.08325 13.0829L13.3333 1.83293Z" stroke="#5C5353" stroke-width="1.66667" stroke-linecap="round" stroke-linejoin="round"/>
</svg>
