<svg width="25" height="68" viewBox="0 0 25 68" fill="none" xmlns="http://www.w3.org/2000/svg">
<mask id="mask0_2959_3068" style="mask-type:alpha" maskUnits="userSpaceOnUse" x="0" y="0" width="25" height="68">
<path d="M0 0H25V58C25 63.5228 20.5228 68 15 68H0V0Z" fill="#D9D9D9"/>
</mask>
<g mask="url(#mask0_2959_3068)">
<path d="M9.98964 43.1854C14.3112 38.8638 21.3422 38.8638 25.6638 43.1854C29.9854 47.507 29.9854 54.538 25.6638 58.8596C21.3422 63.1812 14.3112 63.1812 9.98964 58.8596C5.66804 54.538 5.66804 47.507 9.98964 43.1854ZM5.5113 38.7071C-1.29578 45.5142 -1.29578 56.5309 5.5113 63.338C12.3184 70.145 23.3351 70.145 30.1422 63.338C36.9493 56.5309 36.9493 45.5142 30.1422 38.7071C27.5447 36.1096 24.3427 34.5198 20.984 33.8929L21.0064 16.1362L26.7834 21.9133L31.2618 17.4349L17.8267 3.99992L4.39171 17.4349L8.87006 21.9133L14.6471 16.1362L14.6471 33.9152C11.3108 34.5198 8.10874 36.1096 5.5113 38.7071Z" fill="#FA2F66"/>
</g>
</svg>
