<svg width="350" height="186" viewBox="0 0 350 186" fill="none" xmlns="http://www.w3.org/2000/svg">
<rect width="350" height="186" rx="10" fill="url(#paint0_linear_1805_904)"/>
<path d="M31.606 58.126C30.682 58.126 29.854 57.976 29.122 57.676C28.39 57.376 27.802 56.932 27.358 56.344C26.926 55.756 26.698 55.048 26.674 54.22H29.95C29.998 54.688 30.16 55.048 30.436 55.3C30.712 55.54 31.072 55.66 31.516 55.66C31.972 55.66 32.332 55.558 32.596 55.354C32.86 55.138 32.992 54.844 32.992 54.472C32.992 54.16 32.884 53.902 32.668 53.698C32.464 53.494 32.206 53.326 31.894 53.194C31.594 53.062 31.162 52.912 30.598 52.744C29.782 52.492 29.116 52.24 28.6 51.988C28.084 51.736 27.64 51.364 27.268 50.872C26.896 50.38 26.71 49.738 26.71 48.946C26.71 47.77 27.136 46.852 27.988 46.192C28.84 45.52 29.95 45.184 31.318 45.184C32.71 45.184 33.832 45.52 34.684 46.192C35.536 46.852 35.992 47.776 36.052 48.964H32.722C32.698 48.556 32.548 48.238 32.272 48.01C31.996 47.77 31.642 47.65 31.21 47.65C30.838 47.65 30.538 47.752 30.31 47.956C30.082 48.148 29.968 48.43 29.968 48.802C29.968 49.21 30.16 49.528 30.544 49.756C30.928 49.984 31.528 50.23 32.344 50.494C33.16 50.77 33.82 51.034 34.324 51.286C34.84 51.538 35.284 51.904 35.656 52.384C36.028 52.864 36.214 53.482 36.214 54.238C36.214 54.958 36.028 55.612 35.656 56.2C35.296 56.788 34.768 57.256 34.072 57.604C33.376 57.952 32.554 58.126 31.606 58.126ZM42.6802 58.144C41.6962 58.144 40.8082 57.934 40.0162 57.514C39.2362 57.094 38.6182 56.494 38.1622 55.714C37.7182 54.934 37.4962 54.022 37.4962 52.978C37.4962 51.946 37.7242 51.04 38.1802 50.26C38.6362 49.468 39.2602 48.862 40.0522 48.442C40.8442 48.022 41.7322 47.812 42.7162 47.812C43.7002 47.812 44.5882 48.022 45.3802 48.442C46.1722 48.862 46.7962 49.468 47.2522 50.26C47.7082 51.04 47.9362 51.946 47.9362 52.978C47.9362 54.01 47.7022 54.922 47.2342 55.714C46.7782 56.494 46.1482 57.094 45.3442 57.514C44.5522 57.934 43.6642 58.144 42.6802 58.144ZM42.6802 55.48C43.2682 55.48 43.7662 55.264 44.1742 54.832C44.5942 54.4 44.8042 53.782 44.8042 52.978C44.8042 52.174 44.6002 51.556 44.1922 51.124C43.7962 50.692 43.3042 50.476 42.7162 50.476C42.1162 50.476 41.6182 50.692 41.2222 51.124C40.8262 51.544 40.6282 52.162 40.6282 52.978C40.6282 53.782 40.8202 54.4 41.2042 54.832C41.6002 55.264 42.0922 55.48 42.6802 55.48ZM62.3851 47.848C63.6331 47.848 64.6231 48.226 65.3551 48.982C66.0991 49.738 66.4711 50.788 66.4711 52.132V58H63.4111V52.546C63.4111 51.898 63.2371 51.4 62.8891 51.052C62.5531 50.692 62.0851 50.512 61.4851 50.512C60.8851 50.512 60.4111 50.692 60.0631 51.052C59.7271 51.4 59.5591 51.898 59.5591 52.546V58H56.4991V52.546C56.4991 51.898 56.3251 51.4 55.9771 51.052C55.6411 50.692 55.1731 50.512 54.5731 50.512C53.9731 50.512 53.4991 50.692 53.1511 51.052C52.8151 51.4 52.6471 51.898 52.6471 52.546V58H49.5691V47.956H52.6471V49.216C52.9591 48.796 53.3671 48.466 53.8711 48.226C54.3751 47.974 54.9451 47.848 55.5811 47.848C56.3371 47.848 57.0091 48.01 57.5971 48.334C58.1971 48.658 58.6651 49.12 59.0011 49.72C59.3491 49.168 59.8231 48.718 60.4231 48.37C61.0231 48.022 61.6771 47.848 62.3851 47.848ZM78.0918 52.816C78.0918 53.104 78.0738 53.404 78.0378 53.716H71.0718C71.1198 54.34 71.3178 54.82 71.6658 55.156C72.0258 55.48 72.4638 55.642 72.9798 55.642C73.7478 55.642 74.2818 55.318 74.5818 54.67H77.8578C77.6898 55.33 77.3838 55.924 76.9398 56.452C76.5078 56.98 75.9618 57.394 75.3018 57.694C74.6418 57.994 73.9038 58.144 73.0878 58.144C72.1038 58.144 71.2278 57.934 70.4598 57.514C69.6918 57.094 69.0918 56.494 68.6598 55.714C68.2278 54.934 68.0118 54.022 68.0118 52.978C68.0118 51.934 68.2218 51.022 68.6418 50.242C69.0738 49.462 69.6738 48.862 70.4418 48.442C71.2098 48.022 72.0918 47.812 73.0878 47.812C74.0598 47.812 74.9238 48.016 75.6798 48.424C76.4358 48.832 77.0238 49.414 77.4438 50.17C77.8758 50.926 78.0918 51.808 78.0918 52.816ZM74.9418 52.006C74.9418 51.478 74.7618 51.058 74.4018 50.746C74.0418 50.434 73.5918 50.278 73.0518 50.278C72.5358 50.278 72.0978 50.428 71.7378 50.728C71.3898 51.028 71.1738 51.454 71.0898 52.006H74.9418ZM84.2876 58.144C83.3036 58.144 82.4156 57.934 81.6236 57.514C80.8436 57.094 80.2256 56.494 79.7696 55.714C79.3256 54.934 79.1036 54.022 79.1036 52.978C79.1036 51.946 79.3316 51.04 79.7876 50.26C80.2436 49.468 80.8676 48.862 81.6596 48.442C82.4516 48.022 83.3396 47.812 84.3236 47.812C85.3076 47.812 86.1956 48.022 86.9876 48.442C87.7796 48.862 88.4036 49.468 88.8596 50.26C89.3156 51.04 89.5436 51.946 89.5436 52.978C89.5436 54.01 89.3096 54.922 88.8416 55.714C88.3856 56.494 87.7556 57.094 86.9516 57.514C86.1596 57.934 85.2716 58.144 84.2876 58.144ZM84.2876 55.48C84.8756 55.48 85.3736 55.264 85.7816 54.832C86.2016 54.4 86.4116 53.782 86.4116 52.978C86.4116 52.174 86.2076 51.556 85.7996 51.124C85.4036 50.692 84.9116 50.476 84.3236 50.476C83.7236 50.476 83.2256 50.692 82.8296 51.124C82.4336 51.544 82.2356 52.162 82.2356 52.978C82.2356 53.782 82.4276 54.4 82.8116 54.832C83.2076 55.264 83.6996 55.48 84.2876 55.48ZM97.2965 47.848C98.4725 47.848 99.4085 48.232 100.105 49C100.813 49.756 101.167 50.8 101.167 52.132V58H98.1065V52.546C98.1065 51.874 97.9325 51.352 97.5845 50.98C97.2365 50.608 96.7685 50.422 96.1805 50.422C95.5925 50.422 95.1245 50.608 94.7765 50.98C94.4285 51.352 94.2545 51.874 94.2545 52.546V58H91.1765V47.956H94.2545V49.288C94.5665 48.844 94.9865 48.496 95.5145 48.244C96.0425 47.98 96.6365 47.848 97.2965 47.848ZM112.773 52.816C112.773 53.104 112.755 53.404 112.719 53.716H105.753C105.801 54.34 105.999 54.82 106.347 55.156C106.707 55.48 107.145 55.642 107.661 55.642C108.429 55.642 108.963 55.318 109.263 54.67H112.539C112.371 55.33 112.065 55.924 111.621 56.452C111.189 56.98 110.643 57.394 109.983 57.694C109.323 57.994 108.585 58.144 107.769 58.144C106.785 58.144 105.909 57.934 105.141 57.514C104.373 57.094 103.773 56.494 103.341 55.714C102.909 54.934 102.693 54.022 102.693 52.978C102.693 51.934 102.903 51.022 103.323 50.242C103.755 49.462 104.355 48.862 105.123 48.442C105.891 48.022 106.773 47.812 107.769 47.812C108.741 47.812 109.605 48.016 110.361 48.424C111.117 48.832 111.705 49.414 112.125 50.17C112.557 50.926 112.773 51.808 112.773 52.816ZM109.623 52.006C109.623 51.478 109.443 51.058 109.083 50.746C108.723 50.434 108.273 50.278 107.733 50.278C107.217 50.278 106.779 50.428 106.419 50.728C106.071 51.028 105.855 51.454 105.771 52.006H109.623ZM124.386 47.848C125.538 47.848 126.462 48.232 127.158 49C127.854 49.756 128.202 50.8 128.202 52.132V58H125.142V52.546C125.142 51.874 124.968 51.352 124.62 50.98C124.272 50.608 123.804 50.422 123.216 50.422C122.628 50.422 122.16 50.608 121.812 50.98C121.464 51.352 121.29 51.874 121.29 52.546V58H118.212V44.68H121.29V49.306C121.602 48.862 122.028 48.508 122.568 48.244C123.108 47.98 123.714 47.848 124.386 47.848ZM129.729 52.96C129.729 51.928 129.921 51.022 130.305 50.242C130.701 49.462 131.235 48.862 131.907 48.442C132.579 48.022 133.329 47.812 134.157 47.812C134.865 47.812 135.483 47.956 136.011 48.244C136.551 48.532 136.965 48.91 137.253 49.378V47.956H140.331V58H137.253V56.578C136.953 57.046 136.533 57.424 135.993 57.712C135.465 58 134.847 58.144 134.139 58.144C133.323 58.144 132.579 57.934 131.907 57.514C131.235 57.082 130.701 56.476 130.305 55.696C129.921 54.904 129.729 53.992 129.729 52.96ZM137.253 52.978C137.253 52.21 137.037 51.604 136.605 51.16C136.185 50.716 135.669 50.494 135.057 50.494C134.445 50.494 133.923 50.716 133.491 51.16C133.071 51.592 132.861 52.192 132.861 52.96C132.861 53.728 133.071 54.34 133.491 54.796C133.923 55.24 134.445 55.462 135.057 55.462C135.669 55.462 136.185 55.24 136.605 54.796C137.037 54.352 137.253 53.746 137.253 52.978ZM146.643 58.144C145.767 58.144 144.987 57.994 144.303 57.694C143.619 57.394 143.079 56.986 142.683 56.47C142.287 55.942 142.065 55.354 142.017 54.706H145.059C145.095 55.054 145.257 55.336 145.545 55.552C145.833 55.768 146.187 55.876 146.607 55.876C146.991 55.876 147.285 55.804 147.489 55.66C147.705 55.504 147.813 55.306 147.813 55.066C147.813 54.778 147.663 54.568 147.363 54.436C147.063 54.292 146.577 54.136 145.905 53.968C145.185 53.8 144.585 53.626 144.105 53.446C143.625 53.254 143.211 52.96 142.863 52.564C142.515 52.156 142.341 51.61 142.341 50.926C142.341 50.35 142.497 49.828 142.809 49.36C143.133 48.88 143.601 48.502 144.213 48.226C144.837 47.95 145.575 47.812 146.427 47.812C147.687 47.812 148.677 48.124 149.397 48.748C150.129 49.372 150.549 50.2 150.657 51.232H147.813C147.765 50.884 147.609 50.608 147.345 50.404C147.093 50.2 146.757 50.098 146.337 50.098C145.977 50.098 145.701 50.17 145.509 50.314C145.317 50.446 145.221 50.632 145.221 50.872C145.221 51.16 145.371 51.376 145.671 51.52C145.983 51.664 146.463 51.808 147.111 51.952C147.855 52.144 148.461 52.336 148.929 52.528C149.397 52.708 149.805 53.008 150.153 53.428C150.513 53.836 150.699 54.388 150.711 55.084C150.711 55.672 150.543 56.2 150.207 56.668C149.883 57.124 149.409 57.484 148.785 57.748C148.173 58.012 147.459 58.144 146.643 58.144ZM162.007 55.39V58H160.441C159.325 58 158.455 57.73 157.831 57.19C157.207 56.638 156.895 55.744 156.895 54.508V50.512H155.671V47.956H156.895V45.508H159.973V47.956H161.989V50.512H159.973V54.544C159.973 54.844 160.045 55.06 160.189 55.192C160.333 55.324 160.573 55.39 160.909 55.39H162.007ZM169.895 47.848C171.047 47.848 171.971 48.232 172.667 49C173.363 49.756 173.711 50.8 173.711 52.132V58H170.651V52.546C170.651 51.874 170.477 51.352 170.129 50.98C169.781 50.608 169.313 50.422 168.725 50.422C168.137 50.422 167.669 50.608 167.321 50.98C166.973 51.352 166.799 51.874 166.799 52.546V58H163.721V44.68H166.799V49.306C167.111 48.862 167.537 48.508 168.077 48.244C168.617 47.98 169.223 47.848 169.895 47.848ZM185.318 52.816C185.318 53.104 185.3 53.404 185.264 53.716H178.298C178.346 54.34 178.544 54.82 178.892 55.156C179.252 55.48 179.69 55.642 180.206 55.642C180.974 55.642 181.508 55.318 181.808 54.67H185.084C184.916 55.33 184.61 55.924 184.166 56.452C183.734 56.98 183.188 57.394 182.528 57.694C181.868 57.994 181.13 58.144 180.314 58.144C179.33 58.144 178.454 57.934 177.686 57.514C176.918 57.094 176.318 56.494 175.886 55.714C175.454 54.934 175.238 54.022 175.238 52.978C175.238 51.934 175.448 51.022 175.868 50.242C176.3 49.462 176.9 48.862 177.668 48.442C178.436 48.022 179.318 47.812 180.314 47.812C181.286 47.812 182.15 48.016 182.906 48.424C183.662 48.832 184.25 49.414 184.67 50.17C185.102 50.926 185.318 51.808 185.318 52.816ZM182.168 52.006C182.168 51.478 181.988 51.058 181.628 50.746C181.268 50.434 180.818 50.278 180.278 50.278C179.762 50.278 179.324 50.428 178.964 50.728C178.616 51.028 178.4 51.454 178.316 52.006H182.168ZM192.305 46.912C191.765 46.912 191.321 46.756 190.973 46.444C190.637 46.12 190.469 45.724 190.469 45.256C190.469 44.776 190.637 44.38 190.973 44.068C191.321 43.744 191.765 43.582 192.305 43.582C192.833 43.582 193.265 43.744 193.601 44.068C193.949 44.38 194.123 44.776 194.123 45.256C194.123 45.724 193.949 46.12 193.601 46.444C193.265 46.756 192.833 46.912 192.305 46.912ZM193.835 47.956V58H190.757V47.956H193.835ZM202.185 47.848C203.361 47.848 204.297 48.232 204.993 49C205.701 49.756 206.055 50.8 206.055 52.132V58H202.995V52.546C202.995 51.874 202.821 51.352 202.473 50.98C202.125 50.608 201.657 50.422 201.069 50.422C200.481 50.422 200.013 50.608 199.665 50.98C199.317 51.352 199.143 51.874 199.143 52.546V58H196.065V47.956H199.143V49.288C199.455 48.844 199.875 48.496 200.403 48.244C200.931 47.98 201.525 47.848 202.185 47.848ZM212.28 58.144C211.404 58.144 210.624 57.994 209.94 57.694C209.256 57.394 208.716 56.986 208.32 56.47C207.924 55.942 207.702 55.354 207.654 54.706H210.696C210.732 55.054 210.894 55.336 211.182 55.552C211.47 55.768 211.824 55.876 212.244 55.876C212.628 55.876 212.922 55.804 213.126 55.66C213.342 55.504 213.45 55.306 213.45 55.066C213.45 54.778 213.3 54.568 213 54.436C212.7 54.292 212.214 54.136 211.542 53.968C210.822 53.8 210.222 53.626 209.742 53.446C209.262 53.254 208.848 52.96 208.5 52.564C208.152 52.156 207.978 51.61 207.978 50.926C207.978 50.35 208.134 49.828 208.446 49.36C208.77 48.88 209.238 48.502 209.85 48.226C210.474 47.95 211.212 47.812 212.064 47.812C213.324 47.812 214.314 48.124 215.034 48.748C215.766 49.372 216.186 50.2 216.294 51.232H213.45C213.402 50.884 213.246 50.608 212.982 50.404C212.73 50.2 212.394 50.098 211.974 50.098C211.614 50.098 211.338 50.17 211.146 50.314C210.954 50.446 210.858 50.632 210.858 50.872C210.858 51.16 211.008 51.376 211.308 51.52C211.62 51.664 212.1 51.808 212.748 51.952C213.492 52.144 214.098 52.336 214.566 52.528C215.034 52.708 215.442 53.008 215.79 53.428C216.15 53.836 216.336 54.388 216.348 55.084C216.348 55.672 216.18 56.2 215.844 56.668C215.52 57.124 215.046 57.484 214.422 57.748C213.81 58.012 213.096 58.144 212.28 58.144ZM219.779 46.912C219.239 46.912 218.795 46.756 218.447 46.444C218.111 46.12 217.943 45.724 217.943 45.256C217.943 44.776 218.111 44.38 218.447 44.068C218.795 43.744 219.239 43.582 219.779 43.582C220.307 43.582 220.739 43.744 221.075 44.068C221.423 44.38 221.597 44.776 221.597 45.256C221.597 45.724 221.423 46.12 221.075 46.444C220.739 46.756 220.307 46.912 219.779 46.912ZM221.309 47.956V58H218.231V47.956H221.309ZM227.356 47.812C228.064 47.812 228.682 47.956 229.21 48.244C229.75 48.532 230.164 48.91 230.452 49.378V47.956H233.53V57.982C233.53 58.906 233.344 59.74 232.972 60.484C232.612 61.24 232.054 61.84 231.298 62.284C230.554 62.728 229.624 62.95 228.508 62.95C227.02 62.95 225.814 62.596 224.89 61.888C223.966 61.192 223.438 60.244 223.306 59.044H226.348C226.444 59.428 226.672 59.728 227.032 59.944C227.392 60.172 227.836 60.286 228.364 60.286C229 60.286 229.504 60.1 229.876 59.728C230.26 59.368 230.452 58.786 230.452 57.982V56.56C230.152 57.028 229.738 57.412 229.21 57.712C228.682 58 228.064 58.144 227.356 58.144C226.528 58.144 225.778 57.934 225.106 57.514C224.434 57.082 223.9 56.476 223.504 55.696C223.12 54.904 222.928 53.992 222.928 52.96C222.928 51.928 223.12 51.022 223.504 50.242C223.9 49.462 224.434 48.862 225.106 48.442C225.778 48.022 226.528 47.812 227.356 47.812ZM230.452 52.978C230.452 52.21 230.236 51.604 229.804 51.16C229.384 50.716 228.868 50.494 228.256 50.494C227.644 50.494 227.122 50.716 226.69 51.16C226.27 51.592 226.06 52.192 226.06 52.96C226.06 53.728 226.27 54.34 226.69 54.796C227.122 55.24 227.644 55.462 228.256 55.462C228.868 55.462 229.384 55.24 229.804 54.796C230.236 54.352 230.452 53.746 230.452 52.978ZM241.931 47.848C243.083 47.848 244.007 48.232 244.703 49C245.399 49.756 245.747 50.8 245.747 52.132V58H242.687V52.546C242.687 51.874 242.513 51.352 242.165 50.98C241.817 50.608 241.349 50.422 240.761 50.422C240.173 50.422 239.705 50.608 239.357 50.98C239.009 51.352 238.835 51.874 238.835 52.546V58H235.757V44.68H238.835V49.306C239.147 48.862 239.573 48.508 240.113 48.244C240.653 47.98 241.259 47.848 241.931 47.848ZM253.484 55.39V58H251.918C250.802 58 249.932 57.73 249.308 57.19C248.684 56.638 248.372 55.744 248.372 54.508V50.512H247.148V47.956H248.372V45.508H251.45V47.956H253.466V50.512H251.45V54.544C251.45 54.844 251.522 55.06 251.666 55.192C251.81 55.324 252.05 55.39 252.386 55.39H253.484ZM76.9854 74.956L70.6854 89.77H67.3734L69.6774 84.658L65.5914 74.956H69.0294L71.3514 81.238L73.6554 74.956H76.9854ZM82.6704 85.144C81.6864 85.144 80.7984 84.934 80.0064 84.514C79.2264 84.094 78.6084 83.494 78.1524 82.714C77.7084 81.934 77.4864 81.022 77.4864 79.978C77.4864 78.946 77.7144 78.04 78.1704 77.26C78.6264 76.468 79.2504 75.862 80.0424 75.442C80.8344 75.022 81.7224 74.812 82.7064 74.812C83.6904 74.812 84.5784 75.022 85.3704 75.442C86.1624 75.862 86.7864 76.468 87.2424 77.26C87.6984 78.04 87.9264 78.946 87.9264 79.978C87.9264 81.01 87.6924 81.922 87.2244 82.714C86.7684 83.494 86.1384 84.094 85.3344 84.514C84.5424 84.934 83.6544 85.144 82.6704 85.144ZM82.6704 82.48C83.2584 82.48 83.7564 82.264 84.1644 81.832C84.5844 81.4 84.7944 80.782 84.7944 79.978C84.7944 79.174 84.5904 78.556 84.1824 78.124C83.7864 77.692 83.2944 77.476 82.7064 77.476C82.1064 77.476 81.6084 77.692 81.2124 78.124C80.8164 78.544 80.6184 79.162 80.6184 79.978C80.6184 80.782 80.8104 81.4 81.1944 81.832C81.5904 82.264 82.0824 82.48 82.6704 82.48ZM99.4774 74.956V85H96.3994V83.632C96.0874 84.076 95.6614 84.436 95.1214 84.712C94.5934 84.976 94.0054 85.108 93.3574 85.108C92.5894 85.108 91.9114 84.94 91.3234 84.604C90.7354 84.256 90.2794 83.758 89.9554 83.11C89.6314 82.462 89.4694 81.7 89.4694 80.824V74.956H92.5294V80.41C92.5294 81.082 92.7034 81.604 93.0514 81.976C93.3994 82.348 93.8674 82.534 94.4554 82.534C95.0554 82.534 95.5294 82.348 95.8774 81.976C96.2254 81.604 96.3994 81.082 96.3994 80.41V74.956H99.4774ZM111.623 74.848C112.799 74.848 113.735 75.232 114.431 76C115.139 76.756 115.493 77.8 115.493 79.132V85H112.433V79.546C112.433 78.874 112.259 78.352 111.911 77.98C111.563 77.608 111.095 77.422 110.507 77.422C109.919 77.422 109.451 77.608 109.103 77.98C108.755 78.352 108.581 78.874 108.581 79.546V85H105.503V74.956H108.581V76.288C108.893 75.844 109.313 75.496 109.841 75.244C110.369 74.98 110.963 74.848 111.623 74.848ZM127.1 79.816C127.1 80.104 127.082 80.404 127.046 80.716H120.08C120.128 81.34 120.326 81.82 120.674 82.156C121.034 82.48 121.472 82.642 121.988 82.642C122.756 82.642 123.29 82.318 123.59 81.67H126.866C126.698 82.33 126.392 82.924 125.948 83.452C125.516 83.98 124.97 84.394 124.31 84.694C123.65 84.994 122.912 85.144 122.096 85.144C121.112 85.144 120.236 84.934 119.468 84.514C118.7 84.094 118.1 83.494 117.668 82.714C117.236 81.934 117.02 81.022 117.02 79.978C117.02 78.934 117.23 78.022 117.65 77.242C118.082 76.462 118.682 75.862 119.45 75.442C120.218 75.022 121.1 74.812 122.096 74.812C123.068 74.812 123.932 75.016 124.688 75.424C125.444 75.832 126.032 76.414 126.452 77.17C126.884 77.926 127.1 78.808 127.1 79.816ZM123.95 79.006C123.95 78.478 123.77 78.058 123.41 77.746C123.05 77.434 122.6 77.278 122.06 77.278C121.544 77.278 121.106 77.428 120.746 77.728C120.398 78.028 120.182 78.454 120.098 79.006H123.95ZM138.191 79.816C138.191 80.104 138.173 80.404 138.137 80.716H131.171C131.219 81.34 131.417 81.82 131.765 82.156C132.125 82.48 132.563 82.642 133.079 82.642C133.847 82.642 134.381 82.318 134.681 81.67H137.957C137.789 82.33 137.483 82.924 137.039 83.452C136.607 83.98 136.061 84.394 135.401 84.694C134.741 84.994 134.003 85.144 133.187 85.144C132.203 85.144 131.327 84.934 130.559 84.514C129.791 84.094 129.191 83.494 128.759 82.714C128.327 81.934 128.111 81.022 128.111 79.978C128.111 78.934 128.321 78.022 128.741 77.242C129.173 76.462 129.773 75.862 130.541 75.442C131.309 75.022 132.191 74.812 133.187 74.812C134.159 74.812 135.023 75.016 135.779 75.424C136.535 75.832 137.123 76.414 137.543 77.17C137.975 77.926 138.191 78.808 138.191 79.816ZM135.041 79.006C135.041 78.478 134.861 78.058 134.501 77.746C134.141 77.434 133.691 77.278 133.151 77.278C132.635 77.278 132.197 77.428 131.837 77.728C131.489 78.028 131.273 78.454 131.189 79.006H135.041ZM139.203 79.96C139.203 78.928 139.395 78.022 139.779 77.242C140.175 76.462 140.709 75.862 141.381 75.442C142.053 75.022 142.803 74.812 143.631 74.812C144.291 74.812 144.891 74.95 145.431 75.226C145.983 75.502 146.415 75.874 146.727 76.342V71.68H149.805V85H146.727V83.56C146.439 84.04 146.025 84.424 145.485 84.712C144.957 85 144.339 85.144 143.631 85.144C142.803 85.144 142.053 84.934 141.381 84.514C140.709 84.082 140.175 83.476 139.779 82.696C139.395 81.904 139.203 80.992 139.203 79.96ZM146.727 79.978C146.727 79.21 146.511 78.604 146.079 78.16C145.659 77.716 145.143 77.494 144.531 77.494C143.919 77.494 143.397 77.716 142.965 78.16C142.545 78.592 142.335 79.192 142.335 79.96C142.335 80.728 142.545 81.34 142.965 81.796C143.397 82.24 143.919 82.462 144.531 82.462C145.143 82.462 145.659 82.24 146.079 81.796C146.511 81.352 146.727 80.746 146.727 79.978ZM161.444 82.39V85H159.878C158.762 85 157.892 84.73 157.268 84.19C156.644 83.638 156.332 82.744 156.332 81.508V77.512H155.108V74.956H156.332V72.508H159.41V74.956H161.426V77.512H159.41V81.544C159.41 81.844 159.482 82.06 159.626 82.192C159.77 82.324 160.01 82.39 160.346 82.39H161.444ZM167.731 85.144C166.747 85.144 165.859 84.934 165.067 84.514C164.287 84.094 163.669 83.494 163.213 82.714C162.769 81.934 162.547 81.022 162.547 79.978C162.547 78.946 162.775 78.04 163.231 77.26C163.687 76.468 164.311 75.862 165.103 75.442C165.895 75.022 166.783 74.812 167.767 74.812C168.751 74.812 169.639 75.022 170.431 75.442C171.223 75.862 171.847 76.468 172.303 77.26C172.759 78.04 172.987 78.946 172.987 79.978C172.987 81.01 172.753 81.922 172.285 82.714C171.829 83.494 171.199 84.094 170.395 84.514C169.603 84.934 168.715 85.144 167.731 85.144ZM167.731 82.48C168.319 82.48 168.817 82.264 169.225 81.832C169.645 81.4 169.855 80.782 169.855 79.978C169.855 79.174 169.651 78.556 169.243 78.124C168.847 77.692 168.355 77.476 167.767 77.476C167.167 77.476 166.669 77.692 166.273 78.124C165.877 78.544 165.679 79.162 165.679 79.978C165.679 80.782 165.871 81.4 166.255 81.832C166.651 82.264 167.143 82.48 167.731 82.48ZM174.008 79.96C174.008 78.928 174.2 78.022 174.584 77.242C174.98 76.462 175.514 75.862 176.186 75.442C176.858 75.022 177.608 74.812 178.436 74.812C179.096 74.812 179.696 74.95 180.236 75.226C180.788 75.502 181.22 75.874 181.532 76.342V71.68H184.61V85H181.532V83.56C181.244 84.04 180.83 84.424 180.29 84.712C179.762 85 179.144 85.144 178.436 85.144C177.608 85.144 176.858 84.934 176.186 84.514C175.514 84.082 174.98 83.476 174.584 82.696C174.2 81.904 174.008 80.992 174.008 79.96ZM181.532 79.978C181.532 79.21 181.316 78.604 180.884 78.16C180.464 77.716 179.948 77.494 179.336 77.494C178.724 77.494 178.202 77.716 177.77 78.16C177.35 78.592 177.14 79.192 177.14 79.96C177.14 80.728 177.35 81.34 177.77 81.796C178.202 82.24 178.724 82.462 179.336 82.462C179.948 82.462 180.464 82.24 180.884 81.796C181.316 81.352 181.532 80.746 181.532 79.978ZM186.225 79.96C186.225 78.928 186.417 78.022 186.801 77.242C187.197 76.462 187.731 75.862 188.403 75.442C189.075 75.022 189.825 74.812 190.653 74.812C191.361 74.812 191.979 74.956 192.507 75.244C193.047 75.532 193.461 75.91 193.749 76.378V74.956H196.827V85H193.749V83.578C193.449 84.046 193.029 84.424 192.489 84.712C191.961 85 191.343 85.144 190.635 85.144C189.819 85.144 189.075 84.934 188.403 84.514C187.731 84.082 187.197 83.476 186.801 82.696C186.417 81.904 186.225 80.992 186.225 79.96ZM193.749 79.978C193.749 79.21 193.533 78.604 193.101 78.16C192.681 77.716 192.165 77.494 191.553 77.494C190.941 77.494 190.419 77.716 189.987 78.16C189.567 78.592 189.357 79.192 189.357 79.96C189.357 80.728 189.567 81.34 189.987 81.796C190.419 82.24 190.941 82.462 191.553 82.462C192.165 82.462 192.681 82.24 193.101 81.796C193.533 81.352 193.749 80.746 193.749 79.978ZM209.314 74.956L203.014 89.77H199.702L202.006 84.658L197.919 74.956H201.358L203.68 81.238L205.984 74.956H209.314ZM211.867 85.144C211.327 85.144 210.883 84.988 210.535 84.676C210.199 84.352 210.031 83.956 210.031 83.488C210.031 83.008 210.199 82.606 210.535 82.282C210.883 81.958 211.327 81.796 211.867 81.796C212.395 81.796 212.827 81.958 213.163 82.282C213.511 82.606 213.685 83.008 213.685 83.488C213.685 83.956 213.511 84.352 213.163 84.676C212.827 84.988 212.395 85.144 211.867 85.144Z" fill="white"/>
<rect x="57" y="105" width="165" height="39" rx="7" fill="white"/>
<path d="M100.549 119.172V121.09H96.5452V123.162H99.5412V125.024H96.5452V129H94.1512V119.172H100.549ZM103.011 120.376C102.591 120.376 102.246 120.255 101.975 120.012C101.714 119.76 101.583 119.452 101.583 119.088C101.583 118.715 101.714 118.407 101.975 118.164C102.246 117.912 102.591 117.786 103.011 117.786C103.422 117.786 103.758 117.912 104.019 118.164C104.29 118.407 104.425 118.715 104.425 119.088C104.425 119.452 104.29 119.76 104.019 120.012C103.758 120.255 103.422 120.376 103.011 120.376ZM104.201 121.188V129H101.807V121.188H104.201ZM110.696 121.104C111.611 121.104 112.339 121.403 112.88 122C113.431 122.588 113.706 123.4 113.706 124.436V129H111.326V124.758C111.326 124.235 111.191 123.829 110.92 123.54C110.65 123.251 110.286 123.106 109.828 123.106C109.371 123.106 109.007 123.251 108.736 123.54C108.466 123.829 108.33 124.235 108.33 124.758V129H105.936V121.188H108.33V122.224C108.573 121.879 108.9 121.608 109.31 121.412C109.721 121.207 110.183 121.104 110.696 121.104ZM114.894 125.08C114.894 124.277 115.043 123.573 115.342 122.966C115.65 122.359 116.065 121.893 116.588 121.566C117.111 121.239 117.694 121.076 118.338 121.076C118.851 121.076 119.318 121.183 119.738 121.398C120.167 121.613 120.503 121.902 120.746 122.266V118.64H123.14V129H120.746V127.88C120.522 128.253 120.2 128.552 119.78 128.776C119.369 129 118.889 129.112 118.338 129.112C117.694 129.112 117.111 128.949 116.588 128.622C116.065 128.286 115.65 127.815 115.342 127.208C115.043 126.592 114.894 125.883 114.894 125.08ZM120.746 125.094C120.746 124.497 120.578 124.025 120.242 123.68C119.915 123.335 119.514 123.162 119.038 123.162C118.562 123.162 118.156 123.335 117.82 123.68C117.493 124.016 117.33 124.483 117.33 125.08C117.33 125.677 117.493 126.153 117.82 126.508C118.156 126.853 118.562 127.026 119.038 127.026C119.514 127.026 119.915 126.853 120.242 126.508C120.578 126.163 120.746 125.691 120.746 125.094ZM133.957 127.264H130.289L129.701 129H127.195L130.751 119.172H133.523L137.079 129H134.545L133.957 127.264ZM133.341 125.416L132.123 121.818L130.919 125.416H133.341ZM144.684 129.098C143.965 129.098 143.321 128.981 142.752 128.748C142.182 128.515 141.725 128.169 141.38 127.712C141.044 127.255 140.866 126.704 140.848 126.06H143.396C143.433 126.424 143.559 126.704 143.774 126.9C143.988 127.087 144.268 127.18 144.614 127.18C144.968 127.18 145.248 127.101 145.454 126.942C145.659 126.774 145.762 126.545 145.762 126.256C145.762 126.013 145.678 125.813 145.51 125.654C145.351 125.495 145.15 125.365 144.908 125.262C144.674 125.159 144.338 125.043 143.9 124.912C143.265 124.716 142.747 124.52 142.346 124.324C141.944 124.128 141.599 123.839 141.31 123.456C141.02 123.073 140.876 122.574 140.876 121.958C140.876 121.043 141.207 120.329 141.87 119.816C142.532 119.293 143.396 119.032 144.46 119.032C145.542 119.032 146.415 119.293 147.078 119.816C147.74 120.329 148.095 121.048 148.142 121.972H145.552C145.533 121.655 145.416 121.407 145.202 121.23C144.987 121.043 144.712 120.95 144.376 120.95C144.086 120.95 143.853 121.029 143.676 121.188C143.498 121.337 143.41 121.557 143.41 121.846C143.41 122.163 143.559 122.411 143.858 122.588C144.156 122.765 144.623 122.957 145.258 123.162C145.892 123.377 146.406 123.582 146.798 123.778C147.199 123.974 147.544 124.259 147.834 124.632C148.123 125.005 148.268 125.486 148.268 126.074C148.268 126.634 148.123 127.143 147.834 127.6C147.554 128.057 147.143 128.421 146.602 128.692C146.06 128.963 145.421 129.098 144.684 129.098ZM155.859 127.264H152.191L151.603 129H149.097L152.653 119.172H155.425L158.981 129H156.447L155.859 127.264ZM155.243 125.416L154.025 121.818L152.821 125.416H155.243ZM168.491 119.172L165.089 125.752V129H162.695V125.752L159.293 119.172H162.009L163.913 123.288L165.803 119.172H168.491ZM172.424 121.076C172.975 121.076 173.455 121.188 173.866 121.412C174.286 121.636 174.608 121.93 174.832 122.294V121.188H177.226V128.986C177.226 129.705 177.081 130.353 176.792 130.932C176.512 131.52 176.078 131.987 175.49 132.332C174.911 132.677 174.188 132.85 173.32 132.85C172.163 132.85 171.225 132.575 170.506 132.024C169.787 131.483 169.377 130.745 169.274 129.812H171.64C171.715 130.111 171.892 130.344 172.172 130.512C172.452 130.689 172.797 130.778 173.208 130.778C173.703 130.778 174.095 130.633 174.384 130.344C174.683 130.064 174.832 129.611 174.832 128.986V127.88C174.599 128.244 174.277 128.543 173.866 128.776C173.455 129 172.975 129.112 172.424 129.112C171.78 129.112 171.197 128.949 170.674 128.622C170.151 128.286 169.736 127.815 169.428 127.208C169.129 126.592 168.98 125.883 168.98 125.08C168.98 124.277 169.129 123.573 169.428 122.966C169.736 122.359 170.151 121.893 170.674 121.566C171.197 121.239 171.78 121.076 172.424 121.076ZM174.832 125.094C174.832 124.497 174.664 124.025 174.328 123.68C174.001 123.335 173.6 123.162 173.124 123.162C172.648 123.162 172.242 123.335 171.906 123.68C171.579 124.016 171.416 124.483 171.416 125.08C171.416 125.677 171.579 126.153 171.906 126.508C172.242 126.853 172.648 127.026 173.124 127.026C173.6 127.026 174.001 126.853 174.328 126.508C174.664 126.163 174.832 125.691 174.832 125.094ZM186.322 124.968C186.322 125.192 186.308 125.425 186.28 125.668H180.862C180.899 126.153 181.053 126.527 181.324 126.788C181.604 127.04 181.945 127.166 182.346 127.166C182.943 127.166 183.359 126.914 183.592 126.41H186.14C186.009 126.923 185.771 127.385 185.426 127.796C185.09 128.207 184.665 128.529 184.152 128.762C183.639 128.995 183.065 129.112 182.43 129.112C181.665 129.112 180.983 128.949 180.386 128.622C179.789 128.295 179.322 127.829 178.986 127.222C178.65 126.615 178.482 125.906 178.482 125.094C178.482 124.282 178.645 123.573 178.972 122.966C179.308 122.359 179.775 121.893 180.372 121.566C180.969 121.239 181.655 121.076 182.43 121.076C183.186 121.076 183.858 121.235 184.446 121.552C185.034 121.869 185.491 122.322 185.818 122.91C186.154 123.498 186.322 124.184 186.322 124.968ZM183.872 124.338C183.872 123.927 183.732 123.601 183.452 123.358C183.172 123.115 182.822 122.994 182.402 122.994C182.001 122.994 181.66 123.111 181.38 123.344C181.109 123.577 180.941 123.909 180.876 124.338H183.872Z" fill="#F62E5F"/>
<defs>
<linearGradient id="paint0_linear_1805_904" x1="-1.5048e-07" y1="93.4581" x2="350" y2="93.4581" gradientUnits="userSpaceOnUse">
<stop stop-color="#1186EF"/>
<stop offset="1" stop-color="#43A1F5"/>
</linearGradient>
</defs>
</svg>
