<svg width="21" height="20" viewBox="0 0 21 20" fill="none" xmlns="http://www.w3.org/2000/svg">
<g clip-path="url(#clip0_3114_3215)">
<path d="M10.6666 18.248C15.269 18.248 18.9999 14.5345 18.9999 9.9536C18.9999 5.37272 15.269 1.65918 10.6666 1.65918C6.06421 1.65918 2.33325 5.37272 2.33325 9.9536C2.33325 14.5345 6.06421 18.248 10.6666 18.248Z" stroke="#F0F0F0" stroke-width="1.66667" stroke-linecap="round" stroke-linejoin="round"/>
<path d="M2.33325 9.95312H18.9999" stroke="#F0F0F0" stroke-width="1.66667" stroke-linecap="round" stroke-linejoin="round"/>
<path d="M10.6666 1.65918C12.751 3.93048 13.9355 6.87806 13.9999 9.9536C13.9355 13.0291 12.751 15.9767 10.6666 18.248C8.58219 15.9767 7.39762 13.0291 7.33325 9.9536C7.39762 6.87806 8.58219 3.93048 10.6666 1.65918V1.65918Z" stroke="#F0F0F0" stroke-width="1.66667" stroke-linecap="round" stroke-linejoin="round"/>
</g>
<defs>
<clipPath id="clip0_3114_3215">
<rect width="20" height="19.9066" fill="white" transform="translate(0.666748)"/>
</clipPath>
</defs>
</svg>
