<svg width="250" height="48" viewBox="0 0 250 48" fill="none" xmlns="http://www.w3.org/2000/svg">
<g clip-path="url(#clip0_2448_898)">
<path d="M172.753 29.8962C172.894 29.8107 172.997 29.6722 173.038 29.5108C174.466 26.4747 175.891 23.4374 177.315 20.399C177.744 19.4842 178.174 18.5695 178.604 17.655C179.25 16.2837 179.897 14.913 180.546 13.5429C180.625 13.3575 180.726 13.182 180.844 13.0198C180.885 12.9542 180.944 12.9022 181.014 12.87C181.083 12.8378 181.161 12.8268 181.236 12.8385C181.312 12.8502 181.382 12.884 181.439 12.9358C181.496 12.9875 181.537 13.055 181.557 13.1299C181.63 13.3181 181.681 13.5146 181.707 13.7152C181.999 15.7179 182.281 17.7216 182.574 19.724C182.872 21.7663 183.184 23.8067 183.482 25.849C183.704 27.3711 183.91 28.8953 184.131 30.4187C184.235 31.1394 184.351 31.8587 184.473 32.5769C184.533 32.9365 184.635 33.2876 184.777 33.623C184.863 33.8511 185.003 34.0547 185.183 34.2167C185.364 34.3787 185.58 34.4943 185.814 34.5537C186.292 34.7023 186.787 34.7878 187.286 34.8081C187.446 34.8073 187.605 34.8214 187.762 34.8502C187.801 34.8593 187.836 34.8811 187.862 34.9123C187.888 34.9434 187.903 34.9824 187.906 35.0231C187.909 35.064 187.9 35.105 187.879 35.1405C187.859 35.1759 187.828 35.2041 187.791 35.2213C187.536 35.3407 187.254 35.3901 186.974 35.3644C185.796 35.2708 184.616 35.322 183.438 35.2708C182.719 35.2395 182.001 35.2012 181.282 35.1662C181.082 35.1633 180.884 35.1171 180.702 35.0308C180.669 35.0178 180.64 34.996 180.618 34.9677C180.596 34.9394 180.582 34.9056 180.578 34.8699C180.573 34.8343 180.578 34.798 180.592 34.765C180.606 34.732 180.629 34.7034 180.658 34.6823C181.103 34.3858 181.099 33.9707 181.035 33.5035C180.766 31.5386 180.519 29.5706 180.254 27.6048C179.995 25.6795 179.719 23.7566 179.462 21.8308C179.41 21.4366 179.36 21.0443 179.286 20.6352C179.062 20.7068 179.043 20.8912 178.979 21.0248C178.402 22.2272 177.834 23.4343 177.264 24.64C176.417 26.4304 175.569 28.2208 174.722 30.011C174.02 31.4897 173.314 32.967 172.605 34.443C172.493 34.6806 172.362 34.9085 172.214 35.1244C172.188 35.1749 172.15 35.2177 172.102 35.2484C172.055 35.2791 172.001 35.2966 171.944 35.2993C171.888 35.3019 171.833 35.2896 171.783 35.2635C171.733 35.2374 171.69 35.1984 171.66 35.1505C171.477 34.9353 171.325 34.6949 171.208 34.4365C170.436 32.925 169.665 31.4129 168.896 29.9001C167.58 27.3265 166.445 24.6659 165.204 22.0562C165.051 21.6862 164.873 21.3274 164.67 20.9826C164.493 21.0481 164.549 21.1891 164.521 21.2901C164.49 21.4077 164.467 21.5272 164.453 21.648C164.254 23.1734 164.057 24.6989 163.862 26.2245C163.686 27.6097 163.517 28.9961 163.342 30.3813C163.245 31.1443 163.134 31.9055 163.048 32.6697C163.011 33.0324 162.995 33.3969 162.999 33.7615C162.993 33.9462 163.048 34.1277 163.156 34.2766C163.264 34.4256 163.418 34.5332 163.594 34.5821C163.952 34.7101 164.327 34.7843 164.706 34.8023C164.866 34.8106 165.026 34.8103 165.186 34.8229C165.246 34.8208 165.305 34.8399 165.353 34.8768C165.401 34.9138 165.435 34.9664 165.449 35.0258C165.472 35.1255 165.376 35.246 165.246 35.2876C164.996 35.3644 164.734 35.391 164.475 35.3658C162.898 35.2629 161.318 35.2479 159.74 35.3209C159.541 35.3281 159.342 35.3562 159.143 35.3677C158.942 35.3909 158.74 35.3478 158.566 35.245C158.532 35.2227 158.505 35.1917 158.487 35.1552C158.469 35.1187 158.462 35.078 158.464 35.0374C158.469 34.9971 158.485 34.959 158.509 34.9273C158.534 34.8956 158.568 34.8718 158.605 34.8585C158.66 34.8335 158.719 34.8202 158.779 34.8191C158.898 34.8106 159.018 34.8119 159.138 34.807C160.192 34.7632 160.421 34.3919 160.686 33.5767C160.864 32.912 160.988 32.2339 161.059 31.5488C161.255 30.2894 161.442 29.0283 161.629 27.7672C161.805 26.5862 161.974 25.4045 162.151 24.2235C162.377 22.7227 162.609 21.2229 162.834 19.7221C163.011 18.5414 163.18 17.3594 163.354 16.1779C163.478 15.3369 163.599 14.4959 163.731 13.656C163.756 13.4335 163.827 13.2189 163.941 13.0267C163.968 12.9781 164.006 12.9365 164.052 12.9047C164.097 12.873 164.149 12.8521 164.204 12.8435C164.258 12.8349 164.314 12.8389 164.367 12.8551C164.42 12.8713 164.468 12.8994 164.509 12.9373C164.674 13.0865 164.804 13.2702 164.892 13.4757C165.169 14.0378 165.442 14.6016 165.712 15.167C166.809 17.4649 167.906 19.7633 169.001 22.0623C170.15 24.4701 171.299 26.8777 172.448 29.2851C172.545 29.485 172.647 29.6818 172.753 29.8962Z" fill="#F0F0F0"/>
<path d="M76.4092 8.73965C78.1227 8.73576 79.8337 8.8734 81.5252 9.15119C82.1767 9.24644 82.8202 9.39894 83.4684 9.51979C83.7037 9.56356 83.9423 9.58803 84.1784 9.6285C84.3165 9.64851 84.4527 9.68031 84.5856 9.7235C84.6626 9.74841 84.7299 9.79762 84.7775 9.86396C84.8251 9.93031 84.8505 10.0103 84.8502 10.0924C84.8565 10.1733 84.8546 10.2546 84.8445 10.3352C84.5923 11.9244 84.6463 13.5284 84.6149 15.1281C84.6274 15.4322 84.6016 15.7368 84.538 16.0343C84.517 16.1326 84.4864 16.2286 84.4468 16.3209C84.422 16.3768 84.3816 16.4242 84.3307 16.4573C84.2797 16.4904 84.2204 16.5077 84.1599 16.5072C84.1 16.5039 84.0424 16.4822 83.9948 16.4451C83.9471 16.4081 83.9116 16.3573 83.8929 16.2994C83.826 16.1296 83.7957 15.9472 83.8041 15.7645C83.7893 15.124 83.6458 14.4932 83.3825 13.9107C83.1192 13.3283 82.7416 12.8064 82.2728 12.3769C81.7917 11.9462 81.2386 11.606 80.6396 11.3724C79.6763 10.9751 78.6664 10.7058 77.6349 10.5714C76.5242 10.4203 75.4006 10.3913 74.2837 10.4847C72.7976 10.5566 71.3562 11.023 70.1037 11.8374C68.7156 12.7825 67.6379 14.1273 67.0095 15.6987C66.5267 16.9015 66.2261 18.1714 66.1182 19.4654C66.021 20.4134 65.9952 21.3676 66.0411 22.3195C66.1153 24.7264 66.8748 27.0601 68.2279 29.0389C69.8333 31.407 72.2759 33.0575 75.0491 33.6479C75.517 33.7566 75.9947 33.8164 76.4746 33.8266C77.634 33.8696 78.7946 33.79 79.9377 33.589C82.1862 33.1425 83.5837 31.7821 84.1605 29.5424C84.1927 29.4046 84.2349 29.2694 84.287 29.138C84.3151 29.0721 84.3644 29.0177 84.4268 28.9838C84.4893 28.9499 84.5612 28.9385 84.6309 28.9514C84.6663 28.9529 84.701 28.9617 84.7329 28.9773C84.7649 28.9929 84.7933 29.015 84.8166 29.0421C84.8398 29.0692 84.8574 29.1009 84.8682 29.1351C84.8791 29.1693 84.8829 29.2054 84.8795 29.2412C84.8932 29.565 84.8828 29.8894 84.8486 30.2116C84.6936 31.3755 84.5296 32.5385 84.265 33.6834C84.2194 33.8803 84.1627 34.0751 84.1 34.2673C84.0507 34.422 83.9696 34.5643 83.862 34.6847C83.7543 34.8052 83.6226 34.9011 83.4757 34.966C83.0572 35.1601 82.6171 35.3023 82.165 35.3896C81.0889 35.6177 79.9957 35.7526 78.8971 35.7929C78.1371 35.8171 77.3812 35.8912 76.6204 35.8606C74.7 35.7836 72.7933 35.6129 70.9367 35.0623C69.1407 34.5533 67.4584 33.6973 65.9825 32.5413C63.7283 30.7762 62.1642 28.2576 61.5683 25.4333C61.2242 23.8882 61.1163 22.2987 61.2483 20.7204C61.3674 19.284 61.7183 17.8771 62.2867 16.556C63.4476 13.8042 65.5561 11.5749 68.2187 10.2842C69.5166 9.64882 70.9018 9.21595 72.3272 9.00031C73.6775 8.79004 75.0436 8.70282 76.4092 8.73965Z" fill="#F0F0F0"/>
<path d="M151.941 21.8265C151.941 20.083 151.941 18.3396 151.941 16.5961C151.938 16.1503 151.905 15.7052 151.843 15.2638C151.822 14.9879 151.712 14.7268 151.53 14.5207C151.347 14.3146 151.104 14.175 150.835 14.1233C150.526 14.0406 150.207 13.9984 149.887 13.9978C149.708 13.9985 149.529 13.9813 149.353 13.9463C149.304 13.936 149.26 13.9068 149.23 13.8646C149.201 13.8225 149.188 13.7706 149.196 13.7195C149.195 13.6684 149.214 13.619 149.247 13.5808C149.281 13.5427 149.327 13.5186 149.377 13.513C149.516 13.493 149.655 13.4831 149.795 13.4833C150.274 13.4833 150.755 13.475 151.233 13.4937C152.873 13.5581 154.512 13.4863 156.152 13.483C156.332 13.4822 156.511 13.4929 156.689 13.5152C156.739 13.5211 156.785 13.546 156.818 13.5849C156.851 13.6238 156.868 13.6738 156.866 13.7249C156.871 13.776 156.857 13.827 156.827 13.8682C156.797 13.9094 156.753 13.9379 156.703 13.9482C156.567 13.9807 156.429 13.9971 156.289 13.9972C156.03 14.0049 155.771 14.0371 155.518 14.0935C155.288 14.1299 155.076 14.2397 154.912 14.407C154.749 14.5743 154.642 14.7903 154.608 15.0235C154.541 15.3404 154.502 15.6629 154.492 15.9869C154.468 16.7577 154.462 17.5285 154.46 18.2993C154.454 20.8746 154.477 23.4504 154.441 26.0251C154.44 27.4046 154.257 28.7778 153.896 30.1078C153.052 33.0665 151.054 34.7711 148.189 35.5069C146.938 35.7933 145.648 35.8589 144.375 35.7009C143.757 35.6522 143.145 35.5522 142.543 35.402C140.708 34.9114 139.23 33.9135 138.231 32.2492C137.715 31.3548 137.362 30.3734 137.19 29.3521C137.003 28.315 136.916 27.2622 136.928 26.2081C136.932 23.2679 136.928 20.3277 136.917 17.3873C136.915 16.7393 136.875 16.0907 136.829 15.4441C136.837 15.1146 136.723 14.794 136.511 14.5444C136.299 14.2949 136.003 14.1342 135.68 14.0935C135.347 14.0292 135.008 13.9978 134.668 14C134.509 14.0176 134.348 13.996 134.198 13.9369C134.153 13.9155 134.115 13.8789 134.093 13.8332C134.07 13.7875 134.064 13.7353 134.074 13.6853C134.08 13.6445 134.098 13.6065 134.126 13.5768C134.154 13.5471 134.191 13.5273 134.231 13.5202C134.389 13.4969 134.548 13.4847 134.707 13.4838C135.447 13.4866 136.188 13.4822 136.927 13.5053C138.667 13.5603 140.407 13.4918 142.146 13.4827C142.346 13.4827 142.546 13.4918 142.744 13.5102C142.794 13.5132 142.842 13.5342 142.878 13.5695C142.915 13.6048 142.938 13.6521 142.943 13.7029C142.95 13.7639 142.934 13.8253 142.897 13.8742C142.861 13.9231 142.807 13.9556 142.747 13.9647C142.609 13.989 142.47 14.0007 142.33 13.9997C142.07 14.0079 141.812 14.0481 141.562 14.1194C141.384 14.156 141.219 14.2405 141.085 14.3641C140.951 14.4877 140.852 14.6458 140.799 14.8217C140.72 15.0516 140.672 15.291 140.655 15.5338C140.589 16.4442 140.566 17.3556 140.567 18.2679C140.57 21.0257 140.558 23.7834 140.582 26.5412C140.582 27.5755 140.689 28.6068 140.902 29.6183C141.013 30.1958 141.199 30.7559 141.455 31.2843C141.855 32.1313 142.477 32.8503 143.254 33.3627C144.03 33.8751 144.93 34.1612 145.856 34.1896C147.02 34.2883 148.186 34.0376 149.21 33.469C150.188 32.9337 150.942 32.0573 151.333 31.0019C151.587 30.3184 151.75 29.6038 151.818 28.8767C151.911 28.0102 151.956 27.139 151.953 26.2673C151.944 24.7871 151.951 23.3067 151.951 21.8265H151.941Z" fill="#F0F0F0"/>
<path d="M120.886 13.5345C122.257 13.5152 123.497 13.4962 124.736 13.4825C124.915 13.4808 125.095 13.4923 125.272 13.5169C125.321 13.5279 125.364 13.555 125.395 13.5939C125.427 13.6328 125.445 13.6813 125.446 13.7315C125.447 13.7818 125.432 13.8311 125.402 13.8715C125.373 13.9119 125.331 13.9411 125.283 13.9546C125.126 13.9841 124.967 13.9985 124.808 13.9978C124.488 14.0066 124.17 14.0376 123.855 14.0906C123.624 14.1166 123.408 14.2183 123.239 14.3801C123.07 14.5419 122.958 14.7551 122.919 14.9874C122.858 15.2431 122.82 15.5041 122.808 15.767C122.783 16.2526 122.773 16.7396 122.773 17.226C122.773 21.443 122.775 25.6599 122.779 29.8768C122.766 30.566 122.807 31.2552 122.903 31.9376C122.932 32.1171 122.971 32.2955 123.007 32.4733C123.047 32.7047 123.15 32.9204 123.303 33.0966C123.456 33.2729 123.654 33.4029 123.876 33.4723C124.136 33.5746 124.408 33.6467 124.684 33.6873C125.974 33.8551 127.279 33.8634 128.571 33.7121C128.808 33.6808 129.043 33.6266 129.27 33.5502C129.713 33.408 130.092 33.11 130.338 32.7098C130.587 32.3164 130.758 31.8781 130.843 31.4187C130.867 31.2793 130.901 31.1421 130.946 31.0082C130.961 30.9533 130.994 30.9055 131.04 30.8732C131.086 30.8409 131.142 30.8263 131.198 30.832C131.254 30.8376 131.306 30.8632 131.345 30.9041C131.384 30.945 131.407 30.9986 131.411 31.0553C131.425 31.1555 131.43 31.257 131.425 31.3581C131.367 32.4304 131.237 33.4974 131.034 34.5514C131.019 34.6304 130.98 34.7045 130.96 34.7826C130.919 34.9518 130.824 35.1027 130.691 35.2128C130.558 35.3228 130.393 35.3858 130.222 35.3924C130.063 35.4119 129.903 35.4211 129.743 35.4199C128.083 35.4083 126.422 35.4405 124.765 35.367C122.865 35.2828 120.967 35.262 119.07 35.3046C118.61 35.3156 118.152 35.3448 117.693 35.3662C117.414 35.3977 117.131 35.3615 116.868 35.2608C116.831 35.2443 116.8 35.2173 116.779 35.1831C116.757 35.1488 116.746 35.1088 116.746 35.0681C116.748 35.0276 116.761 34.9885 116.783 34.9546C116.805 34.9208 116.836 34.8935 116.872 34.8754C116.98 34.8211 117.101 34.7994 117.22 34.8129C117.52 34.804 117.818 34.7714 118.112 34.7155C118.271 34.6902 118.42 34.6208 118.542 34.5148C118.664 34.4088 118.754 34.2705 118.803 34.1153C118.955 33.6749 119.043 33.2144 119.064 32.7483C119.139 31.5954 119.181 30.4414 119.179 29.2855C119.172 25.1903 119.17 21.0949 119.172 16.9995C119.172 16.4299 119.114 15.8664 119.066 15.3018C119.057 15.0246 118.956 14.7586 118.779 14.547C118.603 14.3353 118.361 14.1904 118.093 14.1357C117.826 14.0482 117.547 14.003 117.267 14.0016C117.147 14.006 117.027 14.004 116.907 13.9956C116.628 13.9794 116.5 13.9044 116.481 13.753C116.461 13.5879 116.614 13.4979 116.938 13.4827C117.018 13.4792 117.098 13.4808 117.178 13.4811C117.538 13.483 117.898 13.4811 118.258 13.4879C119.179 13.5028 120.098 13.5204 120.886 13.5345Z" fill="#F0F0F0"/>
<path d="M26.0076 35.32C20.8111 35.32 15.6147 35.32 10.4184 35.32C9.5574 35.32 9.64344 35.3938 9.64045 34.5437C9.63855 33.9764 9.64208 33.409 9.64507 32.8417C9.64186 32.8113 9.64527 32.7805 9.65503 32.7516C9.6648 32.7227 9.68069 32.6963 9.7016 32.6743C9.72251 32.6523 9.74791 32.6352 9.77603 32.6242C9.80416 32.6132 9.83431 32.6086 9.86437 32.6107C10.024 32.6044 10.1841 32.6041 10.344 32.6041C20.7569 32.6041 31.1698 32.6041 41.5826 32.6041C42.3589 32.6041 42.3027 32.5353 42.3046 33.314C42.3063 33.8817 42.3074 34.4491 42.2992 35.0161C42.296 35.2504 42.2395 35.303 42.0167 35.3143C41.837 35.3233 41.657 35.32 41.4771 35.32H26.0076Z" fill="#F0F0F0"/>
<path d="M213.648 24.0324C213.648 21.5989 213.653 19.1652 213.644 16.7317C213.664 16.2048 213.629 15.6772 213.539 15.1579C213.503 14.8846 213.381 14.6307 213.19 14.4345C212.999 14.2383 212.75 14.1106 212.481 14.0705C212.225 14.0253 211.966 14.001 211.707 13.9981C211.567 14.0138 211.426 13.9893 211.3 13.9274C211.264 13.9089 211.234 13.8809 211.212 13.8464C211.191 13.8119 211.179 13.7721 211.178 13.7314C211.177 13.6906 211.188 13.6504 211.211 13.6165C211.233 13.5826 211.266 13.5567 211.303 13.5425C211.458 13.5043 211.617 13.4847 211.776 13.4842C212.376 13.4842 212.976 13.4817 213.576 13.5015C215.316 13.5596 217.055 13.4946 218.795 13.4817C218.995 13.4803 219.195 13.4844 219.394 13.5007C219.424 13.4996 219.454 13.5049 219.482 13.5161C219.51 13.5273 219.536 13.5442 219.557 13.5658C219.578 13.5874 219.595 13.6132 219.606 13.6416C219.616 13.67 219.622 13.7004 219.62 13.7308C219.616 13.792 219.59 13.8496 219.548 13.8938C219.506 13.9379 219.45 13.9659 219.39 13.9728C219.274 13.997 219.151 13.9874 219.032 14.0003C218.794 14.028 218.557 14.0591 218.32 14.0936C218.078 14.1201 217.853 14.2293 217.681 14.4034C217.508 14.5775 217.4 14.806 217.373 15.0511C217.306 15.4093 217.267 15.7723 217.256 16.1368C217.232 16.825 217.229 17.5157 217.229 18.205C217.227 21.8959 217.227 25.5869 217.229 29.2779C217.229 30.1904 217.237 31.1033 217.261 32.0153C217.274 32.5006 217.325 32.9854 217.367 33.4699C217.383 33.5901 217.41 33.7087 217.447 33.8244C217.495 34.0547 217.616 34.263 217.791 34.4184C217.965 34.5737 218.184 34.668 218.416 34.6872C218.89 34.7628 219.369 34.8045 219.848 34.8119C219.988 34.7903 220.131 34.817 220.253 34.8876C220.299 34.924 220.333 34.9728 220.351 35.0282C220.364 35.0673 220.363 35.1098 220.348 35.1481C220.332 35.1863 220.304 35.2177 220.268 35.2366C220.164 35.2947 220.049 35.3329 219.931 35.3495C219.713 35.3719 219.493 35.3777 219.273 35.3668C217.055 35.2429 214.835 35.268 212.616 35.3231C212.417 35.328 212.218 35.3583 212.019 35.3693C211.799 35.3892 211.577 35.3537 211.374 35.2661C211.337 35.2498 211.306 35.2231 211.284 35.1892C211.261 35.1553 211.249 35.1157 211.249 35.075C211.245 35.024 211.26 34.9732 211.29 34.9326C211.321 34.8919 211.366 34.8642 211.415 34.8548C211.552 34.8271 211.691 34.8128 211.83 34.8121C212.11 34.8005 212.388 34.7637 212.661 34.702C212.84 34.6744 213.007 34.5911 213.138 34.4637C213.268 34.3362 213.357 34.1708 213.392 33.9901C213.447 33.7745 213.489 33.5558 213.518 33.335C213.616 32.4281 213.661 31.516 213.65 30.6036C213.65 28.4131 213.649 26.2227 213.648 24.0324Z" fill="#F0F0F0"/>
<path d="M44.9591 9.57781C43.9205 9.04282 42.7693 8.77187 41.6046 8.7883C40.1648 8.78623 38.7302 8.96384 37.3332 9.31712C35.3426 9.76803 33.3995 10.3907 31.4582 11.017C30.9444 11.1822 30.4331 11.3575 29.9182 11.5194C29.7586 11.581 29.5881 11.6086 29.4175 11.6004C29.2469 11.5922 29.0798 11.5484 28.9267 11.4718C28.7211 11.3473 28.5255 11.2065 28.3418 11.0508C28.1375 10.9297 27.9489 10.7831 27.7804 10.6145C27.9509 10.4728 28.0969 10.3668 28.2253 10.2415C28.7111 9.81054 29.06 9.24308 29.2278 8.61097C29.3956 7.97886 29.3748 7.31049 29.168 6.69038C29.022 6.18092 28.7549 5.71559 28.3902 5.33522C28.0256 4.95484 27.5744 4.67105 27.0764 4.50877C26.9018 4.46561 26.7344 4.39681 26.5794 4.30452C26.7357 4.09338 26.8652 3.91527 26.9979 3.73991C27.1928 3.48253 27.3937 3.23008 27.5853 2.96911C27.911 2.52866 27.911 2.43121 27.6062 2.00563C27.5592 1.94011 27.509 1.87708 27.4596 1.81294L26.0615 -0.00390625H25.9416C25.8343 0.114189 25.719 0.225683 25.6218 0.351486C25.1908 0.910032 24.7609 1.47021 24.3385 2.03537C24.0717 2.39323 24.0709 2.54299 24.3339 2.90389C24.6072 3.27855 24.896 3.64163 25.1753 4.01271C25.2454 4.10603 25.3442 4.18945 25.3192 4.3593C23.9523 4.74194 22.9931 5.5898 22.7075 7.04907C22.4179 8.52926 22.9839 9.70085 24.192 10.6222C23.9056 10.8424 23.6491 11.0236 23.4084 11.2251C23.2126 11.4004 22.9728 11.5174 22.7155 11.563C22.4583 11.6085 22.1936 11.581 21.9508 11.4833C21.2136 11.2287 20.468 10.9988 19.7251 10.7612C17.6427 10.0494 15.5157 9.47919 13.3584 9.0545C12.3569 8.85838 11.3383 8.76678 10.3184 8.78114C9.23545 8.78375 8.16562 9.0218 7.18104 9.47925C6.50657 9.7932 5.90051 10.2403 5.39823 10.7943C4.89596 11.3484 4.50754 11.9984 4.25564 12.7064C3.921 13.7316 3.84568 14.8256 4.03659 15.8881C4.23758 17.109 4.61149 18.294 5.14672 19.4065C5.8292 20.8504 6.59391 22.2528 7.43699 23.6067C8.35233 25.0855 9.02301 26.7062 9.42246 28.4046C9.54346 28.9168 9.61616 29.4395 9.63959 29.9657C9.64719 30.1942 9.71179 30.2498 9.93219 30.2619C10.1116 30.2715 10.2918 30.2677 10.4718 30.2677H41.543C41.6629 30.2677 41.7829 30.2701 41.9029 30.2677C42.288 30.2578 42.3138 30.2349 42.3456 29.8655C42.3626 29.5217 42.397 29.179 42.4487 28.8387C42.8113 27.0692 43.4697 25.3756 44.3954 23.8313C44.7678 23.1836 45.1581 22.5466 45.5305 21.8988C46.2975 20.6158 46.9363 19.2583 47.4372 17.8464C47.8134 16.8188 48.0112 15.7328 48.0219 14.6366C47.9904 12.3386 46.9234 10.6748 44.9591 9.57781ZM23.5346 25.232C23.3325 26.0208 22.9244 26.7397 22.3533 27.3131C22.1633 27.5166 21.9341 27.6782 21.6799 27.7881C21.4256 27.8979 21.1519 27.9535 20.8755 27.9514C20.5992 27.9493 20.3263 27.8895 20.0737 27.7759C19.8211 27.6622 19.5943 27.4971 19.4073 27.2908C18.9409 26.8137 18.5975 26.2276 18.4074 25.5841C18.3708 25.4685 18.357 25.3468 18.3668 25.2259C18.3767 25.105 18.4099 24.9872 18.4647 24.8793C18.7119 24.326 18.9386 23.7633 19.172 23.2034C19.4912 22.4381 19.4738 22.3401 18.9079 21.7656C17.9756 20.8188 17.0424 19.8732 16.1082 18.9286C15.6633 18.4804 15.5925 18.4945 15.3189 19.075C14.8784 20.0068 14.4412 20.9399 14.0071 21.8746C13.7951 22.3316 13.8157 22.478 14.1699 22.848C14.8232 23.5326 15.4657 24.2299 16.1529 24.8779C16.4611 25.1682 16.6439 25.57 16.6616 25.9961C16.688 26.2748 16.65 26.5559 16.5504 26.817C16.4508 27.0782 16.2924 27.3121 16.0879 27.5002C15.8835 27.6883 15.6385 27.8253 15.3726 27.9004C15.1066 27.9755 14.8271 27.9866 14.5562 27.9328C13.7881 27.773 13.0791 27.3991 12.5091 26.8531C11.9437 26.3376 11.4324 25.7642 10.9831 25.1422C10.0614 23.8422 9.21322 22.4901 8.44261 21.0926C7.85833 20.1247 7.33954 19.1177 6.8898 18.0785C6.67854 17.5753 6.49727 17.0597 6.34696 16.5344C6.17349 15.9304 6.09804 15.3016 6.12358 14.673C6.20202 13.0373 7.00271 11.8896 8.45456 11.2116C9.00508 10.9665 9.59629 10.8291 10.1971 10.8064C11.5965 10.7467 12.9966 10.9073 14.3474 11.2826C16.085 11.7532 17.7865 12.3512 19.4385 13.072C20.1203 13.3605 20.7908 13.6776 21.4712 13.9699C21.5865 13.9998 21.6873 14.0707 21.7553 14.1697C21.8233 14.2687 21.854 14.3892 21.8417 14.5092C21.8472 15.2618 22.019 16.0036 22.3444 16.6801C22.7352 17.568 23.0668 18.4815 23.337 19.4144C23.6573 20.5175 23.8206 21.6613 23.822 22.8111C23.8498 23.6283 23.7529 24.4449 23.5346 25.232ZM45.8125 15.5762C45.6366 16.6368 45.3066 17.6652 44.8332 18.6277C44.4051 19.5678 43.8894 20.4597 43.3745 21.353C42.7283 22.4728 42.075 23.5883 41.3362 24.6492C40.8405 25.3872 40.2716 26.0718 39.6384 26.6923C39.2186 27.0994 38.7361 27.4341 38.2099 27.6833C37.9181 27.8174 37.6086 27.9078 37.2911 27.9517C37.0578 27.9856 36.8202 27.9708 36.5928 27.9082C36.3653 27.8457 36.1529 27.7367 35.9684 27.588C35.7839 27.4393 35.6313 27.2539 35.5199 27.0433C35.4085 26.8327 35.3407 26.6012 35.3206 26.3631C35.3059 26.1812 35.3059 25.9983 35.3206 25.8164C35.3352 25.5108 35.4656 25.2227 35.6846 25.0123C36.3295 24.3761 36.9551 23.7185 37.5878 23.0707C37.7002 22.9554 37.8117 22.8389 37.9198 22.7195C37.9956 22.6375 38.0475 22.5357 38.0696 22.4256C38.0917 22.3154 38.0832 22.2012 38.0449 22.0957C38.0077 21.98 37.9623 21.8672 37.9092 21.7582C37.4825 20.8419 37.0544 19.9262 36.6248 19.0111C36.5833 18.919 36.5364 18.8294 36.4842 18.743C36.4666 18.7122 36.4424 18.6857 36.4134 18.6657C36.3844 18.6456 36.3512 18.6324 36.3165 18.6272C36.2818 18.6219 36.2463 18.6246 36.2127 18.6351C36.1792 18.6456 36.1484 18.6637 36.1227 18.688C36.0451 18.7519 35.9715 18.8205 35.9023 18.8936C34.8976 19.9112 33.8934 20.9293 32.8895 21.9478C32.8623 21.9754 32.8352 22.0062 32.8048 22.034C32.6871 22.131 32.6068 22.2669 32.578 22.4179C32.5492 22.5689 32.5736 22.7253 32.6471 22.8599C32.8756 23.3777 33.0865 23.9035 33.3053 24.4257C33.3365 24.5003 33.371 24.5735 33.4027 24.6478C33.6845 25.3113 33.685 25.3181 33.413 25.9692C33.2147 26.4804 32.9124 26.9435 32.5257 27.3282C32.3412 27.5229 32.1204 27.6785 31.876 27.7858C31.6317 27.8931 31.3687 27.9502 31.1025 27.9535C30.8362 27.9568 30.5719 27.9064 30.3251 27.8052C30.0782 27.704 29.8536 27.554 29.6644 27.364C29.2588 26.999 28.9375 26.5478 28.7231 26.0426C28.2052 24.7831 28.0079 23.4117 28.1496 22.0547C28.3233 20.2563 28.7956 18.5006 29.5466 16.862C29.9215 16.0965 30.1254 15.2566 30.1437 14.4021C30.1348 14.3217 30.1525 14.2406 30.194 14.1715C30.2355 14.1024 30.2985 14.0493 30.3731 14.0206C32.8197 12.9117 35.2859 11.8566 37.9005 11.2113C38.8502 10.9485 39.829 10.8087 40.8134 10.7954C41.4892 10.76 42.1667 10.8188 42.8268 10.9699C43.8141 11.1996 44.6759 11.8071 45.2322 12.6657C45.7885 13.5242 45.9964 14.5676 45.8125 15.5779V15.5762Z" fill="#F0F0F0"/>
<path d="M112.508 23.9339C112.535 22.9511 112.441 21.9687 112.227 21.0096C111.425 17.5738 109.391 15.2248 106.154 13.9462C104.897 13.4742 103.58 13.1892 102.244 13.1002C100.749 12.9736 99.2433 13.0726 97.777 13.394C95.8014 13.7857 93.9804 14.7509 92.5353 16.1721C90.4108 18.2896 89.3851 20.9124 89.2098 23.8954C89.1378 25.214 89.2976 26.5351 89.6815 27.797C90.7455 31.3704 92.9454 33.8793 96.4693 35.0936C98.2397 35.6862 100.114 35.891 101.968 35.6945C103.245 35.5929 104.498 35.2926 105.684 34.804C106.996 34.2697 108.19 33.4754 109.196 32.4676C110.201 31.4598 110.999 30.2586 111.541 28.9344C112.217 27.3584 112.547 25.6521 112.508 23.9339ZM107.921 29.4831C107.564 30.7579 106.865 31.9072 105.902 32.8029C105.085 33.5625 104.057 34.048 102.958 34.1931C99.7934 34.5925 97.2306 33.495 95.3078 30.9117C94.3089 29.51 93.6505 27.8888 93.3862 26.1802C93.1759 25.0031 93.103 23.805 93.169 22.6106C93.2091 21.2314 93.4792 19.8691 93.9678 18.5814C94.5883 17.0412 95.5733 15.8335 97.077 15.1147C97.9321 14.7148 98.8586 14.4955 99.7999 14.47C101.042 14.4078 102.28 14.6505 103.41 15.1775C104.941 15.9093 106.203 17.116 107.013 18.6232C107.766 19.9883 108.24 21.4933 108.406 23.0484C108.488 23.7794 108.525 24.5149 108.517 25.2506C108.532 26.6838 108.332 28.1109 107.922 29.4828L107.921 29.4831Z" fill="#F0F0F0"/>
<path d="M205.604 25.3598C204.692 24.3298 203.554 23.5312 202.282 23.0285C202.138 23.0011 202.011 22.9177 201.927 22.7961C202.35 22.4529 202.751 22.0824 203.128 21.687C203.99 20.8274 204.545 19.7004 204.704 18.4847C204.835 17.6575 204.707 16.8096 204.337 16.0604C203.967 15.3113 203.375 14.6988 202.644 14.3095C201.775 13.8435 200.818 13.574 199.837 13.5194C199.14 13.4699 198.438 13.4784 197.739 13.4919C196.301 13.5194 194.862 13.5384 193.422 13.5018C192.723 13.4839 192.023 13.4844 191.324 13.4822C191.164 13.4827 191.006 13.496 190.848 13.5219C190.809 13.5306 190.773 13.5522 190.747 13.5835C190.721 13.6147 190.706 13.6538 190.704 13.6948C190.696 13.7453 190.706 13.7968 190.731 13.8412C190.756 13.8855 190.794 13.9202 190.841 13.9395C191.011 14.0008 191.193 14.0203 191.372 13.9962C191.753 13.9844 192.132 14.0333 192.497 14.141C192.712 14.1954 192.908 14.3088 193.064 14.4688C193.219 14.6288 193.328 14.8291 193.378 15.0478C193.436 15.2628 193.469 15.4837 193.477 15.7063C193.502 16.5569 193.552 17.4072 193.549 18.2576C193.536 22.4928 193.608 26.7285 193.495 30.9632C193.482 31.4493 193.483 31.9363 193.455 32.4221C193.435 32.9486 193.355 33.471 193.217 33.9789C193.176 34.1796 193.073 34.3616 192.922 34.4977C192.771 34.6339 192.58 34.7168 192.379 34.7342C192.162 34.7579 191.945 34.7852 191.725 34.8064C191.587 34.8198 191.445 34.8157 191.308 34.8383C191.258 34.8422 191.21 34.8635 191.174 34.8985C191.137 34.9336 191.114 34.9804 191.107 35.031C191.102 35.0817 191.114 35.1327 191.141 35.1758C191.167 35.2188 191.208 35.2515 191.255 35.2686C191.457 35.3622 191.68 35.3965 191.899 35.3674C192.856 35.2812 193.816 35.2994 194.775 35.2804C195.673 35.2628 196.571 35.303 197.47 35.3578C198.704 35.478 199.948 35.4587 201.178 35.3002C202.129 35.1601 203.048 34.8501 203.892 34.3846C205.729 33.3369 206.794 31.748 207 29.6206C207.075 28.8508 206.989 28.0737 206.749 27.3396C206.508 26.6055 206.118 25.931 205.604 25.3598ZM196.967 15.5295C196.964 15.3676 196.97 15.2057 196.984 15.0445C196.987 14.962 197.02 14.8835 197.076 14.8236C197.132 14.7638 197.208 14.7266 197.289 14.7191C198.646 14.5435 199.882 14.726 200.808 16.1115C201.274 16.7868 201.577 17.5636 201.692 18.3793C201.808 19.1951 201.733 20.027 201.474 20.808C201.456 20.8661 201.433 20.9223 201.41 20.9784C200.989 22.0264 200.254 22.6637 199.113 22.7295C198.616 22.757 198.115 22.7356 197.616 22.7276C197.497 22.7176 197.379 22.6972 197.263 22.6667C197.183 22.6581 197.108 22.6191 197.055 22.5575C197.001 22.4958 196.972 22.416 196.974 22.3339C196.967 22.1721 196.967 22.0099 196.966 21.848C196.966 20.795 196.966 19.742 196.966 18.6889C196.966 17.6359 196.967 16.5827 196.967 15.5292V15.5295ZM203.47 30.6582C203.467 30.9819 203.428 31.3043 203.355 31.6194C203.222 32.2501 202.898 32.8228 202.428 33.2574C201.958 33.6921 201.366 33.9669 200.735 34.0436C199.845 34.21 198.927 34.1305 198.078 33.8134C197.869 33.7427 197.674 33.6358 197.502 33.4974C197.283 33.3158 197.136 33.0607 197.087 32.7784C197.019 32.4413 196.98 32.0986 196.972 31.7546C196.978 30.5599 196.975 29.3654 196.975 28.1707H196.967C196.967 27.0165 196.967 25.8624 196.967 24.7082C196.967 24.5464 196.963 24.3839 196.973 24.2226C196.97 24.1869 196.975 24.1508 196.987 24.1171C196.999 24.0834 197.019 24.053 197.044 24.028C197.07 24.0031 197.1 23.9843 197.134 23.973C197.168 23.9618 197.203 23.9583 197.238 23.963C197.817 23.9494 198.396 23.9697 198.972 24.0239C200.326 24.169 201.29 24.9551 202.082 25.9905C203.084 27.3262 203.576 28.9834 203.47 30.6579V30.6582Z" fill="#F0F0F0"/>
<path d="M246.04 34.8429C245.962 34.8226 245.883 34.8125 245.803 34.8129C245.603 34.8021 245.403 34.8002 245.204 34.7867C244.843 34.772 244.49 34.6745 244.171 34.5014C243.853 34.3284 243.577 34.0844 243.365 33.7877C242.957 33.2363 242.614 32.6379 242.343 32.005C242.024 31.2623 241.715 30.5149 241.416 29.7629C239.787 25.6456 238.16 21.5273 236.535 17.408C236.074 16.2421 235.607 15.0786 235.134 13.9177C235.024 13.635 234.891 13.3622 234.736 13.102C234.519 12.7494 234.189 12.7422 233.97 13.0877C233.813 13.3463 233.68 13.6194 233.573 13.9034C231.249 19.7903 228.928 25.6783 226.608 31.5673C226.377 32.1936 226.108 32.8048 225.803 33.3974C225.598 33.819 225.281 34.1737 224.887 34.4209C224.493 34.668 224.038 34.7977 223.575 34.795C223.375 34.8002 223.176 34.809 222.978 34.828C222.923 34.8312 222.871 34.8539 222.831 34.8922C222.791 34.9304 222.765 34.9818 222.759 35.0373C222.752 35.0927 222.765 35.1487 222.795 35.1955C222.826 35.2422 222.871 35.2766 222.924 35.2927C223.193 35.3718 223.476 35.3965 223.755 35.3654C223.994 35.3566 224.233 35.326 224.472 35.3202C226.13 35.2472 227.791 35.2619 229.447 35.3643C229.587 35.369 229.727 35.3576 229.864 35.3304C229.934 35.3284 230.002 35.3008 230.055 35.2525C230.107 35.2041 230.14 35.1383 230.149 35.067C230.166 34.9294 230.029 34.8253 229.807 34.8165C229.568 34.8068 229.327 34.8203 229.088 34.8013C228.394 34.7463 228.096 34.3694 228.176 33.6641C228.183 33.6039 228.194 33.5441 228.208 33.4849C228.288 33.088 228.397 32.6975 228.534 32.3166C228.875 31.4082 229.212 30.4976 229.55 29.5881C229.733 29.0953 229.92 28.6039 230.098 28.109C230.123 28.0099 230.181 27.9227 230.262 27.8624C230.343 27.8021 230.443 27.7724 230.543 27.7786C230.683 27.7806 230.823 27.7764 230.963 27.7764H233.542C234.462 27.7764 235.382 27.7745 236.301 27.7764C236.936 27.7784 236.94 27.7795 237.165 28.382C237.767 29.9923 238.366 31.6033 238.964 33.2152C239.07 33.4995 239.191 33.7789 239.282 34.0685C239.412 34.4751 239.326 34.6323 238.919 34.8055C238.88 34.815 238.843 34.8289 238.807 34.8468C238.773 34.8673 238.745 34.897 238.727 34.9327C238.708 34.9684 238.7 35.0086 238.702 35.0488C238.706 35.0896 238.722 35.1281 238.749 35.1585C238.776 35.1889 238.812 35.2093 238.852 35.2167C239.007 35.2524 239.165 35.2734 239.324 35.2795C239.883 35.2941 240.443 35.2916 241.003 35.3087C241.763 35.3321 242.521 35.3186 243.28 35.3574C244.099 35.4102 244.92 35.3939 245.736 35.3087C245.856 35.3134 245.975 35.2856 246.08 35.228C246.114 35.2061 246.141 35.175 246.158 35.1383C246.175 35.1016 246.182 35.0608 246.177 35.0205C246.174 34.9805 246.159 34.9423 246.135 34.9107C246.11 34.8792 246.077 34.8556 246.04 34.8429ZM236.051 26.3128C235.971 26.3172 235.891 26.3161 235.811 26.3161H231.313C231.233 26.3161 231.153 26.318 231.074 26.3125C230.891 26.3001 230.844 26.223 230.9 26.0254C230.922 25.9477 230.949 25.8712 230.977 25.7955C231.788 23.5951 232.599 21.3946 233.41 19.194C233.443 19.0521 233.515 18.9224 233.617 18.8199C233.66 18.8438 233.697 18.8765 233.727 18.916C233.756 18.9554 233.777 19.0007 233.789 19.0489C234.578 21.2576 235.368 23.466 236.16 25.6741C236.194 25.7693 236.232 25.8629 236.264 25.959C236.351 26.2291 236.309 26.2982 236.05 26.3117L236.051 26.3128Z" fill="#F0F0F0"/>
</g>
<defs>
<clipPath id="clip0_2448_898">
<rect width="250" height="48" fill="white"/>
</clipPath>
</defs>
</svg>
