<svg width="89" height="89" viewBox="0 0 89 89" fill="none" xmlns="http://www.w3.org/2000/svg">
<circle cx="44.5" cy="44.5" r="43" fill="#F5F5F5" stroke="#ABE9DC" stroke-width="3" stroke-dasharray="6 6"/>
<path d="M33.3472 59.6164C32.4442 59.6164 31.6709 59.2952 31.0272 58.6527C30.3847 58.009 30.0635 57.2357 30.0635 56.3327V33.3467C30.0635 32.4437 30.3847 31.6704 31.0272 31.0268C31.6709 30.3842 32.4442 30.063 33.3472 30.063H46.4821C46.9472 30.063 47.3375 30.2201 47.6527 30.5342C47.9668 30.8494 48.1239 31.2397 48.1239 31.7048C48.1239 32.17 47.9668 32.5597 47.6527 32.8738C47.3375 33.1891 46.9472 33.3467 46.4821 33.3467H33.3472V56.3327H56.3332V43.1978C56.3332 42.7327 56.4908 42.3424 56.8061 42.0272C57.1202 41.7131 57.5099 41.556 57.9751 41.556C58.4402 41.556 58.8299 41.7131 59.1441 42.0272C59.4593 42.3424 59.6169 42.7327 59.6169 43.1978V56.3327C59.6169 57.2357 59.2957 58.009 58.6531 58.6527C58.0095 59.2952 57.2362 59.6164 56.3332 59.6164H33.3472ZM54.6913 39.9141C54.2261 39.9141 53.8365 39.7565 53.5223 39.4413C53.2071 39.1271 53.0495 38.7375 53.0495 38.2723V36.6304H51.4076C50.9424 36.6304 50.5528 36.4733 50.2386 36.1592C49.9234 35.844 49.7658 35.4538 49.7658 34.9886C49.7658 34.5234 49.9234 34.1332 50.2386 33.8179C50.5528 33.5038 50.9424 33.3467 51.4076 33.3467H53.0495V31.7048C53.0495 31.2397 53.2071 30.8494 53.5223 30.5342C53.8365 30.2201 54.2261 30.063 54.6913 30.063C55.1565 30.063 55.5462 30.2201 55.8603 30.5342C56.1756 30.8494 56.3332 31.2397 56.3332 31.7048V33.3467H57.9751C58.4402 33.3467 58.8299 33.5038 59.1441 33.8179C59.4593 34.1332 59.6169 34.5234 59.6169 34.9886C59.6169 35.4538 59.4593 35.844 59.1441 36.1592C58.8299 36.4733 58.4402 36.6304 57.9751 36.6304H56.3332V38.2723C56.3332 38.7375 56.1756 39.1271 55.8603 39.4413C55.5462 39.7565 55.1565 39.9141 54.6913 39.9141ZM36.6309 53.049H53.0495C53.3779 53.049 53.6241 52.8985 53.7883 52.5975C53.9525 52.2965 53.9251 52.0092 53.7062 51.7355L49.1911 45.7017C49.0269 45.4828 48.808 45.3733 48.5344 45.3733C48.2607 45.3733 48.0418 45.4828 47.8776 45.7017L43.6088 51.4071L40.5714 47.3435C40.4072 47.1246 40.1883 47.0152 39.9146 47.0152C39.641 47.0152 39.4221 47.1246 39.2579 47.3435L35.9742 51.7355C35.7552 52.0092 35.7279 52.2965 35.8921 52.5975C36.0563 52.8985 36.3025 53.049 36.6309 53.049ZM33.3472 43.1978V56.3327V33.3467V43.1978Z" fill="#ABE9DC"/>
<rect x="25.6377" y="25.6372" width="38.4046" height="38.4046" stroke="#ABE9DC"/>
</svg>
