<svg width="49" height="49" viewBox="0 0 49 49" fill="none" xmlns="http://www.w3.org/2000/svg">
<g filter="url(#filter0_d_3121_4198)">
<ellipse cx="24.1824" cy="20.8327" rx="12.2654" ry="12.2585" fill="white"/>
</g>
<path d="M26.2971 18.7197C27.1384 18.7197 27.9452 19.0537 28.5401 19.6483C29.135 20.2428 29.4692 21.0492 29.4692 21.89V25.5887H27.3545V21.89C27.3545 21.6097 27.2431 21.341 27.0448 21.1428C26.8465 20.9446 26.5775 20.8333 26.2971 20.8333C26.0167 20.8333 25.7477 20.9446 25.5494 21.1428C25.3511 21.341 25.2397 21.6097 25.2397 21.89V25.5887H23.125V21.89C23.125 21.0492 23.4592 20.2428 24.0541 19.6483C24.649 19.0537 25.4558 18.7197 26.2971 18.7197V18.7197Z" stroke="#1186EF" stroke-width="0.84589" stroke-linecap="round" stroke-linejoin="round"/>
<path d="M21.0102 19.248H18.8955V25.5886H21.0102V19.248Z" stroke="#1186EF" stroke-width="0.84589" stroke-linecap="round" stroke-linejoin="round"/>
<path d="M19.9529 17.6624C20.5368 17.6624 21.0102 17.1892 21.0102 16.6056C21.0102 16.022 20.5368 15.5488 19.9529 15.5488C19.3689 15.5488 18.8955 16.022 18.8955 16.6056C18.8955 17.1892 19.3689 17.6624 19.9529 17.6624Z" stroke="#1186EF" stroke-width="0.84589" stroke-linecap="round" stroke-linejoin="round"/>
<defs>
<filter id="filter0_d_3121_4198" x="0.0745268" y="0.115315" width="48.2162" height="48.2015" filterUnits="userSpaceOnUse" color-interpolation-filters="sRGB">
<feFlood flood-opacity="0" result="BackgroundImageFix"/>
<feColorMatrix in="SourceAlpha" type="matrix" values="0 0 0 0 0 0 0 0 0 0 0 0 0 0 0 0 0 0 127 0" result="hardAlpha"/>
<feOffset dy="3.38356"/>
<feGaussianBlur stdDeviation="5.92123"/>
<feComposite in2="hardAlpha" operator="out"/>
<feColorMatrix type="matrix" values="0 0 0 0 0.125 0 0 0 0 0.125 0 0 0 0 0.125 0 0 0 0.1 0"/>
<feBlend mode="normal" in2="BackgroundImageFix" result="effect1_dropShadow_3121_4198"/>
<feBlend mode="normal" in="SourceGraphic" in2="effect1_dropShadow_3121_4198" result="shape"/>
</filter>
</defs>
</svg>
