<svg width="21" height="21" viewBox="0 0 21 21" fill="none" xmlns="http://www.w3.org/2000/svg">
<path d="M16.6666 10.001H4.99992C4.07944 10.001 3.33325 10.7472 3.33325 11.6676V17.501C3.33325 18.4215 4.07944 19.1676 4.99992 19.1676H16.6666C17.5871 19.1676 18.3333 18.4215 18.3333 17.501V11.6676C18.3333 10.7472 17.5871 10.001 16.6666 10.001Z" stroke="#F62E5F" stroke-width="1.66667" stroke-linecap="round" stroke-linejoin="round"/>
<path d="M6.66675 10.001V6.66764C6.66675 5.56257 7.10573 4.50277 7.88714 3.72136C8.66854 2.93996 9.72835 2.50098 10.8334 2.50098C11.9385 2.50098 12.9983 2.93996 13.7797 3.72136C14.5611 4.50277 15.0001 5.56257 15.0001 6.66764V10.001" stroke="#F62E5F" stroke-width="1.66667" stroke-linecap="round" stroke-linejoin="round"/>
</svg>
