P<svg width="101" height="55" viewBox="0 0 101 55" fill="none" xmlns="http://www.w3.org/2000/svg">
<path d="M58.65 0H10.35C7.60501 0 4.97245 1.08649 3.03145 3.02046C1.09044 4.95443 0 7.57746 0 10.3125V44.6875C0 47.4225 1.09044 50.0456 3.03145 51.9795C4.97245 53.9135 7.60501 55 10.35 55H58.65C61.395 55 64.0276 53.9135 65.9686 51.9795C67.9096 50.0456 69 47.4225 69 44.6875V10.3125C69 7.57746 67.9096 4.95443 65.9686 3.02046C64.0276 1.08649 61.395 0 58.65 0ZM58.65 6.875L36.225 22.2406C35.7005 22.5423 35.1056 22.7012 34.5 22.7012C33.8944 22.7012 33.2995 22.5423 32.775 22.2406L10.35 6.875H58.65Z" fill="#ABE9DC"/>
<path d="M85.3182 32.4478L79.8295 27.1194L78 28.8955L85.3182 36L101 20.7761L99.1705 19L85.3182 32.4478Z" fill="#ABE9DC"/>
</svg>
