<svg width="446" height="204" viewBox="0 0 446 204" fill="none" xmlns="http://www.w3.org/2000/svg">
<g clip-path="url(#clip0_3591_4524)">
<path opacity="0.2" d="M426.803 130.278C419.129 135.615 406.585 137.12 392.368 134.66C369.454 130.697 348.608 117.504 344.295 110.683C340.982 105.459 340.22 99.1735 341.048 92.5377C342.261 82.7923 357.529 36.4752 387.471 29.4454C398.293 26.9054 412.595 28.5243 428.31 43.3941C438.273 52.7592 441.827 65.9522 442.19 79.575C442.68 97.1674 436.876 123.28 426.804 130.278H426.803Z" fill="#1186EF"/>
<path opacity="0.2" d="M408.712 202.061H34.5558C32.7368 184.665 35.3351 161.486 43.0533 143.414C53.3799 119.205 75.238 96.6807 120.882 97.1345C218.952 98.1085 211.426 44.7651 280.075 41.3517C308.033 39.9615 325.079 65.1329 320.051 101.092C311.547 161.922 407.466 117.823 408.712 202.059V202.061Z" fill="#1186EF"/>
<path d="M217.665 101.979H196.025C196.025 101.979 186.431 102.63 189.875 118.779C193.319 134.929 204.634 167.659 201.19 177.559H225.298L217.665 101.979Z" fill="#F9DDBF"/>
<path d="M266.55 161.083C263.685 146.982 259.073 123.199 256.628 110.526C255.67 105.562 251.335 101.979 246.293 101.979H212.254C205.72 101.979 200.763 107.884 201.881 114.337L211.309 168.808C212.261 174.301 217.307 178.105 222.836 177.494L257.389 173.678C263.545 172.998 267.789 167.166 266.552 161.083H266.55Z" fill="#E8C4A3"/>
<path d="M175.162 180.673C174.475 188.552 170.037 190.985 168.085 190.775C166.134 190.567 154.72 186.198 154.473 187.8C154.225 189.404 161.094 194.641 165.904 194.885C165.904 194.885 156.821 204.927 150.786 202.029C144.749 199.13 144.235 194.537 140.471 192.814C136.707 191.091 133.496 191.096 135.05 192.853C136.603 194.61 143.415 196.317 145.565 200.133C146.074 201.034 146.569 201.865 146.949 202.598L134.238 202.573C130.207 200.565 126.813 197.796 126.559 194.811C126.539 194.583 126.522 194.366 126.505 194.158L126.113 189.566C126.113 189.566 119.586 181.934 122.979 175.602C123.542 174.549 124.38 173.534 125.565 172.594C125.565 172.594 131.649 168.901 136.609 169.203C136.609 169.203 132.765 175.665 131.683 179.505C131.3 180.857 131.262 181.886 131.854 182.191C132.503 182.527 133.342 181.552 134.209 179.989C136.384 176.074 138.739 168.461 138.739 168.461C138.739 168.461 142.395 168.105 146.559 168.052C148.426 168.028 150.394 168.064 152.181 168.221C154.153 168.395 155.899 168.715 157.036 169.263C157.036 169.263 156.787 169.466 156.37 169.817C155.749 170.339 154.755 171.184 153.649 172.164C150.367 175.075 146.101 179.179 147.696 179.549C148.987 179.849 153.039 177.435 156.644 175.04C160.001 172.813 162.969 170.598 162.969 170.598C162.969 170.598 175.851 172.796 175.165 180.675L175.162 180.673Z" fill="#82B378"/>
<path d="M168.832 180.886C168.832 180.886 133.84 179.535 126.113 189.567C126.113 189.567 124.405 194.698 119.145 199.371L118.325 201.61C118.325 201.61 124.388 195.201 126.559 194.813C126.559 194.813 123.166 182.384 168.832 180.886Z" fill="#82B378"/>
<path d="M120.617 199.313C120.318 199.642 119.869 200.091 119.225 200.686L119.212 200.7C118.989 200.906 118.771 201.129 118.562 201.367C118.237 201.727 117.925 202.121 117.629 202.54L115.994 202.537C117.679 200.459 119.147 199.369 119.147 199.369C119.147 199.369 119.147 199.369 119.152 199.366C119.28 199.289 122.293 197.462 120.619 199.311L120.617 199.313Z" fill="#82B378"/>
<path d="M87.9153 176.512C87.9153 176.512 102.033 168.586 95.4447 157.829C95.4447 157.829 90.1733 151.224 84.5276 149.527C84.5276 149.527 87.5393 165.567 84.5276 165.944C81.5158 166.321 82.4568 147.828 82.4568 147.828C82.4568 147.828 67.587 140.657 61.7507 141.223C61.7507 141.223 70.9748 156.886 67.9631 156.507C64.9513 156.13 54.5991 140.278 54.5991 140.278C54.5991 140.278 39.3516 137.448 36.9048 146.506C34.458 155.564 38.4106 160.093 40.6686 160.659C42.9282 161.226 57.4203 161.036 57.0442 162.923C56.6682 164.81 46.8792 167.829 41.4207 166.132C41.4207 166.132 47.4441 181.039 55.3495 180.285C63.2549 179.529 65.7017 174.623 70.597 174.246C75.4907 173.869 79.0673 175.19 76.6205 176.51C74.1737 177.83 65.8923 176.943 61.9379 180.312C57.9852 183.681 54.7846 185.757 62.1268 187.267C69.4672 188.777 82.644 187.833 85.2797 182.172L87.9153 176.51V176.512Z" fill="#A8D29F"/>
<path d="M43.8691 149.338C43.8691 149.338 83.3977 162.169 87.9153 176.512C87.9153 176.512 87.7264 182.928 91.6791 190.287V193.117C91.6791 193.117 87.5375 183.492 85.2796 182.172C85.2796 182.172 94.1259 169.718 43.8691 149.338Z" fill="#82B378"/>
<path d="M95.3427 202.509L93.0848 202.504C93.0133 199.229 92.6356 195.551 91.5211 192.75C91.3815 192.397 91.2318 192.061 91.0668 191.74C91.0668 191.737 91.0634 191.733 91.0616 191.73C90.5937 190.81 90.2755 190.131 90.0765 189.64C88.9211 186.798 91.6827 190.287 91.6827 190.287C91.6827 190.287 94.9956 195.331 95.3444 202.509H95.3427Z" fill="#82B378"/>
<path d="M110.376 165.582C110.376 165.582 91.7661 155.133 100.451 140.954C100.451 140.954 107.398 132.248 114.842 130.01C114.842 130.01 110.873 151.154 114.842 151.652C118.812 152.15 117.572 127.772 117.572 127.772C117.572 127.772 137.173 118.319 144.866 119.065C144.866 119.065 132.709 139.711 136.678 139.214C140.648 138.716 154.294 117.821 154.294 117.821C154.294 117.821 174.393 114.091 177.617 126.03C180.844 137.971 175.633 143.94 172.656 144.687C169.678 145.434 150.573 145.185 151.068 147.672C151.565 150.159 164.466 154.139 171.662 151.901C171.662 151.901 163.723 171.552 153.301 170.557C142.88 169.563 139.654 163.094 133.202 162.598C126.752 162.1 122.037 163.842 125.263 165.583C128.489 167.325 139.406 166.153 144.616 170.595C149.826 175.035 154.044 177.771 144.368 179.762C134.691 181.753 117.322 180.509 113.849 173.046L110.374 165.583L110.376 165.582Z" fill="#A8D29F"/>
<path d="M168.436 129.762C168.436 129.762 116.329 146.678 110.376 165.582C110.376 165.582 110.624 174.039 105.414 183.74V187.471C105.414 187.471 110.873 174.785 113.85 173.043C113.85 173.043 102.188 156.626 168.438 129.761L168.436 129.762Z" fill="#82B378"/>
<path d="M107.533 182.883C107.533 182.883 107.529 182.888 107.529 182.889C107.265 183.539 106.847 184.437 106.227 185.651C106.227 185.655 106.224 185.656 106.222 185.658C106.006 186.079 105.811 186.523 105.627 186.983C105.627 186.983 105.627 186.983 105.627 186.987C103.844 191.468 103.49 197.654 103.556 202.527L100.566 202.52C100.209 191.664 105.414 183.739 105.414 183.739C105.492 183.638 109.035 179.186 107.533 182.881V182.883Z" fill="#82B378"/>
<path d="M275.279 116.873L280.926 176.4C280.926 176.4 274.51 183.268 249.113 185.622C248.48 185.685 247.836 185.743 247.176 185.794C232.599 186.974 227.188 168.121 225.296 150.524C223.68 135.516 224.626 121.422 224.626 121.422C258.657 107.057 275.279 116.875 275.279 116.875V116.873Z" fill="#1186EF"/>
<path d="M330.699 164.219C325.657 166.565 295.672 168.535 292.793 167.705C291.316 167.276 285.135 161.818 278.916 155.103L278.91 155.1C273.025 148.747 267.092 141.272 265.091 135.892C260.975 124.837 264.512 115.02 264.512 115.02C264.512 115.02 272.162 114.987 275.281 116.876C278.4 118.767 296.234 151.693 298.618 152.562C301.002 153.435 329.251 155.054 332.485 156.593C332.485 156.593 335.737 161.876 330.7 164.221L330.699 164.219Z" fill="#1186EF"/>
<path d="M257.586 114.943L257.579 116.804C257.579 116.804 258.093 122.625 250.945 123.486C243.795 124.349 238.374 121.236 238.561 116.743C239.199 113.263 239.904 110.875 239.946 107.995C239.962 106.926 239.887 105.792 239.688 104.51L253.543 104.212L257.625 104.874L257.588 114.943H257.586Z" fill="#EA9E6A"/>
<path d="M257.624 104.875L257.587 114.945C256.116 115.634 254.456 116.053 252.594 116.057C246.227 116.067 239.889 105.793 239.688 104.512L257.624 104.875Z" fill="#D88D59"/>
<path d="M258.441 109.766C258.441 109.766 240.7 113.388 238.621 102.278C236.542 91.1676 232.851 84.1531 244.09 81.3709C255.329 78.5887 258.328 82.4132 259.923 85.9528C261.517 89.4924 263.001 108.538 258.441 109.766Z" fill="#EA9E6A"/>
<path d="M263.362 77.691C263.362 77.691 258.412 77.3174 252.572 74.7825C247.832 72.7253 241.859 75.0077 239.92 76.0363C239.971 75.7224 240.095 75.2943 240.391 74.8644C240.391 74.8644 239.521 75.4853 239.394 76.3502C239.304 76.4167 239.265 76.4628 239.287 76.4781C239.287 76.4781 238.3 76.299 237.665 76.5856C237.665 76.5856 238.109 76.5208 238.267 76.8074C238.284 76.8381 238.31 76.8637 238.339 76.8858C230.954 80.4766 230.291 92.1855 232.673 94.891C235.538 98.1457 238.98 105.481 238.98 105.481C238.98 105.481 240.229 103.744 239.704 100.877C239.179 98.0093 241.65 98.0059 244.769 96.6975C247.888 95.3891 245.281 91.742 248.009 89.521C250.736 87.3 260.752 88.5896 260.619 86.894C264.333 85.531 263.36 78.0714 263.358 77.6893L263.362 77.691Z" fill="#233862"/>
<path d="M249.114 185.621C248.481 185.684 247.838 185.742 247.178 185.793C232.601 186.974 227.19 168.121 225.298 150.523C227.059 151.392 250.957 163.585 249.114 185.621Z" fill="#6AB2F2"/>
<path d="M236.185 169.199C236.185 169.199 241.325 165.854 243.027 166.159C244.728 166.465 251.686 168.512 252.642 169.653C254.133 171.432 256.765 174.257 255.266 174.557C253.767 174.857 240.532 175.523 239.006 175.391C237.48 175.26 233.925 173.771 236.186 169.199H236.185Z" fill="#EA9E6A"/>
<path d="M230.867 119.358C230.867 119.358 220.139 121.765 214.769 127.949C209.887 133.57 195.746 161.013 191.854 170.885C191.235 172.458 192.979 175.878 194.383 176.814C197.898 179.16 205.135 180.862 223.038 177.901L239.043 175.561C239.043 175.561 240.21 168.353 236.732 166.851L210.816 166.491C210.816 166.491 225.66 151.089 228.528 146.66C231.395 142.232 230.869 119.356 230.869 119.356L230.867 119.358Z" fill="#1186EF"/>
<path d="M330.699 164.22C325.657 166.565 295.672 168.535 292.793 167.705C291.316 167.276 285.135 161.818 278.916 155.104C279.222 155.144 289.007 156.54 295.034 161.765C295.034 161.765 298.431 163.28 307.673 162.432C316.916 161.584 328.786 161.272 330.699 164.221V164.22Z" fill="#6AB2F2"/>
<path d="M232.649 118.356C232.649 118.356 221.424 120.871 217.738 123.987C214.053 127.104 214.769 127.95 214.769 127.95C214.769 127.95 216.186 130.103 221.892 127.739C227.599 125.374 235.07 120.699 235.07 120.699C235.07 120.699 234.844 118.418 232.649 118.356Z" fill="#6AB2F2"/>
<path d="M259.71 113.613C259.71 113.613 260.385 115.249 261.41 115.47C262.432 115.692 272.608 118.44 273.943 117.657C275.279 116.874 271.546 113.683 266.183 113.454C260.819 113.225 259.71 113.613 259.71 113.613Z" fill="#6AB2F2"/>
<path d="M301.241 172.393H266.964C266.964 170.88 268.187 169.653 269.697 169.653H301.241V172.393Z" fill="#B24940"/>
<path d="M301.143 134.967H354.139L341.427 172.393H288.088L301.143 134.967Z" fill="#B24940"/>
<path d="M354.918 134.967L342.208 172.393H288.868L301.924 134.967H354.918Z" fill="#C65447"/>
<path d="M326.348 153.334C326.019 154.763 324.595 155.923 323.169 155.923C321.743 155.923 320.853 154.763 321.184 153.334C321.512 151.904 322.936 150.744 324.362 150.744C325.788 150.744 326.678 151.904 326.348 153.334Z" fill="#F9DDBF"/>
<path d="M354.918 134.967L342.208 172.393H317.394L347.115 134.967H354.918Z" fill="#B24940"/>
<path d="M367.219 202.427H154.134L159.635 187.175C162.836 178.303 171.238 172.393 180.651 172.393H346.919C353.846 172.393 359.936 176.99 361.848 183.666L367.219 202.427Z" fill="#FF5885"/>
<path d="M409.785 202.427H204.264L203.864 194.736C203.232 182.588 212.887 172.393 225.021 172.393H389.487C396.414 172.393 402.504 176.99 404.414 183.666L409.785 202.427Z" fill="#FA2F66"/>
<path d="M409.784 202.427H284.278C277.305 190.297 270.954 179.361 266.763 172.393H389.487C396.413 172.393 402.503 176.99 404.414 183.666L409.784 202.427Z" fill="#FF5885"/>
<path d="M242.782 0H221.902C216.387 0 211.916 4.48234 211.916 10.0116V27.2542C211.916 32.7835 216.387 37.2658 221.902 37.2658H242.782C248.297 37.2658 252.768 32.7835 252.768 27.2542V10.0116C252.768 4.48234 248.297 0 242.782 0Z" fill="#A9D6FF"/>
<path d="M221.485 18.3274C222.62 21.3263 232.348 29.1987 232.348 29.1987C232.348 29.1987 235.518 26.6161 238.454 23.8355C240.653 21.7766 242.707 19.6102 243.192 18.3274C244.345 15.3473 243.12 11.0861 238.868 10.3628C234.634 9.63953 232.346 14.0832 232.346 14.0832C232.346 14.0832 230.057 9.63953 225.807 10.3628C225.068 10.489 224.42 10.7244 223.862 11.0486C221.214 12.5292 220.547 15.871 221.485 18.3257V18.3274Z" fill="#1186EF"/>
<path d="M234.241 55.6686C233.923 55.5322 233.554 55.6823 233.419 56.0013C233.283 56.3203 233.433 56.6904 233.751 56.8252C234.069 56.9616 234.439 56.8115 234.575 56.4925C234.711 56.1736 234.561 55.8034 234.243 55.6686H234.241Z" fill="#EFD6BD"/>
<path d="M229.714 50.4692C229.11 50.2116 228.412 50.4948 228.155 51.1004C227.898 51.706 228.181 52.4054 228.785 52.6629C229.389 52.9205 230.086 52.6374 230.343 52.0318C230.6 51.4262 230.318 50.7268 229.714 50.4692Z" fill="#EFD6BD"/>
<path d="M226.945 41.8664C225.985 41.4587 224.878 41.9074 224.471 42.8677C224.064 43.8298 224.512 44.9403 225.47 45.348C226.429 45.7557 227.537 45.3071 227.944 44.3467C228.351 43.3846 227.903 42.2741 226.945 41.8647V41.8664Z" fill="#EFD6BD"/>
<path d="M357.79 122.338C356.89 121.818 355.992 121.282 355.095 120.729C351.741 101.303 345.184 88.2332 345.092 88.0541C344.884 87.6464 344.923 86.7337 346.249 86.6195C347.409 86.5171 348.127 86.7696 348.337 87.179C348.36 87.2233 349.822 90.3348 351.794 95.9419C351.973 96.4468 352.153 96.9722 352.339 97.5164C352.742 98.7036 353.162 99.9864 353.593 101.36C353.753 101.875 353.916 102.4 354.078 102.941C354.107 103.035 354.135 103.13 354.164 103.226C355.645 108.156 356.938 114.742 357.792 122.335L357.79 122.338Z" fill="#EE9849"/>
<path d="M386.131 133.819C385.759 133.728 385.384 133.636 385.008 133.541C384.71 133.466 384.411 133.389 384.111 133.307C383.994 131.767 383.851 130.253 383.686 128.766C381.979 113.427 377.29 97.578 372.541 88.056C372.333 87.6483 372.373 86.7357 373.698 86.6214C374.859 86.5191 375.577 86.7715 375.784 87.1809C375.793 87.198 376.033 87.7063 376.444 88.6718C382.308 102.419 384.695 114.063 385.793 128.213C385.932 130.04 386.046 131.91 386.131 133.819Z" fill="#EE9849"/>
<path d="M349.796 97.8544C349.359 97.8544 348.973 97.5747 348.898 97.1789C348.813 96.7371 349.146 96.3175 349.643 96.2424C350.435 96.123 369.102 93.3288 377.458 95.659C377.94 95.7938 378.207 96.2492 378.056 96.6757C377.904 97.1039 377.392 97.3427 376.911 97.2062C368.975 94.992 350.14 97.8118 349.95 97.8408C349.897 97.8493 349.846 97.8527 349.795 97.8527L349.796 97.8544Z" fill="#EE9849"/>
<path d="M351.93 103.229C351.493 103.229 351.108 102.949 351.032 102.554C350.947 102.112 351.28 101.692 351.779 101.617C352.57 101.498 371.238 98.7019 379.594 101.034C380.075 101.169 380.343 101.624 380.191 102.05C380.04 102.479 379.528 102.717 379.046 102.581C371.107 100.365 352.276 103.187 352.085 103.216C352.032 103.224 351.981 103.228 351.93 103.228V103.229Z" fill="#EE9849"/>
<path d="M434.079 120.278C434.721 118.905 435.326 117.45 435.895 115.93H404.918C404.321 115.93 403.833 116.419 403.833 117.018V119.191C403.833 119.788 404.319 120.28 404.918 120.28H434.079V120.278Z" fill="#2B478B"/>
<path d="M368.738 58.2616C368.643 57.8931 367.474 53.9646 361.362 55.1041C361.362 55.1041 364.423 54.7987 365.229 55.9979C365.229 55.9979 362.839 54.8243 361.301 55.7148C359.762 56.6052 359.434 59.7252 359.635 60.6839C359.836 61.6409 361.437 64.5169 362.544 64.5459C362.965 64.5561 363.416 64.4282 363.815 64.2644C363.633 64.7643 363.465 65.3067 363.324 65.9038C362.005 71.4222 365.577 75.7362 367.508 74.7434C368.745 74.1072 370.006 76.6813 370.006 76.6813L380.091 63.0721C380.091 63.0721 373.25 54.3859 368.74 58.2616H368.738Z" fill="#2C3A64"/>
<path d="M426.383 130.644C418.709 135.981 406.165 137.486 391.949 135.026C390.036 134.695 388.097 134.294 386.13 133.818C385.757 133.728 385.383 133.636 385.007 133.54C384.709 133.465 384.409 133.388 384.11 133.306C383.992 133.276 383.875 133.243 383.756 133.213C383.162 133.054 382.57 132.888 381.976 132.716C381.76 132.653 381.546 132.592 381.33 132.527C380.36 132.242 379.39 131.938 378.415 131.616H378.411C378.141 131.527 377.874 131.437 377.603 131.345C376.24 130.884 374.872 130.391 373.501 129.861C373.033 129.681 372.567 129.499 372.099 129.31L374.717 127.918L378.553 125.881C378.553 125.881 379.951 125.903 382.267 125.959C382.607 125.966 382.966 125.975 383.344 125.987C384.042 126.004 384.799 126.024 385.611 126.048C388.411 126.13 391.838 126.244 395.5 126.401C407.918 126.938 423.033 127.981 425.582 129.905C425.83 130.094 426.097 130.34 426.38 130.644H426.383Z" fill="#365DA4"/>
<path d="M381.33 132.525C380.36 132.24 379.39 131.937 378.415 131.614H378.411C378.141 131.526 377.874 131.435 377.603 131.343C376.24 130.882 374.872 130.389 373.501 129.859C373.033 129.68 372.567 129.497 372.099 129.308L374.717 127.916L380.817 130.511C380.817 130.511 380.754 131.317 381.326 132.525H381.33Z" fill="#2D427C"/>
<path d="M416.289 111.562C415.496 109.181 413.305 109.084 413.305 109.084C413.305 109.084 411.202 108.93 409.687 109.375C408.173 109.821 405.656 108.94 405.656 108.94C405.656 108.94 396.425 105.723 394.268 104.377C389.638 101.489 381.266 82.7625 378.415 85.0449C378.415 85.0449 374.731 88.5299 376.754 94.5243C378.777 100.519 386.774 108.77 391.627 110.102C395.212 111.086 404.583 111.61 405.826 111.676C407.373 111.876 409.473 112.773 410.034 112.818C410.655 112.865 412.04 111.943 412.998 112.079C416.493 112.574 416.289 111.564 416.289 111.564V111.562Z" fill="#EA8E50"/>
<path d="M380.067 85.2633C376.244 85.3178 372.003 84.9187 368.381 84.4376C369.048 83.3186 369.844 80.0946 370.07 75.6423V75.627L371.418 75.6986L377.794 76.0398C377.794 76.0398 377.787 76.1336 377.775 76.2956C377.716 77.1571 377.525 79.9786 377.557 81.5684C377.569 82.1791 377.887 83.4977 377.983 83.5625C378.679 84.163 379.378 84.7191 380.069 85.2633H380.067Z" fill="#FFB07B"/>
<path d="M377.554 81.5666C373.69 81.1077 371.222 77.7046 370.067 75.6405C370.053 75.6149 370.038 75.591 370.024 75.5654L371.415 75.6968L377.772 76.2938C377.712 77.1553 377.521 79.9767 377.554 81.5666Z" fill="#EA8E50"/>
<path d="M378.102 78.5932C378.102 78.5932 369.06 78.5079 369.197 72.8633C369.335 67.2187 368.263 63.4061 374.042 63.2219C379.82 63.0376 380.889 65.2194 381.3 67.1146C381.71 69.0098 380.456 78.4704 378.102 78.5932Z" fill="#FFB07B"/>
<path d="M381.113 63.9714C379.759 62.2365 378.694 62.5828 378.09 63.0775C373.22 60.2271 369.933 64.171 369.933 64.171C369.223 68.2053 366.25 70.4502 366.25 70.4502C366.25 70.4502 367.872 71.5129 371.695 70.6327C372.863 70.3632 373.921 69.5631 374.826 68.584C373.223 71.1274 371.083 72.9339 371.083 72.9339C375.674 70.9483 377.658 64.6708 377.857 64.0055C378.396 64.5173 379.456 65.6243 379.759 66.6905C380.173 68.1388 380.298 71.1035 381.163 71.025C381.163 71.025 383.143 66.5728 381.113 63.9714Z" fill="#2C3A64"/>
<path d="M387.007 95.7266C387.007 95.7266 392.82 103.258 394.14 103.377C395.461 103.495 394.845 108.508 394.14 109.798C393.436 111.088 388.911 113.849 386.022 110.88C383.133 107.91 387.007 95.7266 387.007 95.7266Z" fill="#A53934"/>
<path d="M395.503 126.401C395.243 126.682 394.804 126.885 394.142 126.981C391.811 127.314 388.539 127.622 385.792 128.213C385.042 128.373 384.331 128.554 383.686 128.765C382.33 129.205 381.28 129.768 380.819 130.512C380.441 131.123 379.548 131.466 378.415 131.616H378.411C378.141 131.527 377.873 131.437 377.603 131.345C376.24 130.884 374.872 130.391 373.5 129.86C373.033 129.681 372.566 129.499 372.098 129.309C371.542 129.088 370.986 128.859 370.427 128.622C370.325 128.579 370.222 128.538 370.116 128.491C369.759 128.341 369.401 128.187 369.044 128.03C369.151 124.216 370.582 115.651 369.568 113.948C368.811 112.678 366.529 106.728 364.818 101.912C364.62 101.361 364.431 100.824 364.253 100.312C364.084 99.8257 363.926 99.3617 363.778 98.9267C363.449 97.9561 363.184 97.1254 363.004 96.5198C362.883 96.1087 362.805 95.8016 362.776 95.6208C362.745 95.4315 362.704 95.1892 362.665 94.9044C362.313 92.5008 361.845 87.1394 365.825 85.4403C365.825 85.4403 367.982 84.5107 368.159 83.7464C368.202 83.5673 368.207 83.2842 368.21 82.9669V82.9635C368.219 81.9314 368.192 80.5173 369.196 80.9199C369.277 80.954 369.359 80.9881 369.441 81.0273C370.683 81.6056 372.035 82.7366 374.139 82.6274C375.503 82.5558 376.756 82.1566 377.594 82.0031C378.13 81.9024 378.496 81.9041 378.612 82.1583C378.905 82.7963 378.112 83.6475 378.593 84.0774C378.593 84.0774 378.594 84.0785 378.597 84.0808C378.597 84.0808 378.607 84.091 378.612 84.0961C378.615 84.0995 378.619 84.1013 378.624 84.1047C378.627 84.1081 378.632 84.1098 378.637 84.1149C378.637 84.1149 378.641 84.1183 378.643 84.1183C379.34 84.6454 385.721 88.5979 387.715 94.3244C387.715 94.3244 388.256 95.7044 388.717 97.5467C388.755 97.6968 388.792 97.8503 388.828 98.0056C389.122 99.2713 389.359 100.706 389.359 102.04C389.359 102.313 389.355 102.587 389.349 102.866C389.325 104.012 389.257 105.197 389.235 106.351C389.23 106.617 389.226 106.879 389.226 107.14C389.226 107.814 389.252 108.473 389.32 109.099C389.32 109.109 389.32 109.117 389.323 109.126C389.333 109.23 389.345 109.332 389.359 109.435C389.486 110.375 389.614 111.296 389.749 112.174C389.922 113.314 390.101 114.385 390.281 115.334C390.324 115.56 390.368 115.78 390.412 115.992C390.598 116.894 390.783 117.662 390.97 118.247C391.149 118.808 391.328 119.199 391.503 119.375C392.993 120.881 396.946 124.844 395.507 126.401H395.503Z" fill="#B64C41"/>
<path d="M417.259 111.705C417.145 111.351 416.834 110.823 416.54 110.293C416.245 109.762 414.014 107.468 413.135 107.233C412.253 106.997 407.942 108.205 407.942 108.205C407.942 108.205 390.977 108.428 388.273 106.762C384.751 104.59 376.193 95.6039 370.241 91.0186C367.402 88.8317 365.155 87.6462 364.324 88.6731C364.324 88.6731 362.058 90.8549 364.911 96.2436C365.07 96.5456 365.245 96.8577 365.439 97.1784C369.082 103.253 383.075 114.955 388.697 115.339C394.319 115.724 408.58 110.936 408.58 110.936C408.58 110.936 410.063 110.53 410.827 111.119C411.59 111.707 414.538 111.598 414.957 112.001C415.743 112.754 417.453 112.294 417.261 111.705H417.259Z" fill="#FFB07B"/>
<path d="M390.409 115.992C390.188 115.82 389.912 115.609 389.592 115.36H389.589C388.219 114.299 386.005 112.601 383.443 110.672C382.252 109.776 380.988 108.831 379.696 107.881C376.751 105.711 373.671 103.497 371.045 101.738C370.159 101.143 369.325 100.602 368.566 100.128H368.563C367.896 99.7153 367.287 99.3537 366.751 99.062C366.426 98.8846 366.128 98.7311 365.859 98.6048C365.519 98.4462 365.228 98.3319 364.993 98.2671C364.449 98.117 364.055 98.3711 363.783 98.9273C363.931 99.3622 364.089 99.8262 364.258 100.312C364.435 100.826 364.625 101.361 364.823 101.912C366.535 106.728 368.816 112.678 369.574 113.949C370.567 115.619 369.192 124.114 369.039 128.039C372.024 129.337 375.172 130.55 378.439 131.621C379.66 131.434 380.472 131.081 380.824 130.511C380.686 128.848 381.292 127.316 382.274 125.958C382.553 125.573 382.863 125.201 383.196 124.842C383.838 124.15 384.562 123.512 385.311 122.939C388.238 120.689 391.506 119.373 391.506 119.373C391.331 119.196 391.153 118.807 390.974 118.246C390.787 117.663 390.601 116.893 390.416 115.991L390.409 115.992Z" fill="#A53934"/>
<path d="M389.32 109.127C383.805 106.776 370.12 93.4738 369.922 93.2828C370.079 93.3373 374.494 91.362 385.187 101.121C386.426 102.25 388.17 104.536 388.571 105.527C389.054 106.72 389.22 108.204 389.32 109.127Z" fill="#A53934"/>
<path d="M365.519 88.2979C365.519 88.2979 368.219 88.6902 370.861 90.7509C373.504 92.8116 386.701 105.735 388.91 106.277C391.118 106.82 395.871 106.564 395.815 107.958C395.757 109.351 394.7 116.178 393.291 117.415C391.882 118.652 384.426 119.24 381.197 117.18C377.967 115.119 361.938 95.7541 362.937 91.5748C363.936 87.3955 365.52 88.2979 365.52 88.2979H365.519Z" fill="#B64C41"/>
<path d="M371.728 85.441C370.319 85.0896 365.827 85.441 365.827 85.441C365.827 85.441 367.984 84.5113 368.161 83.7471C368.204 83.5663 368.209 83.2848 368.212 82.9658C368.44 83.8955 369.129 84.3339 370.979 84.4226C372.829 84.5113 373.136 85.7907 371.728 85.4393V85.441Z" fill="#A53934"/>
<path d="M425.277 114.817H408.656C408.352 114.817 408.102 115.068 408.102 115.373C408.102 115.679 408.352 115.93 408.656 115.93H425.277C425.582 115.93 425.832 115.679 425.832 115.373C425.832 115.068 425.582 114.817 425.277 114.817Z" fill="#A53934"/>
<path d="M431.129 99.1914C430.843 99.0874 430.523 99.2358 430.419 99.5241L424.738 115.184C424.634 115.47 424.782 115.791 425.07 115.897C425.355 116.001 425.675 115.852 425.779 115.564L431.461 99.9045C431.564 99.6179 431.416 99.2972 431.129 99.1931V99.1914Z" fill="#A53934"/>
<path d="M326.125 64.1533H276.356C274.988 64.1533 273.869 65.2758 273.869 66.649V91.9586C273.869 93.3301 274.988 94.4542 276.356 94.4542H280.564L278.533 103.057L291.286 94.4542H326.123C327.491 94.4542 328.612 93.3318 328.612 91.9586V66.649C328.612 65.2775 327.493 64.1533 326.123 64.1533H326.125Z" fill="#1186EF"/>
<path d="M323.275 75.4307H279.31C278.711 75.4307 278.221 75.9219 278.221 76.5224C278.221 77.1229 278.711 77.6141 279.31 77.6141H323.275C323.874 77.6141 324.364 77.1229 324.364 76.5224C324.364 75.9219 323.874 75.4307 323.275 75.4307Z" fill="#90CBFF"/>
<path d="M323.275 80.3174H279.31C278.711 80.3174 278.221 80.8087 278.221 81.4091C278.221 82.0096 278.711 82.5009 279.31 82.5009H323.275C323.874 82.5009 324.364 82.0096 324.364 81.4091C324.364 80.8087 323.874 80.3174 323.275 80.3174Z" fill="#90CBFF"/>
<path d="M323.275 85.2031H279.31C278.711 85.2031 278.221 85.6944 278.221 86.2949C278.221 86.8953 278.711 87.3866 279.31 87.3866H323.275C323.874 87.3866 324.364 86.8953 324.364 86.2949C324.364 85.6944 323.874 85.2031 323.275 85.2031Z" fill="#90CBFF"/>
<path d="M280.659 70.0265H299.324C300.037 70.0265 300.62 69.4414 300.62 68.7266C300.62 68.0119 300.037 67.4268 299.324 67.4268H280.659C279.946 67.4268 279.363 68.0119 279.363 68.7266C279.363 69.4414 279.946 70.0265 280.659 70.0265Z" fill="#90CBFF"/>
<path d="M315.362 67.4268H304.132C303.567 67.4268 303.108 67.8865 303.108 68.4537V68.9978C303.108 69.565 303.567 70.0248 304.132 70.0248H315.362C315.928 70.0248 316.387 69.565 316.387 68.9978V68.4537C316.387 67.8865 315.928 67.4268 315.362 67.4268Z" fill="#90CBFF"/>
<path d="M443.744 48.7158H398.641C397.4 48.7158 396.386 49.7325 396.386 50.9761V73.9128C396.386 75.1564 397.4 76.1731 398.641 76.1731H402.454L400.613 83.9688L412.171 76.1731H443.744C444.984 76.1731 445.998 75.1564 445.998 73.9128V50.9761C445.998 49.7325 444.984 48.7158 443.744 48.7158Z" fill="#1186EF"/>
<path d="M401.317 60.9143H441.161C441.704 60.9143 442.148 60.4691 442.148 59.9249C442.148 59.3808 441.704 58.9355 441.161 58.9355H401.317C400.775 58.9355 400.331 59.3808 400.331 59.9249C400.331 60.4691 400.775 60.9143 401.317 60.9143Z" fill="#91CBFF"/>
<path d="M441.161 63.3643H401.317C400.775 63.3643 400.331 63.8095 400.331 64.3536C400.331 64.8978 400.775 65.343 401.317 65.343H441.161C441.704 65.343 442.148 64.8978 442.148 64.3536C442.148 63.8095 441.704 63.3643 441.161 63.3643Z" fill="#91CBFF"/>
<path d="M441.161 67.793H401.317C400.775 67.793 400.331 68.2382 400.331 68.7824C400.331 69.3265 400.775 69.7717 401.317 69.7717H441.161C441.704 69.7717 442.148 69.3265 442.148 68.7824C442.148 68.2382 441.704 67.793 441.161 67.793Z" fill="#91CBFF"/>
<path d="M402.539 54.0386H419.454C420.101 54.0386 420.628 53.5081 420.628 52.8616C420.628 52.2151 420.099 51.6846 419.454 51.6846H402.539C401.893 51.6846 401.365 52.2151 401.365 52.8616C401.365 53.5081 401.894 54.0386 402.539 54.0386Z" fill="#91CBFF"/>
<path d="M423.812 51.6826H433.99C434.503 51.6826 434.92 52.1005 434.92 52.614V53.107C434.92 53.6205 434.503 54.0384 433.99 54.0384H423.812C423.3 54.0384 422.883 53.6222 422.883 53.107V52.614C422.883 52.1005 423.298 51.6826 423.812 51.6826Z" fill="#91CBFF"/>
<path d="M199.913 51.1226C192.399 64.394 172.258 72.9249 156.91 77.9418C135.803 84.9238 103.805 88.6784 91.9181 70.1359C83.3458 56.7502 103.732 33.9908 130.009 17.9815H130.012C139.441 12.2311 150.031 7.11867 160.574 3.75304C191.025 -5.95832 213.716 26.741 199.912 51.1243L199.913 51.1226Z" fill="#CAE1F6"/>
<path d="M87.6654 7.90234H136.401C137.742 7.90234 138.838 9.00261 138.838 10.3451V35.131C138.838 36.4752 137.742 37.5738 136.401 37.5738H132.28L134.269 45.9972L121.78 37.5738H87.6637C86.3228 37.5738 85.2271 36.4752 85.2271 35.131V10.3451C85.2271 9.00091 86.3228 7.90234 87.6637 7.90234H87.6654Z" fill="#1186EF"/>
<path d="M90.456 21.0854H133.508C134.096 21.0854 134.575 20.6044 134.575 20.0159C134.575 19.4273 134.096 18.9463 133.508 18.9463H90.456C89.869 18.9463 89.3892 19.4273 89.3892 20.0159C89.3892 20.6044 89.869 21.0854 90.456 21.0854Z" fill="#91CBFF"/>
<path d="M133.508 23.7305H90.456C89.869 23.7305 89.3892 24.2115 89.3892 24.8C89.3892 25.3885 89.869 25.8696 90.456 25.8696H133.508C134.096 25.8696 134.575 25.3885 134.575 24.8C134.575 24.2115 134.096 23.7305 133.508 23.7305Z" fill="#91CBFF"/>
<path d="M133.508 28.5156H90.456C89.869 28.5156 89.3892 28.9967 89.3892 29.5852C89.3892 30.1737 89.869 30.6548 90.456 30.6548H133.508C134.096 30.6548 134.575 30.1737 134.575 29.5852C134.575 28.9967 134.096 28.5156 133.508 28.5156Z" fill="#91CBFF"/>
<path d="M113.912 13.6545H132.19C132.888 13.6545 133.459 13.0813 133.459 12.3819C133.459 11.6825 132.888 11.1094 132.19 11.1094H113.912C113.214 11.1094 112.643 11.6825 112.643 12.3819C112.643 13.0813 113.214 13.6545 113.912 13.6545Z" fill="#91CBFF"/>
<path d="M98.2031 11.1094H109.2C109.753 11.1094 110.204 11.5597 110.204 12.1158V12.6498C110.204 13.2042 109.755 13.6562 109.2 13.6562H98.2031C97.6501 13.6562 97.1992 13.2059 97.1992 12.6498V12.1158C97.1992 11.5614 97.6484 11.1094 98.2031 11.1094Z" fill="#91CBFF"/>
<path d="M172.111 16.7102C170.304 15.6014 167.417 16.9269 167.417 16.9269C168.415 15.5213 172.057 15.9801 172.057 15.9801C164.803 14.4329 163.289 19.0814 163.165 19.5181C157.903 14.757 149.479 24.9051 149.479 24.9051L161.567 40.969C161.567 40.969 162.669 38.4137 164.126 39.212C166.397 40.4556 170.789 35.4216 169.385 28.7995C169.234 28.0831 169.052 27.4315 168.849 26.8293C169.321 27.0357 169.857 27.2029 170.357 27.2029C171.679 27.2029 173.675 23.8219 173.946 22.6858C174.214 21.5497 173.918 17.8173 172.111 16.7085V16.7102Z" fill="#233862"/>
<path d="M173.202 71.8888C173.751 63.0542 169.475 53.4879 165.984 50.7483C165.434 50.315 164.902 50.0369 164.408 49.9346C164.306 49.9073 164.197 49.8476 164.083 49.7572C163.1 48.964 161.774 45.8047 161.562 40.9584C161.539 40.4791 161.529 39.9844 161.531 39.4727L161.046 39.5682L160.583 39.6603L152.901 41.1853C152.945 41.738 153.091 44.3104 153.091 46.1783C153.096 48.1963 152.976 50.1086 152.518 50.3508C152.506 50.3508 152.392 50.361 152.271 50.373C152.001 50.4003 151.599 50.4429 151.572 50.448C151.572 50.448 148.606 54.583 146.426 59.9411V59.9462C145.317 62.6772 144.417 65.7222 144.223 68.692C144.102 70.536 144.272 72.1617 144.565 73.7413C144.997 76.0749 145.727 78.5211 146.159 81.2197C149.785 80.3719 153.268 79.3791 156.496 78.313C161.739 76.6003 167.539 74.4748 173.207 71.8939L173.202 71.8888Z" fill="#FFB27D"/>
<path d="M152.897 41.1826C152.897 41.1826 153.083 43.7533 153.088 46.1739C157.646 46.0459 160.058 41.8751 161.044 39.5654L152.897 41.1826Z" fill="#E8945B"/>
<path d="M161.885 38.676C161.885 38.676 164.274 34.8925 164.847 31.6548C165.257 29.3451 164.083 20.78 155.499 22.0134C155.499 22.0134 153.006 22.259 150.663 23.8471C148.8 25.1095 146.11 27.8337 149.116 35.3053L149.897 37.8299L161.885 38.6743V38.676Z" fill="#233862"/>
<path d="M151.375 43.4746C151.375 43.4746 162.161 43.6537 162.167 36.9173C162.174 30.181 163.571 25.6673 156.685 25.2698C149.799 24.8707 148.458 27.4397 147.91 29.688C147.362 31.9363 148.569 43.2562 151.375 43.4763V43.4746Z" fill="#FFB27D"/>
<path d="M151.772 25.1051C151.772 25.1051 154.726 33.0082 159.258 34.175C163.79 35.3435 165.756 34.1256 165.756 34.1256C165.756 34.1256 162.279 31.357 161.558 26.5243C161.558 26.5243 154 21.342 151.772 25.1034V25.1051Z" fill="#233862"/>
<path d="M152.506 25.7457C152.506 25.7457 150.301 27.5095 149.763 29.2256C149.226 30.9417 148.984 34.4711 147.956 34.3517C147.956 34.3517 145.731 28.98 148.232 25.9419C150.883 22.7195 152.506 25.7457 152.506 25.7457Z" fill="#233862"/>
<path d="M178.356 69.2387C176.561 70.1377 174.798 70.9821 173.067 71.777C172.06 72.241 171.063 72.6879 170.08 73.1161C169.95 73.1724 169.823 73.227 169.695 73.2833C168.438 68.7338 167.379 64.998 167.379 64.998L166.583 61.5368L164.977 54.56L163.864 49.7324C163.864 49.7324 163.94 49.7392 164.082 49.7563C164.435 49.7972 165.196 49.8894 166.149 50.0412C167.881 50.3175 170.253 50.7883 171.985 51.486C171.999 51.4911 172.011 51.4963 172.024 51.5031C172.057 51.515 172.087 51.527 172.116 51.5406C172.991 51.9074 173.687 52.3355 174.03 52.8285C174.03 52.8285 174.034 52.8319 174.036 52.8336C174.036 52.8336 174.036 52.8371 174.039 52.8388C174.039 52.8388 174.039 52.8388 174.039 52.8422C174.087 52.9138 174.129 52.9855 174.162 53.0605C175.621 56.2794 177.081 62.7019 178.356 69.2421V69.2387Z" fill="#FFB27D"/>
<path d="M152.096 26.0125C152.096 26.0125 154.201 34.2875 159.918 36.9384C159.918 36.9384 154.199 31.855 153.714 26.3912C153.229 20.929 152.096 26.0125 152.096 26.0125Z" fill="#233862"/>
<path d="M137.304 68.575C137.144 69.2914 136.995 70.0369 136.855 70.813C136.484 72.8549 136.185 75.1101 135.979 77.5955C135.979 77.5955 126.93 71.9321 124.921 68.9827C124.921 68.7387 125.07 66.0896 124.815 64.2882C124.722 63.6263 124.572 63.077 124.342 62.8041C124.231 62.6745 124.109 62.538 123.975 62.3981C123.536 61.9444 122.991 61.4582 122.487 61.0778C121.96 60.6786 121.48 60.3972 121.218 60.3903C121.204 60.3903 121.194 60.3903 121.182 60.3903C121.165 60.3903 121.147 60.3955 121.126 60.404C120.502 60.6121 118.499 63.3739 119.125 65.5027C119.772 67.7016 122.506 70.6783 122.506 70.6783C122.506 70.6783 127.097 78.6565 132.603 83.5386C135.906 83.1889 139.2 82.6721 142.416 82.0289C143.243 79.7721 143.995 76.7306 144.563 73.7386C145.441 69.1123 146.038 64.046 146.426 59.9434V59.9349C146.631 57.7736 146.779 55.8801 146.876 54.4591C146.957 53.3043 147.007 52.4633 147.027 52.0471C147.041 51.8526 147.044 51.752 147.044 51.752C147.044 51.752 146.903 51.8065 146.654 51.9498C145.2 52.7738 139.996 56.4857 137.304 68.5784V68.575Z" fill="#FFB27D"/>
<path d="M156.491 78.3085C163.556 75.9988 171.637 72.9436 179.035 69.0253C177.604 62.828 175.775 56.0899 174.192 53.0689C174.151 52.9904 174.1 52.9136 174.039 52.8403V52.8369C174.039 52.8369 174.036 52.8335 174.036 52.8318C174.036 52.8318 174.032 52.8283 174.031 52.8266C173.908 52.6748 173.746 52.5298 173.553 52.3899C173.568 52.3695 173.576 52.3575 173.576 52.3575C173.129 52.0317 172.598 51.7468 172.025 51.5012C172.011 51.4944 171.999 51.4893 171.985 51.4841C169.443 50.3958 166.151 50.0342 166.151 50.0342C166.151 50.0342 166.151 50.0342 166.151 50.0393C166.142 50.0785 166.083 50.3412 165.986 50.7472C165.778 51.6155 165.4 53.1405 164.978 54.5581C164.536 56.0387 164.044 57.3983 163.646 57.7634C162.675 58.6555 148.593 60.1157 148.269 58.4935C147.96 56.9428 151.975 50.9007 152.273 50.3685C151.104 50.4777 148.935 50.7933 148.033 50.9468C146.433 51.2214 145.455 51.9089 145.363 52.0147C143.469 53.4544 139.013 57.8742 137.271 68.5238C137.271 68.5238 137.284 68.5426 137.308 68.5767C137.618 68.981 139.712 71.6216 142.576 72.4455C142.658 72.4694 142.739 72.4899 142.823 72.5104C142.668 75.0998 142.191 78.7947 141.74 82.1637C146.956 81.1522 151.975 79.8062 156.495 78.3102L156.491 78.3085Z" fill="#1186EF"/>
<path d="M128.851 63.0746L123.859 64.574C123.694 64.6235 123.519 64.5297 123.469 64.3642L120.616 54.82C120.566 54.6546 120.66 54.4789 120.827 54.4294L125.819 52.9282C125.984 52.8788 126.159 52.9726 126.209 53.1381L129.062 62.6822C129.112 62.8477 129.018 63.0234 128.853 63.0729L128.851 63.0746Z" fill="#F1A34F"/>
<path d="M127.555 63.4633L123.025 64.8246C122.731 64.9133 122.421 64.7461 122.334 64.451L119.62 55.3725C119.532 55.0774 119.699 54.767 119.993 54.68L124.523 53.3187C124.817 53.23 125.127 53.3972 125.213 53.6923L127.927 62.7708C128.016 63.0659 127.849 63.3763 127.555 63.4633Z" fill="#D86713"/>
<path opacity="0.4" d="M169.637 73.4483C169.164 72.1996 168.611 71.1471 168.245 71.2324C167.9 71.3126 166.755 72.9143 165.746 75.0194C167.037 74.5195 168.337 73.9958 169.637 73.45V73.4483Z" fill="#D86713"/>
<path d="M120.75 60.7174C120.75 60.7174 122.326 59.2845 123.612 60.6389C124.899 61.9934 123.126 64.4157 121.827 64.9922C120.529 65.5688 120.099 65.8963 120.099 65.8963L120.75 60.7157V60.7174Z" fill="#FFB27D"/>
<path d="M153.481 39.4767C153.481 39.4767 153.294 40.2699 151.325 40.1488C151.325 40.1488 149.671 40.0464 149.722 39.1747C149.722 39.1747 151.325 38.5538 153.481 39.4784V39.4767Z" fill="white"/>
<path d="M0.576823 202.427H438.961C439.279 202.427 439.538 202.687 439.538 203.006V203.42C439.538 203.739 439.279 203.999 438.961 203.999H0.578525C0.260336 203.999 0 203.739 0 203.419V203.004C0 202.685 0.258635 202.426 0.576823 202.426V202.427Z" fill="#2E3552"/>
</g>
<defs>
<clipPath id="clip0_3591_4524">
<rect width="446" height="204" fill="white"/>
</clipPath>
</defs>
</svg>
