<svg width="25" height="68" viewBox="0 0 25 68" fill="none" xmlns="http://www.w3.org/2000/svg">
<mask id="mask0_2959_3072" style="mask-type:alpha" maskUnits="userSpaceOnUse" x="0" y="0" width="25" height="68">
<path d="M0 0H25V58C25 63.5228 20.5228 68 15 68H0V0Z" fill="#D9D9D9"/>
</mask>
<g mask="url(#mask0_2959_3072)">
<path d="M19 8H12.6667V15.1883L6.46004 11.5783L3.29337 17.0883L9.50004 20.6667L3.29337 24.245L6.46004 29.755L12.6667 26.145V36.8167C8.82224 37.6014 5.40609 39.7857 3.08058 42.946C0.755061 46.1064 -0.314158 50.0176 0.0802133 53.9215C0.474585 57.8254 2.30445 61.4438 5.21505 64.0751C8.12565 66.7065 11.9096 68.1634 15.8334 68.1634C19.7571 68.1634 23.5411 66.7065 26.4517 64.0751C29.3623 61.4438 31.1922 57.8254 31.5865 53.9215C31.9809 50.0176 30.9117 46.1064 28.5862 42.946C26.2606 39.7857 22.8445 37.6014 19 36.8167V26.145L25.2067 29.755L28.3734 24.245L22.1667 20.6667L28.3734 17.0883L25.2067 11.5783L19 15.1883V8ZM15.8334 61.8333C10.6084 61.8333 6.33337 57.5583 6.33337 52.3333C6.33337 47.1083 10.6084 42.8333 15.8334 42.8333C21.0584 42.8333 25.3334 47.1083 25.3334 52.3333C25.3334 57.5583 21.0584 61.8333 15.8334 61.8333Z" fill="#FA2F66"/>
</g>
</svg>
