<svg width="24" height="24" viewBox="0 0 24 24" fill="none" xmlns="http://www.w3.org/2000/svg">
<g clip-path="url(#clip0_2448_939)">
<mask id="path-1-inside-1_2448_939" fill="white">
<path d="M22.0963 15.2349C21.3008 14.536 20.3362 13.9321 19.229 13.4401C18.7557 13.2299 18.2018 13.4431 17.9916 13.9162C17.7814 14.3893 17.9945 14.9432 18.4677 15.1536C19.4013 15.5685 20.2059 16.0697 20.8586 16.6434C21.6634 17.3505 22.125 18.3745 22.125 19.4531V21.1875C22.125 21.7044 21.7044 22.125 21.1875 22.125H2.8125C2.29559 22.125 1.875 21.7044 1.875 21.1875V19.4531C1.875 18.3745 2.33661 17.3505 3.14136 16.6434C4.08856 15.811 6.84833 13.875 12 13.875C15.8253 13.875 18.9375 10.7628 18.9375 6.9375C18.9375 3.11224 15.8253 0 12 0C8.17474 0 5.0625 3.11224 5.0625 6.9375C5.0625 9.17377 6.12634 11.166 7.77429 12.4354C4.75891 13.0983 2.88318 14.3741 1.90375 15.2349C0.69397 16.2979 0 17.8352 0 19.4531V21.1875C0 22.7384 1.2616 24 2.8125 24H21.1875C22.7384 24 24 22.7384 24 21.1875V19.4531C24 17.8352 23.306 16.2979 22.0963 15.2349ZM6.9375 6.9375C6.9375 4.14606 9.20856 1.875 12 1.875C14.7914 1.875 17.0625 4.14606 17.0625 6.9375C17.0625 9.72894 14.7914 12 12 12C9.20856 12 6.9375 9.72894 6.9375 6.9375Z"/>
</mask>
<path d="M22.0963 15.2349C21.3008 14.536 20.3362 13.9321 19.229 13.4401C18.7557 13.2299 18.2018 13.4431 17.9916 13.9162C17.7814 14.3893 17.9945 14.9432 18.4677 15.1536C19.4013 15.5685 20.2059 16.0697 20.8586 16.6434C21.6634 17.3505 22.125 18.3745 22.125 19.4531V21.1875C22.125 21.7044 21.7044 22.125 21.1875 22.125H2.8125C2.29559 22.125 1.875 21.7044 1.875 21.1875V19.4531C1.875 18.3745 2.33661 17.3505 3.14136 16.6434C4.08856 15.811 6.84833 13.875 12 13.875C15.8253 13.875 18.9375 10.7628 18.9375 6.9375C18.9375 3.11224 15.8253 0 12 0C8.17474 0 5.0625 3.11224 5.0625 6.9375C5.0625 9.17377 6.12634 11.166 7.77429 12.4354C4.75891 13.0983 2.88318 14.3741 1.90375 15.2349C0.69397 16.2979 0 17.8352 0 19.4531V21.1875C0 22.7384 1.2616 24 2.8125 24H21.1875C22.7384 24 24 22.7384 24 21.1875V19.4531C24 17.8352 23.306 16.2979 22.0963 15.2349ZM6.9375 6.9375C6.9375 4.14606 9.20856 1.875 12 1.875C14.7914 1.875 17.0625 4.14606 17.0625 6.9375C17.0625 9.72894 14.7914 12 12 12C9.20856 12 6.9375 9.72894 6.9375 6.9375Z" fill="#F0F0F0"/>
<path d="M19.229 13.4401L20.8533 9.78475L20.8525 9.78441L19.229 13.4401ZM17.9916 13.9162L14.3361 12.2922V12.2922L17.9916 13.9162ZM18.4677 15.1536L16.8424 18.8086L16.8432 18.8089L18.4677 15.1536ZM20.8586 16.6434L18.2181 19.648L18.2183 19.6481L20.8586 16.6434ZM3.14136 16.6434L5.78171 19.6481L5.78183 19.648L3.14136 16.6434ZM7.77429 12.4354L8.63307 16.3421L17.01 14.5007L10.2153 9.26662L7.77429 12.4354ZM1.90375 15.2349L4.54391 18.2398L4.54432 18.2395L1.90375 15.2349ZM24.7365 12.2301C23.5973 11.229 22.278 10.4179 20.8533 9.78475L17.6047 17.0955C18.3944 17.4464 19.0044 17.843 19.456 18.2397L24.7365 12.2301ZM20.8525 9.78441C18.3611 8.67796 15.4434 9.79968 14.3361 12.2922L21.6471 15.5402C20.9601 17.0864 19.1503 17.7819 17.6055 17.0958L20.8525 9.78441ZM14.3361 12.2922C13.2288 14.7846 14.3521 17.7012 16.8424 18.8086L20.0929 11.4987C21.6369 12.1852 22.334 13.994 21.6471 15.5402L14.3361 12.2922ZM16.8432 18.8089C17.4709 19.0879 17.9175 19.3837 18.2181 19.648L23.4992 13.6388C22.4943 12.7557 21.3317 12.0492 20.0921 11.4983L16.8432 18.8089ZM18.2183 19.6481C18.1523 19.5902 18.125 19.5164 18.125 19.4531H26.125C26.125 17.2325 25.1744 15.1109 23.499 13.6386L18.2183 19.6481ZM18.125 19.4531V21.1875H26.125V19.4531H18.125ZM18.125 21.1875C18.125 19.4953 19.4953 18.125 21.1875 18.125V26.125C23.9135 26.125 26.125 23.9135 26.125 21.1875H18.125ZM21.1875 18.125H2.8125V26.125H21.1875V18.125ZM2.8125 18.125C4.50473 18.125 5.875 19.4953 5.875 21.1875H-2.125C-2.125 23.9135 0.0864543 26.125 2.8125 26.125V18.125ZM5.875 21.1875V19.4531H-2.125V21.1875H5.875ZM5.875 19.4531C5.875 19.5164 5.84765 19.5902 5.78171 19.6481L0.501004 13.6386C-1.17443 15.1109 -2.125 17.2325 -2.125 19.4531H5.875ZM5.78183 19.648C6.10612 19.363 7.95388 17.875 12 17.875V9.875C5.74278 9.875 2.071 12.2589 0.500889 13.6387L5.78183 19.648ZM12 17.875C18.0344 17.875 22.9375 12.9719 22.9375 6.9375H14.9375C14.9375 8.55362 13.6161 9.875 12 9.875V17.875ZM22.9375 6.9375C22.9375 0.903105 18.0344 -4 12 -4V4C13.6161 4 14.9375 5.32138 14.9375 6.9375H22.9375ZM12 -4C5.9656 -4 1.0625 0.903105 1.0625 6.9375H9.0625C9.0625 5.32138 10.3839 4 12 4V-4ZM1.0625 6.9375C1.0625 10.4718 2.7484 13.613 5.33325 15.6042L10.2153 9.26662C9.50428 8.71887 9.0625 7.87575 9.0625 6.9375H1.0625ZM6.91551 8.5287C3.15799 9.35468 0.684121 10.9816 -0.736826 12.2304L4.54432 18.2395C5.08224 17.7667 6.35983 16.8419 8.63307 16.3421L6.91551 8.5287ZM-0.736415 12.23C-2.81492 14.0562 -4 16.6904 -4 19.4531H4C4 18.98 4.20286 18.5395 4.54391 18.2398L-0.736415 12.23ZM-4 19.4531V21.1875H4V19.4531H-4ZM-4 21.1875C-4 24.9475 -0.947542 28 2.8125 28V20C3.47074 20 4 20.5293 4 21.1875H-4ZM2.8125 28H21.1875V20H2.8125V28ZM21.1875 28C24.9475 28 28 24.9475 28 21.1875H20C20 20.5293 20.5293 20 21.1875 20V28ZM28 21.1875V19.4531H20V21.1875H28ZM28 19.4531C28 16.6904 26.8149 14.0562 24.7364 12.23L19.4561 18.2398C19.7971 18.5395 20 18.98 20 19.4531H28ZM10.9375 6.9375C10.9375 6.3552 11.4177 5.875 12 5.875V-2.125C6.99942 -2.125 2.9375 1.93692 2.9375 6.9375H10.9375ZM12 5.875C12.5823 5.875 13.0625 6.3552 13.0625 6.9375H21.0625C21.0625 1.93692 17.0006 -2.125 12 -2.125V5.875ZM13.0625 6.9375C13.0625 7.5198 12.5823 8 12 8V16C17.0006 16 21.0625 11.9381 21.0625 6.9375H13.0625ZM12 8C11.4177 8 10.9375 7.5198 10.9375 6.9375H2.9375C2.9375 11.9381 6.99942 16 12 16V8Z" fill="#F0F0F0" mask="url(#path-1-inside-1_2448_939)"/>
</g>
<defs>
<clipPath id="clip0_2448_939">
<rect width="24" height="24" fill="white"/>
</clipPath>
</defs>
</svg>
