<svg width="21" height="21" viewBox="0 0 21 21" fill="none" xmlns="http://www.w3.org/2000/svg">
<g clip-path="url(#clip0_3127_5007)">
<path d="M3.3335 5.00195H5.00016H18.3335" stroke="#F62E5F" stroke-width="1.66667" stroke-linecap="round" stroke-linejoin="round"/>
<path d="M16.6667 5.0013V16.668C16.6667 17.11 16.4911 17.5339 16.1785 17.8465C15.866 18.159 15.442 18.3346 15 18.3346H6.66667C6.22464 18.3346 5.80072 18.159 5.48816 17.8465C5.17559 17.5339 5 17.11 5 16.668V5.0013M7.5 5.0013V3.33464C7.5 2.89261 7.67559 2.46868 7.98816 2.15612C8.30072 1.84356 8.72464 1.66797 9.16667 1.66797H12.5C12.942 1.66797 13.366 1.84356 13.6785 2.15612C13.9911 2.46868 14.1667 2.89261 14.1667 3.33464V5.0013" stroke="#F62E5F" stroke-width="1.66667" stroke-linecap="round" stroke-linejoin="round"/>
<path d="M9.1665 9.16992V14.1699" stroke="#F62E5F" stroke-width="1.66667" stroke-linecap="round" stroke-linejoin="round"/>
<path d="M12.5 9.16992V14.1699" stroke="#F62E5F" stroke-width="1.66667" stroke-linecap="round" stroke-linejoin="round"/>
</g>
<defs>
<clipPath id="clip0_3127_5007">
<rect width="20" height="20" fill="white" transform="translate(0.833252 0.00195312)"/>
</clipPath>
</defs>
</svg>
