<svg width="535" height="535" viewBox="0 0 535 535" fill="none" xmlns="http://www.w3.org/2000/svg">
<g clip-path="url(#clip0_1935_3485)">
<path d="M78.2817 499.377C182.731 546.874 352.269 546.874 456.718 499.377C561.167 451.88 561.167 374.698 456.718 326.981C352.269 279.264 182.731 279.484 78.2817 326.981C-26.1675 374.478 -26.1675 451.88 78.2817 499.377Z" fill="#F5F5F5"/>
<path d="M46.1027 414.215H57.5371V394.644H46.1027V414.215Z" fill="#B16668"/>
<path d="M92.7944 399.326L104.229 399.766L104.669 379.096L92.7944 378.656V399.326Z" fill="#B16668"/>
<path d="M49.4755 255.955C49.4755 266.95 50.1352 330.059 50.1352 330.059C49.9153 333.138 46.8368 338.855 46.6169 350.07C46.1771 366.562 45.7373 404.383 45.7373 404.383C45.7373 404.383 51.2346 407.682 58.4911 404.603C58.4911 404.603 70.5852 350.729 72.5643 334.457C74.3234 320.384 77.4019 281.903 77.4019 281.903L86.1976 329.84C86.1976 329.84 83.9987 338.195 84.8783 348.091C85.3181 355.567 92.3547 393.169 92.3547 393.169C92.3547 393.169 97.6321 396.907 105.548 394.268C105.548 394.268 106.208 335.337 106.428 328.3C106.648 320.384 103.129 252.877 103.129 252.877L49.4755 255.955Z" fill="#37474F"/>
<path d="M57.3918 408.561V407.022C58.0515 407.022 58.4913 407.682 58.7111 409.001C58.931 410.1 58.931 410.76 59.3708 412.299C59.8106 414.498 60.4703 415.818 61.3499 418.237C62.8891 422.195 64.4284 423.734 67.9467 428.352C68.8262 429.451 70.8053 431.21 71.4649 432.53C72.1246 433.849 72.3445 437.147 71.2451 438.027C66.8472 440.885 60.4703 440.885 55.8525 439.566C52.3342 438.467 49.6955 435.608 49.0358 432.09C48.816 430.99 49.0358 429.891 48.816 428.791C48.5961 426.373 47.2767 424.174 45.9573 422.195C45.0778 421.095 44.1982 419.996 43.7584 418.676C42.8788 416.257 43.5385 413.619 44.1982 411.42C44.638 409.441 45.2977 407.242 45.9573 407.462C45.9573 407.682 45.9573 408.781 45.9573 408.781C46.8369 409.661 49.0358 410.54 51.6746 410.76C53.4337 410.1 57.3918 409.661 57.3918 408.561Z" fill="#263238"/>
<path d="M104.229 396.247C104.889 396.247 105.328 397.127 106.648 398.446C108.187 400.205 110.826 401.964 113.464 403.284C117.642 405.483 125.998 408.781 129.736 410.32C132.155 411.42 131.935 414.279 129.517 415.818C127.098 417.357 121.161 418.676 114.124 416.917C110.386 416.038 105.328 412.519 102.03 412.739C98.9514 412.959 93.0143 412.959 90.5955 411.2C88.1766 409.661 89.2761 406.142 89.9358 403.284C90.5955 399.985 91.475 394.928 92.5745 395.148V396.247C93.8939 398.226 100.93 399.106 104.009 397.567L104.229 396.247Z" fill="#263238"/>
<path d="M77.1821 281.683C77.1821 281.683 86.4176 279.044 93.0144 272.667C93.0144 272.667 89.9359 278.384 80.9203 283.662L85.3182 326.321L77.1821 281.683Z" fill="#263238"/>
<path d="M95.4334 229.788C87.957 204.94 89.4963 183.831 87.957 177.454L107.088 204.281C107.088 204.281 108.407 219.673 111.046 230.448C113.245 239.903 116.323 251.778 119.842 259.254C120.501 260.573 121.601 261.453 122.92 262.112C126.438 263.652 128.197 265.411 131.056 267.61C133.255 269.369 135.014 269.589 134.794 270.249C134.574 271.128 133.475 272.667 131.056 272.447C129.737 272.228 128.197 271.568 125.999 270.688C125.999 270.688 127.978 274.426 132.156 277.945C137.653 282.782 138.532 286.081 129.297 287.84C123.58 288.939 118.302 286.081 111.705 274.207C109.726 270.688 106.868 265.411 105.109 260.573C100.931 248.039 97.6323 237.265 95.4334 229.788Z" fill="#B16668"/>
<path d="M86.418 171.297C92.3551 172.396 98.2922 173.715 101.81 179.433C105.549 185.15 110.826 211.977 110.826 211.977C110.826 211.977 103.13 217.254 94.3341 217.034L86.418 171.297Z" fill="#ABE9DC"/>
<path d="M45.5178 181.192C41.5597 184.051 20.45 231.547 19.7903 234.846C18.6908 239.244 19.1306 244.301 21.3295 246.06C23.5285 247.82 28.3661 245.401 31.0048 242.762C35.8425 237.924 52.9941 202.302 52.9941 202.302L45.5178 181.192Z" fill="#9A4A4D"/>
<path d="M66.4077 171.297C56.7324 173.715 44.4184 177.454 40.0205 186.469C35.6227 195.485 29.0259 209.778 29.0259 209.778C33.4237 214.176 38.7012 217.254 45.0781 219.233L49.9157 210.658L49.256 255.736C57.1722 261.453 85.9782 264.531 102.47 252.437C102.47 252.437 100.491 198.344 100.491 189.988C100.491 181.632 95.8734 171.517 82.8997 170.637L66.4077 171.297Z" fill="#ABE9DC"/>
<path opacity="0.1" d="M50.1354 210.877C50.1354 210.877 54.9731 202.521 56.0725 200.323L49.9155 220.992L50.1354 210.877Z" fill="black"/>
<path d="M84.8785 149.307C93.501 149.307 100.491 142.317 100.491 133.695C100.491 125.072 93.501 118.083 84.8785 118.083C76.256 118.083 69.2661 125.072 69.2661 133.695C69.2661 142.317 76.256 149.307 84.8785 149.307Z" fill="#263238"/>
<path d="M57.8315 144.909C57.8315 144.909 60.4703 156.784 61.3498 158.763C62.4493 160.742 64.4283 161.182 64.4283 161.182L64.2084 152.826L57.8315 144.909Z" fill="#263238"/>
<path d="M60.9102 127.758C60.9102 127.758 58.2715 127.318 56.0726 129.517C53.8737 131.716 55.193 138.313 57.8317 144.909L62.6694 145.569L60.9102 127.758Z" fill="#263238"/>
<path d="M63.9886 145.569C63.109 146.229 61.5697 144.25 60.4703 143.15C59.3708 141.831 55.4127 140.292 53.4337 144.25C51.4547 148.428 55.1928 153.925 58.2713 154.805C63.5488 156.344 64.2085 153.046 64.2085 153.046L64.6482 172.616C71.245 180.972 89.2763 180.312 81.7999 171.517V165.799C81.7999 165.799 86.6376 166.459 88.8365 166.239C92.7946 165.579 95.2134 162.501 96.3129 158.323C98.2919 151.506 98.9516 146.229 97.4123 133.035C95.6532 118.522 78.9413 118.522 69.7058 124.24C60.4703 129.737 63.9886 145.569 63.9886 145.569Z" fill="#B16668"/>
<path d="M63.9885 147.108C63.5487 147.108 61.5697 144.03 60.4702 142.93C58.7111 141.391 60.91 127.758 60.91 127.758C60.91 127.758 58.931 123.8 62.0095 120.281C64.2084 117.863 67.5068 114.784 77.8418 115.884C85.0982 116.763 93.2343 118.962 99.6112 115.884C100.491 119.842 99.8311 124.459 95.873 127.538C95.873 127.538 93.4542 129.077 87.2972 129.737C81.1402 130.397 71.4649 129.517 70.3654 129.517C68.6062 129.297 68.1665 131.056 67.2869 135.674C66.4073 140.072 65.7476 147.108 63.9885 147.108Z" fill="#263238"/>
<path d="M60.9101 128.857L55.1929 125.779C56.0724 124.02 58.0515 123.36 59.5907 124.239C61.13 125.119 61.7897 127.098 60.9101 128.857Z" fill="#263238"/>
<path d="M81.8001 165.579C81.8001 165.579 73.2242 163.82 70.1457 162.281C68.1667 161.182 66.4076 159.422 65.9678 158.103C65.9678 158.103 66.6275 160.742 68.3866 162.941C70.5855 165.799 81.8001 167.778 81.8001 167.778V165.579Z" fill="#9A4A4D"/>
<path d="M79.6008 143.37C79.6008 144.47 78.7212 145.129 77.8417 145.129C76.9621 145.129 76.0825 144.25 76.0825 143.37C76.0825 142.271 76.9621 141.611 77.8417 141.611C78.9411 141.611 79.6008 142.271 79.6008 143.37Z" fill="#263238"/>
<path d="M77.8417 136.774L74.1035 138.753C73.6637 137.653 73.8836 136.334 74.983 135.894C76.0825 135.234 77.4019 135.674 77.8417 136.774Z" fill="#263238"/>
<path d="M80.9202 155.244L84.8783 156.784C84.4385 157.883 83.339 158.543 82.2396 158.103C81.1401 157.663 80.7003 156.344 80.9202 155.244Z" fill="#9A4A4D"/>
<path d="M94.9932 138.313L91.6948 135.674C92.3545 134.794 93.6739 134.574 94.5534 135.234C95.6529 135.894 95.8728 137.213 94.9932 138.313Z" fill="#263238"/>
<path d="M94.114 142.711C94.114 143.81 93.2344 144.47 92.3548 144.47C91.4753 144.47 90.5957 143.59 90.5957 142.711C90.5957 141.611 91.4753 140.951 92.3548 140.951C93.2344 140.951 94.114 141.831 94.114 142.711Z" fill="#263238"/>
<path d="M85.3179 141.171L85.7577 151.506L91.255 149.747L85.3179 141.171Z" fill="#9A4A4D"/>
<path d="M39.3608 263.872C38.9211 263.872 38.7012 263.652 38.7012 263.212V71.4653C38.7012 71.0256 38.9211 70.8057 39.3608 70.8057C39.8006 70.8057 40.0205 71.0256 40.0205 71.4653V263.212C39.8006 263.652 39.5807 263.872 39.3608 263.872Z" fill="#37474F"/>
<path d="M43.9787 88.1771C43.9787 86.1981 40.0206 80.9207 39.141 80.9207C38.2615 80.9207 34.7432 86.1981 34.7432 88.1771C34.7432 88.8368 35.1829 89.4965 36.0625 90.1562C37.8217 91.2556 40.9002 91.2556 42.6593 90.1562C43.5389 89.4965 43.9787 88.8368 43.9787 88.1771Z" fill="#ABE9DC"/>
<path d="M66.1878 45.5178C66.1878 60.4706 54.3136 79.3814 38.921 83.1196C23.5285 78.7217 11.6543 60.6905 11.6543 45.5178C11.6543 30.5651 21.3296 16.4919 38.921 16.4919C56.5125 16.4919 66.1878 30.5651 66.1878 45.5178Z" fill="#ABE9DC"/>
<path opacity="0.05" d="M12.9735 37.3818C12.3138 40.0206 11.874 42.8792 11.874 45.5179C11.874 60.4706 23.5284 78.7217 39.1408 83.1196C51.8946 80.0411 62.2295 66.6276 65.3081 53.434C65.3081 53.434 61.35 67.7271 43.5386 69.0464C25.5074 70.1459 11.2143 49.6959 12.9735 37.3818Z" fill="black"/>
<path d="M21.9894 246.28C18.691 245.401 15.3926 235.725 15.6125 229.349C15.8324 223.192 24.1883 196.145 25.5077 191.087C26.827 185.37 26.827 180.972 27.9265 178.113C29.6856 173.716 35.183 171.297 35.183 171.297C35.183 171.297 42.4394 167.779 45.0781 167.339C47.7169 166.899 48.8163 168.438 48.3765 169.977C47.9368 171.517 47.0572 174.815 46.8373 176.794C46.6174 178.773 46.1776 181.412 44.8583 183.831C43.5389 186.03 37.8217 191.307 37.6018 194.166C37.3819 197.024 35.8426 213.076 34.7432 224.731C34.0835 234.186 32.984 238.144 31.005 240.563C29.026 242.982 24.4082 247.16 21.9894 246.28Z" fill="#B16668"/>
<path d="M479.807 383.494H468.152V403.284H479.807V383.494Z" fill="#FFA8A7"/>
<path d="M439.566 382.614L428.132 382.834L427.472 361.944L439.566 361.504V382.614Z" fill="#FFA8A7"/>
<path d="M476.069 235.946C476.069 246.94 477.828 313.348 477.828 313.348C478.048 316.426 481.126 322.144 481.346 333.578C481.786 350.29 480.247 393.169 480.247 393.169C480.247 393.169 474.53 396.468 467.273 393.389C467.273 393.389 457.158 334.018 454.959 317.746C453.2 303.453 450.121 264.312 450.121 264.312L443.744 311.149C443.744 311.149 445.943 319.725 445.284 329.62C444.844 337.316 440.226 375.798 440.226 375.798C440.226 375.798 434.729 379.536 426.813 376.897C426.813 376.897 420.876 318.405 420.876 311.369C420.656 303.453 424.834 222.092 424.834 222.092L476.069 235.946Z" fill="#ABE9DC"/>
<path d="M430.551 213.296C438.027 188.449 436.488 167.339 438.027 160.962L418.896 187.789C418.896 187.789 417.577 203.181 414.938 213.956C412.739 223.412 409.661 235.286 406.143 242.762C405.483 244.082 404.384 244.961 403.064 245.621C399.546 247.16 397.787 248.919 394.928 251.118C392.729 252.877 390.97 253.097 391.19 253.757C391.41 254.636 392.509 256.176 394.928 255.956C396.247 255.736 397.787 255.076 399.986 254.197C399.986 254.197 398.007 257.935 393.829 261.453C388.331 266.291 387.452 269.589 396.687 271.348C402.404 272.448 407.682 269.589 414.279 257.715C416.258 254.197 419.116 248.919 420.875 244.082C425.053 231.548 428.352 220.773 430.551 213.296Z" fill="#FFA8A7"/>
<path d="M439.566 154.585C433.629 155.684 427.692 157.004 424.174 162.721C420.436 168.438 415.158 195.265 415.158 195.265C415.158 195.265 422.854 200.543 431.65 200.323L439.566 154.585Z" fill="#E0E0E0"/>
<path d="M480.467 164.7C484.425 167.559 505.534 215.055 506.194 218.354C507.294 222.752 506.854 227.809 504.655 229.568C502.456 231.328 497.618 228.909 494.98 226.27C490.142 221.432 472.99 185.81 472.99 185.81L480.467 164.7Z" fill="#F28F8F"/>
<path d="M459.796 154.585C469.472 157.004 481.786 160.742 486.184 169.758C490.581 178.773 497.178 193.066 497.178 193.066C492.78 197.464 487.503 200.543 481.126 202.522L476.288 193.946L476.948 239.024C469.032 244.741 440.226 247.82 423.734 235.726C423.734 235.726 425.713 181.632 425.713 173.276C425.713 164.92 430.331 154.805 443.304 153.925L459.796 154.585Z" fill="#F0F0F0"/>
<path d="M476.068 194.166C476.068 194.166 471.231 185.81 470.131 183.611L476.288 204.281L476.068 194.166Z" fill="#E0E0E0"/>
<path d="M468.152 397.787V396.028C467.053 396.467 464.414 406.363 459.796 410.541C456.058 413.839 451.221 417.797 449.901 421.535C448.582 425.493 456.938 427.472 460.236 427.033C464.194 426.373 471.011 423.514 472.77 420.876C474.529 418.237 475.409 414.499 476.728 412.52C478.048 410.541 481.346 408.562 482.226 406.363C482.665 405.263 482.226 402.624 481.566 400.206C481.126 398.227 480.466 395.808 479.807 396.028C479.807 396.248 479.807 397.347 479.807 397.347C478.927 398.227 476.728 399.106 474.089 399.326C472.33 399.326 468.152 398.886 468.152 397.787Z" fill="#263238"/>
<path d="M427.912 379.316C427.252 379.316 426.813 380.195 425.493 381.515C423.954 383.274 421.315 385.033 418.676 386.352C414.279 388.551 405.923 391.85 402.184 393.609C399.766 394.708 399.986 397.567 402.404 399.106C404.823 400.645 410.76 401.965 418.017 400.425C421.975 399.546 427.032 396.028 430.111 396.247C433.409 396.467 439.346 396.467 441.765 394.708C444.184 393.169 443.085 389.651 442.425 386.572C441.765 383.274 440.886 378.216 439.786 378.436V379.536C438.467 381.735 431.21 382.394 428.132 380.855L427.912 379.316Z" fill="#263238"/>
<path opacity="0.1" d="M450.121 264.751C450.121 264.751 440.886 262.113 434.069 255.516C434.069 255.516 437.147 261.233 446.383 266.73L444.404 307.631L450.121 264.751Z" fill="black"/>
<path d="M463.315 111.486C463.315 111.486 465.953 111.046 468.152 113.245C470.131 115.444 469.692 119.182 468.152 128.198L461.775 128.857L463.315 111.486Z" fill="#263238"/>
<path d="M426.593 109.067C426.593 109.067 423.954 109.067 422.634 108.188C420.655 107.088 420.216 109.287 421.315 111.266C422.415 113.245 424.394 115.664 428.572 116.104C428.572 115.884 430.331 111.266 430.331 111.266L426.593 109.067Z" fill="#263238"/>
<path d="M460.456 128.858C461.335 129.517 462.655 127.538 463.974 126.439C465.074 125.119 468.812 123.58 470.791 127.538C472.77 131.496 468.372 136.994 465.733 138.753C462.655 140.952 460.456 139.193 460.456 139.193L459.796 154.585C459.796 154.585 456.498 162.721 447.262 164.04C438.247 165.36 440.006 157.664 443.084 154.145V148.428C443.084 148.428 438.467 149.308 436.268 148.868C433.849 148.208 430.77 146.009 429.451 141.831C427.912 136.774 425.933 127.978 427.912 116.324C430.331 102.251 446.163 102.031 454.959 107.528C463.754 113.465 460.456 128.858 460.456 128.858Z" fill="#FFA8A7"/>
<path d="M460.456 130.397C460.896 130.397 462.655 127.318 463.974 126.439C465.513 124.899 463.534 111.706 463.534 111.706C463.534 111.706 465.074 106.648 461.995 103.35C458.697 100.051 452.54 100.491 448.142 100.491C443.524 100.271 438.467 100.051 431.87 97.1929C425.493 94.3343 425.053 94.1144 424.174 96.973C423.294 99.8316 423.074 106.208 426.812 110.606L430.111 111.706C430.111 111.706 431.87 113.245 437.807 113.905C443.744 114.564 453.199 113.685 454.519 113.685C456.278 113.465 456.718 115.224 457.597 119.842C458.257 123.58 458.917 130.397 460.456 130.397Z" fill="#263238"/>
<path d="M463.314 112.585L469.032 109.507C468.152 107.968 466.393 107.308 464.634 108.187C463.314 109.067 462.655 111.046 463.314 112.585Z" fill="#263238"/>
<path d="M443.084 148.428C443.084 148.428 451.44 146.669 454.519 145.129C456.498 144.03 458.037 142.271 458.697 141.171C458.697 141.171 458.037 143.59 456.278 146.009C454.079 148.868 443.084 150.847 443.084 150.847V148.428Z" fill="#F28F8F"/>
<path d="M445.063 126.439C445.063 127.318 445.723 128.198 446.823 128.198C447.702 128.198 448.582 127.318 448.582 126.439C448.582 125.559 447.922 124.68 446.823 124.68C445.943 124.68 445.063 125.559 445.063 126.439Z" fill="#263238"/>
<path d="M447.263 119.402L450.781 121.381C451.221 120.282 451.001 118.962 449.901 118.523C449.022 118.083 447.702 118.523 447.263 119.402Z" fill="#263238"/>
<path d="M445.283 138.093L441.325 139.632C441.765 140.732 442.864 141.391 443.964 140.952C445.063 140.512 445.723 139.192 445.283 138.093Z" fill="#F28F8F"/>
<path d="M429.231 121.821L432.53 119.182C431.87 118.303 430.551 118.083 429.671 118.742C428.791 119.622 428.572 120.941 429.231 121.821Z" fill="#263238"/>
<path d="M431.21 125.999C431.21 126.878 431.87 127.758 432.97 127.758C433.849 127.758 434.729 126.878 434.729 125.999C434.729 125.119 434.069 124.24 432.97 124.24C431.87 124.24 431.21 124.899 431.21 125.999Z" fill="#263238"/>
<path d="M440.446 124.68L439.786 134.795L434.509 133.036L440.446 124.68Z" fill="#F28F8F"/>
<path d="M486.624 247.38C486.184 247.38 485.964 247.16 485.964 246.72V54.9734C485.964 54.5336 486.184 54.3137 486.624 54.3137C487.063 54.3137 487.283 54.5336 487.283 54.9734V246.72C487.283 246.94 487.063 247.38 486.624 247.38Z" fill="#37474F"/>
<path d="M482.005 71.6852C482.005 69.7061 485.963 64.4287 486.843 64.4287C487.723 64.4287 491.241 69.7061 491.241 71.6852C491.241 72.3449 490.801 73.0045 489.922 73.6642C488.162 74.7637 485.084 74.7637 483.325 73.6642C482.445 73.0045 482.005 72.3449 482.005 71.6852Z" fill="#ABE9DC"/>
<path d="M459.796 29.0259C459.796 43.9786 471.671 62.8894 487.063 66.6276C502.456 62.2298 514.33 44.1985 514.33 29.0259C514.33 14.0732 504.655 0 487.063 0C469.472 0 459.796 14.0732 459.796 29.0259Z" fill="#ABE9DC"/>
<path opacity="0.05" d="M513.01 36.9421C513.01 36.9421 509.052 51.2352 491.241 52.5546C474.089 53.654 460.016 34.7432 460.676 22.4292C460.236 24.6281 460.016 27.047 460.016 29.2459C460.016 44.1986 471.89 63.1094 487.283 66.8476C499.817 62.8895 509.932 49.9158 513.01 36.9421Z" fill="black"/>
<path d="M503.995 229.788C507.293 228.909 510.592 219.234 510.372 212.857C510.152 206.7 501.796 179.653 500.477 174.595C499.157 168.878 499.157 164.48 498.058 161.622C496.299 157.224 490.802 154.805 490.802 154.805C490.802 154.805 483.545 151.287 480.906 150.847C478.268 150.407 477.168 151.946 477.608 153.486C477.828 154.805 478.927 158.323 479.147 160.302C479.367 162.281 479.807 164.92 481.126 167.339C482.446 169.758 488.163 174.815 488.383 177.674C488.603 180.532 490.142 196.585 491.241 208.239C491.901 217.694 493 221.652 494.979 224.071C496.959 226.49 501.576 230.448 503.995 229.788Z" fill="#FFA8A7"/>
<path d="M189.108 407.902C223.477 407.902 251.338 394.611 251.338 378.216C251.338 361.821 223.477 348.531 189.108 348.531C154.74 348.531 126.878 361.821 126.878 378.216C126.878 394.611 154.74 407.902 189.108 407.902Z" fill="#E0E0E0"/>
<path d="M321.484 416.917C355.852 416.917 383.713 403.627 383.713 387.232C383.713 370.837 355.852 357.546 321.484 357.546C287.115 357.546 259.254 370.837 259.254 387.232C259.254 403.627 287.115 416.917 321.484 416.917Z" fill="#E0E0E0"/>
<path d="M204.94 133.255C208.239 132.815 210.878 133.255 216.595 140.951C221.652 147.768 231.767 159.422 231.767 159.422C231.767 159.422 240.783 135.674 240.563 132.376C240.343 129.077 238.364 127.098 237.045 121.381C235.725 115.444 235.286 114.344 234.406 112.585C233.527 110.826 236.825 110.386 238.144 112.585C239.464 114.784 239.684 117.643 240.563 117.203C241.443 116.763 242.102 110.166 241.443 105.549C240.563 100.931 242.762 99.8313 243.642 101.371C244.521 102.91 244.741 104.009 244.741 104.009C244.741 104.009 247.82 103.13 250.238 105.768C252.657 108.407 254.636 112.585 254.636 119.402C254.636 126.219 251.338 129.957 250.898 133.035C250.458 136.114 244.741 165.14 240.783 174.815C238.364 180.972 234.846 182.731 230.448 179.213C224.731 174.375 209.118 155.025 209.118 155.025L204.94 133.255Z" fill="#FFA8A7"/>
<path d="M204.94 133.255C207.799 132.375 211.097 133.035 213.956 136.553C217.035 140.072 227.809 153.705 227.809 153.705C227.809 153.705 227.589 160.742 218.354 167.119L208.019 156.124L204.94 133.255Z" fill="#ABE9DC"/>
<path d="M220.113 359.085V357.546C220.773 359.525 224.291 367.441 229.129 371.399C232.867 374.478 238.144 377.996 239.464 381.514C241.003 385.253 232.867 387.012 229.569 386.572C225.61 386.132 220.553 384.153 217.474 381.075C215.495 378.876 213.956 376.017 212.417 374.258C210.878 372.499 207.579 370.52 206.7 368.541C206.26 367.441 206.48 364.803 206.92 362.604C207.359 360.625 208.019 358.206 208.679 358.206C208.679 358.426 208.459 359.525 208.459 359.525C209.338 360.405 211.757 361.064 214.176 361.064C216.155 360.845 220.113 360.185 220.113 359.085Z" fill="#263238"/>
<path d="M232.427 373.818C231.327 372.939 230.008 372.059 228.909 371.179C225.61 368.541 222.971 363.703 221.212 360.405C219.893 357.766 219.673 355.347 219.673 352.049L219.893 348.311L207.799 348.53L208.678 359.525V359.745C209.338 362.164 215.055 368.101 218.134 372.059C220.333 374.698 224.291 377.996 228.909 378.216C233.306 378.436 235.505 376.897 232.427 373.818Z" fill="#FFA8A7"/>
<path d="M151.946 360.405C151.286 359.965 150.407 361.944 149.307 363.483C148.208 365.022 147.768 367.661 147.768 369.64C147.988 371.619 147.988 372.939 147.328 376.897C146.669 380.855 145.349 385.692 149.527 389.211C153.046 392.509 160.742 393.828 163.381 391.629C164.7 390.31 164.92 388.991 164.92 388.111C164.7 387.012 163.601 384.373 162.941 383.054C160.742 378.436 160.302 377.336 160.302 377.336L151.946 360.405Z" fill="#263238"/>
<path d="M162.941 353.588C162.501 353.148 161.182 368.101 160.962 371.619C160.522 375.357 161.182 377.117 161.841 380.855C162.061 381.734 162.061 382.834 161.622 383.493C161.182 384.373 160.082 384.593 158.983 384.813C156.344 384.813 154.365 383.933 152.166 381.514C151.067 380.415 151.067 377.117 151.067 375.797C151.067 373.818 151.287 371.839 151.067 369.86C150.847 367.661 150.187 365.242 150.627 363.703C150.847 362.164 151.287 361.724 151.946 360.185C152.826 357.986 153.486 351.829 153.486 351.829L162.941 353.588Z" fill="#FFA8A7"/>
<path d="M168.218 194.825C161.841 202.961 160.742 211.317 162.061 235.066C163.381 258.814 161.402 278.165 161.182 279.484C160.742 280.803 156.784 293.997 155.025 302.793C152.826 313.128 152.606 355.567 152.606 355.567C152.606 355.567 157.004 357.986 164.04 356.447C164.04 356.447 180.752 290.039 182.511 284.542C184.271 279.264 197.684 224.071 197.684 224.071L195.925 192.187L168.218 194.825Z" fill="#37474F"/>
<path d="M216.595 222.092C215.495 211.097 213.296 192.186 213.296 192.186L185.15 190.647C180.532 197.684 182.511 209.558 183.831 220.113L199.883 283.002C199.663 286.081 196.804 292.458 199.883 308.51C203.401 326.541 207.579 350.51 207.579 350.51C207.579 350.51 214.176 353.148 220.113 350.729C220.113 350.729 222.532 293.557 220.993 277.945C219.453 260.793 217.255 229.568 216.595 222.092Z" fill="#37474F"/>
<path d="M192.626 248.699L197.244 225.61C197.244 225.61 204.061 223.191 208.679 219.673C208.679 219.673 204.94 224.511 200.763 227.149L192.626 248.699Z" fill="#263238"/>
<path d="M169.758 138.972C166.679 140.732 161.402 142.491 159.203 148.648C156.344 157.224 148.428 179.433 145.35 187.349H159.863L169.978 166.679C177.894 159.862 176.794 141.391 169.758 138.972Z" fill="#FFA8A7"/>
<path d="M211.537 174.375C212.197 180.752 214.836 204.501 214.836 204.501C193.726 215.715 167.559 208.239 163.381 203.621C167.119 191.747 170.857 184.93 173.936 181.632L170.198 166.679C170.198 166.679 178.993 156.124 169.978 138.972L181.852 135.014L197.904 133.695L204.941 133.255C207.359 135.674 211.537 144.03 213.956 150.627C215.496 154.805 217.475 161.621 211.537 174.375Z" fill="#F5F5F5"/>
<path d="M169.758 138.972C162.721 140.292 159.643 143.81 157.004 151.286C153.926 159.422 150.407 168.438 150.407 168.438C150.407 168.438 156.344 177.893 168.219 175.914L172.616 163.381C172.616 163.161 178.773 152.166 169.758 138.972Z" fill="#ABE9DC"/>
<path d="M171.957 174.155C172.177 174.815 177.014 181.412 179.433 182.951C181.852 184.49 175.035 186.689 174.156 190.427C172.177 198.124 184.271 208.019 199.004 209.558C182.292 212.417 166.24 207.139 163.161 203.621C166.899 191.747 170.638 184.93 173.716 181.632L171.957 174.155Z" fill="#E6E6E6"/>
<path d="M216.375 131.716H193.946C178.773 131.716 166.239 119.402 166.239 104.009C166.239 90.1562 177.454 78.9417 191.307 78.9417C205.16 78.9417 216.375 90.1562 216.375 104.009V131.716Z" fill="#263238"/>
<path d="M207.359 89.9363C209.998 91.4755 213.296 98.0723 213.076 112.145C212.857 124.02 208.899 126.878 206.919 127.758C204.94 128.637 201.202 128.198 197.684 127.538V134.575C197.684 134.575 197.244 137.213 195.485 138.313C192.626 140.072 189.108 139.412 187.129 138.753C182.731 137.213 181.852 135.014 181.852 135.014V118.742C181.852 118.742 179.653 120.721 176.134 117.643C173.056 115.004 172.176 110.606 174.375 108.187C176.794 105.769 180.972 106.428 182.731 109.727C182.731 109.727 184.93 109.947 186.909 105.988C186.909 105.988 186.909 95.2137 189.328 93.8944C197.024 89.4965 202.302 89.9363 207.359 89.9363Z" fill="#FFA8A7"/>
<path d="M197.684 108.407C197.684 109.287 197.024 109.946 196.364 109.946C195.485 109.946 194.825 109.287 194.825 108.407C194.825 107.528 195.485 106.868 196.145 106.868C197.024 106.868 197.684 107.528 197.684 108.407Z" fill="#263238"/>
<g opacity="0.5">
<path d="M200.323 119.182L203.841 120.281C203.621 121.381 202.522 121.821 201.642 121.601C200.543 121.161 199.883 120.061 200.323 119.182Z" fill="#F28F8F"/>
</g>
<path d="M211.317 103.789L208.239 101.59C208.898 100.711 209.998 100.491 210.658 101.151C211.537 101.59 211.757 102.91 211.317 103.789Z" fill="#263238"/>
<path d="M195.705 103.13L192.187 104.449C191.747 103.57 192.187 102.47 193.066 102.03C194.166 101.591 195.265 102.25 195.705 103.13Z" fill="#263238"/>
<path d="M210.438 107.967C210.438 108.847 209.778 109.507 209.118 109.507C208.239 109.507 207.579 108.847 207.579 107.967C207.579 107.088 208.239 106.428 208.898 106.428C209.778 106.428 210.438 107.088 210.438 107.967Z" fill="#263238"/>
<g opacity="0.5">
<path d="M203.181 107.088L203.401 116.104L208.239 114.784L203.181 107.088Z" fill="#F28F8F"/>
</g>
<g opacity="0.5">
<path d="M197.684 127.538C193.946 127.098 186.03 124.679 184.71 121.601C184.71 121.601 185.15 123.58 187.569 125.559C189.988 127.538 197.684 129.737 197.684 129.737V127.538Z" fill="#F28F8F"/>
</g>
<path d="M187.789 80.2609L187.129 73.6641C188.888 73.4442 190.647 74.7636 190.867 76.5227C190.867 78.2819 189.548 80.041 187.789 80.2609Z" fill="#263238"/>
<path d="M187.349 80.9206L182.072 76.9625C183.171 75.4232 185.15 74.9834 186.69 76.0829C188.009 77.1824 188.449 79.3813 187.349 80.9206Z" fill="#263238"/>
<path d="M182.951 109.946V116.103C185.37 116.103 187.129 114.124 187.129 111.925V106.208L182.951 109.946Z" fill="#263238"/>
<path d="M199.883 80.4807C211.537 80.4807 220.993 89.9361 220.993 101.59V104.229H210.658C205.82 104.229 201.862 100.711 201.202 95.8732L200.762 104.229C196.804 104.229 193.506 101.151 193.066 97.1926L192.846 95.8732C192.406 100.491 188.448 104.229 183.831 104.229H182.951L181.852 89.2764L199.883 80.4807Z" fill="#263238"/>
<path d="M343.253 375.357V373.818C342.593 375.797 339.735 383.933 335.117 388.111C331.599 391.41 326.541 395.148 325.442 398.886C324.122 402.624 332.258 403.944 335.557 403.284C339.515 402.624 344.572 400.425 347.211 396.907C349.19 394.488 350.29 391.63 351.829 389.87C353.148 388.111 356.447 385.912 357.106 383.713C357.546 382.614 357.106 379.975 356.447 377.776C356.007 375.797 355.347 373.598 354.687 373.818C354.687 374.038 354.687 375.138 354.687 375.138C353.808 376.017 351.609 376.897 348.97 377.117C347.211 376.897 343.253 376.677 343.253 375.357Z" fill="#263238"/>
<path d="M331.818 390.97C332.918 389.87 334.017 388.991 335.117 388.111C338.195 385.253 340.614 380.415 342.153 376.897C343.033 374.918 343.253 372.939 343.253 370.96V364.363H354.687V374.918V375.138C354.247 377.556 348.97 383.713 345.891 387.891C343.912 390.75 340.174 394.048 335.556 394.708C331.159 395.588 328.96 394.268 331.818 390.97Z" fill="#B16668"/>
<path d="M298.835 364.143V362.604C298.175 364.583 295.316 372.719 290.699 376.897C287.18 380.195 282.123 383.933 281.023 387.671C279.704 391.41 287.84 392.729 291.138 392.069C295.096 391.41 300.154 389.211 302.793 385.692C304.772 383.274 305.871 380.415 307.41 378.656C308.73 376.897 312.028 374.698 312.688 372.499C313.128 371.399 312.688 368.761 312.028 366.562C311.588 364.583 310.929 362.384 310.269 362.604C310.269 362.824 310.269 363.923 310.269 363.923C309.389 364.803 307.191 365.682 304.552 365.902C302.793 365.682 298.835 365.462 298.835 364.143Z" fill="#263238"/>
<path d="M287.4 379.755C288.5 378.656 289.599 377.776 290.699 376.897C293.777 374.038 296.196 369.201 297.735 365.682C298.615 363.703 298.835 361.724 298.835 359.745V353.148H310.269V363.703V363.923C309.829 366.342 304.552 372.499 301.474 376.677C299.494 379.536 295.756 382.834 291.139 383.494C286.741 384.373 284.542 382.834 287.4 379.755Z" fill="#B16668"/>
<path d="M352.268 198.124C361.064 217.474 352.049 285.421 352.049 285.421C352.268 288.5 356.007 294.657 357.326 308.51C358.865 324.782 354.907 365.682 354.907 365.682C354.907 365.682 349.63 369.201 343.473 366.122C343.473 366.122 332.698 304.552 330.499 288.28C328.74 274.207 325.222 242.982 325.222 242.982L315.546 288.06C315.546 288.06 317.965 295.976 318.625 301.913C319.504 311.369 310.269 355.787 310.269 355.787C310.269 355.787 306.311 357.326 298.834 356.227C298.834 356.227 295.536 297.295 294.656 285.861C293.117 266.51 298.395 206.48 301.913 195.045L352.268 198.124Z" fill="#37474F"/>
<path d="M325.002 243.202L322.143 225.171C322.143 225.171 310.049 222.752 304.552 217.474C304.552 217.474 310.269 224.731 318.845 226.93L322.143 240.783L316.426 282.563L325.002 243.202Z" fill="#263238"/>
<path d="M319.065 130.616C313.787 129.957 308.29 131.496 304.552 136.554C300.814 141.611 285.861 184.71 285.861 184.71H299.054L317.306 148.648L319.065 130.616Z" fill="#B16668"/>
<path d="M336.876 131.056C348.31 131.936 348.97 137.213 351.829 143.37C354.028 147.988 354.028 153.265 352.268 157.883L344.352 180.752C344.352 180.752 348.091 189.768 352.268 198.124C332.478 209.118 307.63 203.401 301.693 195.265C301.473 193.506 303.012 180.092 303.892 171.517C300.374 162.721 299.494 157.224 301.033 151.506C303.672 140.732 314.447 130.397 319.065 130.616L336.876 131.056Z" fill="#F5F5F5"/>
<path d="M331.599 200.323C338.195 198.783 342.154 192.187 340.614 185.81C340.614 185.59 340.394 185.37 340.394 185.15C339.075 182.071 336.436 182.511 336.436 182.511C339.075 180.752 340.834 178.113 341.494 175.035L343.913 162.941C343.913 162.941 339.515 148.648 339.955 143.81L351.389 144.47C351.389 144.47 352.049 144.91 352.928 145.569C354.248 149.527 354.028 153.925 352.708 157.883L344.792 180.752C344.792 180.752 348.53 189.768 352.708 198.124C338.195 206.26 320.824 205.16 310.269 200.982C318.185 202.302 325.881 201.642 331.599 200.323Z" fill="#E6E6E6"/>
<path d="M378.436 187.789C378.436 187.789 367.221 165.579 359.745 148.648C354.468 136.334 353.148 133.695 344.572 132.376L341.494 131.936C337.536 145.349 340.175 151.286 345.672 160.302L364.143 195.485C368.541 194.605 378.656 188.888 378.436 187.789Z" fill="#B16668"/>
<path d="M325.881 121.601H330.279C343.033 121.601 353.368 111.266 353.368 98.512C353.368 85.5383 343.033 75.2034 330.059 75.2034H325.881C312.908 75.2034 302.573 85.5383 302.573 98.512C302.793 111.266 313.128 121.601 325.881 121.601Z" fill="#263238"/>
<path d="M310.929 85.3186C308.29 86.8579 304.992 93.6745 305.212 107.748C305.432 119.622 309.39 122.7 311.369 123.58C313.348 124.46 317.086 124.02 320.824 123.36V130.617C320.824 130.617 315.766 136.554 315.986 139.852C316.206 143.15 323.243 144.03 328.08 140.732C332.698 137.433 335.777 132.596 335.777 132.596V115.224C335.777 115.224 338.196 118.522 342.374 115.884C346.332 113.245 346.552 106.648 344.133 104.229C341.714 101.811 336.656 102.69 335.777 105.989C335.777 105.989 329.84 106.208 322.143 102.03C314.447 97.4127 311.588 90.1563 310.929 85.3186Z" fill="#B16668"/>
<path d="M320.164 104.889C320.164 105.769 320.824 106.428 321.483 106.428C322.363 106.428 323.023 105.769 323.023 104.889C323.023 104.01 322.363 103.35 321.703 103.35C320.824 103.35 320.164 104.01 320.164 104.889Z" fill="#263238"/>
<path d="M318.405 115.004L314.887 116.104C315.107 117.203 316.206 117.643 317.086 117.423C318.185 116.983 318.625 116.104 318.405 115.004Z" fill="#9A4A4D"/>
<path d="M307.63 100.271L310.709 98.0724C310.049 97.1928 308.95 96.9729 308.07 97.6326C307.41 98.2923 307.19 99.3917 307.63 100.271Z" fill="#263238"/>
<path d="M308.51 103.789C308.51 104.669 309.169 105.329 309.829 105.329C310.709 105.329 311.368 104.669 311.368 103.789C311.368 102.91 310.709 102.25 310.049 102.25C309.169 102.25 308.51 102.91 308.51 103.789Z" fill="#263238"/>
<path d="M315.767 102.91L315.547 111.926L310.709 110.606L315.767 102.91Z" fill="#9A4A4D"/>
<path d="M320.824 123.36C324.782 122.92 332.698 120.501 333.798 117.423C333.798 117.423 333.358 119.402 330.939 121.381C328.52 123.36 320.604 125.779 320.604 125.779V123.36H320.824Z" fill="#9A4A4D"/>
<path d="M350.29 77.8422C345.452 79.8212 346.551 84.2191 348.53 89.0567C350.509 93.8944 352.928 97.8525 357.766 95.6535C362.604 93.6745 365.022 87.9573 363.043 82.8997C360.844 78.0621 355.127 75.8631 350.29 77.8422Z" fill="#263238"/>
<path d="M345.891 82.24L344.132 73.8841C346.551 73.2244 348.75 74.7636 349.19 76.9626C349.63 79.3814 348.31 81.8002 345.891 82.24Z" fill="#263238"/>
<path d="M386.572 184.71H128.198V243.861H386.572V184.71Z" fill="#ABE9DC"/>
<path d="M163.161 227.809C162.941 227.589 162.721 227.37 162.721 227.15L156.564 206.7C156.564 206.7 156.564 206.48 156.564 206.26C156.564 205.82 156.784 205.6 157.224 205.6H160.742C161.182 205.6 161.402 205.6 161.622 205.82C161.841 206.04 161.841 206.26 161.841 206.48L165.799 220.773L170.417 208.459C170.637 208.239 170.637 208.019 170.857 207.799C171.077 207.579 171.297 207.579 171.517 207.579H173.716C174.155 207.579 174.375 207.579 174.375 207.799C174.595 208.019 174.595 208.239 174.815 208.459L179.433 220.773L183.611 206.48C183.611 206.26 183.831 206.04 183.831 205.82C184.051 205.6 184.271 205.6 184.71 205.6H188.229C188.668 205.6 188.888 205.82 188.888 206.26C188.888 206.48 188.888 206.48 188.888 206.7L182.511 227.15C182.291 227.589 182.291 227.809 182.072 228.029C181.852 228.249 181.632 228.249 181.192 228.249H178.553C178.113 228.249 177.894 228.249 177.894 228.029C177.674 227.809 177.674 227.589 177.454 227.37L172.836 214.836L168.218 227.37C167.998 227.809 167.998 228.029 167.779 228.029C167.559 228.249 167.339 228.249 167.119 228.249H164.48C163.82 228.029 163.381 228.029 163.161 227.809Z" fill="#5C5353"/>
<path d="M195.925 227.589C193.946 226.71 192.406 225.39 191.307 223.851C190.208 222.092 189.548 219.893 189.548 217.474C189.548 213.516 190.647 210.438 192.846 208.459C195.045 206.48 198.124 205.38 201.862 205.38C205.82 205.38 208.679 206.48 210.658 208.459C212.637 210.438 213.736 213.296 213.736 217.254C213.736 218.354 213.296 218.794 212.197 218.794H195.045C195.045 220.773 195.705 222.312 197.244 223.411C198.563 224.511 200.762 225.171 203.181 225.171C205.6 225.171 207.799 224.511 209.778 223.411C209.998 223.191 210.218 223.191 210.218 223.191C210.438 223.191 210.658 223.411 210.658 223.631L211.757 225.61C211.757 225.83 211.977 226.05 211.977 226.05C211.977 226.27 211.757 226.49 211.537 226.71C210.218 227.589 208.898 228.029 207.359 228.469C205.82 228.909 204.281 229.129 202.302 229.129C200.103 228.689 197.904 228.469 195.925 227.589ZM208.239 215.055C208.239 213.076 207.799 211.537 206.7 210.438C205.6 209.338 204.061 208.898 201.862 208.898C199.663 208.898 198.124 209.558 196.804 210.658C195.705 211.757 195.045 213.296 195.045 215.055H208.239Z" fill="#5C5353"/>
<path d="M218.574 227.589C218.354 227.369 218.134 226.93 218.134 226.27V198.124C218.134 197.464 218.354 197.024 218.574 196.804C218.794 196.584 219.234 196.365 219.893 196.365H222.312C222.972 196.365 223.412 196.584 223.632 196.804C223.851 197.024 224.071 197.464 224.071 198.124V226.49C224.071 227.15 223.851 227.369 223.632 227.809C223.412 228.029 222.972 228.249 222.312 228.249H219.893C219.454 228.029 219.014 228.029 218.574 227.589Z" fill="#5C5353"/>
<path d="M232.207 225.83C229.788 223.851 228.689 220.992 228.689 217.034C228.689 214.616 229.129 212.637 230.228 210.877C231.328 209.118 232.867 207.579 234.846 206.699C236.825 205.6 239.024 205.16 241.663 205.16C243.642 205.16 245.181 205.38 246.72 205.82C248.04 206.26 249.359 206.699 250.458 207.579C250.678 207.799 250.898 208.019 250.898 208.239C250.898 208.459 250.898 208.678 250.678 208.898L249.359 211.097C249.139 211.317 248.919 211.537 248.919 211.537C248.699 211.537 248.479 211.537 248.259 211.317C247.38 210.657 246.28 210.218 245.401 209.998C244.521 209.778 243.422 209.558 242.102 209.558C239.684 209.558 237.924 210.218 236.605 211.537C235.286 212.856 234.626 214.835 234.626 217.254C234.626 219.673 235.286 221.652 236.605 222.971C237.924 224.291 239.904 224.951 242.542 224.951C243.862 224.951 244.961 224.731 245.841 224.511C246.72 224.291 247.82 223.851 248.699 223.191C248.919 222.971 249.139 222.971 249.359 222.971C249.579 222.971 249.799 223.191 250.019 223.411L251.338 225.61C251.558 225.83 251.558 225.83 251.558 226.05C251.558 226.27 251.338 226.49 251.118 226.71C249.799 227.589 248.479 228.029 247.16 228.469C245.841 228.909 244.081 229.128 242.102 229.128C237.705 228.689 234.626 227.809 232.207 225.83Z" fill="#5C5353"/>
<path d="M258.375 225.61C256.176 223.411 255.076 220.553 255.076 217.034C255.076 213.296 256.176 210.438 258.375 208.459C260.574 206.26 263.652 205.38 267.61 205.38C271.568 205.38 274.647 206.48 277.065 208.459C279.264 210.658 280.364 213.516 280.364 217.034C280.364 220.773 279.264 223.631 277.065 225.61C274.867 227.809 271.788 228.689 267.61 228.689C263.652 228.689 260.574 227.809 258.375 225.61ZM272.668 222.532C273.767 221.212 274.427 219.453 274.427 217.034C274.427 214.616 273.767 212.856 272.668 211.537C271.568 210.218 269.809 209.558 267.61 209.558C265.411 209.558 263.872 210.218 262.553 211.537C261.453 212.856 260.793 214.616 260.793 217.034C260.793 219.453 261.453 221.212 262.553 222.532C263.652 223.851 265.411 224.511 267.61 224.511C269.809 224.511 271.568 223.851 272.668 222.532Z" fill="#5C5353"/>
<path d="M285.201 227.589C284.982 227.369 284.762 226.93 284.762 226.27V206.919C284.762 206.48 284.762 206.04 284.982 206.04C285.202 205.82 285.421 205.82 285.861 205.82H288.28C288.72 205.82 288.94 205.82 288.94 206.04C289.16 206.26 289.16 206.48 289.16 206.699L289.379 208.678C290.259 207.579 291.359 206.699 292.458 206.04C293.557 205.38 295.097 205.16 296.636 205.16C297.955 205.16 299.275 205.38 300.154 206.04C301.254 206.699 301.913 207.579 302.353 208.678C304.112 206.26 306.531 205.16 309.83 205.16C312.028 205.16 313.788 205.82 315.107 207.139C316.426 208.459 317.086 210.438 317.086 213.076V226.49C317.086 227.149 316.866 227.369 316.646 227.809C316.426 228.029 315.987 228.249 315.327 228.249H313.348C312.688 228.249 312.248 228.029 312.028 227.809C311.809 227.589 311.589 227.149 311.589 226.49V213.296C311.589 211.977 311.369 210.877 310.709 210.218C310.049 209.558 309.17 209.338 308.07 209.338C306.751 209.338 305.871 209.778 304.992 210.657C304.112 211.537 303.892 212.637 303.892 213.956V226.27C303.892 226.93 303.673 227.149 303.453 227.589C303.233 227.809 302.793 228.029 302.133 228.029H300.154C299.495 228.029 299.055 227.809 298.835 227.589C298.615 227.369 298.395 226.93 298.395 226.27V213.076C298.395 211.757 298.175 210.877 297.516 210.218C297.076 209.558 296.196 209.338 294.877 209.338C293.557 209.338 292.458 209.778 291.578 210.657C290.699 211.537 290.259 212.637 290.259 214.176V226.49C290.259 227.149 290.039 227.369 289.819 227.809C289.599 228.029 289.16 228.249 288.5 228.249H286.521C286.081 228.029 285.641 228.029 285.201 227.589Z" fill="#5C5353"/>
<path d="M328.081 227.589C326.101 226.71 324.562 225.39 323.463 223.851C322.363 222.092 321.704 219.893 321.704 217.474C321.704 213.516 322.803 210.438 325.002 208.459C327.201 206.48 330.279 205.38 334.018 205.38C337.976 205.38 340.834 206.48 342.813 208.459C344.792 210.438 345.892 213.296 345.892 217.254C345.892 218.354 345.452 218.794 344.353 218.794H327.201C327.201 220.773 327.861 222.312 329.4 223.411C330.719 224.511 332.918 225.171 335.337 225.171C337.756 225.171 339.955 224.511 341.934 223.411C342.154 223.191 342.374 223.191 342.374 223.191C342.593 223.191 342.813 223.411 342.813 223.631L343.913 225.61C343.913 225.83 344.133 226.05 344.133 226.05C344.133 226.27 343.913 226.49 343.693 226.71C342.374 227.589 341.054 228.029 339.515 228.469C337.976 228.909 336.436 229.129 334.457 229.129C332.039 228.689 330.06 228.469 328.081 227.589ZM340.395 215.055C340.395 213.076 339.955 211.537 338.855 210.438C337.756 209.338 336.217 208.898 334.018 208.898C331.819 208.898 330.279 209.558 328.96 210.658C327.861 211.757 327.201 213.296 327.201 215.055H340.395Z" fill="#5C5353"/>
<path d="M349.41 226.27V225.39C349.41 224.071 350.29 223.411 352.049 223.411H353.148C354.908 223.411 355.787 224.071 355.787 225.39V226.27C355.787 227.589 354.908 228.249 353.148 228.249H352.049C350.29 228.029 349.41 227.369 349.41 226.27ZM350.29 218.794C350.07 218.574 349.85 218.134 349.85 217.474L349.63 198.124C349.63 197.464 349.85 197.024 350.07 196.804C350.29 196.584 350.73 196.365 351.389 196.365H354.028C354.688 196.365 355.127 196.584 355.347 196.804C355.567 197.024 355.787 197.464 355.787 198.124L355.567 217.474C355.567 218.134 355.347 218.574 355.127 218.794C354.907 219.013 354.468 219.233 353.808 219.233H351.609C350.949 219.233 350.73 219.233 350.29 218.794Z" fill="#5C5353"/>
<path d="M128.198 195.265C127.538 197.464 125.779 198.344 124.46 200.543C123.14 202.741 122.7 208.898 124.02 211.537C125.339 214.176 129.077 217.694 134.135 218.134C135.894 218.134 137.653 217.694 139.192 216.815C139.852 216.375 140.512 215.715 140.952 215.056C141.391 214.396 141.611 213.516 142.051 212.857V212.637H142.271C142.711 212.637 143.37 212.417 143.81 211.977C144.25 211.537 144.47 211.097 144.47 210.658C144.47 209.998 144.03 209.338 143.37 208.899C142.711 208.459 142.051 208.459 141.391 208.239C139.852 207.799 138.313 206.919 136.774 206.26C131.056 204.061 128.198 200.982 128.198 200.982V195.265Z" fill="#FFA8A7"/>
<path d="M386.572 197.244C387.232 199.443 388.991 200.323 390.311 202.522C391.63 204.721 392.07 211.097 390.75 213.736C389.431 216.375 385.693 219.893 380.415 220.333C376.457 220.553 373.159 217.914 372.499 215.275C371.4 211.537 373.379 209.998 377.997 208.239C383.714 206.04 386.792 202.961 386.792 202.961V197.244H386.572Z" fill="#B16668"/>
<path d="M273.547 179.433C280.364 180.532 282.343 184.49 282.343 184.49H276.846C276.846 184.49 276.186 186.469 277.945 193.506C278.605 195.925 274.867 196.145 274.867 195.045C274.207 196.584 269.369 198.783 265.851 196.364C262.553 194.166 261.013 190.867 261.893 184.49C262.992 177.674 272.448 179.213 273.547 179.433Z" fill="#B16668"/>
</g>
<defs>
<clipPath id="clip0_1935_3485">
<rect width="535" height="535" fill="white"/>
</clipPath>
</defs>
</svg>
