<svg width="17" height="17" viewBox="0 0 17 17" fill="none" xmlns="http://www.w3.org/2000/svg">
<path d="M8.3332 0.605469C8.59105 0.605469 8.83834 0.70944 9.02066 0.894508C9.20299 1.07958 9.30542 1.33058 9.30542 1.59231V7.51336H15.1388C15.3966 7.51336 15.6439 7.61733 15.8262 7.8024C16.0085 7.98747 16.111 8.23848 16.111 8.50021C16.111 8.76193 16.0085 9.01294 15.8262 9.19801C15.6439 9.38308 15.3966 9.48705 15.1388 9.48705H9.30542V15.4081C9.30542 15.6698 9.20299 15.9208 9.02066 16.1059C8.83834 16.291 8.59105 16.3949 8.3332 16.3949C8.07535 16.3949 7.82806 16.291 7.64573 16.1059C7.46341 15.9208 7.36098 15.6698 7.36098 15.4081V9.48705H1.52764C1.26979 9.48705 1.0225 9.38308 0.840177 9.19801C0.65785 9.01294 0.55542 8.76193 0.55542 8.50021C0.55542 8.23848 0.65785 7.98747 0.840177 7.8024C1.0225 7.61733 1.26979 7.51336 1.52764 7.51336H7.36098V1.59231C7.36098 1.33058 7.46341 1.07958 7.64573 0.894508C7.82806 0.70944 8.07535 0.605469 8.3332 0.605469Z" fill="#67A397"/>
</svg>
