<svg width="26" height="26" viewBox="0 0 26 26" fill="none" xmlns="http://www.w3.org/2000/svg">
<path d="M20.4582 4.83496H5.87484C4.72424 4.83496 3.7915 5.7677 3.7915 6.91829V21.5016C3.7915 22.6522 4.72424 23.585 5.87484 23.585H20.4582C21.6088 23.585 22.5415 22.6522 22.5415 21.5016V6.91829C22.5415 5.7677 21.6088 4.83496 20.4582 4.83496Z" stroke="black" stroke-width="1.66667" stroke-linecap="round" stroke-linejoin="round"/>
<path d="M17.333 2.75195V6.91862" stroke="black" stroke-width="1.66667" stroke-linecap="round" stroke-linejoin="round"/>
<path d="M8.99976 2.75195V6.91862" stroke="black" stroke-width="1.66667" stroke-linecap="round" stroke-linejoin="round"/>
<path d="M3.7915 11.0859H22.5415" stroke="black" stroke-width="1.66667" stroke-linecap="round" stroke-linejoin="round"/>
<path d="M13.1664 13.168L14.1019 16.0471L17.1292 16.0471L14.6801 17.8264L15.6155 20.7055L13.1664 18.9262L10.7173 20.7055L11.6528 17.8264L9.20369 16.0471L12.2309 16.0471L13.1664 13.168Z" fill="black"/>
</svg>
