<svg width="17" height="14" viewBox="0 0 17 14" fill="none" xmlns="http://www.w3.org/2000/svg">
<path d="M1.66406 9.64054L5.47685 5.82776C5.63126 5.67334 5.81457 5.55085 6.01633 5.46729C6.21808 5.38372 6.43431 5.3407 6.65268 5.3407C6.87106 5.3407 7.08729 5.38372 7.28904 5.46729C7.49079 5.55085 7.67411 5.67334 7.82852 5.82776L11.6413 9.64054M10.5327 8.53196L11.5741 7.49063C11.7285 7.33622 11.9118 7.21373 12.1135 7.13016C12.3153 7.04659 12.5315 7.00358 12.7499 7.00358C12.9683 7.00358 13.1845 7.04659 13.3862 7.13016C13.588 7.21373 13.7713 7.33622 13.9257 7.49063L16.0756 9.64054M2.77265 12.412H14.9671C15.2611 12.412 15.543 12.2952 15.7509 12.0873C15.9588 11.8794 16.0756 11.5974 16.0756 11.3034V2.43475C16.0756 2.14074 15.9588 1.85877 15.7509 1.65087C15.543 1.44297 15.2611 1.32617 14.9671 1.32617H2.77265C2.47863 1.32617 2.19666 1.44297 1.98876 1.65087C1.78086 1.85877 1.66406 2.14074 1.66406 2.43475V11.3034C1.66406 11.5974 1.78086 11.8794 1.98876 12.0873C2.19666 12.2952 2.47863 12.412 2.77265 12.412ZM10.5327 4.09763H10.5386V4.10354H10.5327V4.09763ZM10.8099 4.09763C10.8099 4.17113 10.7807 4.24163 10.7287 4.2936C10.6767 4.34557 10.6062 4.37477 10.5327 4.37477C10.4592 4.37477 10.3887 4.34557 10.3368 4.2936C10.2848 4.24163 10.2556 4.17113 10.2556 4.09763C10.2556 4.02412 10.2848 3.95363 10.3368 3.90166C10.3887 3.84968 10.4592 3.82048 10.5327 3.82048C10.6062 3.82048 10.6767 3.84968 10.7287 3.90166C10.7807 3.95363 10.8099 4.02412 10.8099 4.09763V4.09763Z" stroke="#939393" stroke-width="1.47811" stroke-linecap="round" stroke-linejoin="round"/>
</svg>
