<svg width="25" height="64" viewBox="0 0 25 64" fill="none" xmlns="http://www.w3.org/2000/svg">
<mask id="mask0_2959_3066" style="mask-type:alpha" maskUnits="userSpaceOnUse" x="0" y="0" width="25" height="64">
<path d="M0 0H25V54C25 59.5228 20.5228 64 15 64H0V0Z" fill="#D9D9D9"/>
</mask>
<g mask="url(#mask0_2959_3066)">
<path d="M19 2.3335C8.5215 2.3335 0 10.855 0 21.3335C0 30.729 6.86217 38.5348 15.8333 40.0485V49.8335H6.33333V56.1668H15.8333V65.6288H22.1667V56.1668H31.6667V49.8335H22.1667V40.0485C31.1378 38.5317 38 30.729 38 21.3335C38 10.855 29.4785 2.3335 19 2.3335ZM19 34.0002C12.0143 34.0002 6.33333 28.3192 6.33333 21.3335C6.33333 14.3478 12.0143 8.66683 19 8.66683C25.9857 8.66683 31.6667 14.3478 31.6667 21.3335C31.6667 28.3192 25.9857 34.0002 19 34.0002Z" fill="#FA2F66"/>
</g>
</svg>
