<svg width="28" height="28" viewBox="0 0 28 28" fill="none" xmlns="http://www.w3.org/2000/svg">
<rect width="28" height="28" rx="2" fill="#1186EF"/>
<path d="M10.5966 23.0634C18.5215 23.0634 22.8567 16.497 22.8567 10.8125C22.8567 10.6288 22.8567 10.4424 22.8488 10.2587C23.6928 9.64767 24.4213 8.89123 25 8.02478C24.2116 8.3724 23.3761 8.6015 22.5207 8.70466C23.4218 8.16606 24.0966 7.31862 24.4199 6.31985C23.5733 6.82139 22.6467 7.17346 21.6807 7.36066C21.0312 6.669 20.1718 6.2108 19.2356 6.05703C18.2994 5.90326 17.3386 6.06249 16.502 6.51008C15.6654 6.95766 14.9998 7.66861 14.6082 8.5328C14.2166 9.39699 14.1209 10.3662 14.3359 11.2903C12.6228 11.2044 10.9468 10.7593 9.41674 9.98401C7.88667 9.20868 6.53665 8.12039 5.45425 6.78972C4.90476 7.73877 4.73707 8.86137 4.98522 9.92957C5.23338 10.9978 5.87878 11.9315 6.79037 12.5411C6.10727 12.5179 5.43918 12.3345 4.84 12.0056V12.0647C4.84118 13.0589 5.18559 14.0221 5.81502 14.7917C6.44445 15.5613 7.32029 16.0899 8.2945 16.2883C7.92472 16.3902 7.54274 16.4409 7.15919 16.4392C6.88879 16.44 6.61894 16.415 6.35331 16.3644C6.62866 17.2202 7.1648 17.9685 7.88664 18.5044C8.60848 19.0403 9.47986 19.337 10.3788 19.353C8.85173 20.5523 6.96546 21.2028 5.02375 21.1997C4.68161 21.2011 4.33971 21.1814 4 21.1406C5.97074 22.397 8.25945 23.0641 10.5966 23.0634Z" fill="#F8F8F8"/>
</svg>
