<svg width="28" height="26" viewBox="0 0 28 26" fill="none" xmlns="http://www.w3.org/2000/svg">
<path d="M14 0C10.2008 0 9.723 0.01625 8.23025 0.078C6.7375 0.143 5.72075 0.36075 4.83 0.6825C3.89566 1.00883 3.04936 1.52072 2.35025 2.18238C1.63813 2.83188 1.08694 3.61764 0.735 4.485C0.3885 5.3105 0.15225 6.25625 0.084 7.6375C0.0175 9.02687 0 9.46888 0 13.0016C0 16.5311 0.0175 16.9731 0.084 18.3593C0.154 19.7438 0.3885 20.6879 0.735 21.515C1.09375 22.3697 1.5715 23.0945 2.35025 23.8176C3.12725 24.5408 3.90775 24.986 4.82825 25.3175C5.72075 25.6392 6.73575 25.8586 8.22675 25.922C9.72125 25.9837 10.1973 26 14 26C17.8027 26 18.277 25.9837 19.7715 25.922C21.2607 25.857 22.281 25.6392 23.1718 25.3175C24.1055 24.991 24.9512 24.4791 25.6497 23.8176C26.4285 23.0945 26.9062 22.3697 27.265 21.515C27.6097 20.6879 27.846 19.7438 27.916 18.3593C27.9825 16.9731 28 16.5311 28 13C28 9.46887 27.9825 9.02688 27.916 7.63913C27.846 6.25625 27.6097 5.3105 27.265 4.485C26.9131 3.61762 26.3619 2.83185 25.6497 2.18238C24.9509 1.52047 24.1045 1.00855 23.17 0.6825C22.2775 0.36075 21.259 0.141375 19.7698 0.078C18.2753 0.01625 17.801 0 13.9965 0H14.0018H14ZM12.7452 2.34325H14.0018C17.7397 2.34325 18.1825 2.35462 19.6577 2.418C21.0227 2.47487 21.7647 2.68775 22.2582 2.86488C22.911 3.1005 23.3783 3.38325 23.8682 3.83825C24.3582 4.29325 24.661 4.7255 24.9148 5.33325C25.1073 5.78988 25.3347 6.47888 25.396 7.74638C25.4643 9.11625 25.4783 9.52738 25.4783 12.9967C25.4783 16.4661 25.4643 16.8789 25.396 18.2487C25.3347 19.5162 25.1055 20.2036 24.9148 20.6619C24.6903 21.2263 24.332 21.7367 23.8665 22.1553C23.3765 22.6103 22.911 22.8914 22.2565 23.127C21.7665 23.3057 21.0245 23.517 19.6577 23.5755C18.1825 23.6373 17.7397 23.6519 14.0018 23.6519C10.2638 23.6519 9.81925 23.6373 8.344 23.5755C6.979 23.517 6.23875 23.3057 5.74525 23.127C5.13712 22.9189 4.58697 22.5868 4.13525 22.1553C3.66931 21.7361 3.31052 21.2252 3.08525 20.6602C2.8945 20.2036 2.66525 19.5146 2.604 18.2471C2.5375 16.8773 2.5235 16.4661 2.5235 12.9935C2.5235 9.5225 2.5375 9.113 2.604 7.74312C2.667 6.47563 2.8945 5.78662 3.087 5.32837C3.34075 4.72225 3.64525 4.28837 4.13525 3.83337C4.62525 3.37838 5.09075 3.09725 5.74525 2.86162C6.23875 2.68287 6.979 2.47163 8.344 2.41313C9.6355 2.35788 10.136 2.34163 12.7452 2.34V2.34325ZM21.4743 4.50125C21.2536 4.50125 21.0352 4.5416 20.8313 4.62C20.6275 4.6984 20.4423 4.8133 20.2863 4.95816C20.1303 5.10302 20.0066 5.275 19.9221 5.46426C19.8377 5.65353 19.7943 5.85639 19.7943 6.06125C19.7943 6.26611 19.8377 6.46897 19.9221 6.65824C20.0066 6.8475 20.1303 7.01948 20.2863 7.16434C20.4423 7.3092 20.6275 7.4241 20.8313 7.5025C21.0352 7.5809 21.2536 7.62125 21.4743 7.62125C21.9198 7.62125 22.3471 7.45689 22.6622 7.16434C22.9773 6.87178 23.1542 6.47499 23.1542 6.06125C23.1542 5.64751 22.9773 5.25072 22.6622 4.95816C22.3471 4.66561 21.9198 4.50125 21.4743 4.50125ZM14.0018 6.3245C13.0481 6.31068 12.1011 6.47316 11.2157 6.80248C10.3304 7.13179 9.5244 7.62137 8.84476 8.24269C8.16513 8.86401 7.62539 9.60467 7.25697 10.4215C6.88856 11.2384 6.69883 12.1152 6.69883 13.0008C6.69883 13.8864 6.88856 14.7632 7.25697 15.5801C7.62539 16.397 8.16513 17.1376 8.84476 17.7589C9.5244 18.3803 10.3304 18.8698 11.2157 19.1991C12.1011 19.5285 13.0481 19.6909 14.0018 19.6771C15.8892 19.6498 17.6894 18.9344 19.0137 17.6853C20.338 16.4362 21.0803 14.7537 21.0803 13.0008C21.0803 11.248 20.338 9.56542 19.0137 8.31634C17.6894 7.06727 15.8892 6.35184 14.0018 6.3245ZM14.0018 8.66613C15.2396 8.66613 16.4267 9.12273 17.302 9.93549C18.1773 10.7482 18.669 11.8506 18.669 13C18.669 14.1494 18.1773 15.2518 17.302 16.0645C16.4267 16.8773 15.2396 17.3339 14.0018 17.3339C12.7639 17.3339 11.5768 16.8773 10.7015 16.0645C9.82623 15.2518 9.3345 14.1494 9.3345 13C9.3345 11.8506 9.82623 10.7482 10.7015 9.93549C11.5768 9.12273 12.7639 8.66613 14.0018 8.66613Z" fill="#1186EF"/>
</svg>
