<svg width="21" height="21" viewBox="0 0 21 21" fill="none" xmlns="http://www.w3.org/2000/svg">
<g clip-path="url(#clip0_3114_3205)">
<mask id="path-1-inside-1_3114_3205" fill="white">
<path d="M18.5323 12.8188C17.8652 12.2309 17.0562 11.723 16.1276 11.3091C15.7306 11.1323 15.266 11.3116 15.0897 11.7096C14.9134 12.1076 15.0922 12.5735 15.489 12.7505C16.2721 13.0995 16.9469 13.521 17.4943 14.0036C18.1693 14.5984 18.5565 15.4597 18.5565 16.367V17.8259C18.5565 18.2607 18.2037 18.6145 17.7702 18.6145H2.35887C1.92534 18.6145 1.57258 18.2607 1.57258 17.8259V16.367C1.57258 15.4597 1.95974 14.5984 2.63469 14.0036C3.42912 13.3034 5.74376 11.6749 10.0645 11.6749C13.2728 11.6749 15.8831 9.05705 15.8831 5.83942C15.8831 2.62179 13.2728 0.00390625 10.0645 0.00390625C6.85624 0.00390625 4.24597 2.62179 4.24597 5.83942C4.24597 7.72047 5.13822 9.3962 6.52037 10.464C3.99135 11.0216 2.41815 12.0948 1.59669 12.8188C0.582039 13.7129 0 15.0061 0 16.367V17.8259C0 19.1304 1.05811 20.1916 2.35887 20.1916H17.7702C19.0709 20.1916 20.129 19.1304 20.129 17.8259V16.367C20.129 15.0061 19.547 13.7129 18.5323 12.8188ZM5.81855 5.83942C5.81855 3.49138 7.72331 1.58107 10.0645 1.58107C12.4057 1.58107 14.3105 3.49138 14.3105 5.83942C14.3105 8.18745 12.4057 10.0978 10.0645 10.0978C7.72331 10.0978 5.81855 8.18745 5.81855 5.83942Z"/>
</mask>
<path d="M18.5323 12.8188C17.8652 12.2309 17.0562 11.723 16.1276 11.3091C15.7306 11.1323 15.266 11.3116 15.0897 11.7096C14.9134 12.1076 15.0922 12.5735 15.489 12.7505C16.2721 13.0995 16.9469 13.521 17.4943 14.0036C18.1693 14.5984 18.5565 15.4597 18.5565 16.367V17.8259C18.5565 18.2607 18.2037 18.6145 17.7702 18.6145H2.35887C1.92534 18.6145 1.57258 18.2607 1.57258 17.8259V16.367C1.57258 15.4597 1.95974 14.5984 2.63469 14.0036C3.42912 13.3034 5.74376 11.6749 10.0645 11.6749C13.2728 11.6749 15.8831 9.05705 15.8831 5.83942C15.8831 2.62179 13.2728 0.00390625 10.0645 0.00390625C6.85624 0.00390625 4.24597 2.62179 4.24597 5.83942C4.24597 7.72047 5.13822 9.3962 6.52037 10.464C3.99135 11.0216 2.41815 12.0948 1.59669 12.8188C0.582039 13.7129 0 15.0061 0 16.367V17.8259C0 19.1304 1.05811 20.1916 2.35887 20.1916H17.7702C19.0709 20.1916 20.129 19.1304 20.129 17.8259V16.367C20.129 15.0061 19.547 13.7129 18.5323 12.8188ZM5.81855 5.83942C5.81855 3.49138 7.72331 1.58107 10.0645 1.58107C12.4057 1.58107 14.3105 3.49138 14.3105 5.83942C14.3105 8.18745 12.4057 10.0978 10.0645 10.0978C7.72331 10.0978 5.81855 8.18745 5.81855 5.83942Z" fill="#F0F0F0"/>
<path d="M16.1276 11.3091L17.4844 8.26446L17.4838 8.26417L16.1276 11.3091ZM15.0897 11.7096L12.042 10.3595V10.3595L15.0897 11.7096ZM15.489 12.7505L14.1314 15.7948L14.132 15.7951L15.489 12.7505ZM17.4943 14.0036L15.2903 16.5042L15.2904 16.5043L17.4943 14.0036ZM2.63469 14.0036L4.83859 16.5043L4.83869 16.5043L2.63469 14.0036ZM6.52037 10.464L7.23801 13.7192L14.1995 12.1845L8.55829 7.82622L6.52037 10.464ZM1.59669 12.8188L3.80044 15.3198L3.80078 15.3195L1.59669 12.8188ZM20.7362 10.318C19.7827 9.47776 18.6781 8.79643 17.4844 8.26446L14.7707 14.3538C15.4343 14.6495 15.9477 14.9841 16.3285 15.3197L20.7362 10.318ZM17.4838 8.26417C15.3976 7.33502 12.9628 8.28099 12.042 10.3595L18.1374 13.0597C17.5693 14.3422 16.0635 14.9296 14.7713 14.3541L17.4838 8.26417ZM12.042 10.3595C11.1235 12.4329 12.0513 14.8672 14.1314 15.7948L16.8466 9.70612C18.133 10.2798 18.7033 11.7822 18.1374 13.0597L12.042 10.3595ZM14.132 15.7951C14.6597 16.0302 15.036 16.2801 15.2903 16.5042L19.6984 11.5029C18.8577 10.7619 17.8845 10.1687 16.846 9.70583L14.132 15.7951ZM15.2904 16.5043C15.2407 16.4605 15.2231 16.4078 15.2231 16.367H21.8898C21.8898 14.5115 21.0979 12.7363 19.6983 11.5028L15.2904 16.5043ZM15.2231 16.367V17.8259H21.8898V16.367H15.2231ZM15.2231 17.8259C15.2231 16.4289 16.3536 15.2811 17.7702 15.2811V21.9478C20.0538 21.9478 21.8898 20.0925 21.8898 17.8259H15.2231ZM17.7702 15.2811H2.35887V21.9478H17.7702V15.2811ZM2.35887 15.2811C3.77543 15.2811 4.90591 16.4289 4.90591 17.8259H-1.76075C-1.76075 20.0925 0.0752452 21.9478 2.35887 21.9478V15.2811ZM4.90591 17.8259V16.367H-1.76075V17.8259H4.90591ZM4.90591 16.367C4.90591 16.4078 4.88838 16.4605 4.83859 16.5043L0.43078 11.5028C-0.968902 12.7363 -1.76075 14.5115 -1.76075 16.367H4.90591ZM4.83869 16.5043C5.11457 16.2611 6.66804 15.0083 10.0645 15.0083V8.3416C4.81947 8.3416 1.74366 10.3457 0.430684 11.5029L4.83869 16.5043ZM10.0645 15.0083C15.1229 15.0083 19.2164 10.8888 19.2164 5.83942H12.5497C12.5497 7.22526 11.4227 8.3416 10.0645 8.3416V15.0083ZM19.2164 5.83942C19.2164 0.789991 15.1229 -3.32943 10.0645 -3.32943V3.33724C11.4227 3.33724 12.5497 4.45358 12.5497 5.83942H19.2164ZM10.0645 -3.32943C5.00615 -3.32943 0.912635 0.789991 0.912635 5.83942H7.5793C7.5793 4.45358 8.70633 3.33724 10.0645 3.33724V-3.32943ZM0.912635 5.83942C0.912635 8.79822 2.31984 11.431 4.48246 13.1018L8.55829 7.82622C7.95661 7.36137 7.5793 6.64271 7.5793 5.83942H0.912635ZM5.80274 7.20886C2.65368 7.9031 0.581592 9.27022 -0.607399 10.3182L3.80078 15.3195C4.25471 14.9194 5.32901 14.1401 7.23801 13.7192L5.80274 7.20886ZM-0.607057 10.3179C-2.34481 11.8492 -3.33333 14.0556 -3.33333 16.367H3.33333C3.33333 15.9566 3.50889 15.5767 3.80044 15.3198L-0.607057 10.3179ZM-3.33333 16.367V17.8259H3.33333V16.367H-3.33333ZM-3.33333 17.8259C-3.33333 20.9622 -0.791978 23.525 2.35887 23.525V16.8583C2.9082 16.8583 3.33333 17.2986 3.33333 17.8259H-3.33333ZM2.35887 23.525H17.7702V16.8583H2.35887V23.525ZM17.7702 23.525C20.921 23.525 23.4624 20.9622 23.4624 17.8259H16.7957C16.7957 17.2986 17.2208 16.8583 17.7702 16.8583V23.525ZM23.4624 17.8259V16.367H16.7957V17.8259H23.4624ZM23.4624 16.367C23.4624 14.0556 22.4738 11.8492 20.7361 10.3179L16.3286 15.3198C16.6201 15.5767 16.7957 15.9566 16.7957 16.367H23.4624ZM9.15188 5.83942C9.15188 5.32318 9.5734 4.9144 10.0645 4.9144V-1.75226C5.87322 -1.75226 2.48522 1.65959 2.48522 5.83942H9.15188ZM10.0645 4.9144C10.5556 4.9144 10.9772 5.32318 10.9772 5.83942H17.6438C17.6438 1.65959 14.2558 -1.75226 10.0645 -1.75226V4.9144ZM10.9772 5.83942C10.9772 6.35566 10.5556 6.76443 10.0645 6.76443V13.4311C14.2558 13.4311 17.6438 10.0192 17.6438 5.83942H10.9772ZM10.0645 6.76443C9.5734 6.76443 9.15188 6.35566 9.15188 5.83942H2.48522C2.48522 10.0192 5.87322 13.4311 10.0645 13.4311V6.76443Z" fill="#F0F0F0" mask="url(#path-1-inside-1_3114_3205)"/>
</g>
<defs>
<clipPath id="clip0_3114_3205">
<rect width="20.129" height="20.1877" fill="white" transform="translate(0 0.00390625)"/>
</clipPath>
</defs>
</svg>
