<svg width="12" height="26" viewBox="0 0 12 26" fill="none" xmlns="http://www.w3.org/2000/svg">
<path d="M0 4.21875C0 3.09987 0.444474 2.02681 1.23564 1.23564C2.02681 0.444474 3.09987 0 4.21875 0C5.33763 0 6.41069 0.444474 7.20186 1.23564C7.99303 2.02681 8.4375 3.09987 8.4375 4.21875V19.4062C8.4375 20.0776 8.17082 20.7214 7.69611 21.1961C7.22141 21.6708 6.57758 21.9375 5.90625 21.9375C5.23492 21.9375 4.59109 21.6708 4.11639 21.1961C3.64168 20.7214 3.375 20.0776 3.375 19.4062V7.59375C3.375 7.36997 3.4639 7.15536 3.62213 6.99713C3.78036 6.83889 3.99497 6.75 4.21875 6.75C4.44253 6.75 4.65714 6.83889 4.81537 6.99713C4.97361 7.15536 5.0625 7.36997 5.0625 7.59375V19.4062C5.0625 19.63 5.15139 19.8446 5.30963 20.0029C5.46786 20.1611 5.68247 20.25 5.90625 20.25C6.13003 20.25 6.34464 20.1611 6.50287 20.0029C6.66111 19.8446 6.75 19.63 6.75 19.4062V4.21875C6.75 3.88634 6.68453 3.55719 6.55732 3.25008C6.43011 2.94298 6.24366 2.66393 6.00861 2.42889C5.77357 2.19384 5.49452 2.00739 5.18742 1.88018C4.88031 1.75297 4.55116 1.6875 4.21875 1.6875C3.88634 1.6875 3.55719 1.75297 3.25008 1.88018C2.94298 2.00739 2.66393 2.19384 2.42889 2.42889C2.19384 2.66393 2.00739 2.94298 1.88018 3.25008C1.75297 3.55719 1.6875 3.88634 1.6875 4.21875V19.4062C1.6875 20.5251 2.13197 21.5982 2.92314 22.3894C3.71431 23.1805 4.78737 23.625 5.90625 23.625C7.02513 23.625 8.09819 23.1805 8.88936 22.3894C9.68053 21.5982 10.125 20.5251 10.125 19.4062V7.59375C10.125 7.36997 10.2139 7.15536 10.3721 6.99713C10.5304 6.83889 10.745 6.75 10.9688 6.75C11.1925 6.75 11.4071 6.83889 11.5654 6.99713C11.7236 7.15536 11.8125 7.36997 11.8125 7.59375V19.4062C11.8125 20.9727 11.1902 22.475 10.0826 23.5826C8.97496 24.6902 7.47268 25.3125 5.90625 25.3125C4.33982 25.3125 2.83754 24.6902 1.7299 23.5826C0.622264 22.475 0 20.9727 0 19.4062V4.21875Z" fill="#1186EF"/>
</svg>
