<svg width="500" height="364" viewBox="0 0 500 364" fill="none" xmlns="http://www.w3.org/2000/svg">
<g clip-path="url(#clip0_2274_2117)">
<path d="M500 327.4H0V327.7H500V327.4Z" fill="#EBEBEB"/>
<path d="M449.9 343.5H416.8V343.8H449.9V343.5Z" fill="#EBEBEB"/>
<path d="M331.2 346.3H322.5V346.6H331.2V346.3Z" fill="#EBEBEB"/>
<path d="M415.8 334.3H396.6V334.6H415.8V334.3Z" fill="#EBEBEB"/>
<path d="M95.7 335.9H52.5V336.2H95.7V335.9Z" fill="#EBEBEB"/>
<path d="M110.9 335.9H104.6V336.2H110.9V335.9Z" fill="#EBEBEB"/>
<path d="M225.2 340.2H131.5V340.5H225.2V340.2Z" fill="#EBEBEB"/>
<path d="M237 282.8H43.9C40.8 282.8 38.2 280.2 38.2 277.1V5.7C38.2 2.6 40.8 0 43.9 0H237C240.1 0 242.7 2.6 242.7 5.7V277.1C242.7 280.3 240.2 282.8 237 282.8ZM43.9 0.3C40.9 0.3 38.4 2.7 38.4 5.8V277.2C38.4 280.2 40.8 282.7 43.9 282.7H237C240 282.7 242.5 280.3 242.5 277.2V5.7C242.5 2.7 240.1 0.2 237 0.2H43.9V0.3Z" fill="#EBEBEB"/>
<path d="M453.3 282.8H260.2C257.1 282.8 254.5 280.2 254.5 277.1V5.7C254.5 2.6 257.1 0 260.2 0H453.3C456.4 0 459 2.6 459 5.7V277.1C459 280.3 456.5 282.8 453.3 282.8ZM260.2 0.3C257.2 0.3 254.7 2.7 254.7 5.8V277.2C254.7 280.2 257.1 282.7 260.2 282.7H453.3C456.3 282.7 458.8 280.3 458.8 277.2V5.7C458.8 2.7 456.4 0.2 453.3 0.2H260.2V0.3Z" fill="#EBEBEB"/>
<path d="M248.8 47.7001H79.3V237.6H248.8V47.7001Z" fill="#EBEBEB"/>
<path d="M248.9 50.8H82.7001V234.3H248.9V50.8Z" fill="#FAFAFA"/>
<path d="M88.8001 148.2V135.3H92.5001V126.7H97.4001V113.8H98.6001V126.7H103.5V135.3H107.2V148.2H114V151.9H117V166H117.7V145.7H119.5V158.6H121.3V127.9H122.6V140.8H127.5V136.5H129.3V118.7H133V100.9H134.2V103.4H159.4V96H163.7V67.8H165.5V96H171.7V103.4H174.1V140.2H187V129.1H182.7V127.3H187V124.2H199.3V96H202.4V91.7H217.1V96H219V135.3H225.7V153.1H229.4V139H232.5V135.3H239.2V122.4H242.9V113.8H247.2V100.9H248.9V234.3H82.7001V148.2H88.8001Z" fill="#F0F0F0"/>
<path d="M150 105.3H148.3V107H150V105.3Z" fill="#FAFAFA"/>
<path d="M150 108.2H148.3V109.9H150V108.2Z" fill="#FAFAFA"/>
<path d="M150 119.9H148.3V121.6H150V119.9Z" fill="#FAFAFA"/>
<path d="M150 122.8H148.3V124.5H150V122.8Z" fill="#FAFAFA"/>
<path d="M150 125.7H148.3V127.4H150V125.7Z" fill="#FAFAFA"/>
<path d="M150 134.4H148.3V136.1H150V134.4Z" fill="#FAFAFA"/>
<path d="M150 137.4H148.3V139.1H150V137.4Z" fill="#FAFAFA"/>
<path d="M152.7 116.9H151V118.6H152.7V116.9Z" fill="#FAFAFA"/>
<path d="M152.7 119.9H151V121.6H152.7V119.9Z" fill="#FAFAFA"/>
<path d="M152.7 122.8H151V124.5H152.7V122.8Z" fill="#FAFAFA"/>
<path d="M152.7 125.7H151V127.4H152.7V125.7Z" fill="#FAFAFA"/>
<path d="M152.7 128.6H151V130.3H152.7V128.6Z" fill="#FAFAFA"/>
<path d="M152.7 134.4H151V136.1H152.7V134.4Z" fill="#FAFAFA"/>
<path d="M152.7 137.4H151V139.1H152.7V137.4Z" fill="#FAFAFA"/>
<path d="M155.5 105.3H153.8V107H155.5V105.3Z" fill="#FAFAFA"/>
<path d="M155.5 108.2H153.8V109.9H155.5V108.2Z" fill="#FAFAFA"/>
<path d="M155.5 111.1H153.8V112.8H155.5V111.1Z" fill="#FAFAFA"/>
<path d="M155.5 114H153.8V115.7H155.5V114Z" fill="#FAFAFA"/>
<path d="M155.5 116.9H153.8V118.6H155.5V116.9Z" fill="#FAFAFA"/>
<path d="M155.5 119.9H153.8V121.6H155.5V119.9Z" fill="#FAFAFA"/>
<path d="M155.5 122.8H153.8V124.5H155.5V122.8Z" fill="#FAFAFA"/>
<path d="M155.5 125.7H153.8V127.4H155.5V125.7Z" fill="#FAFAFA"/>
<path d="M155.5 128.6H153.8V130.3H155.5V128.6Z" fill="#FAFAFA"/>
<path d="M155.5 131.5H153.8V133.2H155.5V131.5Z" fill="#FAFAFA"/>
<path d="M155.5 137.4H153.8V139.1H155.5V137.4Z" fill="#FAFAFA"/>
<path d="M158.3 105.3H156.6V107H158.3V105.3Z" fill="#FAFAFA"/>
<path d="M158.3 108.2H156.6V109.9H158.3V108.2Z" fill="#FAFAFA"/>
<path d="M158.3 111.1H156.6V112.8H158.3V111.1Z" fill="#FAFAFA"/>
<path d="M158.3 114H156.6V115.7H158.3V114Z" fill="#FAFAFA"/>
<path d="M158.3 116.9H156.6V118.6H158.3V116.9Z" fill="#FAFAFA"/>
<path d="M158.3 119.9H156.6V121.6H158.3V119.9Z" fill="#FAFAFA"/>
<path d="M158.3 122.8H156.6V124.5H158.3V122.8Z" fill="#FAFAFA"/>
<path d="M158.3 149H156.6V150.7H158.3V149Z" fill="#FAFAFA"/>
<path d="M161 105.3H159.3V107H161V105.3Z" fill="#FAFAFA"/>
<path d="M161 108.2H159.3V109.9H161V108.2Z" fill="#FAFAFA"/>
<path d="M161 111.1H159.3V112.8H161V111.1Z" fill="#FAFAFA"/>
<path d="M161 114H159.3V115.7H161V114Z" fill="#FAFAFA"/>
<path d="M161 116.9H159.3V118.6H161V116.9Z" fill="#FAFAFA"/>
<path d="M161 119.9H159.3V121.6H161V119.9Z" fill="#FAFAFA"/>
<path d="M161 122.8H159.3V124.5H161V122.8Z" fill="#FAFAFA"/>
<path d="M161 125.7H159.3V127.4H161V125.7Z" fill="#FAFAFA"/>
<path d="M161 143.2H159.3V144.9H161V143.2Z" fill="#FAFAFA"/>
<path d="M161 146.1H159.3V147.8H161V146.1Z" fill="#FAFAFA"/>
<path d="M161 149H159.3V150.7H161V149Z" fill="#FAFAFA"/>
<path d="M161 151.9H159.3V153.6H161V151.9Z" fill="#FAFAFA"/>
<path d="M161 163.6H159.3V165.3H161V163.6Z" fill="#FAFAFA"/>
<path d="M163.8 105.3H162.1V107H163.8V105.3Z" fill="#FAFAFA"/>
<path d="M163.8 108.2H162.1V109.9H163.8V108.2Z" fill="#FAFAFA"/>
<path d="M163.8 111.1H162.1V112.8H163.8V111.1Z" fill="#FAFAFA"/>
<path d="M163.8 114H162.1V115.7H163.8V114Z" fill="#FAFAFA"/>
<path d="M163.8 116.9H162.1V118.6H163.8V116.9Z" fill="#FAFAFA"/>
<path d="M163.8 119.9H162.1V121.6H163.8V119.9Z" fill="#FAFAFA"/>
<path d="M163.8 122.8H162.1V124.5H163.8V122.8Z" fill="#FAFAFA"/>
<path d="M163.8 125.7H162.1V127.4H163.8V125.7Z" fill="#FAFAFA"/>
<path d="M163.8 128.6H162.1V130.3H163.8V128.6Z" fill="#FAFAFA"/>
<path d="M163.8 131.5H162.1V133.2H163.8V131.5Z" fill="#FAFAFA"/>
<path d="M163.8 140.3H162.1V142H163.8V140.3Z" fill="#FAFAFA"/>
<path d="M163.8 143.2H162.1V144.9H163.8V143.2Z" fill="#FAFAFA"/>
<path d="M163.8 146.1H162.1V147.8H163.8V146.1Z" fill="#FAFAFA"/>
<path d="M163.8 149H162.1V150.7H163.8V149Z" fill="#FAFAFA"/>
<path d="M163.8 151.9H162.1V153.6H163.8V151.9Z" fill="#FAFAFA"/>
<path d="M163.8 163.6H162.1V165.3H163.8V163.6Z" fill="#FAFAFA"/>
<path d="M166.5 105.3H164.8V107H166.5V105.3Z" fill="#FAFAFA"/>
<path d="M166.5 108.2H164.8V109.9H166.5V108.2Z" fill="#FAFAFA"/>
<path d="M166.5 111.1H164.8V112.8H166.5V111.1Z" fill="#FAFAFA"/>
<path d="M166.5 114H164.8V115.7H166.5V114Z" fill="#FAFAFA"/>
<path d="M166.5 116.9H164.8V118.6H166.5V116.9Z" fill="#FAFAFA"/>
<path d="M166.5 119.9H164.8V121.6H166.5V119.9Z" fill="#FAFAFA"/>
<path d="M166.5 122.8H164.8V124.5H166.5V122.8Z" fill="#FAFAFA"/>
<path d="M166.5 125.7H164.8V127.4H166.5V125.7Z" fill="#FAFAFA"/>
<path d="M166.5 128.6H164.8V130.3H166.5V128.6Z" fill="#FAFAFA"/>
<path d="M166.5 131.5H164.8V133.2H166.5V131.5Z" fill="#FAFAFA"/>
<path d="M166.5 134.4H164.8V136.1H166.5V134.4Z" fill="#FAFAFA"/>
<path d="M166.5 137.4H164.8V139.1H166.5V137.4Z" fill="#FAFAFA"/>
<path d="M166.5 140.3H164.8V142H166.5V140.3Z" fill="#FAFAFA"/>
<path d="M166.5 143.2H164.8V144.9H166.5V143.2Z" fill="#FAFAFA"/>
<path d="M166.5 146.1H164.8V147.8H166.5V146.1Z" fill="#FAFAFA"/>
<path d="M166.5 149H164.8V150.7H166.5V149Z" fill="#FAFAFA"/>
<path d="M166.5 151.9H164.8V153.6H166.5V151.9Z" fill="#FAFAFA"/>
<path d="M166.5 154.9H164.8V156.6H166.5V154.9Z" fill="#FAFAFA"/>
<path d="M169.3 105.3H167.6V107H169.3V105.3Z" fill="#FAFAFA"/>
<path d="M169.3 108.2H167.6V109.9H169.3V108.2Z" fill="#FAFAFA"/>
<path d="M169.3 111.1H167.6V112.8H169.3V111.1Z" fill="#FAFAFA"/>
<path d="M169.3 114H167.6V115.7H169.3V114Z" fill="#FAFAFA"/>
<path d="M169.3 116.9H167.6V118.6H169.3V116.9Z" fill="#FAFAFA"/>
<path d="M169.3 119.9H167.6V121.6H169.3V119.9Z" fill="#FAFAFA"/>
<path d="M169.3 122.8H167.6V124.5H169.3V122.8Z" fill="#FAFAFA"/>
<path d="M169.3 125.7H167.6V127.4H169.3V125.7Z" fill="#FAFAFA"/>
<path d="M169.3 128.6H167.6V130.3H169.3V128.6Z" fill="#FAFAFA"/>
<path d="M169.3 131.5H167.6V133.2H169.3V131.5Z" fill="#FAFAFA"/>
<path d="M169.3 140.3H167.6V142H169.3V140.3Z" fill="#FAFAFA"/>
<path d="M169.3 143.2H167.6V144.9H169.3V143.2Z" fill="#FAFAFA"/>
<path d="M169.3 146.1H167.6V147.8H169.3V146.1Z" fill="#FAFAFA"/>
<path d="M169.3 149H167.6V150.7H169.3V149Z" fill="#FAFAFA"/>
<path d="M172.1 105.3H170.4V107H172.1V105.3Z" fill="#FAFAFA"/>
<path d="M172.1 108.2H170.4V109.9H172.1V108.2Z" fill="#FAFAFA"/>
<path d="M172.1 111.1H170.4V112.8H172.1V111.1Z" fill="#FAFAFA"/>
<path d="M172.1 114H170.4V115.7H172.1V114Z" fill="#FAFAFA"/>
<path d="M172.1 116.9H170.4V118.6H172.1V116.9Z" fill="#FAFAFA"/>
<path d="M172.1 119.9H170.4V121.6H172.1V119.9Z" fill="#FAFAFA"/>
<path d="M172.1 122.8H170.4V124.5H172.1V122.8Z" fill="#FAFAFA"/>
<path d="M172.1 125.7H170.4V127.4H172.1V125.7Z" fill="#FAFAFA"/>
<path d="M172.1 128.6H170.4V130.3H172.1V128.6Z" fill="#FAFAFA"/>
<path d="M172.1 131.5H170.4V133.2H172.1V131.5Z" fill="#FAFAFA"/>
<path d="M172.1 140.3H170.4V142H172.1V140.3Z" fill="#FAFAFA"/>
<path d="M172.1 143.2H170.4V144.9H172.1V143.2Z" fill="#FAFAFA"/>
<path d="M172.1 146.1H170.4V147.8H172.1V146.1Z" fill="#FAFAFA"/>
<path d="M203.2 97.7001H201.5V99.4001H203.2V97.7001Z" fill="#FAFAFA"/>
<path d="M203.2 100.6H201.5V102.3H203.2V100.6Z" fill="#FAFAFA"/>
<path d="M203.2 103.5H201.5V105.2H203.2V103.5Z" fill="#FAFAFA"/>
<path d="M203.2 106.5H201.5V108.2H203.2V106.5Z" fill="#FAFAFA"/>
<path d="M203.2 109.4H201.5V111.1H203.2V109.4Z" fill="#FAFAFA"/>
<path d="M203.2 112.3H201.5V114H203.2V112.3Z" fill="#FAFAFA"/>
<path d="M203.2 115.2H201.5V116.9H203.2V115.2Z" fill="#FAFAFA"/>
<path d="M203.2 118.1H201.5V119.8H203.2V118.1Z" fill="#FAFAFA"/>
<path d="M203.2 126.9H201.5V128.6H203.2V126.9Z" fill="#FAFAFA"/>
<path d="M203.2 129.8H201.5V131.5H203.2V129.8Z" fill="#FAFAFA"/>
<path d="M205.9 97.7001H204.2V99.4001H205.9V97.7001Z" fill="#FAFAFA"/>
<path d="M205.9 100.6H204.2V102.3H205.9V100.6Z" fill="#FAFAFA"/>
<path d="M205.9 103.5H204.2V105.2H205.9V103.5Z" fill="#FAFAFA"/>
<path d="M205.9 106.5H204.2V108.2H205.9V106.5Z" fill="#FAFAFA"/>
<path d="M205.9 109.4H204.2V111.1H205.9V109.4Z" fill="#FAFAFA"/>
<path d="M205.9 112.3H204.2V114H205.9V112.3Z" fill="#FAFAFA"/>
<path d="M205.9 115.2H204.2V116.9H205.9V115.2Z" fill="#FAFAFA"/>
<path d="M205.9 118.1H204.2V119.8H205.9V118.1Z" fill="#FAFAFA"/>
<path d="M205.9 129.8H204.2V131.5H205.9V129.8Z" fill="#FAFAFA"/>
<path d="M208.7 97.7001H207V99.4001H208.7V97.7001Z" fill="#FAFAFA"/>
<path d="M208.7 100.6H207V102.3H208.7V100.6Z" fill="#FAFAFA"/>
<path d="M208.7 103.5H207V105.2H208.7V103.5Z" fill="#FAFAFA"/>
<path d="M208.7 106.5H207V108.2H208.7V106.5Z" fill="#FAFAFA"/>
<path d="M208.7 109.4H207V111.1H208.7V109.4Z" fill="#FAFAFA"/>
<path d="M208.7 112.3H207V114H208.7V112.3Z" fill="#FAFAFA"/>
<path d="M208.7 115.2H207V116.9H208.7V115.2Z" fill="#FAFAFA"/>
<path d="M208.7 118.1H207V119.8H208.7V118.1Z" fill="#FAFAFA"/>
<path d="M211.5 97.7001H209.8V99.4001H211.5V97.7001Z" fill="#FAFAFA"/>
<path d="M211.5 100.6H209.8V102.3H211.5V100.6Z" fill="#FAFAFA"/>
<path d="M211.5 103.5H209.8V105.2H211.5V103.5Z" fill="#FAFAFA"/>
<path d="M211.5 106.5H209.8V108.2H211.5V106.5Z" fill="#FAFAFA"/>
<path d="M211.5 109.4H209.8V111.1H211.5V109.4Z" fill="#FAFAFA"/>
<path d="M211.5 112.3H209.8V114H211.5V112.3Z" fill="#FAFAFA"/>
<path d="M211.5 118.1H209.8V119.8H211.5V118.1Z" fill="#FAFAFA"/>
<path d="M211.5 121H209.8V122.7H211.5V121Z" fill="#FAFAFA"/>
<path d="M211.5 129.8H209.8V131.5H211.5V129.8Z" fill="#FAFAFA"/>
<path d="M211.5 132.7H209.8V134.4H211.5V132.7Z" fill="#FAFAFA"/>
<path d="M211.5 135.6H209.8V137.3H211.5V135.6Z" fill="#FAFAFA"/>
<path d="M211.5 138.5H209.8V140.2H211.5V138.5Z" fill="#FAFAFA"/>
<path d="M211.5 141.5H209.8V143.2H211.5V141.5Z" fill="#FAFAFA"/>
<path d="M211.5 144.4H209.8V146.1H211.5V144.4Z" fill="#FAFAFA"/>
<path d="M211.5 147.3H209.8V149H211.5V147.3Z" fill="#FAFAFA"/>
<path d="M214.2 97.7001H212.5V99.4001H214.2V97.7001Z" fill="#FAFAFA"/>
<path d="M214.2 100.6H212.5V102.3H214.2V100.6Z" fill="#FAFAFA"/>
<path d="M214.2 103.5H212.5V105.2H214.2V103.5Z" fill="#FAFAFA"/>
<path d="M214.2 106.5H212.5V108.2H214.2V106.5Z" fill="#FAFAFA"/>
<path d="M214.2 109.4H212.5V111.1H214.2V109.4Z" fill="#FAFAFA"/>
<path d="M214.2 112.3H212.5V114H214.2V112.3Z" fill="#FAFAFA"/>
<path d="M214.2 121H212.5V122.7H214.2V121Z" fill="#FAFAFA"/>
<path d="M214.2 124H212.5V125.7H214.2V124Z" fill="#FAFAFA"/>
<path d="M214.2 126.9H212.5V128.6H214.2V126.9Z" fill="#FAFAFA"/>
<path d="M214.2 129.8H212.5V131.5H214.2V129.8Z" fill="#FAFAFA"/>
<path d="M214.2 132.7H212.5V134.4H214.2V132.7Z" fill="#FAFAFA"/>
<path d="M214.2 135.6H212.5V137.3H214.2V135.6Z" fill="#FAFAFA"/>
<path d="M214.2 138.5H212.5V140.2H214.2V138.5Z" fill="#FAFAFA"/>
<path d="M214.2 141.5H212.5V143.2H214.2V141.5Z" fill="#FAFAFA"/>
<path d="M214.2 144.4H212.5V146.1H214.2V144.4Z" fill="#FAFAFA"/>
<path d="M214.2 147.3H212.5V149H214.2V147.3Z" fill="#FAFAFA"/>
<path d="M214.2 150.2H212.5V151.9H214.2V150.2Z" fill="#FAFAFA"/>
<path d="M214.2 156H212.5V157.7H214.2V156Z" fill="#FAFAFA"/>
<path d="M217 97.7001H215.3V99.4001H217V97.7001Z" fill="#FAFAFA"/>
<path d="M217 100.6H215.3V102.3H217V100.6Z" fill="#FAFAFA"/>
<path d="M217 103.5H215.3V105.2H217V103.5Z" fill="#FAFAFA"/>
<path d="M217 106.5H215.3V108.2H217V106.5Z" fill="#FAFAFA"/>
<path d="M217 109.4H215.3V111.1H217V109.4Z" fill="#FAFAFA"/>
<path d="M217 112.3H215.3V114H217V112.3Z" fill="#FAFAFA"/>
<path d="M217 121H215.3V122.7H217V121Z" fill="#FAFAFA"/>
<path d="M217 124H215.3V125.7H217V124Z" fill="#FAFAFA"/>
<path d="M217 126.9H215.3V128.6H217V126.9Z" fill="#FAFAFA"/>
<path d="M217 129.8H215.3V131.5H217V129.8Z" fill="#FAFAFA"/>
<path d="M217 138.5H215.3V140.2H217V138.5Z" fill="#FAFAFA"/>
<path d="M217 141.5H215.3V143.2H217V141.5Z" fill="#FAFAFA"/>
<path d="M217 144.4H215.3V146.1H217V144.4Z" fill="#FAFAFA"/>
<path d="M217 147.3H215.3V149H217V147.3Z" fill="#FAFAFA"/>
<path d="M217 150.2H215.3V151.9H217V150.2Z" fill="#FAFAFA"/>
<path d="M217 156H215.3V157.7H217V156Z" fill="#FAFAFA"/>
<path d="M217 159H215.3V160.7H217V159Z" fill="#FAFAFA"/>
<path d="M242.1 124.8H240.4V126.5H242.1V124.8Z" fill="#FAFAFA"/>
<path d="M242.1 127.7H240.4V129.4H242.1V127.7Z" fill="#FAFAFA"/>
<path d="M242.1 130.7H240.4V132.4H242.1V130.7Z" fill="#FAFAFA"/>
<path d="M242.1 133.6H240.4V135.3H242.1V133.6Z" fill="#FAFAFA"/>
<path d="M242.1 136.5H240.4V138.2H242.1V136.5Z" fill="#FAFAFA"/>
<path d="M242.1 139.4H240.4V141.1H242.1V139.4Z" fill="#FAFAFA"/>
<path d="M242.1 142.3H240.4V144H242.1V142.3Z" fill="#FAFAFA"/>
<path d="M242.1 151.1H240.4V152.8H242.1V151.1Z" fill="#FAFAFA"/>
<path d="M242.1 154H240.4V155.7H242.1V154Z" fill="#FAFAFA"/>
<path d="M242.1 156.9H240.4V158.6H242.1V156.9Z" fill="#FAFAFA"/>
<path d="M244.8 124.8H243.1V126.5H244.8V124.8Z" fill="#FAFAFA"/>
<path d="M244.8 127.7H243.1V129.4H244.8V127.7Z" fill="#FAFAFA"/>
<path d="M244.8 130.7H243.1V132.4H244.8V130.7Z" fill="#FAFAFA"/>
<path d="M244.8 133.6H243.1V135.3H244.8V133.6Z" fill="#FAFAFA"/>
<path d="M244.8 136.5H243.1V138.2H244.8V136.5Z" fill="#FAFAFA"/>
<path d="M244.8 139.4H243.1V141.1H244.8V139.4Z" fill="#FAFAFA"/>
<path d="M244.8 142.3H243.1V144H244.8V142.3Z" fill="#FAFAFA"/>
<path d="M248.4 124.8H245.9V126.5H248.4V124.8Z" fill="#FAFAFA"/>
<path d="M248.4 127.7H245.9V129.4H248.4V127.7Z" fill="#FAFAFA"/>
<path d="M248.4 130.7H245.9V132.4H248.4V130.7Z" fill="#FAFAFA"/>
<path d="M248.4 133.6H245.9V135.3H248.4V133.6Z" fill="#FAFAFA"/>
<path d="M248.4 136.5H245.9V138.2H248.4V136.5Z" fill="#FAFAFA"/>
<path d="M248.4 139.4H245.9V141.1H248.4V139.4Z" fill="#FAFAFA"/>
<path d="M248.4 142.3H245.9V144H248.4V142.3Z" fill="#FAFAFA"/>
<path d="M95.6001 128.6H93.9001V130.3H95.6001V128.6Z" fill="#FAFAFA"/>
<path d="M95.6001 131.5H93.9001V133.2H95.6001V131.5Z" fill="#FAFAFA"/>
<path d="M95.6001 134.4H93.9001V136.1H95.6001V134.4Z" fill="#FAFAFA"/>
<path d="M95.6001 137.4H93.9001V139.1H95.6001V137.4Z" fill="#FAFAFA"/>
<path d="M95.6001 140.3H93.9001V142H95.6001V140.3Z" fill="#FAFAFA"/>
<path d="M95.6001 143.2H93.9001V144.9H95.6001V143.2Z" fill="#FAFAFA"/>
<path d="M95.6001 146.1H93.9001V147.8H95.6001V146.1Z" fill="#FAFAFA"/>
<path d="M95.6001 149H93.9001V150.7H95.6001V149Z" fill="#FAFAFA"/>
<path d="M95.6001 151.9H93.9001V153.6H95.6001V151.9Z" fill="#FAFAFA"/>
<path d="M95.6001 154.9H93.9001V156.6H95.6001V154.9Z" fill="#FAFAFA"/>
<path d="M95.6001 157.8H93.9001V159.5H95.6001V157.8Z" fill="#FAFAFA"/>
<path d="M95.6001 160.7H93.9001V162.4H95.6001V160.7Z" fill="#FAFAFA"/>
<path d="M95.6001 163.6H93.9001V165.3H95.6001V163.6Z" fill="#FAFAFA"/>
<path d="M95.6001 166.5H93.9001V168.2H95.6001V166.5Z" fill="#FAFAFA"/>
<path d="M95.6001 169.4H93.9001V171.1H95.6001V169.4Z" fill="#FAFAFA"/>
<path d="M95.6001 172.4H93.9001V174.1H95.6001V172.4Z" fill="#FAFAFA"/>
<path d="M95.6001 175.3H93.9001V177H95.6001V175.3Z" fill="#FAFAFA"/>
<path d="M95.6001 178.2H93.9001V179.9H95.6001V178.2Z" fill="#FAFAFA"/>
<path d="M95.6001 181.1H93.9001V182.8H95.6001V181.1Z" fill="#FAFAFA"/>
<path d="M95.6001 184H93.9001V185.7H95.6001V184Z" fill="#FAFAFA"/>
<path d="M98.4002 128.6H96.7002V130.3H98.4002V128.6Z" fill="#FAFAFA"/>
<path d="M98.4002 131.5H96.7002V133.2H98.4002V131.5Z" fill="#FAFAFA"/>
<path d="M98.4002 134.4H96.7002V136.1H98.4002V134.4Z" fill="#FAFAFA"/>
<path d="M98.4002 137.4H96.7002V139.1H98.4002V137.4Z" fill="#FAFAFA"/>
<path d="M98.4002 140.3H96.7002V142H98.4002V140.3Z" fill="#FAFAFA"/>
<path d="M98.4002 143.2H96.7002V144.9H98.4002V143.2Z" fill="#FAFAFA"/>
<path d="M98.4002 146.1H96.7002V147.8H98.4002V146.1Z" fill="#FAFAFA"/>
<path d="M98.4002 149H96.7002V150.7H98.4002V149Z" fill="#FAFAFA"/>
<path d="M98.4002 151.9H96.7002V153.6H98.4002V151.9Z" fill="#FAFAFA"/>
<path d="M98.4002 154.9H96.7002V156.6H98.4002V154.9Z" fill="#FAFAFA"/>
<path d="M98.4002 157.8H96.7002V159.5H98.4002V157.8Z" fill="#FAFAFA"/>
<path d="M98.4002 160.7H96.7002V162.4H98.4002V160.7Z" fill="#FAFAFA"/>
<path d="M98.4002 163.6H96.7002V165.3H98.4002V163.6Z" fill="#FAFAFA"/>
<path d="M98.4002 166.5H96.7002V168.2H98.4002V166.5Z" fill="#FAFAFA"/>
<path d="M98.4002 169.4H96.7002V171.1H98.4002V169.4Z" fill="#FAFAFA"/>
<path d="M98.4002 172.4H96.7002V174.1H98.4002V172.4Z" fill="#FAFAFA"/>
<path d="M98.4002 175.3H96.7002V177H98.4002V175.3Z" fill="#FAFAFA"/>
<path d="M98.4002 178.2H96.7002V179.9H98.4002V178.2Z" fill="#FAFAFA"/>
<path d="M101.2 128.6H99.5V130.3H101.2V128.6Z" fill="#FAFAFA"/>
<path d="M101.2 131.5H99.5V133.2H101.2V131.5Z" fill="#FAFAFA"/>
<path d="M101.2 134.4H99.5V136.1H101.2V134.4Z" fill="#FAFAFA"/>
<path d="M101.2 137.4H99.5V139.1H101.2V137.4Z" fill="#FAFAFA"/>
<path d="M101.2 140.3H99.5V142H101.2V140.3Z" fill="#FAFAFA"/>
<path d="M101.2 143.2H99.5V144.9H101.2V143.2Z" fill="#FAFAFA"/>
<path d="M101.2 146.1H99.5V147.8H101.2V146.1Z" fill="#FAFAFA"/>
<path d="M101.2 149H99.5V150.7H101.2V149Z" fill="#FAFAFA"/>
<path d="M101.2 151.9H99.5V153.6H101.2V151.9Z" fill="#FAFAFA"/>
<path d="M101.2 154.9H99.5V156.6H101.2V154.9Z" fill="#FAFAFA"/>
<path d="M101.2 157.8H99.5V159.5H101.2V157.8Z" fill="#FAFAFA"/>
<path d="M101.2 160.7H99.5V162.4H101.2V160.7Z" fill="#FAFAFA"/>
<path d="M101.2 163.6H99.5V165.3H101.2V163.6Z" fill="#FAFAFA"/>
<path d="M101.2 166.5H99.5V168.2H101.2V166.5Z" fill="#FAFAFA"/>
<path d="M101.2 169.4H99.5V171.1H101.2V169.4Z" fill="#FAFAFA"/>
<path d="M101.2 172.4H99.5V174.1H101.2V172.4Z" fill="#FAFAFA"/>
<path d="M101.2 175.3H99.5V177H101.2V175.3Z" fill="#FAFAFA"/>
<path d="M101.2 178.2H99.5V179.9H101.2V178.2Z" fill="#FAFAFA"/>
<path d="M85.3001 149.9H83.6001V151.6H85.3001V149.9Z" fill="#FAFAFA"/>
<path d="M85.3001 152.8H83.6001V154.5H85.3001V152.8Z" fill="#FAFAFA"/>
<path d="M85.3001 155.7H83.6001V157.4H85.3001V155.7Z" fill="#FAFAFA"/>
<path d="M85.3001 158.6H83.6001V160.3H85.3001V158.6Z" fill="#FAFAFA"/>
<path d="M85.3001 161.6H83.6001V163.3H85.3001V161.6Z" fill="#FAFAFA"/>
<path d="M85.3001 164.5H83.6001V166.2H85.3001V164.5Z" fill="#FAFAFA"/>
<path d="M85.3001 167.4H83.6001V169.1H85.3001V167.4Z" fill="#FAFAFA"/>
<path d="M85.3001 170.3H83.6001V172H85.3001V170.3Z" fill="#FAFAFA"/>
<path d="M85.3001 173.2H83.6001V174.9H85.3001V173.2Z" fill="#FAFAFA"/>
<path d="M85.3001 176.1H83.6001V177.8H85.3001V176.1Z" fill="#FAFAFA"/>
<path d="M85.3001 179.1H83.6001V180.8H85.3001V179.1Z" fill="#FAFAFA"/>
<path d="M85.3001 182H83.6001V183.7H85.3001V182Z" fill="#FAFAFA"/>
<path d="M85.3001 184.9H83.6001V186.6H85.3001V184.9Z" fill="#FAFAFA"/>
<path d="M88.1001 149.9H86.4001V151.6H88.1001V149.9Z" fill="#FAFAFA"/>
<path d="M88.1001 152.8H86.4001V154.5H88.1001V152.8Z" fill="#FAFAFA"/>
<path d="M88.1001 155.7H86.4001V157.4H88.1001V155.7Z" fill="#FAFAFA"/>
<path d="M88.1001 158.6H86.4001V160.3H88.1001V158.6Z" fill="#FAFAFA"/>
<path d="M88.1001 161.6H86.4001V163.3H88.1001V161.6Z" fill="#FAFAFA"/>
<path d="M88.1001 164.5H86.4001V166.2H88.1001V164.5Z" fill="#FAFAFA"/>
<path d="M88.1001 167.4H86.4001V169.1H88.1001V167.4Z" fill="#FAFAFA"/>
<path d="M88.1001 170.3H86.4001V172H88.1001V170.3Z" fill="#FAFAFA"/>
<path d="M88.1001 173.2H86.4001V174.9H88.1001V173.2Z" fill="#FAFAFA"/>
<path d="M88.1001 176.1H86.4001V177.8H88.1001V176.1Z" fill="#FAFAFA"/>
<path d="M88.1001 179.1H86.4001V180.8H88.1001V179.1Z" fill="#FAFAFA"/>
<path d="M88.1001 182H86.4001V183.7H88.1001V182Z" fill="#FAFAFA"/>
<path d="M88.1001 184.9H86.4001V186.6H88.1001V184.9Z" fill="#FAFAFA"/>
<path d="M90.8001 149.9H89.1001V151.6H90.8001V149.9Z" fill="#FAFAFA"/>
<path d="M90.8001 152.8H89.1001V154.5H90.8001V152.8Z" fill="#FAFAFA"/>
<path d="M90.8001 155.7H89.1001V157.4H90.8001V155.7Z" fill="#FAFAFA"/>
<path d="M90.8001 158.6H89.1001V160.3H90.8001V158.6Z" fill="#FAFAFA"/>
<path d="M90.8001 161.6H89.1001V163.3H90.8001V161.6Z" fill="#FAFAFA"/>
<path d="M90.8001 164.5H89.1001V166.2H90.8001V164.5Z" fill="#FAFAFA"/>
<path d="M90.8001 167.4H89.1001V169.1H90.8001V167.4Z" fill="#FAFAFA"/>
<path d="M90.8001 170.3H89.1001V172H90.8001V170.3Z" fill="#FAFAFA"/>
<path d="M90.8001 173.2H89.1001V174.9H90.8001V173.2Z" fill="#FAFAFA"/>
<path d="M90.8001 176.1H89.1001V177.8H90.8001V176.1Z" fill="#FAFAFA"/>
<path d="M90.8001 179.1H89.1001V180.8H90.8001V179.1Z" fill="#FAFAFA"/>
<path d="M90.8001 182H89.1001V183.7H90.8001V182Z" fill="#FAFAFA"/>
<path d="M90.8001 184.9H89.1001V186.6H90.8001V184.9Z" fill="#FAFAFA"/>
<path d="M90.8001 187.8H89.1001V189.5H90.8001V187.8Z" fill="#FAFAFA"/>
<path d="M106.2 150.8H104.5V152.5H106.2V150.8Z" fill="#FAFAFA"/>
<path d="M106.2 153.7H104.5V155.4H106.2V153.7Z" fill="#FAFAFA"/>
<path d="M106.2 156.6H104.5V158.3H106.2V156.6Z" fill="#FAFAFA"/>
<path d="M106.2 159.5H104.5V161.2H106.2V159.5Z" fill="#FAFAFA"/>
<path d="M106.2 162.4H104.5V164.1H106.2V162.4Z" fill="#FAFAFA"/>
<path d="M106.2 165.3H104.5V167H106.2V165.3Z" fill="#FAFAFA"/>
<path d="M106.2 168.3H104.5V170H106.2V168.3Z" fill="#FAFAFA"/>
<path d="M106.2 171.2H104.5V172.9H106.2V171.2Z" fill="#FAFAFA"/>
<path d="M106.2 174.1H104.5V175.8H106.2V174.1Z" fill="#FAFAFA"/>
<path d="M106.2 177H104.5V178.7H106.2V177Z" fill="#FAFAFA"/>
<path d="M106.2 185.8H104.5V187.5H106.2V185.8Z" fill="#FAFAFA"/>
<path d="M108.9 150.8H107.2V152.5H108.9V150.8Z" fill="#FAFAFA"/>
<path d="M108.9 153.7H107.2V155.4H108.9V153.7Z" fill="#FAFAFA"/>
<path d="M108.9 156.6H107.2V158.3H108.9V156.6Z" fill="#FAFAFA"/>
<path d="M108.9 159.5H107.2V161.2H108.9V159.5Z" fill="#FAFAFA"/>
<path d="M108.9 162.4H107.2V164.1H108.9V162.4Z" fill="#FAFAFA"/>
<path d="M108.9 165.3H107.2V167H108.9V165.3Z" fill="#FAFAFA"/>
<path d="M108.9 168.3H107.2V170H108.9V168.3Z" fill="#FAFAFA"/>
<path d="M108.9 171.2H107.2V172.9H108.9V171.2Z" fill="#FAFAFA"/>
<path d="M108.9 174.1H107.2V175.8H108.9V174.1Z" fill="#FAFAFA"/>
<path d="M108.9 182.8H107.2V184.5H108.9V182.8Z" fill="#FAFAFA"/>
<path d="M108.9 185.8H107.2V187.5H108.9V185.8Z" fill="#FAFAFA"/>
<path d="M111.7 150.8H110V152.5H111.7V150.8Z" fill="#FAFAFA"/>
<path d="M111.7 153.7H110V155.4H111.7V153.7Z" fill="#FAFAFA"/>
<path d="M111.7 156.6H110V158.3H111.7V156.6Z" fill="#FAFAFA"/>
<path d="M111.7 159.5H110V161.2H111.7V159.5Z" fill="#FAFAFA"/>
<path d="M111.7 162.4H110V164.1H111.7V162.4Z" fill="#FAFAFA"/>
<path d="M111.7 165.3H110V167H111.7V165.3Z" fill="#FAFAFA"/>
<path d="M111.7 168.3H110V170H111.7V168.3Z" fill="#FAFAFA"/>
<path d="M111.7 171.2H110V172.9H111.7V171.2Z" fill="#FAFAFA"/>
<path d="M111.7 179.9H110V181.6H111.7V179.9Z" fill="#FAFAFA"/>
<path d="M111.7 182.8H110V184.5H111.7V182.8Z" fill="#FAFAFA"/>
<path d="M111.7 185.8H110V187.5H111.7V185.8Z" fill="#FAFAFA"/>
<path d="M137.4 106.5H135.7V108.2H137.4V106.5Z" fill="#FAFAFA"/>
<path d="M137.4 109.4H135.7V111.1H137.4V109.4Z" fill="#FAFAFA"/>
<path d="M137.4 112.3H135.7V114H137.4V112.3Z" fill="#FAFAFA"/>
<path d="M137.4 115.2H135.7V116.9H137.4V115.2Z" fill="#FAFAFA"/>
<path d="M137.4 118.1H135.7V119.8H137.4V118.1Z" fill="#FAFAFA"/>
<path d="M137.4 121H135.7V122.7H137.4V121Z" fill="#FAFAFA"/>
<path d="M137.4 124H135.7V125.7H137.4V124Z" fill="#FAFAFA"/>
<path d="M137.4 126.9H135.7V128.6H137.4V126.9Z" fill="#FAFAFA"/>
<path d="M137.4 129.8H135.7V131.5H137.4V129.8Z" fill="#FAFAFA"/>
<path d="M137.4 132.7H135.7V134.4H137.4V132.7Z" fill="#FAFAFA"/>
<path d="M137.4 135.6H135.7V137.3H137.4V135.6Z" fill="#FAFAFA"/>
<path d="M137.4 138.5H135.7V140.2H137.4V138.5Z" fill="#FAFAFA"/>
<path d="M137.4 141.5H135.7V143.2H137.4V141.5Z" fill="#FAFAFA"/>
<path d="M137.4 144.4H135.7V146.1H137.4V144.4Z" fill="#FAFAFA"/>
<path d="M137.4 147.3H135.7V149H137.4V147.3Z" fill="#FAFAFA"/>
<path d="M137.4 150.2H135.7V151.9H137.4V150.2Z" fill="#FAFAFA"/>
<path d="M137.4 153.1H135.7V154.8H137.4V153.1Z" fill="#FAFAFA"/>
<path d="M137.4 159H135.7V160.7H137.4V159Z" fill="#FAFAFA"/>
<path d="M137.4 161.9H135.7V163.6H137.4V161.9Z" fill="#FAFAFA"/>
<path d="M137.4 164.8H135.7V166.5H137.4V164.8Z" fill="#FAFAFA"/>
<path d="M137.4 167.7H135.7V169.4H137.4V167.7Z" fill="#FAFAFA"/>
<path d="M137.4 170.6H135.7V172.3H137.4V170.6Z" fill="#FAFAFA"/>
<path d="M140.1 106.5H138.4V108.2H140.1V106.5Z" fill="#FAFAFA"/>
<path d="M140.1 109.4H138.4V111.1H140.1V109.4Z" fill="#FAFAFA"/>
<path d="M140.1 112.3H138.4V114H140.1V112.3Z" fill="#FAFAFA"/>
<path d="M140.1 115.2H138.4V116.9H140.1V115.2Z" fill="#FAFAFA"/>
<path d="M140.1 118.1H138.4V119.8H140.1V118.1Z" fill="#FAFAFA"/>
<path d="M140.1 121H138.4V122.7H140.1V121Z" fill="#FAFAFA"/>
<path d="M140.1 124H138.4V125.7H140.1V124Z" fill="#FAFAFA"/>
<path d="M140.1 126.9H138.4V128.6H140.1V126.9Z" fill="#FAFAFA"/>
<path d="M140.1 129.8H138.4V131.5H140.1V129.8Z" fill="#FAFAFA"/>
<path d="M140.1 132.7H138.4V134.4H140.1V132.7Z" fill="#FAFAFA"/>
<path d="M140.1 135.6H138.4V137.3H140.1V135.6Z" fill="#FAFAFA"/>
<path d="M140.1 138.5H138.4V140.2H140.1V138.5Z" fill="#FAFAFA"/>
<path d="M140.1 141.5H138.4V143.2H140.1V141.5Z" fill="#FAFAFA"/>
<path d="M140.1 144.4H138.4V146.1H140.1V144.4Z" fill="#FAFAFA"/>
<path d="M140.1 147.3H138.4V149H140.1V147.3Z" fill="#FAFAFA"/>
<path d="M140.1 150.2H138.4V151.9H140.1V150.2Z" fill="#FAFAFA"/>
<path d="M140.1 167.7H138.4V169.4H140.1V167.7Z" fill="#FAFAFA"/>
<path d="M140.1 170.6H138.4V172.3H140.1V170.6Z" fill="#FAFAFA"/>
<path d="M142.9 106.5H141.2V108.2H142.9V106.5Z" fill="#FAFAFA"/>
<path d="M142.9 109.4H141.2V111.1H142.9V109.4Z" fill="#FAFAFA"/>
<path d="M142.9 112.3H141.2V114H142.9V112.3Z" fill="#FAFAFA"/>
<path d="M142.9 115.2H141.2V116.9H142.9V115.2Z" fill="#FAFAFA"/>
<path d="M142.9 118.1H141.2V119.8H142.9V118.1Z" fill="#FAFAFA"/>
<path d="M142.9 121H141.2V122.7H142.9V121Z" fill="#FAFAFA"/>
<path d="M142.9 124H141.2V125.7H142.9V124Z" fill="#FAFAFA"/>
<path d="M142.9 126.9H141.2V128.6H142.9V126.9Z" fill="#FAFAFA"/>
<path d="M142.9 129.8H141.2V131.5H142.9V129.8Z" fill="#FAFAFA"/>
<path d="M142.9 132.7H141.2V134.4H142.9V132.7Z" fill="#FAFAFA"/>
<path d="M142.9 135.6H141.2V137.3H142.9V135.6Z" fill="#FAFAFA"/>
<path d="M142.9 138.5H141.2V140.2H142.9V138.5Z" fill="#FAFAFA"/>
<path d="M142.9 141.5H141.2V143.2H142.9V141.5Z" fill="#FAFAFA"/>
<path d="M142.9 144.4H141.2V146.1H142.9V144.4Z" fill="#FAFAFA"/>
<path d="M142.9 147.3H141.2V149H142.9V147.3Z" fill="#FAFAFA"/>
<path d="M142.9 150.2H141.2V151.9H142.9V150.2Z" fill="#FAFAFA"/>
<path d="M142.9 156H141.2V157.7H142.9V156Z" fill="#FAFAFA"/>
<path d="M142.9 159H141.2V160.7H142.9V159Z" fill="#FAFAFA"/>
<path d="M142.9 161.9H141.2V163.6H142.9V161.9Z" fill="#FAFAFA"/>
<path d="M142.9 164.8H141.2V166.5H142.9V164.8Z" fill="#FAFAFA"/>
<path d="M142.9 170.6H141.2V172.3H142.9V170.6Z" fill="#FAFAFA"/>
<path d="M127.4 143.2H125.7V144.9H127.4V143.2Z" fill="#FAFAFA"/>
<path d="M127.4 146.1H125.7V147.8H127.4V146.1Z" fill="#FAFAFA"/>
<path d="M127.4 149H125.7V150.7H127.4V149Z" fill="#FAFAFA"/>
<path d="M127.4 151.9H125.7V153.6H127.4V151.9Z" fill="#FAFAFA"/>
<path d="M127.4 154.9H125.7V156.6H127.4V154.9Z" fill="#FAFAFA"/>
<path d="M127.4 157.8H125.7V159.5H127.4V157.8Z" fill="#FAFAFA"/>
<path d="M127.4 160.7H125.7V162.4H127.4V160.7Z" fill="#FAFAFA"/>
<path d="M127.4 166.5H125.7V168.2H127.4V166.5Z" fill="#FAFAFA"/>
<path d="M127.4 169.4H125.7V171.1H127.4V169.4Z" fill="#FAFAFA"/>
<path d="M127.4 172.4H125.7V174.1H127.4V172.4Z" fill="#FAFAFA"/>
<path d="M127.4 175.3H125.7V177H127.4V175.3Z" fill="#FAFAFA"/>
<path d="M127.4 178.2H125.7V179.9H127.4V178.2Z" fill="#FAFAFA"/>
<path d="M127.4 181.1H125.7V182.8H127.4V181.1Z" fill="#FAFAFA"/>
<path d="M127.4 184H125.7V185.7H127.4V184Z" fill="#FAFAFA"/>
<path d="M127.4 186.9H125.7V188.6H127.4V186.9Z" fill="#FAFAFA"/>
<path d="M130.1 143.2H128.4V144.9H130.1V143.2Z" fill="#FAFAFA"/>
<path d="M130.1 146.1H128.4V147.8H130.1V146.1Z" fill="#FAFAFA"/>
<path d="M130.1 149H128.4V150.7H130.1V149Z" fill="#FAFAFA"/>
<path d="M130.1 151.9H128.4V153.6H130.1V151.9Z" fill="#FAFAFA"/>
<path d="M130.1 154.9H128.4V156.6H130.1V154.9Z" fill="#FAFAFA"/>
<path d="M130.1 157.8H128.4V159.5H130.1V157.8Z" fill="#FAFAFA"/>
<path d="M130.1 166.5H128.4V168.2H130.1V166.5Z" fill="#FAFAFA"/>
<path d="M130.1 169.4H128.4V171.1H130.1V169.4Z" fill="#FAFAFA"/>
<path d="M130.1 172.4H128.4V174.1H130.1V172.4Z" fill="#FAFAFA"/>
<path d="M130.1 175.3H128.4V177H130.1V175.3Z" fill="#FAFAFA"/>
<path d="M130.1 178.2H128.4V179.9H130.1V178.2Z" fill="#FAFAFA"/>
<path d="M130.1 181.1H128.4V182.8H130.1V181.1Z" fill="#FAFAFA"/>
<path d="M130.1 184H128.4V185.7H130.1V184Z" fill="#FAFAFA"/>
<path d="M130.1 186.9H128.4V188.6H130.1V186.9Z" fill="#FAFAFA"/>
<path d="M132.9 143.2H131.2V144.9H132.9V143.2Z" fill="#FAFAFA"/>
<path d="M132.9 146.1H131.2V147.8H132.9V146.1Z" fill="#FAFAFA"/>
<path d="M132.9 149H131.2V150.7H132.9V149Z" fill="#FAFAFA"/>
<path d="M132.9 151.9H131.2V153.6H132.9V151.9Z" fill="#FAFAFA"/>
<path d="M132.9 154.9H131.2V156.6H132.9V154.9Z" fill="#FAFAFA"/>
<path d="M132.9 157.8H131.2V159.5H132.9V157.8Z" fill="#FAFAFA"/>
<path d="M132.9 163.6H131.2V165.3H132.9V163.6Z" fill="#FAFAFA"/>
<path d="M132.9 166.5H131.2V168.2H132.9V166.5Z" fill="#FAFAFA"/>
<path d="M132.9 169.4H131.2V171.1H132.9V169.4Z" fill="#FAFAFA"/>
<path d="M132.9 172.4H131.2V174.1H132.9V172.4Z" fill="#FAFAFA"/>
<path d="M132.9 175.3H131.2V177H132.9V175.3Z" fill="#FAFAFA"/>
<path d="M132.9 178.2H131.2V179.9H132.9V178.2Z" fill="#FAFAFA"/>
<path d="M132.9 181.1H131.2V182.8H132.9V181.1Z" fill="#FAFAFA"/>
<path d="M132.9 184H131.2V185.7H132.9V184Z" fill="#FAFAFA"/>
<path d="M132.9 186.9H131.2V188.6H132.9V186.9Z" fill="#FAFAFA"/>
<path d="M191.1 126.9H189.4V128.6H191.1V126.9Z" fill="#FAFAFA"/>
<path d="M191.1 129.8H189.4V131.5H191.1V129.8Z" fill="#FAFAFA"/>
<path d="M191.1 132.7H189.4V134.4H191.1V132.7Z" fill="#FAFAFA"/>
<path d="M191.1 135.6H189.4V137.3H191.1V135.6Z" fill="#FAFAFA"/>
<path d="M191.1 138.5H189.4V140.2H191.1V138.5Z" fill="#FAFAFA"/>
<path d="M191.1 141.5H189.4V143.2H191.1V141.5Z" fill="#FAFAFA"/>
<path d="M191.1 144.4H189.4V146.1H191.1V144.4Z" fill="#FAFAFA"/>
<path d="M191.1 147.3H189.4V149H191.1V147.3Z" fill="#FAFAFA"/>
<path d="M191.1 150.2H189.4V151.9H191.1V150.2Z" fill="#FAFAFA"/>
<path d="M191.1 153.1H189.4V154.8H191.1V153.1Z" fill="#FAFAFA"/>
<path d="M191.1 156H189.4V157.7H191.1V156Z" fill="#FAFAFA"/>
<path d="M191.1 159H189.4V160.7H191.1V159Z" fill="#FAFAFA"/>
<path d="M191.1 161.9H189.4V163.6H191.1V161.9Z" fill="#FAFAFA"/>
<path d="M191.1 167.7H189.4V169.4H191.1V167.7Z" fill="#FAFAFA"/>
<path d="M191.1 170.6H189.4V172.3H191.1V170.6Z" fill="#FAFAFA"/>
<path d="M191.1 173.5H189.4V175.2H191.1V173.5Z" fill="#FAFAFA"/>
<path d="M191.1 176.4H189.4V178.1H191.1V176.4Z" fill="#FAFAFA"/>
<path d="M191.1 182.3H189.4V184H191.1V182.3Z" fill="#FAFAFA"/>
<path d="M191.1 185.2H189.4V186.9H191.1V185.2Z" fill="#FAFAFA"/>
<path d="M191.1 188.1H189.4V189.8H191.1V188.1Z" fill="#FAFAFA"/>
<path d="M193.9 126.9H192.2V128.6H193.9V126.9Z" fill="#FAFAFA"/>
<path d="M193.9 129.8H192.2V131.5H193.9V129.8Z" fill="#FAFAFA"/>
<path d="M193.9 132.7H192.2V134.4H193.9V132.7Z" fill="#FAFAFA"/>
<path d="M193.9 135.6H192.2V137.3H193.9V135.6Z" fill="#FAFAFA"/>
<path d="M193.9 138.5H192.2V140.2H193.9V138.5Z" fill="#FAFAFA"/>
<path d="M193.9 141.5H192.2V143.2H193.9V141.5Z" fill="#FAFAFA"/>
<path d="M193.9 144.4H192.2V146.1H193.9V144.4Z" fill="#FAFAFA"/>
<path d="M193.9 147.3H192.2V149H193.9V147.3Z" fill="#FAFAFA"/>
<path d="M193.9 150.2H192.2V151.9H193.9V150.2Z" fill="#FAFAFA"/>
<path d="M193.9 153.1H192.2V154.8H193.9V153.1Z" fill="#FAFAFA"/>
<path d="M193.9 156H192.2V157.7H193.9V156Z" fill="#FAFAFA"/>
<path d="M193.9 159H192.2V160.7H193.9V159Z" fill="#FAFAFA"/>
<path d="M193.9 161.9H192.2V163.6H193.9V161.9Z" fill="#FAFAFA"/>
<path d="M193.9 170.6H192.2V172.3H193.9V170.6Z" fill="#FAFAFA"/>
<path d="M193.9 173.5H192.2V175.2H193.9V173.5Z" fill="#FAFAFA"/>
<path d="M193.9 179.4H192.2V181.1H193.9V179.4Z" fill="#FAFAFA"/>
<path d="M193.9 182.3H192.2V184H193.9V182.3Z" fill="#FAFAFA"/>
<path d="M193.9 185.2H192.2V186.9H193.9V185.2Z" fill="#FAFAFA"/>
<path d="M193.9 188.1H192.2V189.8H193.9V188.1Z" fill="#FAFAFA"/>
<path d="M196.6 126.9H194.9V128.6H196.6V126.9Z" fill="#FAFAFA"/>
<path d="M196.6 129.8H194.9V131.5H196.6V129.8Z" fill="#FAFAFA"/>
<path d="M196.6 132.7H194.9V134.4H196.6V132.7Z" fill="#FAFAFA"/>
<path d="M196.6 135.6H194.9V137.3H196.6V135.6Z" fill="#FAFAFA"/>
<path d="M196.6 138.5H194.9V140.2H196.6V138.5Z" fill="#FAFAFA"/>
<path d="M196.6 141.5H194.9V143.2H196.6V141.5Z" fill="#FAFAFA"/>
<path d="M196.6 144.4H194.9V146.1H196.6V144.4Z" fill="#FAFAFA"/>
<path d="M196.6 147.3H194.9V149H196.6V147.3Z" fill="#FAFAFA"/>
<path d="M196.6 150.2H194.9V151.9H196.6V150.2Z" fill="#FAFAFA"/>
<path d="M196.6 153.1H194.9V154.8H196.6V153.1Z" fill="#FAFAFA"/>
<path d="M196.6 156H194.9V157.7H196.6V156Z" fill="#FAFAFA"/>
<path d="M196.6 159H194.9V160.7H196.6V159Z" fill="#FAFAFA"/>
<path d="M196.6 161.9H194.9V163.6H196.6V161.9Z" fill="#FAFAFA"/>
<path d="M196.6 164.8H194.9V166.5H196.6V164.8Z" fill="#FAFAFA"/>
<path d="M196.6 170.6H194.9V172.3H196.6V170.6Z" fill="#FAFAFA"/>
<path d="M196.6 176.4H194.9V178.1H196.6V176.4Z" fill="#FAFAFA"/>
<path d="M196.6 179.4H194.9V181.1H196.6V179.4Z" fill="#FAFAFA"/>
<path d="M196.6 182.3H194.9V184H196.6V182.3Z" fill="#FAFAFA"/>
<path d="M196.6 185.2H194.9V186.9H196.6V185.2Z" fill="#FAFAFA"/>
<path d="M196.6 188.1H194.9V189.8H196.6V188.1Z" fill="#FAFAFA"/>
<path d="M179.8 143.5H178.1V145.2H179.8V143.5Z" fill="#FAFAFA"/>
<path d="M179.8 146.4H178.1V148.1H179.8V146.4Z" fill="#FAFAFA"/>
<path d="M179.8 149.3H178.1V151H179.8V149.3Z" fill="#FAFAFA"/>
<path d="M179.8 152.2H178.1V153.9H179.8V152.2Z" fill="#FAFAFA"/>
<path d="M179.8 155.2H178.1V156.9H179.8V155.2Z" fill="#FAFAFA"/>
<path d="M179.8 158.1H178.1V159.8H179.8V158.1Z" fill="#FAFAFA"/>
<path d="M179.8 166.8H178.1V168.5H179.8V166.8Z" fill="#FAFAFA"/>
<path d="M179.8 169.7H178.1V171.4H179.8V169.7Z" fill="#FAFAFA"/>
<path d="M179.8 172.7H178.1V174.4H179.8V172.7Z" fill="#FAFAFA"/>
<path d="M179.8 175.6H178.1V177.3H179.8V175.6Z" fill="#FAFAFA"/>
<path d="M179.8 178.5H178.1V180.2H179.8V178.5Z" fill="#FAFAFA"/>
<path d="M179.8 181.4H178.1V183.1H179.8V181.4Z" fill="#FAFAFA"/>
<path d="M179.8 184.3H178.1V186H179.8V184.3Z" fill="#FAFAFA"/>
<path d="M182.6 143.5H180.9V145.2H182.6V143.5Z" fill="#FAFAFA"/>
<path d="M182.6 146.4H180.9V148.1H182.6V146.4Z" fill="#FAFAFA"/>
<path d="M182.6 149.3H180.9V151H182.6V149.3Z" fill="#FAFAFA"/>
<path d="M182.6 152.2H180.9V153.9H182.6V152.2Z" fill="#FAFAFA"/>
<path d="M182.6 155.2H180.9V156.9H182.6V155.2Z" fill="#FAFAFA"/>
<path d="M182.6 158.1H180.9V159.8H182.6V158.1Z" fill="#FAFAFA"/>
<path d="M182.6 166.8H180.9V168.5H182.6V166.8Z" fill="#FAFAFA"/>
<path d="M182.6 169.7H180.9V171.4H182.6V169.7Z" fill="#FAFAFA"/>
<path d="M182.6 172.7H180.9V174.4H182.6V172.7Z" fill="#FAFAFA"/>
<path d="M182.6 175.6H180.9V177.3H182.6V175.6Z" fill="#FAFAFA"/>
<path d="M182.6 178.5H180.9V180.2H182.6V178.5Z" fill="#FAFAFA"/>
<path d="M182.6 181.4H180.9V183.1H182.6V181.4Z" fill="#FAFAFA"/>
<path d="M182.6 187.2H180.9V188.9H182.6V187.2Z" fill="#FAFAFA"/>
<path d="M248.9 48.2001H245.4V237.7H248.9V48.2001Z" fill="#EBEBEB"/>
<path d="M193.4 48.2001H190.5V237.7H193.4V48.2001Z" fill="#EBEBEB"/>
<path d="M138.5 48.2001H135.6V237.7H138.5V48.2001Z" fill="#EBEBEB"/>
<path d="M344.9 55.7001C352.742 55.7001 359.1 49.3425 359.1 41.5C359.1 33.6576 352.742 27.3 344.9 27.3C337.057 27.3 330.7 33.6576 330.7 41.5C330.7 49.3425 337.057 55.7001 344.9 55.7001Z" fill="#E0E0E0"/>
<path d="M356.9 41.5C356.9 48.2 351.5 53.5 344.9 53.5C338.2 53.5 332.9 48.1 332.9 41.5C332.9 34.8 338.3 29.5 344.9 29.5C351.6 29.4 356.9 34.8 356.9 41.5Z" fill="#F0F0F0"/>
<path d="M344.3 33.2001V41.6001L338.7 38.5001" fill="#F0F0F0"/>
<path d="M344.3 33.2001V41.6001L338.7 38.5001" stroke="#E0E0E0" stroke-width="2" stroke-miterlimit="10" stroke-linecap="round" stroke-linejoin="round"/>
<path d="M415.6 64.4H353V147.1H415.6V64.4Z" fill="#F5F5F5"/>
<path d="M374.3 73.1V109.5L388.8 108.7L390.4 73.1H374.3Z" fill="#EBEBEB"/>
<path d="M386 80.2001H408.3L408.1 112L396.6 112.2L386 80.2001Z" fill="#E0E0E0"/>
<path d="M364.3 75.5H370.2L368.1 103.9L360.8 105.7L364.3 75.5Z" fill="#E6E6E6"/>
<path d="M281.362 157.151H343.762V81.1509L281.362 81.1509V157.151Z" fill="#E6E6E6"/>
<path d="M295.6 138.3L328.5 106L293 100.2L295.6 138.3Z" fill="#E0E0E0"/>
<path d="M327.7 130.7L329.3 105.9L304.6 112L302.8 130.9L327.7 130.7Z" fill="#F0F0F0"/>
<path d="M302.417 102.991C306.323 99.0862 306.323 92.7546 302.417 88.8494C298.512 84.9442 292.181 84.9442 288.275 88.8494C284.37 92.7546 284.37 99.0862 288.275 102.991C292.181 106.897 298.512 106.897 302.417 102.991Z" fill="#FAFAFA"/>
<path d="M324.4 139.5C324.4 136.8 326.6 134.7 329.2 134.7C331.9 134.7 334 136.9 334 139.5C334 142.2 331.8 144.3 329.2 144.3C326.6 144.3 324.4 142.1 324.4 139.5Z" fill="#E0E0E0"/>
<path d="M328.1 148L314.2 139.5L325.9 129.8L328.1 148Z" fill="#F5F5F5"/>
<path d="M311.6 90.8H308.9V151.5H311.6V90.8Z" fill="#E0E0E0"/>
<path d="M338 90.8H334.4V148.8H338V90.8Z" fill="#EBEBEB"/>
<path d="M305.8 130.9H287.6V149.1H305.8V130.9Z" fill="#EBEBEB"/>
<path d="M411.4 258.4H345.8V318H411.4V258.4Z" fill="#E6E6E6"/>
<path d="M421.4 253.2H413.2V327.2H421.4V253.2Z" fill="#E6E6E6"/>
<path d="M361.6 264H356.2V285.4H361.6V264Z" fill="#FAFAFA"/>
<path d="M383.9 264H378.5V285.4H383.9V264Z" fill="#F5F5F5"/>
<path d="M367 265.8H361.6V285.3H367V265.8Z" fill="#F5F5F5"/>
<path d="M378.5 265.8H373.1V285.3H378.5V265.8Z" fill="#FAFAFA"/>
<path d="M373.2 264H369.7V285.4H373.2V264Z" fill="#EBEBEB"/>
<path d="M369.7 265.8H367V285.3H369.7V265.8Z" fill="#FAFAFA"/>
<path d="M389.3 264H383.9V285.4H389.3V264Z" fill="#EBEBEB"/>
<path d="M394.7 265.8H389.3V285.3H394.7V265.8Z" fill="#E6E6E6"/>
<path d="M406.2 265.8H400.8V285.3H406.2V265.8Z" fill="#E6E6E6"/>
<path d="M400.8 264H397.3V285.4H400.8V264Z" fill="#FAFAFA"/>
<path d="M397.3 265.8H394.6V285.3H397.3V265.8Z" fill="#EBEBEB"/>
<path d="M408.9 264.6H406.2V285.4H408.9V264.6Z" fill="#FAFAFA"/>
<path d="M403.465 314.717H408.865V294.317H403.465V314.717Z" fill="#FAFAFA"/>
<path d="M381.178 314.717H386.578V294.317H381.178V314.717Z" fill="#FAFAFA"/>
<path d="M398.112 314.772H403.512V296.272H398.112V314.772Z" fill="#F0F0F0"/>
<path d="M386.531 314.772H391.931V296.272H386.531V314.772Z" fill="#EBEBEB"/>
<path d="M391.883 314.717H395.383V294.317H391.883V314.717Z" fill="#FAFAFA"/>
<path d="M395.446 314.772H398.146V296.272H395.446V314.772Z" fill="#F5F5F5"/>
<path d="M375.824 314.717H381.224V294.317H375.824V314.717Z" fill="#EBEBEB"/>
<path d="M370.47 314.772H375.87V296.272H370.47V314.772Z" fill="#F5F5F5"/>
<path d="M358.89 314.772H364.29V296.272H358.89V314.772Z" fill="#E6E6E6"/>
<path d="M364.241 314.717H367.741V294.317H364.241V314.717Z" fill="#FAFAFA"/>
<path d="M352.761 314.717H356.261V294.317H352.761V314.717Z" fill="#FAFAFA"/>
<path d="M367.704 314.772H370.404V296.272H367.704V314.772Z" fill="#EBEBEB"/>
<path d="M356.224 314.743H358.924V294.943H356.224V314.743Z" fill="#F0F0F0"/>
<path d="M411.1 253.2H408.9H343.7V322.5H408.9V327.3H413.3V253.3H411.1V253.2ZM408.9 314.8H347.9V289.9H408.9V314.8ZM408.9 285.4H347.9V260.9H408.9V285.4Z" fill="#F0F0F0"/>
<path d="M280.106 318.082H345.706V258.482H280.106V318.082Z" fill="#E6E6E6"/>
<path d="M282.578 327.209H290.778V321.609H282.578V327.209Z" fill="#E6E6E6"/>
<path d="M338.03 285.369H343.43V263.969H338.03V285.369Z" fill="#FAFAFA"/>
<path d="M315.742 285.369H321.142V263.969H315.742V285.369Z" fill="#F5F5F5"/>
<path d="M332.676 285.424H338.076V265.924H332.676V285.424Z" fill="#F5F5F5"/>
<path d="M321.096 285.424H326.496V265.924H321.096V285.424Z" fill="#FAFAFA"/>
<path d="M326.548 285.369H330.048V263.969H326.548V285.369Z" fill="#EBEBEB"/>
<path d="M330.011 285.424H332.711V265.924H330.011V285.424Z" fill="#FAFAFA"/>
<path d="M313.878 285.369H319.278V263.969H313.878V285.369Z" fill="#EBEBEB"/>
<path d="M308.524 285.424H313.924V265.924H308.524V285.424Z" fill="#E6E6E6"/>
<path d="M297.044 285.424H302.444V265.924H297.044V285.424Z" fill="#E6E6E6"/>
<path d="M302.396 285.369H305.896V263.969H302.396V285.369Z" fill="#FAFAFA"/>
<path d="M305.859 285.424H308.559V265.924H305.859V285.424Z" fill="#EBEBEB"/>
<path d="M294.378 285.394H297.078V264.594H294.378V285.394Z" fill="#F5F5F5"/>
<path d="M297.2 294.4H291.8V314.8H297.2V294.4Z" fill="#FAFAFA"/>
<path d="M319.5 294.4H314.1V314.8H319.5V294.4Z" fill="#FAFAFA"/>
<path d="M302.6 296.2H297.2V314.7H302.6V296.2Z" fill="#F5F5F5"/>
<path d="M314.1 296.2H308.7V314.7H314.1V296.2Z" fill="#EBEBEB"/>
<path d="M308.8 294.4H305.3V314.8H308.8V294.4Z" fill="#FAFAFA"/>
<path d="M305.3 296.2H302.6V314.7H305.3V296.2Z" fill="#F5F5F5"/>
<path d="M321.3 294.4H315.9V314.8H321.3V294.4Z" fill="#EBEBEB"/>
<path d="M326.7 296.2H321.3V314.7H326.7V296.2Z" fill="#F5F5F5"/>
<path d="M338.3 296.2H332.9V314.7H338.3V296.2Z" fill="#E6E6E6"/>
<path d="M332.9 294.4H329.4V314.8H332.9V294.4Z" fill="#FAFAFA"/>
<path d="M343.7 294.4H340.2V314.8H343.7V294.4Z" fill="#FAFAFA"/>
<path d="M329.4 296.2H326.7V314.7H329.4V296.2Z" fill="#EBEBEB"/>
<path d="M340.9 295H338.2V314.8H340.9V295Z" fill="#EBEBEB"/>
<path d="M278.2 253.2V327.2H282.6V322.4H347.8V253.1H282.6H280.4H278.2V253.2ZM282.6 289.8H343.6V314.7H282.6V289.8ZM282.6 260.9H343.6V285.4H282.6V260.9Z" fill="#F0F0F0"/>
<path d="M382 317.7C382 317.7 374.2 308.5 369.3 312.8C364.3 317.1 366.8 326.2 372.6 326.5C378.3 326.8 382 323.6 382 323.6V317.7Z" fill="#F62E5F"/>
<path opacity="0.2" d="M382 317.7C382 317.7 374.2 308.5 369.3 312.8C364.3 317.1 366.8 326.2 372.6 326.5C378.3 326.8 382 323.6 382 323.6V317.7Z" fill="white"/>
<path d="M413.7 294.3C413.7 294.3 420.2 287.5 424.2 288.6C428.2 289.8 427.8 306.1 415.3 299.5L413.7 294.3Z" fill="#F62E5F"/>
<path opacity="0.3" d="M413.7 294.3C413.7 294.3 420.2 287.5 424.2 288.6C428.2 289.8 427.8 306.1 415.3 299.5L413.7 294.3Z" fill="white"/>
<path d="M390.4 345.2C390.4 345.2 369 315.9 386.4 310C403.8 304.1 406.9 333.6 401.9 341.8C396.9 350 390.4 345.2 390.4 345.2Z" fill="#F62E5F"/>
<path d="M400.3 285.2C400.3 285.2 413.6 254.4 393.9 253.4C374.2 252.5 372.1 284 394.7 288.5L400.3 285.2Z" fill="#F62E5F"/>
<path opacity="0.3" d="M390.4 345.2C390.4 345.2 369 315.9 386.4 310C403.8 304.1 406.9 333.6 401.9 341.8C396.9 350 390.4 345.2 390.4 345.2Z" fill="white"/>
<path opacity="0.3" d="M400.3 285.2C400.3 285.2 413.6 254.4 393.9 253.4C374.2 252.5 372.1 284 394.7 288.5L400.3 285.2Z" fill="white"/>
<path d="M395.6 310.5C395.6 310.5 389.1 283.3 401.6 281.1C414 278.9 426.3 303.5 400.6 315.9C400.6 315.9 396.2 313.1 395.6 310.5Z" fill="#F62E5F"/>
<path opacity="0.2" d="M395.6 310.5C395.6 310.5 389.1 283.3 401.6 281.1C414 278.9 426.3 303.5 400.6 315.9C400.6 315.9 396.2 313.1 395.6 310.5Z" fill="white"/>
<path d="M375 341H410.9L407.9 364H378L375 341Z" fill="#263238"/>
<path d="M393.7 283C391.8 281.6 390.2 279.9 388.7 278.1C387.2 276.3 386.1 274.2 385.2 272C384.3 269.8 383.9 267.4 383.9 265.1C383.9 262.7 384.6 260.4 385.5 258.3C385.4 258.9 385.2 259.4 385.1 260L384.9 260.8C384.9 261.1 384.8 261.4 384.8 261.7C384.7 262.3 384.7 262.8 384.6 263.4V265.1C384.8 267.3 385.2 269.6 386 271.7C386.8 273.8 387.9 275.8 389.2 277.7C389.8 278.7 390.5 279.6 391.3 280.4C392.1 281.3 392.9 282.2 393.7 283Z" fill="#F62E5F"/>
<path d="M389 256.6C390.1 256.8 391.2 257.2 392.2 257.7C393.2 258.3 394.2 258.9 395 259.6C396.8 261.1 398.1 263.1 399 265.2C399.9 267.3 400.3 269.6 400.4 271.9C400.4 273 400.3 274.2 400.3 275.3C400.1 276.4 399.9 277.5 399.7 278.6C399.7 277.5 399.8 276.3 399.8 275.2C399.7 274.1 399.7 273 399.6 271.9C399.4 270.8 399.4 269.7 399 268.6C398.9 268.1 398.8 267.5 398.6 267L398 265.5C396.5 261.6 393.2 258.2 389 256.6Z" fill="#F62E5F"/>
<path d="M404 283C406.9 284 409.2 286.4 410.5 289.3C411.1 290.7 411.6 292.2 411.7 293.8C411.8 294.2 411.8 294.6 411.8 295C411.8 295.4 411.8 295.8 411.8 296.2C411.7 297 411.6 297.8 411.3 298.5C410.9 300 410.2 301.4 409.4 302.8C408.6 304.1 407.7 305.4 406.7 306.5C404.7 308.9 402.5 311 400.1 312.8C401.2 311.7 402.3 310.7 403.3 309.5C404.3 308.4 405.3 307.2 406.2 306C408 303.6 409.6 301 410.4 298.2C410.7 297.5 410.7 296.8 410.9 296.1C411 295.7 410.9 295.4 410.9 295C410.9 294.6 410.9 294.3 410.9 293.9C410.8 292.4 410.4 291 409.9 289.6C409.4 288.2 408.6 286.9 407.6 285.8C406.6 284.7 405.4 283.7 404 283Z" fill="#F62E5F"/>
<path d="M400.3 285.2C401 287.2 401.5 289.3 401.7 291.4C401.8 292.5 401.8 293.6 401.7 294.6C401.6 295.7 401.3 296.8 400.7 297.8C399.5 299.5 399.1 301.5 398.9 303.6C398.8 304.6 398.8 305.7 398.8 306.7C398.8 307.8 398.8 308.8 398.9 309.9C398.4 307.8 398.2 305.7 398.2 303.6C398.2 302.5 398.3 301.4 398.6 300.4C398.7 299.9 398.9 299.3 399.1 298.8C399.3 298.3 399.7 297.8 399.9 297.4C400.4 296.6 400.7 295.6 400.8 294.6C401 293.6 401 292.6 401 291.5C401 290.5 400.9 289.4 400.8 288.4C400.7 287.3 400.5 286.3 400.3 285.2Z" fill="#F62E5F"/>
<path d="M391.6 312.7C392.1 312.9 392.6 313.3 392.9 313.7C393.3 314.1 393.6 314.6 393.9 315.1C394.4 316.1 394.9 317.1 395.2 318.2C396 320.3 396.5 322.5 397 324.7C397.4 326.9 397.8 329.1 398.1 331.3C398.3 333.5 398.5 335.7 398.5 338C398.3 336.9 398.2 335.8 398 334.7C397.8 333.6 397.6 332.5 397.4 331.4C397 329.2 396.6 327 396.1 324.9C395.7 322.7 395.2 320.6 394.6 318.5C394.3 317.4 394 316.4 393.5 315.4C393.3 314.9 393.1 314.4 392.8 313.9C392.4 313.5 392.1 313 391.6 312.7Z" fill="#F62E5F"/>
<path d="M385.5 313.7C384.9 315.7 384.6 317.7 384.5 319.8C384.4 321.8 384.5 323.9 384.9 325.8C385.3 327.8 386 329.7 386.9 331.5C387.8 333.3 389 335 390.3 336.6C389.9 336.3 389.5 335.9 389.2 335.5C388.8 335.1 388.4 334.8 388.1 334.4C387.4 333.6 386.7 332.8 386.2 331.9C385.6 331 385.2 330 384.8 329.1C384.6 328.6 384.5 328.1 384.3 327.6C384.1 327.1 384 326.6 383.9 326.1C383.5 324 383.4 321.9 383.7 319.8C384 317.6 384.6 315.6 385.5 313.7Z" fill="#F62E5F"/>
<path d="M418.7 297.6C419.9 297.3 420.9 297 421.9 296.6C422.4 296.4 422.8 296.1 423.3 295.9C423.8 295.6 424.1 295.2 424.6 294.8C424.5 295.4 424.2 296 423.8 296.5C423.4 297 422.9 297.3 422.3 297.6C421.7 297.8 421.1 298 420.5 298C419.9 297.9 419.3 297.8 418.7 297.6Z" fill="#F62E5F"/>
<path d="M417.4 293.1C417.7 292.5 418.1 292.1 418.6 291.7C419.1 291.3 419.6 291 420.3 290.8C420.9 290.6 421.6 290.6 422.2 290.8C422.8 291 423.4 291.4 423.7 291.9C423.1 291.7 422.6 291.6 422.1 291.5C421.6 291.5 421.1 291.6 420.6 291.7C420.1 291.8 419.6 292.1 419.1 292.3L417.4 293.1Z" fill="#F62E5F"/>
<path d="M378.5 319C377.2 318 375.9 316.9 374.6 316.2C373.9 315.8 373.2 315.5 372.5 315.4C371.8 315.3 371 315.5 370.2 315.8C370.7 315.1 371.6 314.6 372.5 314.6C373.4 314.5 374.3 314.9 375.1 315.3C375.9 315.7 376.5 316.3 377.1 316.9C377.6 317.6 378.1 318.3 378.5 319Z" fill="#F62E5F"/>
<path d="M378.5 323.6C377.6 324 376.6 324.2 375.6 324.2C374.6 324.3 373.6 324.3 372.6 324.1C371.6 323.9 370.6 323.6 369.7 322.9C368.8 322.3 368.3 321.2 368.3 320.2C368.7 321.1 369.3 321.8 370.1 322.2C370.9 322.6 371.8 322.9 372.7 323C374.6 323.5 376.5 323.5 378.5 323.6Z" fill="#F62E5F"/>
<path d="M315.7 344C316.5 342.6 315.4 340.6 313.8 340.6C314.5 338.6 313.8 336.3 312.2 335C312 334.8 311.8 334.7 311.5 334.7C311.2 334.7 311 334.9 310.7 335C309.2 336.1 307.7 337.2 306.2 338.2C305.9 338.4 305.5 338.7 305.3 339.1C304.4 340.9 307.7 343.2 306.3 344.6C305.9 345 305.3 345.1 304.8 345.4C303.7 346.1 303.6 347.5 303.1 348.7C302.6 349.9 300.9 350.8 300.2 349.7C300.7 348.6 299.2 347.6 298 347.5C296.8 347.4 295.5 347.3 294.9 346.2C293.2 347.7 289.4 343.5 289.4 341.8C288 341.9 287 343.2 286.7 344.5C286.4 345.9 286.6 347.3 286.6 348.7C286.6 351.4 285.7 354.1 285.7 356.8C285.7 358.9 286.6 361.3 288.5 362.1C289.4 362.5 290.5 362.5 291.5 362.5C298.9 362.5 306.3 362.4 313.6 362.4C314.1 362.4 314.7 362.4 315.2 362.1C316.2 361.6 316.4 360.3 316.5 359.1C316.9 354.3 317.3 349.5 317.7 344.7C317 344.5 316.3 344.3 315.7 344Z" fill="#F62E5F"/>
<path opacity="0.3" d="M315.7 344C316.5 342.6 315.4 340.6 313.8 340.6C314.5 338.6 313.8 336.3 312.2 335C312 334.8 311.8 334.7 311.5 334.7C311.2 334.7 311 334.9 310.7 335C309.2 336.1 307.7 337.2 306.2 338.2C305.9 338.4 305.5 338.7 305.3 339.1C304.4 340.9 307.7 343.2 306.3 344.6C305.9 345 305.3 345.1 304.8 345.4C303.7 346.1 303.6 347.5 303.1 348.7C302.6 349.9 300.9 350.8 300.2 349.7C300.7 348.6 299.2 347.6 298 347.5C296.8 347.4 295.5 347.3 294.9 346.2C293.2 347.7 289.4 343.5 289.4 341.8C288 341.9 287 343.2 286.7 344.5C286.4 345.9 286.6 347.3 286.6 348.7C286.6 351.4 285.7 354.1 285.7 356.8C285.7 358.9 286.6 361.3 288.5 362.1C289.4 362.5 290.5 362.5 291.5 362.5C298.9 362.5 306.3 362.4 313.6 362.4C314.1 362.4 314.7 362.4 315.2 362.1C316.2 361.6 316.4 360.3 316.5 359.1C316.9 354.3 317.3 349.5 317.7 344.7C317 344.5 316.3 344.3 315.7 344Z" fill="white"/>
<path d="M316.9 320.6H314.4H307.6H305.1H298.3H295.8H289H286.5H282.6L282.9 324.1L283.1 326.6L283.6 333L283.9 336.7L284.3 341.6L284.5 343.7L284.6 344.3L284.8 346.8L285.1 350.2L285.3 352.3L285.5 354.4L285.7 356.9L285.9 358.8L286.1 360.9L286.2 361.8H290.7H294.5H300H303.8H309.3H313.1H317.6L317.7 360.9L317.9 358.8L318.1 356.9L318.3 354.4L318.5 352.3L318.7 350.2L319 346.8L319.2 344.3V343.7L319.4 341.6L319.8 336.7L320.1 333L320.6 326.5L320.8 324L321.1 320.5H316.9V320.6ZM319 322.9L318.3 322.2H319V322.9ZM318.8 325L318.7 325.8L315.6 328.9L312.1 325.4L315.3 322.2H316L318.8 325ZM318 336L315.7 338.3L312.2 334.8L315.7 331.3L318.1 333.7L318 336ZM285.3 333.6L287.7 331.2L291.2 334.7L287.7 338.2L285.5 335.9L285.3 333.6ZM314.6 330L311.1 333.5L307.6 330L311.1 326.5L314.6 330ZM309 322.2H313L311 324.2L309 322.2ZM309.9 334.7L306.4 338.2L302.9 334.7L306.4 331.2L309.9 334.7ZM298.2 339.4L301.7 335.9L305.2 339.4L301.7 342.9L298.2 339.4ZM300.6 344L297.1 347.5L293.6 344L297.1 340.5L300.6 344ZM306.4 340.5L309.9 344L306.4 347.5L302.9 344L306.4 340.5ZM301.7 333.6L298.2 330.1L301.7 326.6L305.2 330.1L301.7 333.6ZM300.6 334.7L297.1 338.2L293.6 334.7L297.1 331.2L300.6 334.7ZM292.4 333.6L288.9 330.1L292.4 326.6L295.9 330.1L292.4 333.6ZM292.4 335.8L295.9 339.3L292.4 342.8L288.9 339.3L292.4 335.8ZM295.9 348.7L292.4 352.2L288.9 348.7L292.4 345.2L295.9 348.7ZM297 349.8L300.5 353.3L297 356.8L293.5 353.3L297 349.8ZM298.2 348.7L301.7 345.2L305.2 348.7L301.7 352.2L298.2 348.7ZM306.4 349.8L309.9 353.3L306.4 356.8L302.9 353.3L306.4 349.8ZM311 354.5L314.5 358L312.2 360.3H309.7L307.4 358L311 354.5ZM307.5 348.7L311 345.2L314.5 348.7L311 352.2L307.5 348.7ZM307.5 339.4L311 335.9L314.5 339.4L311 342.9L307.5 339.4ZM309.9 325.4L306.4 328.9L302.9 325.4L306.1 322.2H306.8L309.9 325.4ZM301.7 324.2L299.7 322.2H303.7L301.7 324.2ZM300.6 325.4L297.1 328.9L293.6 325.4L296.8 322.2H297.5L300.6 325.4ZM294.4 322.2L292.4 324.2L290.4 322.2H294.4ZM288.1 322.2L291.3 325.4L287.8 328.9L284.7 325.8L284.6 325L287.4 322.2H288.1ZM285.1 322.2L284.4 322.9L284.3 322.2H285.1ZM284.9 328.3L286.6 330L285.1 331.5L284.9 328.3ZM285.8 340.1L285.7 338.4L286.6 339.3L285.8 340.1ZM286 342.3L287.7 340.6L291.2 344.1L287.7 347.6L286.3 346.2L286 342.3ZM286.5 348.8V348.6V348.8ZM287.1 356.3L286.7 350.9L287.7 349.9L291.2 353.4L287.7 356.9L287.1 356.3ZM287.4 360.3L287.3 359.5L287.6 359.2L288.7 360.3H287.4ZM288.9 358L292.4 354.5L295.9 358L293.6 360.3H291.1L288.9 358ZM295.9 360.3L297 359.2L298.1 360.3H295.9ZM300.5 360.3L298.2 358L301.7 354.5L305.2 358L302.9 360.3H300.5ZM305.2 360.3L306.3 359.2L307.4 360.3H305.2ZM316 360.3H314.6L315.7 359.2L316 359.5V360.3ZM316.3 356.3L315.7 356.9L312.2 353.4L315.7 349.9L316.7 350.9L316.3 356.3ZM316.9 348.6V348.8V348.6ZM317.1 346.1L315.7 347.5L312.2 344L315.7 340.5L317.4 342.2L317.1 346.1ZM317.6 340.1L316.8 339.3L317.7 338.4L317.6 340.1ZM318.6 328.3L318.3 331.5L316.8 330L318.6 328.3Z" fill="#F62E5F"/>
<g opacity="0.6">
<path d="M316.9 320.6H314.4H307.6H305.1H298.3H295.8H289H286.5H282.6L282.9 324.1L283.1 326.6L283.6 333L283.9 336.7L284.3 341.6L284.5 343.7L284.6 344.3L284.8 346.8L285.1 350.2L285.3 352.3L285.5 354.4L285.7 356.9L285.9 358.8L286.1 360.9L286.2 361.8H290.7H294.5H300H303.8H309.3H313.1H317.6L317.7 360.9L317.9 358.8L318.1 356.9L318.3 354.4L318.5 352.3L318.7 350.2L319 346.8L319.2 344.3V343.7L319.4 341.6L319.8 336.7L320.1 333L320.6 326.5L320.8 324L321.1 320.5H316.9V320.6ZM319 322.9L318.3 322.2H319V322.9ZM318.8 325L318.7 325.8L315.6 328.9L312.1 325.4L315.3 322.2H316L318.8 325ZM318 336L315.7 338.3L312.2 334.8L315.7 331.3L318.1 333.7L318 336ZM285.3 333.6L287.7 331.2L291.2 334.7L287.7 338.2L285.5 335.9L285.3 333.6ZM314.6 330L311.1 333.5L307.6 330L311.1 326.5L314.6 330ZM309 322.2H313L311 324.2L309 322.2ZM309.9 334.7L306.4 338.2L302.9 334.7L306.4 331.2L309.9 334.7ZM298.2 339.4L301.7 335.9L305.2 339.4L301.7 342.9L298.2 339.4ZM300.6 344L297.1 347.5L293.6 344L297.1 340.5L300.6 344ZM306.4 340.5L309.9 344L306.4 347.5L302.9 344L306.4 340.5ZM301.7 333.6L298.2 330.1L301.7 326.6L305.2 330.1L301.7 333.6ZM300.6 334.7L297.1 338.2L293.6 334.7L297.1 331.2L300.6 334.7ZM292.4 333.6L288.9 330.1L292.4 326.6L295.9 330.1L292.4 333.6ZM292.4 335.8L295.9 339.3L292.4 342.8L288.9 339.3L292.4 335.8ZM295.9 348.7L292.4 352.2L288.9 348.7L292.4 345.2L295.9 348.7ZM297 349.8L300.5 353.3L297 356.8L293.5 353.3L297 349.8ZM298.2 348.7L301.7 345.2L305.2 348.7L301.7 352.2L298.2 348.7ZM306.4 349.8L309.9 353.3L306.4 356.8L302.9 353.3L306.4 349.8ZM311 354.5L314.5 358L312.2 360.3H309.7L307.4 358L311 354.5ZM307.5 348.7L311 345.2L314.5 348.7L311 352.2L307.5 348.7ZM307.5 339.4L311 335.9L314.5 339.4L311 342.9L307.5 339.4ZM309.9 325.4L306.4 328.9L302.9 325.4L306.1 322.2H306.8L309.9 325.4ZM301.7 324.2L299.7 322.2H303.7L301.7 324.2ZM300.6 325.4L297.1 328.9L293.6 325.4L296.8 322.2H297.5L300.6 325.4ZM294.4 322.2L292.4 324.2L290.4 322.2H294.4ZM288.1 322.2L291.3 325.4L287.8 328.9L284.7 325.8L284.6 325L287.4 322.2H288.1ZM285.1 322.2L284.4 322.9L284.3 322.2H285.1ZM284.9 328.3L286.6 330L285.1 331.5L284.9 328.3ZM285.8 340.1L285.7 338.4L286.6 339.3L285.8 340.1ZM286 342.3L287.7 340.6L291.2 344.1L287.7 347.6L286.3 346.2L286 342.3ZM286.5 348.8V348.6V348.8ZM287.1 356.3L286.7 350.9L287.7 349.9L291.2 353.4L287.7 356.9L287.1 356.3ZM287.4 360.3L287.3 359.5L287.6 359.2L288.7 360.3H287.4ZM288.9 358L292.4 354.5L295.9 358L293.6 360.3H291.1L288.9 358ZM295.9 360.3L297 359.2L298.1 360.3H295.9ZM300.5 360.3L298.2 358L301.7 354.5L305.2 358L302.9 360.3H300.5ZM305.2 360.3L306.3 359.2L307.4 360.3H305.2ZM316 360.3H314.6L315.7 359.2L316 359.5V360.3ZM316.3 356.3L315.7 356.9L312.2 353.4L315.7 349.9L316.7 350.9L316.3 356.3ZM316.9 348.6V348.8V348.6ZM317.1 346.1L315.7 347.5L312.2 344L315.7 340.5L317.4 342.2L317.1 346.1ZM317.6 340.1L316.8 339.3L317.7 338.4L317.6 340.1ZM318.6 328.3L318.3 331.5L316.8 330L318.6 328.3Z" fill="white"/>
</g>
<path d="M282.1 323.7H321.4C322.3 323.7 323 323 323 322.1V320.9C323 320 322.3 319.3 321.4 319.3H282.1C281.2 319.3 280.5 320 280.5 320.9V322.1C280.4 322.9 281.1 323.7 282.1 323.7Z" fill="#F62E5F"/>
<path d="M318.3 364H285.1C284.2 364 283.5 363.3 283.5 362.4V361.2C283.5 360.3 284.2 359.6 285.1 359.6H318.3C319.2 359.6 319.9 360.3 319.9 361.2V362.4C319.9 363.3 319.2 364 318.3 364Z" fill="#F62E5F"/>
<path d="M433.5 93.7H233.9V229.6H433.5V93.7Z" fill="#E2EBFE"/>
<path opacity="0.1" d="M362.4 93.7C362.4 93.7 304.9 147.5 233.9 148.8V93.7H362.4Z" fill="white"/>
<path opacity="0.1" d="M433.5 164.6C433.5 164.6 394.1 160.5 355 183.2C315.9 205.9 277 227.2 233.8 217.2V229.6H433.4V164.6H433.5Z" fill="white"/>
<path d="M381.5 124.4H286V140.7H381.5V124.4Z" fill="white"/>
<path d="M381.5 147.6H286V163.9H381.5V147.6Z" fill="white"/>
<g opacity="0.4">
<path d="M294.5 134.2V134.6H291.2V129.9H294.4V130.3H291.7V132H294.1V132.4H291.7V134.1H294.5V134.2Z" fill="#263238"/>
<path d="M295.2 132.6H297V133H295.2V132.6Z" fill="#263238"/>
<path d="M303.8 132.6V134.6H303.3V132.6C303.3 131.9 302.9 131.5 302.3 131.5C301.6 131.5 301.1 132 301.1 132.8V134.6H300.6V132.6C300.6 131.9 300.2 131.5 299.6 131.5C298.9 131.5 298.4 132 298.4 132.8V134.6H298V131.1H298.5V131.7C298.7 131.3 299.2 131 299.8 131C300.4 131 300.8 131.2 301.1 131.7C301.4 131.2 301.9 131 302.5 131C303.3 131 303.8 131.5 303.8 132.6Z" fill="#263238"/>
<path d="M307.8 132.4V134.6H307.3V134C307.1 134.4 306.7 134.6 306.1 134.6C305.3 134.6 304.8 134.2 304.8 133.6C304.8 133.1 305.1 132.6 306.2 132.6H307.3V132.4C307.3 131.8 307 131.5 306.3 131.5C305.8 131.5 305.4 131.7 305.1 131.9L304.9 131.5C305.3 131.2 305.8 131 306.3 131C307.2 131 307.8 131.5 307.8 132.4ZM307.3 133.5V133H306.2C305.5 133 305.3 133.3 305.3 133.6C305.3 134 305.6 134.3 306.2 134.3C306.7 134.3 307.1 134 307.3 133.5Z" fill="#263238"/>
<path d="M308.9 130C308.9 129.8 309.1 129.7 309.2 129.7C309.4 129.7 309.5 129.8 309.5 130C309.5 130.2 309.4 130.3 309.2 130.3C309.1 130.3 308.9 130.1 308.9 130ZM309 131.1H309.5V134.6H309V131.1Z" fill="#263238"/>
<path d="M310.8 129.6H311.3V134.6H310.8V129.6Z" fill="#263238"/>
</g>
<g opacity="0.4">
<path d="M294.9 154.7C294.9 155.7 294.2 156.3 293 156.3H291.7V157.8H291.2V153.1H293C294.1 153.1 294.9 153.7 294.9 154.7ZM294.4 154.7C294.4 153.9 293.9 153.5 293 153.5H291.8V155.8H293C293.9 155.9 294.4 155.5 294.4 154.7Z" fill="#263238"/>
<path d="M298.5 155.6V157.8H298V157.3C297.8 157.7 297.4 157.9 296.8 157.9C296 157.9 295.5 157.5 295.5 156.9C295.5 156.4 295.8 155.9 296.9 155.9H298V155.7C298 155.1 297.7 154.8 297 154.8C296.5 154.8 296.1 155 295.8 155.2L295.6 154.8C296 154.5 296.5 154.3 297 154.3C297.9 154.3 298.5 154.7 298.5 155.6ZM298 156.7V156.1H296.9C296.2 156.1 296 156.4 296 156.7C296 157.1 296.3 157.4 296.9 157.4C297.4 157.5 297.8 157.2 298 156.7Z" fill="#263238"/>
<path d="M299.3 157.4L299.5 157C299.8 157.2 300.3 157.4 300.8 157.4C301.5 157.4 301.7 157.2 301.7 156.8C301.7 155.9 299.4 156.6 299.4 155.2C299.4 154.6 299.9 154.2 300.8 154.2C301.3 154.2 301.8 154.3 302 154.5L301.8 154.9C301.5 154.7 301.1 154.6 300.8 154.6C300.2 154.6 299.9 154.8 299.9 155.2C299.9 156.2 302.2 155.4 302.2 156.8C302.2 157.4 301.7 157.8 300.7 157.8C300.1 157.8 299.6 157.6 299.3 157.4Z" fill="#263238"/>
<path d="M302.5 157.4L302.7 157C303 157.2 303.5 157.4 304 157.4C304.7 157.4 304.9 157.2 304.9 156.8C304.9 155.9 302.6 156.6 302.6 155.2C302.6 154.6 303.1 154.2 304 154.2C304.5 154.2 305 154.3 305.2 154.5L305 154.9C304.7 154.7 304.3 154.6 304 154.6C303.4 154.6 303.1 154.8 303.1 155.2C303.1 156.2 305.4 155.4 305.4 156.8C305.4 157.4 304.9 157.8 303.9 157.8C303.4 157.8 302.8 157.6 302.5 157.4Z" fill="#263238"/>
<path d="M311.4 154.3L310.1 157.8H309.7L308.6 154.9L307.5 157.8H307.1L305.8 154.3H306.3L307.4 157.3L308.5 154.3H308.9L310 157.3L311.1 154.3H311.4Z" fill="#263238"/>
<path d="M311.7 156C311.7 155 312.5 154.2 313.5 154.2C314.5 154.2 315.3 154.9 315.3 156C315.3 157 314.5 157.8 313.5 157.8C312.4 157.8 311.7 157.1 311.7 156ZM314.8 156C314.8 155.2 314.2 154.6 313.5 154.6C312.7 154.6 312.2 155.1 312.2 156C312.2 156.8 312.8 157.4 313.5 157.4C314.2 157.4 314.8 156.9 314.8 156Z" fill="#263238"/>
<path d="M318 154.3V154.8H317.9C317.2 154.8 316.7 155.3 316.7 156.1V157.9H316.2V154.4H316.7V155.1C316.9 154.5 317.3 154.3 318 154.3Z" fill="#263238"/>
<path d="M322 152.8V157.8H321.5V157.1C321.2 157.6 320.7 157.8 320.1 157.8C319.1 157.8 318.3 157.1 318.3 156C318.3 154.9 319.1 154.2 320.1 154.2C320.7 154.2 321.1 154.4 321.4 154.9V152.8H322ZM321.6 156C321.6 155.2 321 154.6 320.3 154.6C319.5 154.6 319 155.1 319 156C319 156.8 319.6 157.4 320.3 157.4C321 157.4 321.6 156.9 321.6 156Z" fill="#263238"/>
</g>
<path opacity="0.2" d="M382.5 180.6H287V196.9H382.5V180.6Z" fill="black"/>
<g opacity="0.5">
<path d="M298.9 173.8L298.3 172.9C298.2 172.9 298.2 172.9 298.1 172.9H297.3V173.8H297V171H298C298.7 171 299.1 171.4 299.1 172C299.1 172.4 298.9 172.7 298.5 172.9L299.2 173.9H298.9V173.8ZM298.9 172C298.9 171.6 298.6 171.3 298 171.3H297.3V172.7H298C298.6 172.7 298.9 172.4 298.9 172Z" fill="black"/>
<path d="M301.6 172.9H299.8C299.8 173.3 300.2 173.6 300.6 173.6C300.9 173.6 301.1 173.5 301.2 173.3L301.4 173.5C301.2 173.7 300.9 173.8 300.6 173.8C299.9 173.8 299.5 173.4 299.5 172.7C299.5 172.1 299.9 171.6 300.5 171.6C301.1 171.6 301.6 172.2 301.6 172.9C301.6 172.8 301.6 172.8 301.6 172.9ZM299.9 172.7H301.4C301.4 172.3 301.1 172 300.7 172C300.2 172 299.9 172.3 299.9 172.7Z" fill="black"/>
<path d="M305.7 172.6V173.8H305.4V172.6C305.4 172.2 305.2 171.9 304.8 171.9C304.4 171.9 304.1 172.2 304.1 172.7V173.8H303.8V172.6C303.8 172.2 303.6 171.9 303.2 171.9C302.8 171.9 302.5 172.2 302.5 172.7V173.8H302.2V171.7H302.5V172.1C302.6 171.8 302.9 171.7 303.3 171.7C303.6 171.7 303.9 171.8 304 172.1C304.2 171.8 304.5 171.7 304.8 171.7C305.4 171.7 305.7 172 305.7 172.6Z" fill="black"/>
<path d="M308.3 172.9H306.5C306.5 173.3 306.9 173.6 307.3 173.6C307.6 173.6 307.8 173.5 307.9 173.3L308.1 173.5C307.9 173.7 307.6 173.8 307.3 173.8C306.6 173.8 306.2 173.4 306.2 172.7C306.2 172.1 306.6 171.6 307.2 171.6C307.8 171.6 308.3 172.2 308.3 172.9C308.3 172.8 308.3 172.8 308.3 172.9ZM306.6 172.7H308.1C308.1 172.3 307.8 172 307.4 172C306.9 172 306.6 172.3 306.6 172.7Z" fill="black"/>
<path d="M312.4 172.6V173.8H312.1V172.6C312.1 172.2 311.9 171.9 311.5 171.9C311.1 171.9 310.8 172.2 310.8 172.7V173.8H310.5V172.6C310.5 172.2 310.3 171.9 309.9 171.9C309.5 171.9 309.2 172.2 309.2 172.7V173.8H308.9V171.7H309.2V172.1C309.3 171.8 309.6 171.7 310 171.7C310.3 171.7 310.6 171.8 310.7 172.1C310.9 171.8 311.2 171.7 311.5 171.7C312 171.7 312.4 172 312.4 172.6Z" fill="black"/>
<path d="M315.3 172.8C315.3 173.4 314.9 173.9 314.3 173.9C314 173.9 313.7 173.7 313.5 173.5V173.9H313.2V170.9H313.5V172.2C313.7 171.9 314 171.8 314.3 171.8C314.8 171.7 315.3 172.2 315.3 172.8ZM315 172.8C315 172.3 314.7 172 314.2 172C313.8 172 313.4 172.3 313.4 172.8C313.4 173.3 313.7 173.6 314.2 173.6C314.6 173.6 315 173.3 315 172.8Z" fill="black"/>
<path d="M317.7 172.9H315.9C315.9 173.3 316.3 173.6 316.7 173.6C317 173.6 317.2 173.5 317.3 173.3L317.5 173.5C317.3 173.7 317 173.8 316.7 173.8C316 173.8 315.6 173.4 315.6 172.7C315.6 172.1 316 171.6 316.6 171.6C317.2 171.6 317.7 172.2 317.7 172.9C317.7 172.8 317.7 172.8 317.7 172.9ZM315.9 172.7H317.4C317.4 172.3 317.1 172 316.7 172C316.3 172 316 172.3 315.9 172.7Z" fill="black"/>
<path d="M319.3 171.7V172C319.3 172 319.3 172 319.2 172C318.8 172 318.5 172.3 318.5 172.8V173.9H318.2V171.8H318.5V172.2C318.7 171.9 318.9 171.7 319.3 171.7Z" fill="black"/>
<path d="M324.4 172.6V173.8H324.1V172.6C324.1 172.2 323.9 171.9 323.5 171.9C323.1 171.9 322.8 172.2 322.8 172.7V173.8H322.5V172.6C322.5 172.2 322.3 171.9 321.9 171.9C321.5 171.9 321.2 172.2 321.2 172.7V173.8H320.9V171.7H321.2V172.1C321.3 171.8 321.6 171.7 322 171.7C322.3 171.7 322.6 171.8 322.7 172.1C322.9 171.8 323.2 171.7 323.5 171.7C324.1 171.7 324.4 172 324.4 172.6Z" fill="black"/>
<path d="M327 172.9H325.2C325.2 173.3 325.6 173.6 326 173.6C326.3 173.6 326.5 173.5 326.6 173.3L326.8 173.5C326.6 173.7 326.3 173.8 326 173.8C325.3 173.8 324.9 173.4 324.9 172.7C324.9 172.1 325.3 171.6 325.9 171.6C326.5 171.6 327 172.2 327 172.9C327 172.8 327 172.8 327 172.9ZM325.2 172.7H326.7C326.7 172.3 326.4 172 326 172C325.6 172 325.3 172.3 325.2 172.7Z" fill="black"/>
</g>
<path d="M381.5 179.6H286V195.9H381.5V179.6Z" fill="#F62E5F"/>
<g opacity="0.5">
<path d="M316.5 206.3V207.4H317.9V207.7H316.5V208.9H316.2V206.1H318.1V206.4H316.5V206.3Z" fill="black"/>
<path d="M318.4 207.8C318.4 207.2 318.9 206.7 319.5 206.7C320.1 206.7 320.6 207.1 320.6 207.8C320.6 208.4 320.1 208.9 319.5 208.9C318.9 208.9 318.4 208.5 318.4 207.8ZM320.2 207.8C320.2 207.3 319.9 207 319.4 207C319 207 318.6 207.3 318.6 207.8C318.6 208.3 318.9 208.6 319.4 208.6C319.9 208.7 320.2 208.3 320.2 207.8Z" fill="black"/>
<path d="M322.1 206.8V207.1C322.1 207.1 322.1 207.1 322 207.1C321.6 207.1 321.3 207.4 321.3 207.9V209H321V206.9H321.3V207.3C321.5 206.9 321.8 206.8 322.1 206.8Z" fill="black"/>
<path d="M324.6 206.8V208.6C324.6 209.3 324.2 209.7 323.5 209.7C323.1 209.7 322.7 209.6 322.5 209.4L322.6 209.2C322.8 209.4 323.1 209.5 323.4 209.5C323.9 209.5 324.2 209.3 324.2 208.7V208.4C324 208.7 323.7 208.8 323.4 208.8C322.8 208.8 322.3 208.4 322.3 207.8C322.3 207.2 322.8 206.8 323.4 206.8C323.8 206.8 324.1 206.9 324.2 207.2V206.8H324.6ZM324.3 207.8C324.3 207.3 324 207 323.5 207C323 207 322.7 207.3 322.7 207.8C322.7 208.3 323 208.6 323.5 208.6C324 208.6 324.3 208.2 324.3 207.8Z" fill="black"/>
<path d="M325.2 207.8C325.2 207.2 325.7 206.7 326.3 206.7C326.9 206.7 327.4 207.1 327.4 207.8C327.4 208.4 326.9 208.9 326.3 208.9C325.7 208.9 325.2 208.5 325.2 207.8ZM327 207.8C327 207.3 326.7 207 326.2 207C325.8 207 325.4 207.3 325.4 207.8C325.4 208.3 325.7 208.6 326.2 208.6C326.7 208.7 327 208.3 327 207.8Z" fill="black"/>
<path d="M329 208.8C328.9 208.9 328.7 208.9 328.6 208.9C328.2 208.9 328 208.7 328 208.3V207H327.6V206.8H328V206.3H328.3V206.8H328.9V207H328.3V208.3C328.3 208.5 328.4 208.7 328.7 208.7C328.8 208.7 328.9 208.7 329 208.6V208.8Z" fill="black"/>
<path d="M332.8 207C332.8 207.6 332.4 208 331.7 208H330.9V208.9H330.6V206.1H331.6C332.4 206.1 332.8 206.4 332.8 207ZM332.5 207C332.5 206.6 332.2 206.3 331.6 206.3H330.9V207.7H331.6C332.2 207.7 332.5 207.5 332.5 207Z" fill="black"/>
<path d="M335 207.6V208.9H334.7V208.6C334.6 208.8 334.3 208.9 334 208.9C333.5 208.9 333.2 208.7 333.2 208.3C333.2 208 333.4 207.7 334 207.7H334.7V207.6C334.7 207.2 334.5 207 334.1 207C333.8 207 333.6 207.1 333.4 207.2L333.3 207C333.5 206.8 333.8 206.7 334.2 206.7C334.6 206.8 335 207 335 207.6ZM334.7 208.3V208H334C333.6 208 333.5 208.2 333.5 208.4C333.5 208.6 333.7 208.8 334 208.8C334.3 208.7 334.6 208.5 334.7 208.3Z" fill="black"/>
<path d="M335.4 208.6L335.5 208.4C335.7 208.5 336 208.6 336.2 208.6C336.6 208.6 336.8 208.5 336.8 208.3C336.8 207.8 335.4 208.2 335.4 207.4C335.4 207.1 335.7 206.8 336.2 206.8C336.5 206.8 336.8 206.9 336.9 207L336.8 207.2C336.6 207.1 336.4 207 336.2 207C335.8 207 335.7 207.1 335.7 207.3C335.7 207.9 337.1 207.4 337.1 208.2C337.1 208.6 336.8 208.8 336.2 208.8C335.9 208.9 335.6 208.8 335.4 208.6Z" fill="black"/>
<path d="M337.4 208.6L337.5 208.4C337.7 208.5 338 208.6 338.2 208.6C338.6 208.6 338.8 208.5 338.8 208.3C338.8 207.8 337.4 208.2 337.4 207.4C337.4 207.1 337.7 206.8 338.2 206.8C338.5 206.8 338.8 206.9 338.9 207L338.8 207.2C338.6 207.1 338.4 207 338.2 207C337.8 207 337.7 207.1 337.7 207.3C337.7 207.9 339.1 207.4 339.1 208.2C339.1 208.6 338.8 208.8 338.2 208.8C337.9 208.9 337.6 208.8 337.4 208.6Z" fill="black"/>
<path d="M342.7 206.8L341.9 208.9H341.6L340.9 207.2L340.2 208.9H340L339.2 206.8H339.5L340.2 208.6L340.9 206.8H341.1L341.8 208.6L342.5 206.8H342.7Z" fill="black"/>
<path d="M342.8 207.8C342.8 207.2 343.3 206.7 343.9 206.7C344.5 206.7 345 207.1 345 207.8C345 208.4 344.5 208.9 343.9 208.9C343.3 208.9 342.8 208.5 342.8 207.8ZM344.7 207.8C344.7 207.3 344.4 207 343.9 207C343.5 207 343.1 207.3 343.1 207.8C343.1 208.3 343.4 208.6 343.9 208.6C344.4 208.7 344.7 208.3 344.7 207.8Z" fill="black"/>
<path d="M346.6 206.8V207.1C346.6 207.1 346.6 207.1 346.5 207.1C346.1 207.1 345.8 207.4 345.8 207.9V209H345.5V206.9H345.8V207.3C346 206.9 346.2 206.8 346.6 206.8Z" fill="black"/>
<path d="M349 205.9V208.9H348.7V208.5C348.5 208.8 348.2 208.9 347.9 208.9C347.3 208.9 346.9 208.5 346.9 207.8C346.9 207.2 347.3 206.7 347.9 206.7C348.2 206.7 348.5 206.8 348.7 207.1V205.8H349V205.9ZM348.8 207.8C348.8 207.3 348.5 207 348 207C347.6 207 347.2 207.3 347.2 207.8C347.2 208.3 347.5 208.6 348 208.6C348.4 208.7 348.8 208.3 348.8 207.8Z" fill="black"/>
<path d="M351.1 206.8C351.1 206.5 350.9 206.3 350.5 206.3C350.2 206.3 349.9 206.4 349.7 206.6L349.5 206.4C349.7 206.1 350 206 350.5 206C351.1 206 351.4 206.3 351.4 206.7C351.4 207.4 350.7 207.4 350.7 208H350.4C350.4 207.4 351.1 207.3 351.1 206.8ZM350.3 208.7C350.3 208.6 350.4 208.5 350.5 208.5C350.6 208.5 350.7 208.6 350.7 208.7C350.7 208.8 350.6 208.9 350.5 208.9C350.4 208.9 350.3 208.8 350.3 208.7Z" fill="black"/>
</g>
<path d="M291.5 169.5H286.7V174.3H291.5V169.5Z" fill="white"/>
<path d="M323.2 184.7H324V189.6H327V190.3H323.2V184.7Z" fill="white"/>
<path d="M327.4 188.2C327.4 186.9 328.3 186 329.6 186C330.9 186 331.8 186.9 331.8 188.2C331.8 189.5 330.9 190.4 329.6 190.4C328.3 190.4 327.4 189.5 327.4 188.2ZM331 188.2C331 187.3 330.4 186.7 329.6 186.7C328.8 186.7 328.2 187.3 328.2 188.2C328.2 189.1 328.8 189.7 329.6 189.7C330.4 189.7 331 189.1 331 188.2Z" fill="white"/>
<path d="M336.9 186.1V189.8C336.9 191.3 336.1 192 334.7 192C333.9 192 333.1 191.8 332.7 191.4L333.1 190.8C333.5 191.1 334.1 191.4 334.7 191.4C335.7 191.4 336.2 190.9 336.2 190V189.7C335.8 190.1 335.3 190.4 334.7 190.4C333.5 190.4 332.5 189.6 332.5 188.3C332.5 187.1 333.4 186.3 334.7 186.3C335.3 186.3 335.9 186.5 336.3 187V186.3H336.9V186.1ZM336.1 188.1C336.1 187.3 335.5 186.7 334.6 186.7C333.7 186.7 333.1 187.3 333.1 188.1C333.1 188.9 333.7 189.5 334.6 189.5C335.5 189.5 336.1 188.9 336.1 188.1Z" fill="white"/>
<path d="M338.2 184.8C338.2 184.5 338.4 184.3 338.7 184.3C339 184.3 339.2 184.5 339.2 184.8C339.2 185.1 339 185.3 338.7 185.3C338.4 185.3 338.2 185.1 338.2 184.8ZM338.4 186.1H339.2V190.3H338.4V186.1Z" fill="white"/>
<path d="M344.6 187.9V190.3H343.8V188C343.8 187.2 343.4 186.8 342.7 186.8C341.9 186.8 341.4 187.3 341.4 188.2V190.4H340.6V186.2H341.3V186.8C341.6 186.4 342.2 186.1 342.8 186.1C343.9 186 344.6 186.6 344.6 187.9Z" fill="white"/>
<path d="M288.7 173.2L287.6 172L288 171.7L288.7 172.5L290.3 170.8L290.6 171.2L288.7 173.2Z" fill="#263238"/>
<g opacity="0.4">
<path d="M372.4 158.8C370.7 158.8 369.2 157.9 368 156.2L367.9 156.1L368 156C369.2 154.3 370.7 153.4 372.4 153.4C374.1 153.4 375.6 154.3 376.8 156L376.9 156.1L376.8 156.2C375.6 157.9 374 158.8 372.4 158.8ZM368.5 156.1C369.6 157.5 370.9 158.3 372.4 158.3C373.8 158.3 375.2 157.5 376.3 156.1C375.2 154.7 373.9 153.9 372.4 153.9C370.9 153.8 369.6 154.6 368.5 156.1Z" fill="#263238"/>
<path d="M372.4 157.9C371.4 157.9 370.5 157.1 370.5 156C370.5 155 371.3 154.1 372.4 154.1C373.4 154.1 374.3 154.9 374.3 156C374.2 157.1 373.4 157.9 372.4 157.9ZM372.4 154.7C371.7 154.7 371 155.3 371 156.1C371 156.8 371.6 157.5 372.4 157.5C373.1 157.5 373.8 156.9 373.8 156.1C373.7 155.3 373.1 154.7 372.4 154.7Z" fill="#263238"/>
<path d="M375.103 152.968L369.234 158.837L369.588 159.191L375.457 153.322L375.103 152.968Z" fill="#263238"/>
</g>
<g opacity="0.5">
<path d="M322.1 117L322.3 116.6C322.7 116.9 323.3 117.2 323.9 117.2C324.8 117.2 325.2 116.8 325.2 116.3C325.2 115 322.2 115.8 322.2 114C322.2 113.3 322.8 112.7 324 112.7C324.6 112.7 325.1 112.9 325.5 113.1L325.3 113.5C324.9 113.2 324.4 113.1 324 113.1C323.1 113.1 322.7 113.5 322.7 114C322.7 115.3 325.7 114.5 325.7 116.3C325.7 117 325.1 117.6 323.9 117.6C323.1 117.6 322.4 117.3 322.1 117Z" fill="black"/>
<path d="M326.6 112.7C326.6 112.5 326.8 112.3 327 112.3C327.2 112.3 327.4 112.5 327.4 112.6C327.4 112.8 327.2 113 327 113C326.8 113.1 326.6 112.9 326.6 112.7ZM326.7 113.9H327.2V117.6H326.7V113.9Z" fill="black"/>
<path d="M332 113.9V117.1C332 118.4 331.4 118.9 330.2 118.9C329.5 118.9 328.9 118.7 328.5 118.3L328.8 117.9C329.2 118.2 329.7 118.4 330.2 118.4C331.1 118.4 331.6 118 331.6 117.1V116.6C331.3 117.1 330.8 117.3 330.2 117.3C329.1 117.3 328.4 116.6 328.4 115.5C328.4 114.4 329.2 113.7 330.2 113.7C330.8 113.7 331.3 114 331.7 114.4V113.7H332V113.9ZM331.5 115.6C331.5 114.8 330.9 114.3 330.1 114.3C329.3 114.3 328.7 114.8 328.7 115.6C328.7 116.4 329.3 117 330.1 117C330.9 117 331.5 116.4 331.5 115.6Z" fill="black"/>
<path d="M336.8 115.4V117.5H336.3V115.4C336.3 114.6 335.9 114.2 335.2 114.2C334.4 114.2 333.9 114.7 333.9 115.5V117.4H333.4V113.7H333.9V114.4C334.2 114 334.7 113.7 335.3 113.7C336.2 113.9 336.8 114.4 336.8 115.4Z" fill="black"/>
<path d="M339.9 112.7C339.9 112.5 340.1 112.3 340.3 112.3C340.5 112.3 340.7 112.5 340.7 112.6C340.7 112.8 340.5 113 340.3 113C340 113.1 339.9 112.9 339.9 112.7ZM340 113.9H340.5V117.6H340V113.9Z" fill="black"/>
<path d="M345.3 115.4V117.5H344.8V115.4C344.8 114.6 344.4 114.2 343.7 114.2C342.9 114.2 342.4 114.7 342.4 115.5V117.4H341.9V113.7H342.4V114.4C342.7 114 343.2 113.7 343.8 113.7C344.6 113.9 345.3 114.4 345.3 115.4Z" fill="black"/>
</g>
<path d="M181.3 93.3H152.6C147.7 93.3 143.8 97.3 143.8 102.1V127.1C143.8 132 147.8 135.9 152.6 135.9H161L154 149.8L167 135.9H181.4C186.3 135.9 190.2 131.9 190.2 127.1V102.1C190.1 97.3 186.2 93.3 181.3 93.3Z" fill="#F62E5F"/>
<path opacity="0.7" d="M181.3 93.3H152.6C147.7 93.3 143.8 97.3 143.8 102.1V127.1C143.8 132 147.8 135.9 152.6 135.9H161L154 149.8L167 135.9H181.4C186.3 135.9 190.2 131.9 190.2 127.1V102.1C190.1 97.3 186.2 93.3 181.3 93.3Z" fill="white"/>
<path d="M176.979 124.634C182.563 119.05 182.563 109.996 176.979 104.411C171.394 98.827 162.34 98.827 156.756 104.411C151.171 109.996 151.171 119.05 156.756 124.634C162.34 130.219 171.394 130.219 176.979 124.634Z" fill="#F62E5F"/>
<path d="M165.4 120.9C165 120.9 164.6 120.7 164.4 120.4L158.8 113.8C158.3 113.2 158.4 112.4 159 112C159.6 111.5 160.4 111.6 160.8 112.2L165.4 117.6L173 108.7C173.5 108.1 174.3 108.1 174.8 108.5C175.4 109 175.4 109.8 175 110.3L166.4 120.4C166.2 120.7 165.8 120.9 165.4 120.9Z" fill="white"/>
<path d="M205 362.2H263.2C263.8 362.2 264.3 361.7 264.3 361.1V357.4C264.3 356.8 263.8 356.3 263.2 356.3H208V237.3H262.3C263.5 237.3 264.4 236.4 264.4 235.2V231.3H205C203.3 231.3 202 232.6 202 234.3V359.1C202 360.8 203.3 362.2 205 362.2Z" fill="#263238"/>
<g opacity="0.3">
<path d="M202 234.4V359.2C202 360.9 203.3 362.2 205 362.2H263.2C263.8 362.2 264.3 361.7 264.3 361.1V357.4C264.3 356.8 263.8 356.2 263.2 356.2H208V237.4H262.3C263.4 237.4 264.4 236.5 264.4 235.3V231.4H205C203.3 231.4 202 232.7 202 234.4Z" fill="white"/>
</g>
<path opacity="0.2" d="M202 234.4V266.2C204 266.7 206 267.2 208 267.7V237.4H262.3C263.4 237.4 264.4 236.5 264.4 235.3V231.4H205C203.3 231.4 202 232.7 202 234.4Z" fill="black"/>
<path d="M96.7 345.4L120.6 343.3V312H129V343.3L153 345.4C155.1 345.6 156.7 347.4 156.7 349.5V352.7H125.7H124.1H93V349.5C93 347.4 94.6 345.6 96.7 345.4Z" fill="#263238"/>
<path opacity="0.1" d="M96.7 345.4L120.6 343.3V312H129V343.3L153 345.4C155.1 345.6 156.7 347.4 156.7 349.5V352.7H125.7H124.1H93V349.5C93 347.4 94.6 345.6 96.7 345.4Z" fill="white"/>
<path d="M148.9 356.6C148.9 359.6 151.4 362.1 154.4 362.1C157.4 362.1 159.9 359.6 159.9 356.6C159.9 353.6 157.4 351.1 154.4 351.1C151.4 351.2 148.9 353.6 148.9 356.6Z" fill="#263238"/>
<path d="M100.8 356.6C100.8 359.6 98.3 362.1 95.3 362.1C92.3 362.1 89.8 359.6 89.8 356.6C89.8 353.6 92.3 351.1 95.3 351.1C98.3 351.2 100.8 353.6 100.8 356.6Z" fill="#263238"/>
<path d="M122.9 318.4H126.8C128.9 318.4 130.5 316.7 130.5 314.7V287.7H119.2V314.7C119.2 316.7 120.8 318.4 122.9 318.4Z" fill="#263238"/>
<path opacity="0.2" d="M122.9 318.4H126.8C128.9 318.4 130.5 316.7 130.5 314.7V287.7H119.2V314.7C119.2 316.7 120.8 318.4 122.9 318.4Z" fill="white"/>
<path d="M100.1 225.7C100.1 225.7 102.7 277.5 113.8 286.4H101.9C101.9 286.4 91.3 268.7 90.5 225.7H100.1Z" fill="#263238"/>
<path opacity="0.1" d="M100.1 225.7C100.1 225.7 102.7 277.5 113.8 286.4H101.9C101.9 286.4 91.3 268.7 90.5 225.7H100.1Z" fill="white"/>
<path d="M152 282.2H99.1C96.6 282.2 94.6 284.2 94.6 286.7V290.8H156.5V286.7C156.5 284.2 154.5 282.2 152 282.2Z" fill="#F62E5F"/>
<path d="M157.1 286.5H94.0001C93.0001 286.5 92.2001 287.3 92.2001 288.3V289C92.2001 290 93.0001 290.8 94.0001 290.8H157C158 290.8 158.8 290 158.8 289V288.3C158.9 287.3 158 286.5 157.1 286.5Z" fill="#263238"/>
<path opacity="0.6" d="M157.1 286.5H94.0001C93.0001 286.5 92.2001 287.3 92.2001 288.3V289C92.2001 290 93.0001 290.8 94.0001 290.8H157C158 290.8 158.8 290 158.8 289V288.3C158.9 287.3 158 286.5 157.1 286.5Z" fill="white"/>
<path d="M88.3 237.1H107.4C113 237.1 117 232.1 116.4 225.9L115.6 217.6C115 211.4 110 206.4 104.3 206.4H85.3C79.7 206.4 75.7 211.4 76.3 217.6L77.1 225.9C77.7 232 82.7 237.1 88.3 237.1Z" fill="#F62E5F"/>
<path d="M151.5 192.3L152.4 195.1C152.7 196.1 153.1 197 153.4 198C154.1 199.9 154.8 201.8 155.6 203.6C156.4 205.4 157.2 207.2 158.1 208.7C159 210.2 160 211.7 160.8 212.4C161.3 213 162.8 213.7 164.6 214.1C166.4 214.5 168.3 214.9 170.3 215.1C174.3 215.6 178.6 215.8 182.7 216L183.4 221.6C179 222.8 174.6 223.5 170 223.7C167.7 223.8 165.3 223.8 162.8 223.5C161.5 223.3 160.3 223.1 158.9 222.7C158.2 222.5 157.5 222.2 156.8 221.9C156.1 221.6 155.2 221.1 154.6 220.6C152 218.7 150.4 216.6 148.9 214.5C147.5 212.4 146.3 210.3 145.3 208.2C144.3 206.1 143.4 204 142.6 201.8C142.2 200.7 141.8 199.6 141.5 198.6C141.1 197.5 140.8 196.5 140.5 195.2L151.5 192.3Z" fill="#B65B52"/>
<path d="M146.5 187.1C149.7 188.2 152.5 192.7 160.4 210.9C160.4 210.9 161.7 213.1 168.1 214.5L167.5 224.7C167.5 224.7 158.3 224.3 156.2 222.8C154.1 221.3 141.3 200.3 141.3 200.3L146.5 187.1Z" fill="#263238"/>
<path opacity="0.2" d="M168.2 214.5L167.6 224.7C167.6 224.7 160.2 224.4 157.2 223.3C156.8 223.2 156.5 223 156.3 222.9C155.1 222 150.3 214.6 146.5 208.6C143.7 204.2 141.4 200.5 141.4 200.5L146.6 187.3C149.8 188.4 152.6 192.9 160.5 211.1C160.5 210.8 161.8 213.1 168.2 214.5Z" fill="white"/>
<path opacity="0.2" d="M157.2 223.2C156.8 223.1 156.5 222.9 156.3 222.8C155.1 221.9 150.3 214.5 146.5 208.5C148.1 202.8 150 198.3 150 198.3C150 198.3 157.3 213 157.2 223.2Z" fill="black"/>
<path d="M180.5 216.6L187.7 214L186.8 223.6C186.8 223.6 180.2 224.4 179.4 221L180.5 216.6Z" fill="#B55B52"/>
<path d="M193.6 216L192.6 223.9L186.8 223.6L187.7 214L193.6 216Z" fill="#B55B52"/>
<path d="M168.2 214L171.9 215.1L170.6 225L166.9 225.7L168.2 214Z" fill="#263238"/>
<path d="M151.7 250.1C151.7 250.1 200.1 269.2 211.3 277.2C222.6 285.2 250.9 339 250.9 339L239.2 348C239.2 348 205.4 298.9 201.2 295.5C197.1 292.2 143.2 275.6 143.2 275.6L151.7 250.1Z" fill="#F62E5F"/>
<path opacity="0.4" d="M251 339L239.3 348C239.3 348 231.4 336.5 222.8 324.3C213.6 311.2 203.5 297.2 201.4 295.5C198.4 293.1 168.7 283.6 153 278.6C147.2 276.8 143.3 275.6 143.3 275.6L151.8 250.1C151.8 250.1 200.2 269.2 211.4 277.2C222.6 285.2 251 339 251 339Z" fill="white"/>
<path d="M253.2 358.2L258.8 352.6L249.6 338.3L243.9 343.9L253.2 358.2Z" fill="#B55B52"/>
<path opacity="0.2" d="M243.9 343.9L249.6 338.3L254.8 346.4L249 351.8L243.9 343.9Z" fill="black"/>
<path d="M259.8 351.9C259.8 351.9 259.8 352 259.8 351.9C259.9 351.9 259.9 351.9 259.9 351.9C260.6 351.7 261.2 351.3 261.8 351C262.3 350.8 262.6 350.3 262.8 349.8C262.9 349.4 262.7 349 262.4 348.8C262.2 348.6 262 348.5 261.7 348.6C261.1 348.7 260.6 349.5 260.2 350.3C260.2 349.5 260.1 348.7 259.7 348.4C259.5 348.2 259.1 348.1 258.8 348.3C258.5 348.4 258.4 348.6 258.3 348.9C258.1 350 259.5 351.7 259.6 351.8L259.7 351.7L259.6 351.8C259.8 351.8 259.7 351.9 259.8 351.9C259.7 351.9 259.8 351.9 259.8 351.9ZM259.8 351.2C259.8 351.3 259.7 351.3 259.7 351.4C259.3 350.8 258.6 349.7 258.7 349C258.7 348.9 258.8 348.7 258.9 348.6H259C259.2 348.5 259.4 348.5 259.4 348.6C259.9 349 260 350.3 259.8 351.2ZM260.2 351.4C260.6 350.4 261.4 349.1 261.9 349C262 349 262.1 349 262.2 349.1C262.4 349.2 262.5 349.5 262.5 349.7C262.4 350.3 261.5 350.9 260.2 351.4Z" fill="#F62E5F"/>
<path d="M258.7 351.4L251.2 356.4C250.9 356.6 250.8 356.9 251 357.2L254.6 363.4C255 364 255.9 364.2 256.5 363.8C259.1 362 260.2 361 263.5 358.8C265.5 357.4 269.6 355 272.1 352.7C274.6 350.4 272.2 348 271 348.8C268 350.6 262.9 351.3 260.1 351.1C259.6 351 259.1 351.1 258.7 351.4Z" fill="#263238"/>
<path d="M239.8 352L254.5 342.2L251.1 335.3L235.2 346.3L239.8 352Z" fill="#F62E5F"/>
<path opacity="0.2" d="M239.8 352L254.5 342.2L251.1 335.3L235.2 346.3L239.8 352Z" fill="white"/>
<path opacity="0.2" d="M222.8 324.3C213.6 311.2 203.5 297.2 201.4 295.5C198.4 293.1 168.7 283.6 153 278.6L151.2 259.5L156.9 258.5L157.5 260C157.5 260 193.4 268.1 203.5 273.2C210 276.6 218.8 308.7 222.8 324.3Z" fill="black"/>
<path d="M220.6 353.8C220.6 353.8 220.6 353.9 220.6 353.8C220.7 353.8 220.7 353.8 220.7 353.8C221.4 353.8 222.1 353.7 222.8 353.5C223.3 353.4 223.8 353.2 224.2 352.7C224.4 352.4 224.4 352 224.2 351.6C224.1 351.4 223.9 351.2 223.7 351.2C223.1 351.1 222.4 351.7 221.7 352.3C222 351.6 222.1 350.8 221.9 350.3C221.8 350 221.4 349.8 221.1 349.9C220.8 349.9 220.6 350.1 220.4 350.3C219.8 351.2 220.6 353.4 220.7 353.5L220.8 353.4L220.7 353.5C220.7 353.7 220.5 353.8 220.6 353.8ZM220.9 353.2C220.9 353.3 220.8 353.3 220.8 353.3C220.6 352.6 220.3 351.3 220.7 350.8C220.8 350.7 220.9 350.6 221 350.5H221.1C221.4 350.5 221.5 350.6 221.5 350.7C221.7 351.1 221.4 352.4 220.9 353.2ZM221.1 353.5C221.9 352.7 223 351.7 223.5 351.8C223.6 351.8 223.7 351.9 223.8 352C223.9 352.2 223.9 352.5 223.8 352.7C223.6 353.1 222.6 353.4 221.1 353.5Z" fill="#F62E5F"/>
<path d="M212.3 357.6L219.5 354.1L215.2 336.9L208 340.4L212.3 357.6Z" fill="#B55B52"/>
<path opacity="0.2" d="M208 340.4L215.2 336.9L217.6 346.7L210.3 349.9L208 340.4Z" fill="black"/>
<path d="M219.7 353L211 355.2C210.7 355.3 210.5 355.6 210.6 355.9L212 362.9C212.2 363.6 213 364.1 213.7 363.9C216.7 363.1 218.1 362.5 221.9 361.5C224.2 360.9 228.9 359.9 232 358.6C235.1 357.3 233.7 354.3 232.2 354.5C228.8 355.2 223.7 354.2 221.1 353.1C220.7 352.9 220.2 352.9 219.7 353Z" fill="#263238"/>
<path d="M218.7 340.2C218.7 340.2 206.5 279 204 275.3C199.9 269.3 151.1 259.6 151.1 259.6L156.8 258.6L150.2 241L106.7 242.7C106.7 242.7 107.6 271.4 112 279.1C116.4 286.8 181.8 290.3 186.1 292.1C190.3 293.8 203.3 341.9 203.3 341.9L218.7 340.2Z" fill="#F62E5F"/>
<path opacity="0.4" d="M218.7 340.2C218.7 340.2 206.5 279 204 275.3C199.9 269.3 151.1 259.6 151.1 259.6L156.8 258.6L150.2 241L106.7 242.7C106.7 242.7 107.6 271.4 112 279.1C116.4 286.8 181.8 290.3 186.1 292.1C190.3 293.8 203.3 341.9 203.3 341.9L218.7 340.2Z" fill="white"/>
<path d="M203.6 347.4L220.7 343L219.8 335.4L201.2 340.5L203.6 347.4Z" fill="#F62E5F"/>
<path opacity="0.2" d="M203.6 347.4L220.7 343L219.8 335.4L201.2 340.5L203.6 347.4Z" fill="white"/>
<path d="M120.5 243.4L107.9 243.2L107.6 247L121.1 247.4L120.5 243.4Z" fill="#263238"/>
<path d="M122.5 243.4L123 247.3L151.1 246.9L150.2 243.3L122.5 243.4Z" fill="#263238"/>
<path d="M136 244.1L136.4 246.7C136.5 247.3 137.1 247.8 137.7 247.8L142.2 247.7C142.9 247.7 143.3 247.1 143.2 246.5L142.8 243.9C142.7 243.3 142.1 242.8 141.5 242.8L137 242.9C136.4 242.9 135.9 243.4 136 244.1Z" fill="white"/>
<path d="M107.9 242.7H149.2C150.2 242.7 151.1 241.9 151.2 240.9C156.3 200.9 146.6 187.1 146.6 187.1C142.9 186 139.1 185.3 135.3 184.8C129.7 184.4 124.1 184.2 118.5 184.4C114.7 184.5 110.9 184.9 107.1 185.5C105.1 186.4 103 195.3 105.1 223C105.6 230.3 105.7 236.6 105.7 240.2C105.5 241.6 106.6 242.7 107.9 242.7Z" fill="#263238"/>
<path d="M140.8 201.2H148.7L149.3 210.7L145.1 213.5L140.8 211.4V201.2Z" fill="#263238"/>
<path opacity="0.2" d="M151.2 240.9C151.1 241.9 150.2 242.7 149.2 242.7H107.9C106.6 242.7 105.5 241.6 105.6 240.3C105.7 236.6 105.6 230.3 105 223.1C104.7 219.1 104.5 215.5 104.4 212.3C104.1 204.4 104.2 198.7 104.5 194.6C105 188.6 106 186.1 107.1 185.6C110.9 184.9 114.7 184.6 118.5 184.5C124.1 184.3 129.7 184.4 135.3 184.9C139.1 185.4 142.9 186.2 146.6 187.2C146.5 187.1 156.3 200.9 151.2 240.9Z" fill="white"/>
<path d="M118.8 184L132.1 188.5L132.6 184.7C131.3 182.4 131 181 132.1 178.3L123.2 168.1C123.5 173.4 122.5 180.5 118.8 184Z" fill="#B55B52"/>
<path d="M127.2 190.5L129.8 191.6L132.1 193C132.1 193 135.1 210.5 134.3 225.2L136.9 227.3L139.6 225.1C139.6 225.1 136.2 198 135 192.8L135.5 191.5L136.7 188.9L134.4 187.7L130.8 188.5H128.3L127.2 190.5Z" fill="white"/>
<path opacity="0.2" d="M126.9 172.3L132.2 178.4C131.8 179.3 131.5 180.3 131.2 181.3C129 180.6 126.2 177.7 126.3 175.2C126.3 174.2 126.5 173.2 126.9 172.3Z" fill="black"/>
<path d="M119.6 181.6C119.6 181.6 124.8 185.2 131.6 187.8C131.6 187.8 132.4 184.8 131.6 182.1L137.5 185C137.5 185 138 189.6 136.6 191.9L132.3 188.7L127.4 192.7C127.4 192.7 118.2 189.1 116.8 184.3L119.6 181.6Z" fill="#263238"/>
<path opacity="0.2" d="M149.6 217.1L135.9 228.1C116.3 232.5 107.7 220.3 104.3 212.3C104 204.4 104.1 198.7 104.4 194.6C109.1 194.4 114.9 194.4 116.5 195.6C119.3 197.7 128.8 212.5 130.3 213.6C131.8 214.6 149.6 217.1 149.6 217.1Z" fill="black"/>
<path d="M157.4 216.5L164.6 213.9L163.7 223.5C163.7 223.5 157.1 224.3 156.3 220.9L157.4 216.5Z" fill="#B55B52"/>
<path d="M170.5 215.9L169.4 223.8L163.7 223.5L164.6 213.9L170.5 215.9Z" fill="#B55B52"/>
<path d="M115.7 197.2L117.3 200.3C117.9 201.3 118.4 202.4 119 203.4C120.2 205.5 121.4 207.5 122.6 209.4C123.9 211.3 125.2 213.1 126.5 214.5C127.2 215.2 127.8 215.8 128.4 216.2C128.6 216.3 128.6 216.3 128.7 216.4C128.7 216.4 128.9 216.5 129 216.6C129.1 216.7 129.4 216.7 129.5 216.8L130.1 217C131.9 217.4 134.3 217.5 136.6 217.6C139 217.6 141.4 217.6 143.8 217.5C148.7 217.3 153.6 216.9 158.5 216.4L159.7 221.9C154.8 223.5 149.9 224.8 144.8 225.7C142.3 226.2 139.7 226.6 137 226.8C134.3 227 131.6 227.2 128.5 226.9C128.1 226.8 127.7 226.8 127.3 226.7C126.9 226.6 126.5 226.5 126 226.4C125.5 226.2 125.1 226.1 124.6 225.9C124.1 225.7 123.5 225.4 123.2 225.2C121.6 224.3 120.3 223.3 119.1 222.3C116.8 220.2 115 218.1 113.4 215.9C111.8 213.7 110.3 211.5 109 209.2C108.3 208.1 107.7 206.9 107.1 205.7C106.5 204.5 105.9 203.4 105.3 202.1L115.7 197.2Z" fill="#B65B52"/>
<path d="M107 185.5C94.1 190.2 110.8 222.3 117.9 225.9C124.9 229.5 136.8 228 136.8 228L137.6 216.8C137.6 216.8 131.4 216.1 129.6 215.6C126.7 214.9 120.7 202 116.8 194.9C112.9 187.8 107 185.5 107 185.5Z" fill="#263238"/>
<path opacity="0.2" d="M107 185.5C94.1 190.2 110.8 222.3 117.9 225.9C124.9 229.5 136.8 228 136.8 228L137.6 216.8C137.6 216.8 131.4 216.1 129.6 215.6C126.7 214.9 120.7 202 116.8 194.9C112.9 187.8 107 185.5 107 185.5Z" fill="white"/>
<path d="M136 216L134.9 229L138.6 228.3L139.6 216.7L136 216Z" fill="#263238"/>
<path d="M146.2 157.6C146.7 160.6 145.4 166.4 141.7 164C137.9 161.5 145.3 152.4 146.2 157.6Z" fill="#263238"/>
<path d="M125 158.7C123.6 166 122.3 170.2 125 174.8C129 181.7 138.8 180.7 142.4 173.9C145.6 167.8 147.5 156.9 141.1 152.2C134.9 147.7 126.4 151.3 125 158.7Z" fill="#B55B52"/>
<path d="M121.5 150.6L129.8 150.2L130 155C129.8 154.9 129.7 154.8 129.5 154.7C129.5 154.7 129 161.6 125 164C119.6 159.9 118.1 153.2 121.5 150.6Z" fill="#263238"/>
<path d="M120.6 163.9C120.7 165.9 121.7 167.7 122.9 168.8C124.8 170.4 126.8 169 127.2 166.7C127.6 164.6 127 161.2 124.7 160.5C122.5 159.8 120.5 161.6 120.6 163.9Z" fill="#B55B52"/>
<path d="M135.4 163.4C135.2 164 135.4 164.5 135.8 164.6C136.2 164.7 136.6 164.3 136.8 163.7C137 163.1 136.8 162.6 136.4 162.5C136 162.4 135.6 162.8 135.4 163.4Z" fill="#263238"/>
<path d="M142.1 165.1C141.9 165.7 142.1 166.2 142.5 166.3C142.9 166.4 143.3 166 143.5 165.4C143.7 164.8 143.5 164.3 143.1 164.2C142.7 164.1 142.2 164.5 142.1 165.1Z" fill="#263238"/>
<path d="M139.9 164.9C139.9 164.9 140.4 168.5 141.5 170.5C140.2 171.2 138.6 170.3 138.6 170.3L139.9 164.9Z" fill="#A02724"/>
<path d="M134.8 171.6C135 171.7 135.3 171.8 135.6 171.8C135.7 171.8 135.8 171.8 135.8 171.7C135.8 171.6 135.8 171.5 135.7 171.5C133.1 170.8 132.4 168.7 132.4 168.7C132.4 168.6 132.3 168.6 132.2 168.6C132.1 168.6 132.1 168.7 132.1 168.8C132 169 132.6 170.8 134.8 171.6Z" fill="#263238"/>
<path d="M133.9 160.8C134 160.8 134.2 160.8 134.3 160.7C135.6 159.7 136.8 160.1 136.8 160.1C137 160.2 137.2 160.1 137.3 159.9C137.4 159.7 137.3 159.5 137.1 159.5C137 159.5 135.5 159 133.9 160.2C133.7 160.3 133.7 160.5 133.8 160.7C133.8 160.7 133.9 160.7 133.9 160.8Z" fill="#263238"/>
<path d="M145.5 163.5C145.6 163.5 145.6 163.5 145.7 163.5C145.9 163.5 146 163.3 146 163.1C145.6 161.2 144.1 160.6 144 160.5C143.8 160.4 143.6 160.5 143.5 160.7C143.4 160.9 143.5 161.1 143.7 161.2C143.8 161.2 144.9 161.7 145.2 163.2C145.3 163.4 145.4 163.5 145.5 163.5Z" fill="#263238"/>
<path d="M126.9 156.5C126.9 156.5 127.1 156.7 127.4 156.9C128 157.3 129.2 157.7 130.6 157C132.7 156 133.3 150.1 139.2 153.1C139.2 153.1 141.2 152.5 142.7 154.3C144.2 156.1 143.2 162.9 146.4 162C149.6 161.1 149.1 160.1 149.1 160.1C149.1 160.1 148.2 160.7 147.7 160.2C147.7 160.2 149.4 158.8 148.6 156.8C148.6 156.8 147.8 157.7 147.3 157.5C147.3 157.5 148.3 154.1 146.4 149.4C144.5 144.7 133.1 145.8 133.1 145.8C133.1 145.8 131.7 143.4 126.5 145.1C121.3 146.8 119 153 119.8 155.7" fill="#263238"/>
<path d="M195.2 222.8L194.5 220H164.1L150.2 221.4L149.6 222.8H195.2Z" fill="#263238"/>
<path opacity="0.5" d="M195.2 222.8L194.5 220H164.1L150.2 221.4L149.6 222.8H195.2Z" fill="white"/>
<path opacity="0.2" d="M164.1 220V222.8H195.2L194.5 220H164.1Z" fill="black"/>
<path d="M174.4 206.6C174.3 208.1 175.3 209.3 176.8 209.3H223.3C224.8 209.3 226.1 208.1 226.2 206.6L229 176.9C229 176.6 229 176.3 228.9 176C228.6 175 227.7 174.2 226.6 174.2H180.1C178.6 174.2 177.3 175.4 177.2 176.9L174.4 206.6Z" fill="#263238"/>
<path opacity="0.5" d="M174.4 206.6C174.3 208.1 175.3 209.3 176.8 209.3H223.3C224.8 209.3 226.1 208.1 226.2 206.6L229 176.9C229 176.6 229 176.3 228.9 176C228.6 175 227.7 174.2 226.6 174.2H180.1C178.6 174.2 177.3 175.4 177.2 176.9L174.4 206.6Z" fill="white"/>
<path opacity="0.1" d="M177 209.3H223.3C224.8 209.3 226.1 208.1 226.2 206.6L229 176.9C229 176.6 229 176.3 228.9 176H182.6C181.1 176 179.8 177.2 179.7 178.7L176.9 208.4C176.9 208.8 176.9 209 177 209.3Z" fill="black"/>
<path d="M208.9 191.1H199.3L201.8 218.6L186.6 220.9V222.8H218.6V220.9L212.1 218.6L208.9 191.1Z" fill="#263238"/>
<path opacity="0.5" d="M208.9 191.1H199.3L201.8 218.6L186.6 220.9V222.8H218.6V220.9L212.1 218.6L208.9 191.1Z" fill="white"/>
<path opacity="0.2" d="M199.3 191.1L206.4 222.3L212.1 222.2L208.9 191.1H199.3Z" fill="white"/>
<path d="M119.9 362.2H178.1C178.7 362.2 179.2 361.7 179.2 361.1V357.4C179.2 356.8 178.7 356.3 178.1 356.3H122.9V237.3H177.2C178.4 237.3 179.3 236.4 179.3 235.2V231.3H120C118.3 231.3 117 232.6 117 234.3V359.1C116.9 360.8 118.3 362.2 119.9 362.2Z" fill="#263238"/>
<g opacity="0.4">
<path d="M119.9 362.2H178.1C178.7 362.2 179.2 361.7 179.2 361.1V357.4C179.2 356.8 178.7 356.3 178.1 356.3H122.9V237.3H177.2C178.4 237.3 179.3 236.4 179.3 235.2V231.3H120C118.3 231.3 117 232.6 117 234.3V359.1C116.9 360.8 118.3 362.2 119.9 362.2Z" fill="white"/>
</g>
<path d="M112.5 232.3H265.9C267 232.3 267.8 231.4 267.8 230.4V225.7H110.5V230.4C110.5 231.5 111.4 232.3 112.5 232.3Z" fill="#F62E5F"/>
<path opacity="0.2" d="M110.594 228.977L267.894 228.977V225.677L110.594 225.677V228.977Z" fill="black"/>
<path d="M107.2 226.5H271.1C272.1 226.5 273 225.7 273 224.6C273 223.6 272.2 222.7 271.1 222.7H107.2C106.2 222.7 105.3 223.5 105.3 224.6C105.4 225.7 106.2 226.5 107.2 226.5Z" fill="#F62E5F"/>
</g>
<defs>
<clipPath id="clip0_2274_2117">
<rect width="500" height="364" fill="white"/>
</clipPath>
</defs>
</svg>
