<svg width="36" height="35" viewBox="0 0 36 35" fill="none" xmlns="http://www.w3.org/2000/svg">
<path fill-rule="evenodd" clip-rule="evenodd" d="M2.96042 34.9944C2.96042 34.9944 0 34.9944 0 32.0782C0 29.162 2.96042 20.4134 17.7625 20.4134C32.5646 20.4134 35.525 29.162 35.525 32.0782C35.525 34.9944 32.5646 34.9944 32.5646 34.9944H2.96042ZM17.7625 17.4972C20.118 17.4972 22.3769 16.5755 24.0425 14.9348C25.7081 13.2941 26.6438 11.0689 26.6438 8.7486C26.6438 6.42833 25.7081 4.20309 24.0425 2.56241C22.3769 0.921726 20.118 0 17.7625 0C15.407 0 13.1481 0.921726 11.4825 2.56241C9.81695 4.20309 8.88125 6.42833 8.88125 8.7486C8.88125 11.0689 9.81695 13.2941 11.4825 14.9348C13.1481 16.5755 15.407 17.4972 17.7625 17.4972Z" fill="#ABE9DC"/>
</svg>
