<svg width="15" height="12" viewBox="0 0 15 12" fill="none" xmlns="http://www.w3.org/2000/svg">
<path d="M10.4248 5.05056H13.8354C13.8766 5.05058 13.917 5.06233 13.9517 5.08445C13.9865 5.10657 14.0142 5.13813 14.0317 5.17545C14.0492 5.21276 14.0557 5.25428 14.0504 5.29515C14.0451 5.33602 14.0283 5.37454 14.0019 5.4062L12.2966 7.45328C12.2763 7.47768 12.2508 7.49732 12.222 7.51079C12.1932 7.52426 12.1619 7.53125 12.1301 7.53125C12.0983 7.53125 12.0669 7.52426 12.0381 7.51079C12.0094 7.49732 11.9839 7.47768 11.9635 7.45328L10.2582 5.4062C10.2318 5.37454 10.215 5.33602 10.2098 5.29515C10.2045 5.25428 10.211 5.21276 10.2285 5.17545C10.2459 5.13813 10.2737 5.10657 10.3084 5.08445C10.3432 5.06233 10.3836 5.05058 10.4248 5.05056ZM0.883275 6.78538H4.29392C4.33513 6.78536 4.37547 6.7736 4.41024 6.75149C4.44501 6.72937 4.47275 6.6978 4.49022 6.66049C4.5077 6.62317 4.51418 6.58165 4.50891 6.54078C4.50364 6.49992 4.48683 6.4614 4.46046 6.42974L2.75514 4.38266C2.73479 4.35825 2.70932 4.33862 2.68054 4.32514C2.65176 4.31167 2.62037 4.30469 2.5886 4.30469C2.55682 4.30469 2.52543 4.31167 2.49665 4.32514C2.46787 4.33862 2.44241 4.35825 2.42206 4.38266L0.716732 6.42974C0.690361 6.4614 0.673556 6.49992 0.668286 6.54078C0.663015 6.58165 0.669496 6.62317 0.686971 6.66049C0.704446 6.6978 0.73219 6.72937 0.766956 6.75149C0.801722 6.7736 0.84207 6.78536 0.883275 6.78538Z" fill="black"/>
<path fill-rule="evenodd" clip-rule="evenodd" d="M7.3595 1.58049C6.01328 1.58049 4.80932 2.19386 4.01391 3.15772C3.97839 3.20376 3.93398 3.24219 3.88331 3.27073C3.83265 3.29926 3.77676 3.31731 3.71898 3.32381C3.6612 3.33031 3.6027 3.32512 3.54697 3.30855C3.49123 3.29198 3.4394 3.26437 3.39454 3.22737C3.34969 3.19036 3.31273 3.14471 3.28587 3.09313C3.25901 3.04156 3.2428 2.9851 3.23819 2.92713C3.23358 2.86916 3.24067 2.81085 3.25904 2.75567C3.27742 2.7005 3.3067 2.64958 3.34514 2.60595C3.98025 1.83688 4.82285 1.26644 5.77272 0.962487C6.7226 0.658532 7.73977 0.633849 8.70327 0.891376C9.66676 1.1489 10.536 1.6778 11.2077 2.41516C11.8793 3.15252 12.3251 4.06732 12.4919 5.05074H11.6098C11.4095 4.0711 10.8772 3.19068 10.1027 2.55836C9.32825 1.92604 8.35923 1.58061 7.3595 1.58049ZM3.1092 6.78587C3.27341 7.58804 3.66118 8.32737 4.22771 8.91846C4.79423 9.50954 5.5164 9.92826 6.31077 10.1262C7.10515 10.3242 7.93931 10.2934 8.7169 10.0372C9.49448 9.78113 10.1838 9.31021 10.7051 8.67889C10.7406 8.63284 10.785 8.59441 10.8357 8.56588C10.8864 8.53735 10.9422 8.5193 11 8.5128C11.0578 8.5063 11.1163 8.51149 11.172 8.52806C11.2278 8.54463 11.2796 8.57223 11.3245 8.60924C11.3693 8.64625 11.4063 8.6919 11.4331 8.74347C11.46 8.79505 11.4762 8.85151 11.4808 8.90948C11.4854 8.96745 11.4783 9.02576 11.46 9.08093C11.4416 9.13611 11.4123 9.18703 11.3739 9.23066C10.7388 9.99973 9.89615 10.5702 8.94628 10.8741C7.9964 11.1781 6.97923 11.2028 6.01573 10.9452C5.05224 10.6877 4.18297 10.1588 3.51132 9.42145C2.83968 8.68409 2.39391 7.76929 2.22705 6.78587H3.1092Z" fill="black"/>
</svg>
