<svg width="12" height="12" viewBox="0 0 12 12" fill="none" xmlns="http://www.w3.org/2000/svg">
<path fill-rule="evenodd" clip-rule="evenodd" d="M11.3087 1.13232C11.3334 1.07079 11.3394 1.0034 11.3261 0.938481C11.3128 0.873565 11.2807 0.813984 11.2338 0.767125C11.187 0.720267 11.1274 0.688191 11.0625 0.674875C10.9975 0.661558 10.9302 0.667586 10.8686 0.692212L1.0191 4.63216H1.01842L0.712379 4.75403C0.654414 4.77716 0.603969 4.81585 0.566614 4.86584C0.529259 4.91583 0.50645 4.97518 0.500705 5.03732C0.49496 5.09946 0.506504 5.16198 0.534061 5.21797C0.561617 5.27397 0.604115 5.32125 0.656859 5.35461L0.934463 5.53065L0.93514 5.532L4.31717 7.68377L6.46894 11.0658L6.4703 11.0672L6.64634 11.3448C6.6798 11.3973 6.72711 11.4396 6.78306 11.467C6.83901 11.4944 6.90144 11.5058 6.96346 11.5C7.02548 11.4942 7.08469 11.4713 7.13458 11.434C7.18448 11.3967 7.22311 11.3464 7.24623 11.2886L11.3087 1.13232ZM10.0676 2.412L10.3865 1.6144L9.58894 1.93331L4.51488 7.00737L4.74373 7.15294C4.78573 7.17961 4.82133 7.21522 4.848 7.25721L4.99358 7.48607L10.0676 2.412Z" fill="black"/>
</svg>
