<svg width="20" height="20" viewBox="0 0 20 20" fill="none" xmlns="http://www.w3.org/2000/svg">
<path d="M8.83514 0.909375C9.13889 -0.303125 10.8601 -0.303125 11.1651 0.909375L11.2539 1.26688C11.3058 1.47463 11.4124 1.66471 11.5626 1.81738C11.7127 1.97006 11.901 2.07976 12.1079 2.13512C12.3148 2.19047 12.5327 2.18945 12.739 2.13217C12.9454 2.0749 13.1326 1.96344 13.2814 1.80938L13.5376 1.54563C14.4064 0.646875 15.8976 1.50813 15.5539 2.70938L15.4539 3.06438C15.395 3.27019 15.3923 3.488 15.4459 3.69523C15.4996 3.90246 15.6077 4.09156 15.7591 4.24293C15.9105 4.3943 16.0996 4.50242 16.3068 4.55608C16.514 4.60975 16.7318 4.607 16.9376 4.54813L17.2914 4.44688C18.4914 4.10313 19.3539 5.59438 18.4551 6.46313L18.1914 6.71938C18.0373 6.86812 17.9259 7.05538 17.8686 7.26173C17.8113 7.46808 17.8103 7.68599 17.8657 7.89286C17.921 8.09974 18.0307 8.28803 18.1834 8.4382C18.3361 8.58837 18.5261 8.69495 18.7339 8.74688L19.0914 8.83563C20.3039 9.13938 20.3039 10.8606 19.0914 11.1656L18.7339 11.2544C18.5261 11.3063 18.3361 11.4129 18.1834 11.5631C18.0307 11.7132 17.921 11.9015 17.8657 12.1084C17.8103 12.3153 17.8113 12.5332 17.8686 12.7395C17.9259 12.9459 18.0373 13.1331 18.1914 13.2819L18.4551 13.5381C19.3539 14.4069 18.4926 15.8981 17.2914 15.5544L16.9364 15.4544C16.7306 15.3955 16.5128 15.3928 16.3055 15.4464C16.0983 15.5001 15.9092 15.6082 15.7578 15.7596C15.6065 15.9109 15.4984 16.1 15.4447 16.3073C15.391 16.5145 15.3938 16.7323 15.4526 16.9381L15.5539 17.2919C15.8976 18.4919 14.4064 19.3544 13.5376 18.4556L13.2814 18.1919C13.1326 18.0378 12.9454 17.9264 12.739 17.8691C12.5327 17.8118 12.3148 17.8108 12.1079 17.8661C11.901 17.9215 11.7127 18.0312 11.5626 18.1839C11.4124 18.3365 11.3058 18.5266 11.2539 18.7344L11.1651 19.0919C10.8614 20.3044 9.14014 20.3044 8.83514 19.0919L8.74639 18.7344C8.69446 18.5266 8.58788 18.3365 8.43771 18.1839C8.28754 18.0312 8.09925 17.9215 7.89238 17.8661C7.6855 17.8108 7.46759 17.8118 7.26124 17.8691C7.05489 17.9264 6.86763 18.0378 6.71889 18.1919L6.46264 18.4556C5.59389 19.3544 4.10264 18.4931 4.44639 17.2919L4.54639 16.9369C4.60515 16.7312 4.60786 16.5135 4.55424 16.3065C4.50063 16.0994 4.39263 15.9104 4.24144 15.7591C4.09024 15.6078 3.90135 15.4996 3.69431 15.4458C3.48727 15.392 3.26962 15.3945 3.06389 15.4531L2.70889 15.5544C1.50889 15.8981 0.646387 14.4069 1.54514 13.5381L1.80889 13.2819C1.96295 13.1331 2.07441 12.9459 2.13169 12.7395C2.18897 12.5332 2.18998 12.3153 2.13463 12.1084C2.07927 11.9015 1.96957 11.7132 1.8169 11.5631C1.66422 11.4129 1.47415 11.3063 1.26639 11.2544L0.908887 11.1656C-0.303613 10.8619 -0.303613 9.14063 0.908887 8.83563L1.26639 8.74688C1.47415 8.69495 1.66422 8.58837 1.8169 8.4382C1.96957 8.28803 2.07927 8.09974 2.13463 7.89286C2.18998 7.68599 2.18897 7.46808 2.13169 7.26173C2.07441 7.05538 1.96295 6.86812 1.80889 6.71938L1.54514 6.46313C0.646387 5.59438 1.50764 4.10313 2.70889 4.44688L3.06389 4.54688C3.26957 4.60564 3.48722 4.60835 3.6943 4.55473C3.90139 4.50112 4.09037 4.39312 4.24169 4.24192C4.39302 4.09073 4.50117 3.90183 4.55496 3.6948C4.60875 3.48776 4.60623 3.27011 4.54764 3.06438L4.44639 2.70938C4.10264 1.50938 5.59389 0.646875 6.46264 1.54563L6.71889 1.80938C6.86763 1.96344 7.05489 2.0749 7.26124 2.13217C7.46759 2.18945 7.6855 2.19047 7.89238 2.13512C8.09925 2.07976 8.28754 1.97006 8.43771 1.81738C8.58788 1.66471 8.69446 1.47463 8.74639 1.26688L8.83514 0.909375ZM16.2164 10.6256H10.3126L6.77014 15.3494C7.67248 15.8944 8.69807 16.2022 9.7514 16.2442C10.8047 16.2861 11.8515 16.0609 12.7944 15.5894C13.7372 15.1179 14.5455 14.4155 15.1438 13.5476C15.7421 12.6797 16.1111 11.6745 16.2164 10.6256ZM16.2164 9.37563C16.1111 8.32673 15.7421 7.32154 15.1438 6.45363C14.5455 5.58572 13.7372 4.88333 12.7944 4.41184C11.8515 3.94035 10.8047 3.71511 9.7514 3.75708C8.69807 3.79905 7.67248 4.10687 6.77014 4.65188L10.3126 9.37688H16.2164V9.37563ZM6.31014 4.95938C6.27264 4.98563 6.23764 5.01313 6.20139 5.04063L6.31014 4.95938ZM5.77139 5.40313C5.13434 5.98746 4.62587 6.69798 4.27833 7.48949C3.93078 8.281 3.75175 9.13618 3.75264 10.0006C3.75264 11.8194 4.53014 13.4569 5.77139 14.5981L9.21889 10.0006L5.77139 5.40313ZM6.20139 14.9606L6.31014 15.0419L6.20139 14.9606Z" fill="#575454"/>
</svg>
