<svg width="17" height="3" viewBox="0 0 17 3" fill="none" xmlns="http://www.w3.org/2000/svg">
<path d="M3.40009 1.50004C3.40009 0.67163 2.63895 7.31945e-05 1.70004 7.31945e-05C0.761136 7.31945e-05 0 0.67163 0 1.50004C0 2.32844 0.761136 3 1.70004 3C2.63895 3 3.40009 2.32844 3.40009 1.50004Z" fill="#262626"/>
<path d="M10.1999 1.50004C10.1999 0.67163 9.43876 7.31945e-05 8.49985 7.31945e-05C7.56094 7.31945e-05 6.7998 0.67163 6.7998 1.50004C6.7998 2.32844 7.56094 3 8.49985 3C9.43876 3 10.1999 2.32844 10.1999 1.50004Z" fill="#262626"/>
<path d="M16.9997 1.50004C16.9997 0.67163 16.2386 7.31945e-05 15.2997 7.31945e-05C14.3607 7.31945e-05 13.5996 0.67163 13.5996 1.50004C13.5996 2.32844 14.3607 3 15.2997 3C16.2386 3 16.9997 2.32844 16.9997 1.50004Z" fill="#262626"/>
</svg>
