<svg width="36" height="28" viewBox="0 0 36 28" fill="none" xmlns="http://www.w3.org/2000/svg">
<path fill-rule="evenodd" clip-rule="evenodd" d="M2.25 27.5C2.25 27.5 0 27.5 0 25.25C0 23 2.25 16.25 13.5 16.25C24.75 16.25 27 23 27 25.25C27 27.5 24.75 27.5 24.75 27.5H2.25ZM13.5 14C15.2902 14 17.0071 13.2888 18.273 12.023C19.5388 10.7571 20.25 9.04021 20.25 7.25C20.25 5.45979 19.5388 3.7429 18.273 2.47703C17.0071 1.21116 15.2902 0.5 13.5 0.5C11.7098 0.5 9.9929 1.21116 8.72703 2.47703C7.46116 3.7429 6.75 5.45979 6.75 7.25C6.75 9.04021 7.46116 10.7571 8.72703 12.023C9.9929 13.2888 11.7098 14 13.5 14ZM27.3285 7.5785C27.433 7.47373 27.5571 7.39061 27.6938 7.3339C27.8305 7.27718 27.977 7.24799 28.125 7.24799C28.273 7.24799 28.4195 7.27718 28.5562 7.3339C28.6929 7.39061 28.817 7.47373 28.9215 7.5785L31.5 10.1593L34.0785 7.5785C34.2897 7.36725 34.5763 7.24858 34.875 7.24858C35.1737 7.24858 35.4603 7.36725 35.6715 7.5785C35.8827 7.78974 36.0014 8.07625 36.0014 8.375C36.0014 8.67375 35.8827 8.96026 35.6715 9.1715L33.0907 11.75L35.6715 14.3285C35.8827 14.5397 36.0014 14.8263 36.0014 15.125C36.0014 15.4237 35.8827 15.7103 35.6715 15.9215C35.4603 16.1327 35.1737 16.2514 34.875 16.2514C34.5763 16.2514 34.2897 16.1327 34.0785 15.9215L31.5 13.3407L28.9215 15.9215C28.7103 16.1327 28.4237 16.2514 28.125 16.2514C27.8263 16.2514 27.5397 16.1327 27.3285 15.9215C27.1173 15.7103 26.9986 15.4237 26.9986 15.125C26.9986 14.8263 27.1173 14.5397 27.3285 14.3285L29.9093 11.75L27.3285 9.1715C27.2237 9.067 27.1406 8.94285 27.0839 8.80618C27.0272 8.6695 26.998 8.52298 26.998 8.375C26.998 8.22702 27.0272 8.0805 27.0839 7.94382C27.1406 7.80715 27.2237 7.683 27.3285 7.5785Z" fill="#ABE9DC"/>
</svg>
