<svg width="26" height="26" viewBox="0 0 26 26" fill="none" xmlns="http://www.w3.org/2000/svg">
<g clip-path="url(#clip0_2871_4991)">
<path d="M18.3752 22.375V20.2917C18.3752 19.1866 17.9362 18.1268 17.1548 17.3454C16.3734 16.564 15.3136 16.125 14.2085 16.125H5.87516C4.77009 16.125 3.71029 16.564 2.92888 17.3454C2.14748 18.1268 1.7085 19.1866 1.7085 20.2917V22.375" stroke="black" stroke-width="1.66667" stroke-linecap="round" stroke-linejoin="round"/>
<path d="M10.0417 11.9583C12.3429 11.9583 14.2083 10.0929 14.2083 7.79167C14.2083 5.49048 12.3429 3.625 10.0417 3.625C7.74048 3.625 5.875 5.49048 5.875 7.79167C5.875 10.0929 7.74048 11.9583 10.0417 11.9583Z" stroke="black" stroke-width="1.66667" stroke-linecap="round" stroke-linejoin="round"/>
<path d="M24.625 22.3753V20.292C24.6243 19.3688 24.317 18.472 23.7514 17.7423C23.1858 17.0127 22.3939 16.4915 21.5 16.2607" stroke="black" stroke-width="1.66667" stroke-linecap="round" stroke-linejoin="round"/>
<path d="M17.3333 3.76074C18.2295 3.99022 19.0239 4.51147 19.5912 5.24232C20.1585 5.97316 20.4664 6.87202 20.4664 7.7972C20.4664 8.72238 20.1585 9.62124 19.5912 10.3521C19.0239 11.0829 18.2295 11.6042 17.3333 11.8337" stroke="black" stroke-width="1.66667" stroke-linecap="round" stroke-linejoin="round"/>
</g>
<defs>
<clipPath id="clip0_2871_4991">
<rect width="25" height="25" fill="white" transform="translate(0.666748 0.5)"/>
</clipPath>
</defs>
</svg>
