<svg width="28" height="16" viewBox="0 0 28 16" fill="none" xmlns="http://www.w3.org/2000/svg">
<path d="M15.6825 1.18211C15.9994 0.880359 16.4212 0.713539 16.8588 0.71685C17.2964 0.720161 17.7156 0.893345 18.028 1.19986C18.3403 1.50637 18.5214 1.92223 18.533 2.3597C18.5445 2.79717 18.3857 3.22202 18.09 3.54461L9.11249 14.7721C8.95812 14.9384 8.7718 15.0718 8.56468 15.1644C8.35757 15.2571 8.1339 15.307 7.90705 15.3112C7.68021 15.3154 7.45485 15.2738 7.24444 15.1889C7.03404 15.104 6.84291 14.9775 6.68249 14.8171L0.728988 8.86361C0.563193 8.70912 0.430213 8.52282 0.337981 8.31582C0.245749 8.10882 0.196155 7.88537 0.192157 7.65878C0.188159 7.4322 0.22984 7.20714 0.314712 6.99701C0.399584 6.78689 0.52591 6.59601 0.686152 6.43577C0.846394 6.27553 1.03727 6.14921 1.24739 6.06433C1.45752 5.97946 1.68258 5.93778 1.90916 5.94178C2.13575 5.94578 2.3592 5.99537 2.5662 6.0876C2.7732 6.17983 2.9595 6.31281 3.11399 6.47861L7.82549 11.1879L15.6375 1.23161C15.6515 1.21424 15.6665 1.19771 15.6825 1.18211ZM13.6125 12.7471L15.6825 14.8171C15.8429 14.9772 16.0339 15.1033 16.2441 15.188C16.4542 15.2727 16.6793 15.3142 16.9059 15.31C17.1325 15.3058 17.3559 15.256 17.5628 15.1636C17.7697 15.0712 17.9559 14.938 18.1102 14.7721L27.0922 3.54461C27.2536 3.38531 27.3812 3.19513 27.4674 2.98543C27.5536 2.77572 27.5967 2.5508 27.594 2.32407C27.5914 2.09735 27.5431 1.87349 27.452 1.66585C27.3609 1.45822 27.2289 1.27107 27.0639 1.11557C26.8989 0.960083 26.7042 0.839442 26.4916 0.760854C26.2789 0.682267 26.0525 0.647346 25.8261 0.658176C25.5996 0.669007 25.3776 0.725367 25.1734 0.823891C24.9692 0.922414 24.7869 1.06108 24.6375 1.23161L16.8232 11.1879L15.732 10.0944L13.6102 12.7471H13.6125Z" fill="black"/>
</svg>
